<?xml version="1.0" standalone="no"?>
<!DOCTYPE svg PUBLIC "-//W3C//DTD SVG 20010904//EN"
 "http://www.w3.org/TR/2001/REC-SVG-20010904/DTD/svg10.dtd">
<svg version="1.0" xmlns="http://www.w3.org/2000/svg"
 width="512.000000pt" height="512.000000pt" viewBox="0 0 512.000000 512.000000"
 preserveAspectRatio="xMidYMid meet">
<g transform="translate(0.000000,512.000000) scale(0.100000,-0.100000)"
fill="#FFFFFF" stroke="none">
<path d="M1641 5104 c-83 -22 -165 -71 -224 -133 -99 -104 -137 -210 -137
-383 l0 -108 -268 0 c-208 0 -281 -3 -327 -15 -172 -45 -305 -179 -350 -352
-23 -86 -23 -3660 0 -3746 45 -173 178 -307 350 -352 52 -13 228 -15 1395 -15
1470 0 1390 -3 1511 61 32 17 83 57 112 88 99 104 137 210 137 383 l0 108 268
0 c296 0 339 6 443 61 70 38 157 126 193 197 59 116 56 33 56 1655 0 1066 -3
1495 -11 1510 -16 31 -1008 1025 -1041 1043 -41 21 -2027 20 -2107 -2z m1879
-572 c0 -296 6 -339 61 -443 38 -70 126 -157 197 -193 99 -50 144 -56 434 -56
l268 0 -2 -1389 c-3 -1386 -3 -1390 -24 -1417 -11 -15 -33 -37 -48 -48 -26
-20 -43 -21 -297 -24 l-269 -3 0 1221 c0 871 -3 1228 -11 1243 -16 31 -1008
1025 -1041 1043 -23 12 -122 14 -608 14 l-580 0 0 94 c0 102 9 137 43 175 48
52 17 50 980 51 l897 0 0 -268z m603 -370 c-154 -4 -183 1 -224 35 -51 43 -59
76 -59 235 l0 143 205 -205 205 -205 -127 -3z m-1563 -270 c0 -296 6 -339 61
-443 38 -70 126 -157 197 -193 99 -50 144 -56 434 -56 l268 0 -2 -1389 c-3
-1386 -3 -1390 -24 -1417 -11 -15 -33 -37 -48 -48 -27 -21 -30 -21 -1366 -21
-1336 0 -1339 0 -1366 21 -15 11 -37 33 -48 48 l-21 27 -3 1792 c-1 986 0
1806 3 1824 7 40 49 91 90 109 24 11 204 13 928 14 l897 0 0 -268z m603 -370
c-154 -4 -183 1 -224 35 -51 43 -59 76 -59 235 l0 143 205 -205 205 -205 -127
-3z"/>
<path d="M1055 2866 c-67 -29 -105 -106 -91 -181 9 -47 59 -102 104 -115 25
-8 353 -10 1034 -8 989 3 997 3 1024 24 53 39 69 71 69 134 0 63 -16 95 -69
134 -27 21 -35 21 -1034 23 -822 2 -1013 0 -1037 -11z"/>
<path d="M1055 2226 c-67 -29 -105 -106 -91 -181 9 -47 59 -102 104 -115 25
-8 353 -10 1034 -8 989 3 997 3 1024 24 53 39 69 71 69 134 0 63 -16 95 -69
134 -27 21 -35 21 -1034 23 -822 2 -1013 0 -1037 -11z"/>
<path d="M1055 1586 c-67 -29 -105 -106 -91 -181 9 -47 59 -102 104 -115 25
-8 209 -10 554 -8 504 3 517 4 544 24 53 39 69 71 69 134 0 63 -16 95 -69 134
-27 21 -40 21 -554 23 -423 2 -533 0 -557 -11z"/>
</g>
</svg>
