<svg xmlns="http://www.w3.org/2000/svg" fill="none" viewBox="0 0 637 461"><path fill="#fff" d="M0 0h637v461H0z"/><circle cx="602.5" cy="88.5" r="22.5" fill="#000"/><circle cx="602.5" cy="427.5" r="22.5" fill="#000"/><circle cx="602.5" cy="314.5" r="22.5" fill="#000"/><circle cx="545.5" cy="32.5" r="22.5" fill="#000"/><circle cx="489.5" cy="201.5" r="22.5" fill="#000"/><circle cx="489.5" cy="427.5" r="22.5" fill="#000"/><circle cx="489.5" cy="314.5" r="22.5" fill="#000"/><circle cx="376.5" cy="314.5" r="22.5" fill="#000"/><circle cx="318.5" cy="146.5" r="22.5" fill="#000"/><circle cx="376.5" cy="88.5" r="22.5" fill="#000"/><circle cx="434.5" cy="258.5" r="22.5" fill="#000"/><path fill="#000" d="M568 371.5c0 12.426-10.074 22.5-22.5 22.5S523 383.926 523 371.5s10.074-22.5 22.5-22.5 22.5 10.074 22.5 22.5z"/><circle cx="545.5" cy="257.5" r="22.5" fill="#000"/><circle cx="545.5" cy="146.5" r="22.5" fill="#000"/><circle cx="318.5" cy="32.5" r="22.5" fill="#000"/><circle cx="318.5" cy="260.5" r="22.5" fill="#000"/><circle cx="489.5" cy="88.5" r="22.5" fill="#000"/><circle cx="434.5" cy="371.5" r="22.5" fill="#000"/><circle cx="434.5" cy="145.5" r="22.5" fill="#000"/><circle cx="376.5" cy="201.5" r="22.5" fill="#000"/><circle cx="263.5" cy="201.5" r="22.5" fill="#000"/><circle cx="262.5" cy="88.5" r="22.5" fill="#000"/><circle cx="318.5" cy="371.5" r="22.5" fill="#000"/><circle cx="262.5" cy="427.5" r="22.5" fill="#000"/><circle cx="318.5" cy="32.5" r="22.5" fill="#000"/><circle cx="262.5" cy="427.5" r="22.5" fill="#000"/><circle cx="376.5" cy="427.5" r="22.5" fill="#000"/><circle cx="434.5" cy="32.5" r="22.5" fill="#000"/><circle cx="263.5" cy="314.5" r="22.5" fill="#000"/><circle cx="95.5" cy="147.5" r="22.5" fill="#000"/><circle cx="95.5" cy="261.5" r="22.5" fill="#000"/><circle cx="40.5" cy="202.5" r="22.5" fill="#000"/><circle cx="39.5" cy="89.5" r="22.5" fill="#000"/><circle cx="95.5" cy="372.5" r="22.5" fill="#000"/><circle cx="95.5" cy="33.5" r="22.5" fill="#000"/><circle cx="39.5" cy="428.5" r="22.5" fill="#000"/><circle cx="40.5" cy="315.5" r="22.5" fill="#000"/><circle cx="208.5" cy="146.5" r="22.5" fill="#000"/><circle cx="208.5" cy="260.5" r="22.5" fill="#000"/><circle cx="153.5" cy="201.5" r="22.5" fill="#000"/><circle cx="152.5" cy="88.5" r="22.5" fill="#000"/><circle cx="208.5" cy="371.5" r="22.5" fill="#000"/><circle cx="208.5" cy="32.5" r="22.5" fill="#000"/><circle cx="152.5" cy="427.5" r="22.5" fill="#000"/><circle cx="153.5" cy="314.5" r="22.5" fill="#000"/><circle cx="602.5" cy="201.5" r="22.5" fill="#000"/></svg>
