<svg width="777" height="420" xmlns="http://www.w3.org/2000/svg" color-interpolation="auto" stroke="#000" stroke-linecap="square" stroke-miterlimit="10" font-weight="400" font-family="Dialog" font-size="12"><defs><clipPath clipPathUnits="userSpaceOnUse" id="a"><path d="M0 0h777v420H0V0z"/></clipPath></defs><path clip-path="url(#a)" stroke="none" d="M0 0h777v420H0z" fill="#fff"/><g fill="#fff" text-rendering="optimizeSpeed" color-rendering="optimizeSpeed" image-rendering="optimizeSpeed" shape-rendering="crispEdges" stroke="none" color-interpolation="sRGB"><path d="M0 0h777v420H0z"/><path d="M101 374h602V31H101z"/></g><g fill="none" text-rendering="geometricPrecision" image-rendering="optimizeQuality" color-rendering="optimizeQuality" stroke-linejoin="round" stroke="#262626" color-interpolation="linearRGB" stroke-width=".7"><path d="M101 374h602M101 31h602M101 374v-6M176.3 374v-6M251.5 374v-6M326.8 374v-6M402 374v-6M477.3 374v-6M552.5 374v-6M627.8 374v-6M703 374v-6M101 31v6M176.3 31v6M251.5 31v6M326.8 31v6M402 31v6M477.3 31v6M552.5 31v6M627.8 31v6M703 31v6"/></g><text x="-6" y="14" stroke="none" transform="translate(101 379.3)" font-size="13.3" fill="#262626" text-rendering="geometricPrecision" image-rendering="optimizeQuality" color-rendering="optimizeQuality" font-family="SansSerif" color-interpolation="linearRGB">-1</text><text x="-11.5" y="14" stroke="none" transform="translate(176.3 379.3)" font-size="13.3" fill="#262626" text-rendering="geometricPrecision" image-rendering="optimizeQuality" color-rendering="optimizeQuality" font-family="SansSerif" color-interpolation="linearRGB">-0.5</text><text x="-4" y="14" stroke="none" transform="translate(251.5 379.3)" font-size="13.3" fill="#262626" text-rendering="geometricPrecision" image-rendering="optimizeQuality" color-rendering="optimizeQuality" font-family="SansSerif" color-interpolation="linearRGB">0</text><text x="-9.5" y="14" stroke="none" transform="translate(326.8 379.3)" font-size="13.3" fill="#262626" text-rendering="geometricPrecision" image-rendering="optimizeQuality" color-rendering="optimizeQuality" font-family="SansSerif" color-interpolation="linearRGB">0.5</text><text x="-4" y="14" stroke="none" transform="translate(402 379.3)" font-size="13.3" fill="#262626" text-rendering="geometricPrecision" image-rendering="optimizeQuality" color-rendering="optimizeQuality" font-family="SansSerif" color-interpolation="linearRGB">1</text><text x="-9.5" y="14" stroke="none" transform="translate(477.3 379.3)" font-size="13.3" fill="#262626" text-rendering="geometricPrecision" image-rendering="optimizeQuality" color-rendering="optimizeQuality" font-family="SansSerif" color-interpolation="linearRGB">1.5</text><text x="-4" y="14" stroke="none" transform="translate(552.5 379.3)" font-size="13.3" fill="#262626" text-rendering="geometricPrecision" image-rendering="optimizeQuality" color-rendering="optimizeQuality" font-family="SansSerif" color-interpolation="linearRGB">2</text><text x="-9.5" y="14" stroke="none" transform="translate(627.8 379.3)" font-size="13.3" fill="#262626" text-rendering="geometricPrecision" image-rendering="optimizeQuality" color-rendering="optimizeQuality" font-family="SansSerif" color-interpolation="linearRGB">2.5</text><text x="-4" y="14" stroke="none" transform="translate(703 379.3)" font-size="13.3" fill="#262626" text-rendering="geometricPrecision" image-rendering="optimizeQuality" color-rendering="optimizeQuality" font-family="SansSerif" color-interpolation="linearRGB">3</text><g fill="none" text-rendering="geometricPrecision" image-rendering="optimizeQuality" color-rendering="optimizeQuality" stroke-linejoin="round" stroke="#262626" color-interpolation="linearRGB" stroke-width=".7"><path d="M101 374V31M703 374V31M101 374h6M101 339.7h6M101 305.4h6M101 271.1h6M101 236.8h6M101 202.5h6M101 168.2h6M101 133.9h6M101 99.6h6M101 65.3h6M101 31h6M703 374h-6M703 339.7h-6M703 305.4h-6M703 271.1h-6M703 236.8h-6M703 202.5h-6M703 168.2h-6M703 133.9h-6M703 99.6h-6M703 65.3h-6M703 31h-6"/></g><text x="-23" y="5.5" stroke="none" transform="translate(95.7 374)" font-size="13.3" fill="#262626" text-rendering="geometricPrecision" image-rendering="optimizeQuality" color-rendering="optimizeQuality" font-family="SansSerif" color-interpolation="linearRGB">-0.5</text><text x="-8" y="5.5" stroke="none" transform="translate(95.7 339.7)" font-size="13.3" fill="#262626" text-rendering="geometricPrecision" image-rendering="optimizeQuality" color-rendering="optimizeQuality" font-family="SansSerif" color-interpolation="linearRGB">0</text><text x="-19" y="5.5" stroke="none" transform="translate(95.7 305.4)" font-size="13.3" fill="#262626" text-rendering="geometricPrecision" image-rendering="optimizeQuality" color-rendering="optimizeQuality" font-family="SansSerif" color-interpolation="linearRGB">0.5</text><text x="-8" y="5.5" stroke="none" transform="translate(95.7 271.1)" font-size="13.3" fill="#262626" text-rendering="geometricPrecision" image-rendering="optimizeQuality" color-rendering="optimizeQuality" font-family="SansSerif" color-interpolation="linearRGB">1</text><text x="-19" y="5.5" stroke="none" transform="translate(95.7 236.8)" font-size="13.3" fill="#262626" text-rendering="geometricPrecision" image-rendering="optimizeQuality" color-rendering="optimizeQuality" font-family="SansSerif" color-interpolation="linearRGB">1.5</text><text x="-8" y="5.5" stroke="none" transform="translate(95.7 202.5)" font-size="13.3" fill="#262626" text-rendering="geometricPrecision" image-rendering="optimizeQuality" color-rendering="optimizeQuality" font-family="SansSerif" color-interpolation="linearRGB">2</text><text x="-19" y="5.5" stroke="none" transform="translate(95.7 168.2)" font-size="13.3" fill="#262626" text-rendering="geometricPrecision" image-rendering="optimizeQuality" color-rendering="optimizeQuality" font-family="SansSerif" color-interpolation="linearRGB">2.5</text><text x="-8" y="5.5" stroke="none" transform="translate(95.7 133.9)" font-size="13.3" fill="#262626" text-rendering="geometricPrecision" image-rendering="optimizeQuality" color-rendering="optimizeQuality" font-family="SansSerif" color-interpolation="linearRGB">3</text><text x="-19" y="5.5" stroke="none" transform="translate(95.7 99.6)" font-size="13.3" fill="#262626" text-rendering="geometricPrecision" image-rendering="optimizeQuality" color-rendering="optimizeQuality" font-family="SansSerif" color-interpolation="linearRGB">3.5</text><text x="-8" y="5.5" stroke="none" transform="translate(95.7 65.3)" font-size="13.3" fill="#262626" text-rendering="geometricPrecision" image-rendering="optimizeQuality" color-rendering="optimizeQuality" font-family="SansSerif" color-interpolation="linearRGB">4</text><text x="-19" y="5.5" stroke="none" transform="translate(95.7 31)" font-size="13.3" fill="#262626" text-rendering="geometricPrecision" image-rendering="optimizeQuality" color-rendering="optimizeQuality" font-family="SansSerif" color-interpolation="linearRGB">4.5</text><g fill="#00f" text-rendering="geometricPrecision" image-rendering="optimizeQuality" color-rendering="optimizeQuality" stroke-linejoin="round" stroke="#00f" color-interpolation="linearRGB" stroke-width=".7"><path d="M101 198.8c2 0 3.7 1.7 3.7 3.7a3.7 3.7 0 11-3.7-3.7zm0-.6a4.3 4.3 0 104.3 4.3c0-2.4-2-4.3-4.3-4.3zM251.5 61.6c2 0 3.7 1.7 3.7 3.7a3.7 3.7 0 11-3.7-3.7zm0-.6a4.3 4.3 0 104.3 4.3c0-2.4-2-4.3-4.3-4.3zM402 130.2c2 0 3.7 1.7 3.7 3.7a3.7 3.7 0 11-3.7-3.7zm0-.6a4.3 4.3 0 104.3 4.3c0-2.4-2-4.3-4.3-4.3zM552.5 336c2 0 3.7 1.7 3.7 3.7a3.7 3.7 0 11-3.7-3.7zm0-.6a4.3 4.3 0 104.3 4.3c0-2.4-2-4.3-4.3-4.3zM703 130.2c2 0 3.7 1.7 3.7 3.7a3.7 3.7 0 11-3.7-3.7zm0-.6a4.3 4.3 0 104.3 4.3c0-2.4-2-4.3-4.3-4.3z" stroke="none"/><path d="M101 202.5l6-.5 6.2-1.4 6-2.2 6.1-3 6.1-3.7 6-4.4 6.2-5 6-5.5 6.1-6 6.1-6.3 6-6.7 6.2-7 6-7.2 6.1-7.3 6.1-7.4 6-7.4 6.2-7.4 6-7.3 6.1-7.1 6.1-6.9 6.1-6.6 6-6.2 6.2-5.8 6-5.3 6.1-4.7 6.1-4.2 6-3.5 6.2-3 6-2.4 6.1-1.7 6.1-1.2 6-.5h6.2l6 .6 6.1 1.2 6.1 1.9 6 2.4 6.2 3 6 3.6 6.1 4.2 6.1 4.8 6 5.3 6.2 6 6 6.6 6.1 7.1 6.1 7.8 6.1 8.3 6 9 6.2 9.4 6 10.1 6.1 10.7 6.1 11 6 11.5 6.2 11.7 6 12 6.1 12 6.1 12 6 12 6.2 11.8 6 11.5 6.1 11.2 6.1 10.8 6 10.2 6.2 9.6 6 9 6.1 8.1 6.1 7.3 6 6.3 6.2 5.2 6 4.1 6.1 3 6.1 1.5 6.1.1 6-1.3 6.2-3 6-4.4 6.1-5.7 6.1-7 6-8.2 6.2-9 6-9.9 6.1-10.5 6.1-11.1 6-11.5 6.2-11.7 6-11.9 6.1-11.8 6.1-11.7 6-11.4 6.2-11 6-10.4 6.1-9.7 6.1-8.9 6.1-7.8 6-6.8 6.2-5.5 6-4 6.1-2.6 6.1-.9" fill="none" stroke-linecap="butt" stroke="red"/></g></svg>