<svg width="618" height="277" viewBox="0 0 618 277" fill="none" xmlns="http://www.w3.org/2000/svg">
<path d="M449.561 60.9393C448.975 60.3535 448.025 60.3535 447.439 60.9393L437.893 70.4853C437.308 71.0711 437.308 72.0208 437.893 72.6066C438.479 73.1924 439.429 73.1924 440.015 72.6066L448.5 64.1213L456.985 72.6066C457.571 73.1924 458.521 73.1924 459.107 72.6066C459.692 72.0208 459.692 71.0711 459.107 70.4853L449.561 60.9393ZM450 202.032V62H447V202.032H450Z" fill="black"/>
<path d="M362.52 261.772C362.385 262.589 362.938 263.361 363.755 263.496L377.075 265.697C377.892 265.832 378.664 265.279 378.799 264.461C378.934 263.644 378.381 262.872 377.564 262.737L365.724 260.781L367.681 248.941C367.816 248.124 367.263 247.352 366.445 247.217C365.628 247.082 364.856 247.635 364.721 248.452L362.52 261.772ZM446.877 200.797L363.126 260.797L364.874 263.235L448.624 203.235L446.877 200.797Z" fill="black"/>
<path d="M589.093 203.077C589.679 202.491 589.679 201.541 589.093 200.955L579.547 191.409C578.961 190.824 578.011 190.824 577.426 191.409C576.84 191.995 576.84 192.945 577.426 193.531L585.911 202.016L577.426 210.501C576.84 211.087 576.84 212.037 577.426 212.623C578.011 213.208 578.961 213.208 579.547 212.623L589.093 203.077ZM448 203.516L588.032 203.516V200.516L448 200.516V203.516Z" fill="black"/>
<path d="M93.5607 20.9233C92.9749 20.3375 92.0251 20.3375 91.4393 20.9233L81.8934 30.4692C81.3076 31.055 81.3076 32.0048 81.8934 32.5905C82.4792 33.1763 83.4289 33.1763 84.0147 32.5905L92.5 24.1053L100.985 32.5905C101.571 33.1763 102.521 33.1763 103.107 32.5905C103.692 32.0048 103.692 31.055 103.107 30.4692L93.5607 20.9233ZM94 162.016L94 21.9839H91L91 162.016H94Z" fill="black"/>
<path d="M6.52006 221.755C6.38502 222.573 6.93814 223.345 7.75548 223.48L21.0749 225.681C21.8923 225.816 22.6643 225.263 22.7994 224.445C22.9344 223.628 22.3813 222.856 21.5639 222.721L9.72445 220.765L11.6806 208.925C11.8156 208.108 11.2625 207.336 10.4452 207.201C9.62783 207.066 8.85577 207.619 8.72072 208.436L6.52006 221.755ZM90.8772 160.781L7.12643 220.781L8.87357 223.219L92.6243 163.219L90.8772 160.781Z" fill="black"/>
<path d="M233.093 163.061C233.679 162.475 233.679 161.525 233.093 160.939L223.547 151.393C222.961 150.808 222.011 150.808 221.426 151.393C220.84 151.979 220.84 152.929 221.426 153.515L229.911 162L221.426 170.485C220.84 171.071 220.84 172.021 221.426 172.607C222.011 173.192 222.961 173.192 223.547 172.607L233.093 163.061ZM92 163.5L232.032 163.5V160.5L92 160.5V163.5Z" fill="black"/>
<path d="M142 113C142 112.448 141.552 112 141 112L132 112C131.448 112 131 112.448 131 113C131 113.552 131.448 114 132 114L140 114L140 122C140 122.552 140.448 123 141 123C141.552 123 142 122.552 142 122L142 113ZM92.7071 162.707L141.707 113.707L140.293 112.293L91.2929 161.293L92.7071 162.707Z" fill="#00D82F"/>
<path d="M140.518 112.124C140.034 112.39 139.858 112.998 140.124 113.482L144.464 121.367C144.731 121.85 145.339 122.027 145.823 121.76C146.306 121.494 146.483 120.886 146.216 120.402L142.358 113.394L149.367 109.536C149.85 109.269 150.027 108.661 149.76 108.177C149.494 107.694 148.886 107.517 148.402 107.784L140.518 112.124ZM448.278 201.04L141.278 112.04L140.722 113.96L447.722 202.96L448.278 201.04Z" fill="#0066FF"/>
<path d="M91.376 161.219C90.9444 161.563 90.8739 162.192 91.2186 162.624L96.8343 169.657C97.179 170.089 97.8082 170.159 98.2398 169.814C98.6713 169.47 98.7418 168.841 98.3972 168.409L93.4054 162.157L99.657 157.166C100.089 156.821 100.159 156.192 99.8145 155.76C99.4698 155.329 98.8406 155.258 98.409 155.603L91.376 161.219ZM449.111 201.006L92.1113 161.006L91.8886 162.994L448.889 202.994L449.111 201.006Z" fill="#FF0000"/>
<path d="M238.475 126.619C238.301 126.533 238.107 126.457 237.893 126.392C237.1 126.151 236.459 126.325 235.97 126.915L234.442 131.938L233.232 131.57L235.384 124.493L236.562 124.851L236.333 125.675C236.922 125.163 237.58 125.018 238.308 125.239C238.544 125.311 238.713 125.396 238.817 125.494L238.475 126.619ZM245.884 132.116C245.46 133.088 244.851 133.753 244.056 134.111C243.266 134.466 242.353 134.486 241.315 134.171C240.19 133.829 239.411 133.151 238.976 132.137C238.545 131.125 238.535 129.943 238.946 128.592L239.225 127.676C239.494 126.791 239.888 126.06 240.406 125.484C240.928 124.91 241.534 124.532 242.223 124.351C242.913 124.165 243.639 124.188 244.402 124.42C245.414 124.728 246.138 125.258 246.576 126.011C247.016 126.759 247.134 127.647 246.93 128.676L245.668 128.292C245.79 127.5 245.719 126.879 245.456 126.427C245.198 125.977 244.742 125.653 244.088 125.454C243.286 125.21 242.565 125.315 241.927 125.768C241.293 126.223 240.81 126.998 240.477 128.093L240.197 129.015C239.883 130.048 239.848 130.936 240.094 131.677C240.34 132.419 240.851 132.908 241.628 133.144C242.325 133.356 242.907 133.362 243.373 133.16C243.845 132.956 244.261 132.48 244.622 131.732L245.884 132.116ZM246.685 135.661L249.581 126.138L252.694 127.085C253.728 127.399 254.439 127.849 254.828 128.434C255.221 129.021 255.29 129.732 255.036 130.57C254.901 131.014 254.654 131.37 254.296 131.638C253.94 131.901 253.516 132.06 253.022 132.115C253.493 132.415 253.815 132.813 253.988 133.309C254.167 133.802 254.172 134.327 254.002 134.885C253.742 135.74 253.261 136.327 252.559 136.647C251.857 136.967 251 136.973 249.988 136.665L246.685 135.661ZM249.296 131.589L248.253 135.016L250.327 135.647C250.911 135.824 251.417 135.814 251.844 135.615C252.277 135.413 252.574 135.046 252.736 134.514C253.085 133.368 252.635 132.605 251.388 132.225L249.296 131.589ZM249.602 130.582L251.499 131.159C252.048 131.326 252.528 131.322 252.938 131.146C253.353 130.972 253.632 130.65 253.776 130.179C253.935 129.656 253.897 129.23 253.664 128.902C253.432 128.569 253.004 128.308 252.38 128.119L250.523 127.554L249.602 130.582ZM261.884 136.503C261.555 137.585 261.042 138.379 260.345 138.886C259.649 139.389 258.882 139.513 258.045 139.259C257.151 138.987 256.556 138.46 256.26 137.68L255.953 138.479L254.841 138.141L257.896 128.095L259.106 128.463L257.966 132.211C258.639 131.753 259.405 131.655 260.264 131.916C261.123 132.178 261.697 132.707 261.988 133.506C262.283 134.305 262.259 135.269 261.916 136.399L261.884 136.503ZM260.716 135.998C260.966 135.174 261.001 134.489 260.819 133.943C260.637 133.397 260.248 133.033 259.651 132.852C258.853 132.609 258.167 132.805 257.592 133.441L256.661 136.501C256.807 137.355 257.272 137.902 258.057 138.14C258.636 138.317 259.156 138.229 259.615 137.878C260.074 137.527 260.441 136.901 260.716 135.998ZM272.837 137.798L267.382 136.139L267.702 135.086L273.157 136.745L272.837 137.798ZM272.011 140.512L266.557 138.853L266.875 137.807L272.329 139.466L272.011 140.512ZM281.601 139.734C281.427 139.648 281.233 139.573 281.019 139.508C280.226 139.266 279.585 139.44 279.096 140.03L277.568 145.053L276.358 144.685L278.51 137.608L279.687 137.967L279.458 138.79C280.047 138.278 280.706 138.133 281.434 138.355C281.67 138.426 281.839 138.511 281.943 138.61L281.601 139.734ZM287.101 145.237L283.111 144.024L281.459 146.236L280.165 145.843L286.697 137.426L287.796 137.76L288.542 148.39L287.254 147.999L287.101 145.237ZM283.805 143.106L287.042 144.09L286.775 139.143L283.805 143.106ZM289.824 148.78L292.72 139.258L295.833 140.205C296.867 140.519 297.578 140.969 297.967 141.554C298.36 142.14 298.429 142.852 298.175 143.689C298.04 144.134 297.793 144.49 297.436 144.757C297.079 145.021 296.655 145.18 296.162 145.234C296.632 145.535 296.954 145.933 297.127 146.428C297.306 146.921 297.311 147.446 297.141 148.005C296.881 148.859 296.4 149.446 295.698 149.766C294.996 150.086 294.139 150.092 293.127 149.785L289.824 148.78ZM292.435 144.708L291.392 148.135L293.466 148.766C294.05 148.944 294.556 148.933 294.983 148.734C295.416 148.533 295.713 148.166 295.875 147.634C296.224 146.487 295.774 145.724 294.527 145.345L292.435 144.708ZM292.741 143.701L294.638 144.278C295.187 144.445 295.667 144.441 296.077 144.266C296.492 144.092 296.771 143.769 296.915 143.299C297.074 142.775 297.036 142.35 296.803 142.021C296.571 141.689 296.143 141.428 295.519 141.238L293.662 140.673L292.741 143.701ZM305.023 149.623C304.694 150.704 304.181 151.498 303.484 152.006C302.788 152.508 302.021 152.633 301.184 152.378C300.29 152.106 299.695 151.58 299.399 150.799L299.092 151.599L297.98 151.261L301.035 141.215L302.245 141.583L301.105 145.33C301.778 144.873 302.544 144.775 303.403 145.036C304.262 145.297 304.836 145.827 305.127 146.625C305.422 147.424 305.398 148.389 305.055 149.518L305.023 149.623ZM303.855 149.117C304.105 148.293 304.14 147.608 303.958 147.063C303.776 146.517 303.387 146.153 302.79 145.971C301.992 145.729 301.306 145.925 300.731 146.56L299.801 149.621C299.946 150.475 300.411 151.021 301.196 151.26C301.775 151.436 302.295 151.349 302.754 150.998C303.213 150.647 303.58 150.02 303.855 149.117ZM313.843 150.505L316.499 151.312L316.151 152.457L313.495 151.649L312.58 154.658L311.364 154.288L312.279 151.279L309.623 150.472L309.971 149.327L312.627 150.135L313.472 147.355L314.689 147.725L313.843 150.505ZM324.988 152.929C324.814 152.843 324.621 152.768 324.407 152.703C323.613 152.461 322.972 152.635 322.483 153.225L320.956 158.248L319.746 157.88L321.898 150.803L323.075 151.161L322.846 151.985C323.435 151.473 324.094 151.328 324.822 151.55C325.057 151.621 325.227 151.706 325.33 151.804L324.988 152.929ZM332.398 158.427C331.974 159.398 331.364 160.063 330.569 160.421C329.78 160.777 328.867 160.797 327.829 160.481C326.704 160.139 325.924 159.461 325.489 158.448C325.059 157.436 325.049 156.254 325.46 154.902L325.738 153.986C326.008 153.101 326.401 152.371 326.919 151.795C327.442 151.22 328.047 150.842 328.736 150.661C329.426 150.475 330.153 150.499 330.916 150.731C331.927 151.038 332.652 151.568 333.09 152.321C333.529 153.069 333.647 153.958 333.444 154.987L332.182 154.603C332.303 153.811 332.233 153.189 331.97 152.738C331.712 152.288 331.255 151.963 330.601 151.764C329.799 151.52 329.079 151.625 328.441 152.079C327.807 152.534 327.324 153.309 326.991 154.403L326.71 155.325C326.396 156.358 326.362 157.246 326.608 157.988C326.854 158.729 327.365 159.218 328.141 159.454C328.839 159.666 329.421 159.672 329.887 159.471C330.358 159.266 330.775 158.79 331.135 158.043L332.398 158.427ZM339.213 161.085L335.223 159.872L333.572 162.085L332.277 161.691L338.809 153.274L339.908 153.608L340.655 164.239L339.366 163.847L339.213 161.085ZM335.917 158.954L339.154 159.938L338.887 154.991L335.917 158.954ZM348.79 162.933C348.461 164.014 347.948 164.809 347.251 165.316C346.555 165.819 345.788 165.943 344.951 165.688C344.057 165.416 343.462 164.89 343.166 164.109L342.859 164.909L341.747 164.571L344.802 154.525L346.012 154.893L344.872 158.641C345.545 158.183 346.311 158.085 347.17 158.346C348.029 158.607 348.603 159.137 348.894 159.935C349.189 160.735 349.165 161.699 348.822 162.828L348.79 162.933ZM347.622 162.428C347.872 161.604 347.907 160.919 347.725 160.373C347.543 159.827 347.154 159.463 346.556 159.282C345.759 159.039 345.072 159.235 344.498 159.87L343.567 162.931C343.713 163.785 344.178 164.331 344.962 164.57C345.542 164.746 346.062 164.659 346.521 164.308C346.98 163.957 347.347 163.33 347.622 162.428Z" fill="#0029FF"/>
<path d="M103.641 126.783C103.477 126.887 103.312 127.014 103.146 127.162C102.527 127.715 102.343 128.354 102.594 129.078L106.094 132.991L105.151 133.834L100.22 128.321L101.137 127.501L101.722 128.124C101.591 127.355 101.809 126.717 102.376 126.209C102.559 126.045 102.72 125.945 102.857 125.907L103.641 126.783ZM112.186 123.304C112.796 124.171 113.048 125.037 112.942 125.903C112.836 126.762 112.379 127.553 111.57 128.276C110.694 129.06 109.71 129.374 108.618 129.22C107.529 129.062 106.514 128.457 105.572 127.404L104.934 126.691C104.317 126.001 103.897 125.286 103.674 124.544C103.454 123.799 103.446 123.085 103.648 122.402C103.848 121.716 104.245 121.108 104.839 120.576C105.627 119.871 106.457 119.527 107.327 119.543C108.195 119.556 109.015 119.916 109.789 120.624L108.806 121.504C108.192 120.989 107.624 120.726 107.102 120.717C106.583 120.704 106.069 120.925 105.559 121.381C104.934 121.94 104.65 122.61 104.707 123.391C104.767 124.169 105.178 124.984 105.94 125.837L106.583 126.555C107.303 127.36 108.044 127.85 108.805 128.025C109.567 128.2 110.25 128.017 110.855 127.476C111.398 126.99 111.705 126.495 111.775 125.993C111.845 125.483 111.655 124.88 111.203 124.184L112.186 123.304ZM117.997 118.86L114.889 121.64L115.922 124.2L114.913 125.102L111.111 115.15L111.967 114.384L121.44 119.265L120.437 120.162L117.997 118.86ZM114.464 120.57L116.986 118.314L112.619 115.975L114.464 120.57ZM124.548 111.634C125.301 112.476 125.714 113.327 125.785 114.186C125.854 115.042 125.562 115.762 124.91 116.345C124.213 116.968 123.455 117.203 122.634 117.051L123.158 117.729L122.291 118.504L115.291 110.677L116.234 109.834L118.845 112.754C118.803 111.941 119.117 111.236 119.786 110.637C120.455 110.039 121.207 109.822 122.04 109.988C122.876 110.151 123.688 110.672 124.475 111.552L124.548 111.634ZM123.509 112.37C122.935 111.728 122.368 111.343 121.807 111.215C121.246 111.087 120.733 111.231 120.267 111.647C119.646 112.203 119.457 112.891 119.702 113.712L121.835 116.096C122.64 116.415 123.348 116.302 123.96 115.755C124.412 115.351 124.607 114.861 124.545 114.287C124.484 113.712 124.138 113.073 123.509 112.37Z" fill="#169F00"/>
<path d="M234.802 189.314C234.617 189.255 234.414 189.21 234.193 189.178C233.372 189.06 232.765 189.33 232.371 189.987L231.625 195.184L230.374 195.004L231.425 187.683L232.642 187.857L232.541 188.706C233.046 188.111 233.675 187.868 234.428 187.976C234.672 188.011 234.852 188.069 234.969 188.15L234.802 189.314ZM241.075 193.916L236.948 193.323L235.651 195.762L234.312 195.569L239.488 186.257L240.625 186.42L242.98 196.814L241.647 196.622L241.075 193.916ZM237.494 192.311L240.843 192.791L239.826 187.943L237.494 192.311ZM244.306 197.004L245.72 187.152L248.941 187.614C250.01 187.768 250.781 188.104 251.255 188.623C251.733 189.143 251.909 189.836 251.785 190.702C251.719 191.162 251.53 191.552 251.217 191.87C250.905 192.185 250.509 192.406 250.03 192.536C250.541 192.761 250.92 193.105 251.166 193.569C251.418 194.029 251.502 194.547 251.42 195.125C251.293 196.009 250.906 196.662 250.261 197.085C249.616 197.508 248.77 197.645 247.723 197.494L244.306 197.004ZM246.267 192.582L245.758 196.128L247.903 196.436C248.507 196.523 249.005 196.435 249.397 196.174C249.795 195.909 250.033 195.501 250.112 194.951C250.282 193.764 249.722 193.078 248.432 192.893L246.267 192.582ZM246.416 191.54L248.378 191.822C248.947 191.904 249.421 191.827 249.8 191.591C250.183 191.356 250.41 190.995 250.48 190.508C250.558 189.966 250.456 189.551 250.175 189.262C249.895 188.969 249.433 188.776 248.788 188.683L246.866 188.407L246.416 191.54ZM259.456 195.525C259.295 196.644 258.909 197.507 258.297 198.115C257.686 198.717 256.947 198.957 256.081 198.832C255.156 198.7 254.488 198.27 254.077 197.543L253.894 198.38L252.744 198.215L254.236 187.822L255.488 188.001L254.931 191.879C255.526 191.324 256.268 191.111 257.157 191.238C258.046 191.366 258.694 191.802 259.103 192.547C259.516 193.292 259.639 194.249 259.471 195.417L259.456 195.525ZM258.224 195.204C258.347 194.351 258.277 193.669 258.014 193.157C257.752 192.645 257.311 192.345 256.693 192.256C255.868 192.137 255.219 192.436 254.748 193.151L254.294 196.318C254.567 197.139 255.11 197.609 255.922 197.725C256.522 197.811 257.022 197.646 257.423 197.229C257.823 196.813 258.09 196.137 258.224 195.204Z" fill="#FF0000"/>
<path d="M47.2637 11.0381C47.2637 10.6963 47.1338 10.432 46.874 10.2451C46.6188 10.0537 46.1699 9.88965 45.5273 9.75293C44.8893 9.61621 44.3812 9.45215 44.0029 9.26074C43.6292 9.06934 43.3512 8.84147 43.1689 8.57715C42.9912 8.31283 42.9023 7.99837 42.9023 7.63379C42.9023 7.02767 43.1576 6.51497 43.668 6.0957C44.1829 5.67643 44.8392 5.4668 45.6367 5.4668C46.4753 5.4668 47.1543 5.68327 47.6738 6.11621C48.1979 6.54915 48.46 7.10286 48.46 7.77734H47.1885C47.1885 7.43099 47.0404 7.13249 46.7441 6.88184C46.4525 6.63118 46.0833 6.50586 45.6367 6.50586C45.1764 6.50586 44.8164 6.60612 44.5566 6.80664C44.2969 7.00716 44.167 7.26921 44.167 7.59277C44.167 7.89811 44.2878 8.12826 44.5293 8.2832C44.7708 8.43815 45.2061 8.58626 45.835 8.72754C46.4684 8.86882 46.9811 9.03743 47.373 9.2334C47.765 9.42936 48.0544 9.66634 48.2412 9.94434C48.4326 10.2178 48.5283 10.5527 48.5283 10.9492C48.5283 11.61 48.264 12.141 47.7354 12.542C47.2067 12.9385 46.5208 13.1367 45.6777 13.1367C45.0853 13.1367 44.5612 13.0319 44.1055 12.8223C43.6497 12.6126 43.292 12.321 43.0322 11.9473C42.777 11.569 42.6494 11.1611 42.6494 10.7236H43.9141C43.9368 11.1475 44.1055 11.4847 44.4199 11.7354C44.7389 11.9814 45.1582 12.1045 45.6777 12.1045C46.1562 12.1045 46.5391 12.0088 46.8262 11.8174C47.1178 11.6214 47.2637 11.3617 47.2637 11.0381ZM56.4238 9.38379C56.4238 10.5094 56.1663 11.4163 55.6514 12.1045C55.1364 12.7926 54.4391 13.1367 53.5596 13.1367C52.6618 13.1367 51.9554 12.8519 51.4404 12.2822V15.8438H50.1758V5.60352H51.3311L51.3926 6.42383C51.9076 5.78581 52.623 5.4668 53.5391 5.4668C54.4277 5.4668 55.1296 5.80176 55.6445 6.47168C56.1641 7.1416 56.4238 8.07357 56.4238 9.26758V9.38379ZM55.1592 9.24023C55.1592 8.40625 54.9814 7.74772 54.626 7.26465C54.2705 6.78158 53.7829 6.54004 53.1631 6.54004C52.3975 6.54004 51.8232 6.87956 51.4404 7.55859V11.0928C51.8187 11.7673 52.3975 12.1045 53.1768 12.1045C53.7829 12.1045 54.2637 11.8652 54.6191 11.3867C54.9792 10.9036 55.1592 10.1882 55.1592 9.24023ZM62.6035 13C62.5306 12.8542 62.4714 12.5944 62.4258 12.2207C61.8379 12.8314 61.1361 13.1367 60.3203 13.1367C59.5911 13.1367 58.9919 12.9316 58.5225 12.5215C58.0576 12.1068 57.8252 11.5827 57.8252 10.9492C57.8252 10.179 58.1169 9.58203 58.7002 9.1582C59.2881 8.72982 60.113 8.51562 61.1748 8.51562H62.4053V7.93457C62.4053 7.49251 62.2731 7.1416 62.0088 6.88184C61.7445 6.61751 61.3548 6.48535 60.8398 6.48535C60.3887 6.48535 60.0104 6.59928 59.7051 6.82715C59.3997 7.05501 59.2471 7.33073 59.2471 7.6543H57.9756C57.9756 7.28516 58.1055 6.92969 58.3652 6.58789C58.6296 6.24154 58.985 5.9681 59.4316 5.76758C59.8828 5.56706 60.3773 5.4668 60.915 5.4668C61.7673 5.4668 62.4349 5.68099 62.918 6.10938C63.401 6.5332 63.6517 7.11882 63.6699 7.86621V11.2705C63.6699 11.9495 63.7565 12.4896 63.9297 12.8906V13H62.6035ZM60.5049 12.0361C60.9014 12.0361 61.2773 11.9336 61.6328 11.7285C61.9883 11.5234 62.2458 11.2568 62.4053 10.9287V9.41113H61.4141C59.8646 9.41113 59.0898 9.86458 59.0898 10.7715C59.0898 11.168 59.222 11.4779 59.4863 11.7012C59.7507 11.9245 60.0902 12.0361 60.5049 12.0361ZM68.6191 12.1045C69.0703 12.1045 69.4645 11.9678 69.8018 11.6943C70.139 11.4209 70.3258 11.0791 70.3623 10.6689H71.5586C71.5358 11.0928 71.39 11.4961 71.1211 11.8789C70.8522 12.2617 70.4922 12.5671 70.041 12.7949C69.5944 13.0228 69.1204 13.1367 68.6191 13.1367C67.612 13.1367 66.8099 12.8018 66.2129 12.1318C65.6204 11.4574 65.3242 10.5368 65.3242 9.37012V9.1582C65.3242 8.43815 65.4564 7.79785 65.7207 7.2373C65.985 6.67676 66.3633 6.24154 66.8555 5.93164C67.3522 5.62174 67.9378 5.4668 68.6123 5.4668C69.4417 5.4668 70.1299 5.71517 70.6768 6.21191C71.2282 6.70866 71.5221 7.35352 71.5586 8.14648H70.3623C70.3258 7.66797 70.1436 7.27604 69.8154 6.9707C69.4919 6.66081 69.0908 6.50586 68.6123 6.50586C67.9697 6.50586 67.4707 6.73828 67.1152 7.20312C66.7643 7.66341 66.5889 8.33105 66.5889 9.20605V9.44531C66.5889 10.2975 66.7643 10.9538 67.1152 11.4141C67.4661 11.8743 67.9674 12.1045 68.6191 12.1045ZM76.0498 13.1367C75.0472 13.1367 74.2314 12.8086 73.6025 12.1523C72.9736 11.4915 72.6592 10.6097 72.6592 9.50684V9.27441C72.6592 8.54069 72.7982 7.88672 73.0762 7.3125C73.3587 6.73372 73.7507 6.28255 74.252 5.95898C74.7578 5.63086 75.3047 5.4668 75.8926 5.4668C76.8542 5.4668 77.6016 5.78353 78.1348 6.41699C78.668 7.05046 78.9346 7.95736 78.9346 9.1377V9.66406H73.9238C73.9421 10.3932 74.154 10.9834 74.5596 11.4346C74.9697 11.8812 75.4893 12.1045 76.1182 12.1045C76.5648 12.1045 76.943 12.0133 77.2529 11.8311C77.5628 11.6488 77.834 11.4072 78.0664 11.1064L78.8389 11.708C78.2191 12.6605 77.2894 13.1367 76.0498 13.1367ZM75.8926 6.50586C75.3822 6.50586 74.9538 6.69271 74.6074 7.06641C74.2611 7.43555 74.0469 7.95508 73.9648 8.625H77.6699V8.5293C77.6335 7.88672 77.4603 7.38997 77.1504 7.03906C76.8405 6.68359 76.4212 6.50586 75.8926 6.50586ZM84.7656 2.37012L85.4902 2.8623C85.0664 3.44108 84.8477 4.06543 84.834 4.73535V5.66504H83.5762V4.87207C83.5762 4.40723 83.6855 3.94694 83.9043 3.49121C84.1276 3.03548 84.4147 2.66178 84.7656 2.37012ZM90.9043 13C90.8314 12.8542 90.7721 12.5944 90.7266 12.2207C90.1387 12.8314 89.4368 13.1367 88.6211 13.1367C87.8919 13.1367 87.2926 12.9316 86.8232 12.5215C86.3584 12.1068 86.126 11.5827 86.126 10.9492C86.126 10.179 86.4176 9.58203 87.001 9.1582C87.5889 8.72982 88.4137 8.51562 89.4756 8.51562H90.7061V7.93457C90.7061 7.49251 90.5739 7.1416 90.3096 6.88184C90.0452 6.61751 89.6556 6.48535 89.1406 6.48535C88.6895 6.48535 88.3112 6.59928 88.0059 6.82715C87.7005 7.05501 87.5479 7.33073 87.5479 7.6543H86.2764C86.2764 7.28516 86.4062 6.92969 86.666 6.58789C86.9303 6.24154 87.2858 5.9681 87.7324 5.76758C88.1836 5.56706 88.6781 5.4668 89.2158 5.4668C90.068 5.4668 90.7357 5.68099 91.2188 6.10938C91.7018 6.5332 91.9525 7.11882 91.9707 7.86621V11.2705C91.9707 11.9495 92.0573 12.4896 92.2305 12.8906V13H90.9043ZM88.8057 12.0361C89.2021 12.0361 89.5781 11.9336 89.9336 11.7285C90.2891 11.5234 90.5465 11.2568 90.7061 10.9287V9.41113H89.7148C88.1654 9.41113 87.3906 9.86458 87.3906 10.7715C87.3906 11.168 87.5228 11.4779 87.7871 11.7012C88.0514 11.9245 88.391 12.0361 88.8057 12.0361ZM93.5771 5.84961L92.8594 5.35742C93.2832 4.76497 93.502 4.14062 93.5156 3.48438V2.5H94.7666V3.38867C94.762 3.8444 94.6481 4.30013 94.4248 4.75586C94.2061 5.20703 93.9235 5.57161 93.5771 5.84961Z" fill="black"/>
<path d="M428.264 44.0381C428.264 43.6963 428.134 43.432 427.874 43.2451C427.619 43.0537 427.17 42.8896 426.527 42.7529C425.889 42.6162 425.381 42.4521 425.003 42.2607C424.629 42.0693 424.351 41.8415 424.169 41.5771C423.991 41.3128 423.902 40.9984 423.902 40.6338C423.902 40.0277 424.158 39.515 424.668 39.0957C425.183 38.6764 425.839 38.4668 426.637 38.4668C427.475 38.4668 428.154 38.6833 428.674 39.1162C429.198 39.5492 429.46 40.1029 429.46 40.7773H428.188C428.188 40.431 428.04 40.1325 427.744 39.8818C427.452 39.6312 427.083 39.5059 426.637 39.5059C426.176 39.5059 425.816 39.6061 425.557 39.8066C425.297 40.0072 425.167 40.2692 425.167 40.5928C425.167 40.8981 425.288 41.1283 425.529 41.2832C425.771 41.4382 426.206 41.5863 426.835 41.7275C427.468 41.8688 427.981 42.0374 428.373 42.2334C428.765 42.4294 429.054 42.6663 429.241 42.9443C429.433 43.2178 429.528 43.5527 429.528 43.9492C429.528 44.61 429.264 45.141 428.735 45.542C428.207 45.9385 427.521 46.1367 426.678 46.1367C426.085 46.1367 425.561 46.0319 425.105 45.8223C424.65 45.6126 424.292 45.321 424.032 44.9473C423.777 44.569 423.649 44.1611 423.649 43.7236H424.914C424.937 44.1475 425.105 44.4847 425.42 44.7354C425.739 44.9814 426.158 45.1045 426.678 45.1045C427.156 45.1045 427.539 45.0088 427.826 44.8174C428.118 44.6214 428.264 44.3617 428.264 44.0381ZM437.424 42.3838C437.424 43.5094 437.166 44.4163 436.651 45.1045C436.136 45.7926 435.439 46.1367 434.56 46.1367C433.662 46.1367 432.955 45.8519 432.44 45.2822V48.8438H431.176V38.6035H432.331L432.393 39.4238C432.908 38.7858 433.623 38.4668 434.539 38.4668C435.428 38.4668 436.13 38.8018 436.645 39.4717C437.164 40.1416 437.424 41.0736 437.424 42.2676V42.3838ZM436.159 42.2402C436.159 41.4062 435.981 40.7477 435.626 40.2646C435.271 39.7816 434.783 39.54 434.163 39.54C433.397 39.54 432.823 39.8796 432.44 40.5586V44.0928C432.819 44.7673 433.397 45.1045 434.177 45.1045C434.783 45.1045 435.264 44.8652 435.619 44.3867C435.979 43.9036 436.159 43.1882 436.159 42.2402ZM443.604 46C443.531 45.8542 443.471 45.5944 443.426 45.2207C442.838 45.8314 442.136 46.1367 441.32 46.1367C440.591 46.1367 439.992 45.9316 439.522 45.5215C439.058 45.1068 438.825 44.5827 438.825 43.9492C438.825 43.179 439.117 42.582 439.7 42.1582C440.288 41.7298 441.113 41.5156 442.175 41.5156H443.405V40.9346C443.405 40.4925 443.273 40.1416 443.009 39.8818C442.744 39.6175 442.355 39.4854 441.84 39.4854C441.389 39.4854 441.01 39.5993 440.705 39.8271C440.4 40.055 440.247 40.3307 440.247 40.6543H438.976C438.976 40.2852 439.105 39.9297 439.365 39.5879C439.63 39.2415 439.985 38.9681 440.432 38.7676C440.883 38.5671 441.377 38.4668 441.915 38.4668C442.767 38.4668 443.435 38.681 443.918 39.1094C444.401 39.5332 444.652 40.1188 444.67 40.8662V44.2705C444.67 44.9495 444.757 45.4896 444.93 45.8906V46H443.604ZM441.505 45.0361C441.901 45.0361 442.277 44.9336 442.633 44.7285C442.988 44.5234 443.246 44.2568 443.405 43.9287V42.4111H442.414C440.865 42.4111 440.09 42.8646 440.09 43.7715C440.09 44.168 440.222 44.4779 440.486 44.7012C440.751 44.9245 441.09 45.0361 441.505 45.0361ZM449.619 45.1045C450.07 45.1045 450.465 44.9678 450.802 44.6943C451.139 44.4209 451.326 44.0791 451.362 43.6689H452.559C452.536 44.0928 452.39 44.4961 452.121 44.8789C451.852 45.2617 451.492 45.5671 451.041 45.7949C450.594 46.0228 450.12 46.1367 449.619 46.1367C448.612 46.1367 447.81 45.8018 447.213 45.1318C446.62 44.4574 446.324 43.5368 446.324 42.3701V42.1582C446.324 41.4382 446.456 40.7979 446.721 40.2373C446.985 39.6768 447.363 39.2415 447.855 38.9316C448.352 38.6217 448.938 38.4668 449.612 38.4668C450.442 38.4668 451.13 38.7152 451.677 39.2119C452.228 39.7087 452.522 40.3535 452.559 41.1465H451.362C451.326 40.668 451.144 40.276 450.815 39.9707C450.492 39.6608 450.091 39.5059 449.612 39.5059C448.97 39.5059 448.471 39.7383 448.115 40.2031C447.764 40.6634 447.589 41.3311 447.589 42.2061V42.4453C447.589 43.2975 447.764 43.9538 448.115 44.4141C448.466 44.8743 448.967 45.1045 449.619 45.1045ZM457.05 46.1367C456.047 46.1367 455.231 45.8086 454.603 45.1523C453.974 44.4915 453.659 43.6097 453.659 42.5068V42.2744C453.659 41.5407 453.798 40.8867 454.076 40.3125C454.359 39.7337 454.751 39.2826 455.252 38.959C455.758 38.6309 456.305 38.4668 456.893 38.4668C457.854 38.4668 458.602 38.7835 459.135 39.417C459.668 40.0505 459.935 40.9574 459.935 42.1377V42.6641H454.924C454.942 43.3932 455.154 43.9834 455.56 44.4346C455.97 44.8812 456.489 45.1045 457.118 45.1045C457.565 45.1045 457.943 45.0133 458.253 44.8311C458.563 44.6488 458.834 44.4072 459.066 44.1064L459.839 44.708C459.219 45.6605 458.289 46.1367 457.05 46.1367ZM456.893 39.5059C456.382 39.5059 455.954 39.6927 455.607 40.0664C455.261 40.4355 455.047 40.9551 454.965 41.625H458.67V41.5293C458.633 40.8867 458.46 40.39 458.15 40.0391C457.84 39.6836 457.421 39.5059 456.893 39.5059ZM465.766 35.3701L466.49 35.8623C466.066 36.4411 465.848 37.0654 465.834 37.7354V38.665H464.576V37.8721C464.576 37.4072 464.686 36.9469 464.904 36.4912C465.128 36.0355 465.415 35.6618 465.766 35.3701ZM473.941 42.3838C473.941 43.514 473.682 44.4232 473.162 45.1113C472.643 45.7949 471.945 46.1367 471.07 46.1367C470.136 46.1367 469.414 45.8063 468.903 45.1455L468.842 46H467.68V35.5H468.944V39.417C469.455 38.7835 470.159 38.4668 471.057 38.4668C471.954 38.4668 472.659 38.8063 473.169 39.4854C473.684 40.1644 473.941 41.0941 473.941 42.2744V42.3838ZM472.677 42.2402C472.677 41.3789 472.51 40.7135 472.178 40.2441C471.845 39.7747 471.367 39.54 470.742 39.54C469.908 39.54 469.309 39.9274 468.944 40.7021V43.9014C469.332 44.6761 469.936 45.0635 470.756 45.0635C471.362 45.0635 471.834 44.8288 472.171 44.3594C472.508 43.89 472.677 43.1836 472.677 42.2402ZM475.425 38.8496L474.707 38.3574C475.131 37.765 475.35 37.1406 475.363 36.4844V35.5H476.614V36.3887C476.61 36.8444 476.496 37.3001 476.272 37.7559C476.054 38.207 475.771 38.5716 475.425 38.8496Z" fill="black"/>
</svg>
