<svg width="280" height="417" viewBox="0 0 280 417" fill="none" xmlns="http://www.w3.org/2000/svg"><g filter="url(#filter0_d)"><path d="M167.146 41.774h-107.6v54.62h107.6v-54.62z" fill="#fff"/></g><g filter="url(#filter1_d)"><path d="M167.146 113.325h-107.6v54.619h107.6v-54.619z" fill="#fff"/></g><g filter="url(#filter2_d)"><path d="M166.6 187.061H59v54.619h107.6v-54.619z" fill="#fff"/></g><g filter="url(#filter3_d)"><path d="M167.146 260.797h-107.6v54.619h107.6v-54.619z" fill="#fff"/></g><g filter="url(#filter4_d)"><path d="M167.146 334.533h-107.6v54.619h107.6v-54.619z" fill="#fff"/></g><path d="M85.222 69.3c-1.054-.304-1.822-.675-2.305-1.115a2.147 2.147 0 01-.717-1.639c0-.733.293-1.34.877-1.817.59-.482 1.353-.724 2.292-.724.64 0 1.21.124 1.709.372.503.247.892.589 1.165 1.024.277.435.416.911.416 1.427h-1.236c0-.563-.179-1.005-.537-1.325-.359-.324-.864-.486-1.517-.486-.606 0-1.08.134-1.421.403-.337.264-.506.634-.506 1.107 0 .38.16.702.48.967.325.26.873.5 1.645.717.777.218 1.383.458 1.818.723.44.26.764.566.973.915.213.35.32.762.32 1.236 0 .755-.294 1.36-.883 1.817-.59.453-1.377.679-2.362.679-.64 0-1.238-.121-1.793-.365-.554-.247-.983-.584-1.286-1.011a2.472 2.472 0 01-.448-1.453h1.235c0 .563.207 1.009.621 1.338.418.324.975.486 1.67.486.65 0 1.147-.132 1.492-.397.346-.264.518-.625.518-1.081 0-.457-.16-.81-.48-1.056-.32-.252-.9-.5-1.74-.743zm11.476-4.155h-2.996v8.308H92.48v-8.308h-2.99v-1.011h7.208v1.01zm4.8 4.538h-2.189v3.77h-1.235v-9.32h3.085c1.05 0 1.856.24 2.42.717.567.478.851 1.174.851 2.087 0 .58-.158 1.086-.474 1.517-.311.431-.746.753-1.305.966l2.189 3.956v.077h-1.319l-2.023-3.77zm-2.189-1.005h1.889c.61 0 1.094-.158 1.453-.473.362-.317.544-.739.544-1.268 0-.576-.173-1.018-.519-1.325-.341-.307-.836-.463-1.485-.467h-1.882v3.533zm11.995 2.343H107.4l-.877 2.432h-1.267l3.558-9.32h1.076l3.565 9.32h-1.261l-.89-2.432zm-3.533-1.012h3.169l-1.588-4.358-1.581 4.358zm12.546-4.864h-2.996v8.308h-1.223v-8.308h-2.989v-1.011h7.208v1.01zm6.65 4h-4.039v3.303h4.692v1.005h-5.921v-9.32h5.857v1.012h-4.628v2.995h4.039v1.005zm9.063 3.086c-.316.452-.757.791-1.325 1.017-.563.222-1.22.333-1.971.333-.76 0-1.434-.177-2.023-.531a3.61 3.61 0 01-1.37-1.523c-.32-.657-.484-1.42-.492-2.286v-.813c0-1.404.326-2.492.979-3.264.657-.772 1.579-1.159 2.765-1.159.973 0 1.756.25 2.349.75.593.494.956 1.199 1.088 2.111h-1.229c-.23-1.232-.964-1.849-2.202-1.849-.823 0-1.448.29-1.875.87-.422.576-.636 1.413-.64 2.51v.761c0 1.046.239 1.877.717 2.496.478.615 1.124.922 1.939.922.461 0 .864-.051 1.21-.154.345-.102.632-.275.858-.518v-2.093h-2.157v-.999h3.379v3.419zm4.897-3.418l2.432-4.68h1.395l-3.213 5.845v3.475h-1.229v-3.475l-3.213-5.844h1.408l2.42 4.678zM82.612 141.356v3.648h-1.229v-9.319h3.437c1.02 0 1.818.26 2.394.781.58.52.87 1.209.87 2.067 0 .905-.283 1.602-.85 2.093-.564.487-1.372.73-2.426.73h-2.196zm0-1.005h2.208c.658 0 1.161-.154 1.511-.461.35-.312.525-.76.525-1.344 0-.555-.175-.998-.525-1.332-.35-.332-.83-.505-1.44-.518h-2.279v3.655zm8.276 3.648h4.417v1.005h-5.652v-9.319h1.235v8.314zm11.093-1.427h-3.905l-.877 2.432h-1.267l3.559-9.319h1.075l3.565 9.319h-1.261l-.889-2.432zm-3.533-1.012h3.168l-1.588-4.358-1.58 4.358zm14.1 3.444h-1.235l-4.692-7.181v7.181h-1.235v-9.319h1.235l4.705 7.214v-7.214h1.222v9.319zm9.345 0h-1.235l-4.692-7.181v7.181h-1.235v-9.319h1.235l4.705 7.214v-7.214h1.222v9.319zm3.502 0h-1.229v-9.319h1.229v9.319zm9.415 0h-1.236l-4.691-7.181v7.181h-1.235v-9.319h1.235l4.705 7.214v-7.214h1.222v9.319zm9.063-1.222c-.316.452-.757.791-1.325 1.017-.563.222-1.22.333-1.971.333-.76 0-1.434-.177-2.023-.531a3.6 3.6 0 01-1.369-1.523c-.32-.657-.485-1.419-.493-2.285v-.813c0-1.404.326-2.493.979-3.265.657-.772 1.579-1.158 2.765-1.158.973 0 1.756.249 2.349.749.593.494.956 1.199 1.088 2.112h-1.229c-.23-1.233-.964-1.85-2.202-1.85-.823 0-1.448.29-1.875.87-.423.577-.636 1.413-.64 2.51v.761c0 1.046.239 1.878.717 2.497.478.614 1.124.922 1.939.922.461 0 .864-.052 1.21-.154.346-.103.631-.276.857-.519v-2.093h-2.156v-.998h3.379v3.418zM92.868 214.586c-1.054-.303-1.822-.674-2.304-1.114a2.147 2.147 0 01-.717-1.638c0-.734.292-1.34.877-1.818.589-.482 1.353-.723 2.291-.723.64 0 1.21.124 1.71.371.503.248.891.589 1.164 1.024.278.436.416.911.416 1.427H95.07c0-.563-.18-1.005-.538-1.325-.358-.324-.864-.486-1.517-.486-.606 0-1.08.135-1.42.403-.338.265-.506.634-.506 1.107 0 .381.16.702.48.967.324.26.873.499 1.645.717.776.218 1.382.459 1.818.724.44.26.763.565.972.914.214.351.32.762.32 1.236 0 .755-.294 1.361-.883 1.818-.589.452-1.376.678-2.362.678a4.4 4.4 0 01-1.792-.365c-.555-.247-.983-.584-1.286-1.011a2.47 2.47 0 01-.448-1.453h1.235c0 .563.207 1.009.62 1.338.419.324.976.487 1.671.487.649 0 1.146-.133 1.492-.398.345-.264.518-.625.518-1.081 0-.457-.16-.809-.48-1.056-.32-.252-.9-.5-1.74-.743zm7.406-.179l-1.14 1.184v3.149h-1.228v-9.319h1.228v4.608l4.142-4.608h1.485l-3.668 4.116 3.956 5.203h-1.472l-3.303-4.333zm7.169 4.333h-1.229v-9.319h1.229v9.319zm3.488-1.005h4.416v1.005h-5.651v-9.319h1.235v8.314zm7.053 0h4.417v1.005h-5.652v-9.319h1.235v8.314zm8.565-3.149c-1.054-.303-1.822-.674-2.305-1.114a2.146 2.146 0 01-.716-1.638c0-.734.292-1.34.876-1.818.589-.482 1.353-.723 2.292-.723.64 0 1.209.124 1.709.371.503.248.892.589 1.165 1.024.277.436.416.911.416 1.427h-1.236c0-.563-.179-1.005-.537-1.325-.359-.324-.864-.486-1.517-.486-.606 0-1.08.135-1.421.403-.337.265-.506.634-.506 1.107 0 .381.16.702.48.967.325.26.873.499 1.645.717.777.218 1.383.459 1.818.724.44.26.764.565.973.914.213.351.32.762.32 1.236 0 .755-.294 1.361-.883 1.818-.589.452-1.377.678-2.362.678-.64 0-1.238-.121-1.793-.365-.554-.247-.983-.584-1.286-1.011a2.469 2.469 0 01-.448-1.453h1.235c0 .563.207 1.009.621 1.338.419.324.975.487 1.671.487.648 0 1.145-.133 1.491-.398.346-.264.519-.625.519-1.081 0-.457-.161-.809-.481-1.056-.32-.252-.9-.5-1.74-.743zM86.794 283.157l3.047 7.604 3.046-7.604h1.594v9.319h-1.229v-3.629l.116-3.917-3.06 7.546h-.94l-3.054-7.527.122 3.898v3.629h-1.23v-9.319h1.588zm17.026 4.961c0 .912-.154 1.71-.461 2.393-.307.679-.743 1.197-1.306 1.556-.563.358-1.22.537-1.971.537-.734 0-1.385-.179-1.952-.537-.568-.363-1.01-.877-1.325-1.543-.312-.67-.472-1.445-.48-2.323v-.673c0-.896.155-1.687.467-2.374.311-.687.75-1.212 1.318-1.575.572-.367 1.225-.55 1.959-.55.747 0 1.404.181 1.971.544.572.358 1.012.881 1.319 1.568.307.683.461 1.478.461 2.387v.59zm-1.223-.602c0-1.105-.222-1.952-.665-2.541-.444-.593-1.065-.89-1.863-.89-.777 0-1.389.297-1.837.89-.444.589-.672 1.408-.685 2.458v.685c0 1.07.224 1.913.672 2.527.453.611 1.073.916 1.863.916.794 0 1.408-.288 1.843-.864.435-.58.659-1.411.672-2.49v-.691zm9.326-3.348h-2.995v8.308h-1.223v-8.308h-2.989v-1.011h7.207v1.011zm2.701 8.308h-1.229v-9.319h1.229v9.319zm9.422-4.358c0 .912-.153 1.71-.461 2.393-.307.679-.742 1.197-1.306 1.556-.563.358-1.22.537-1.971.537-.734 0-1.385-.179-1.952-.537-.568-.363-1.01-.877-1.325-1.543-.312-.67-.472-1.445-.48-2.323v-.673c0-.896.155-1.687.467-2.374.312-.687.751-1.212 1.319-1.575.572-.367 1.224-.55 1.958-.55.747 0 1.404.181 1.972.544.571.358 1.011.881 1.318 1.568.308.683.461 1.478.461 2.387v.59zm-1.222-.602c0-1.105-.223-1.952-.666-2.541-.444-.593-1.065-.89-1.863-.89-.776 0-1.389.297-1.837.89-.444.589-.672 1.408-.685 2.458v.685c0 1.07.225 1.913.672 2.527.453.611 1.074.916 1.863.916.794 0 1.408-.288 1.843-.864.436-.58.66-1.411.673-2.49v-.691zm10.228 4.96h-1.236l-4.691-7.181v7.181h-1.236v-9.319h1.236l4.704 7.214v-7.214h1.223v9.319zm4.929-4.154c-1.055-.303-1.823-.674-2.305-1.114a2.147 2.147 0 01-.717-1.638c0-.734.292-1.34.877-1.818.589-.482 1.353-.723 2.291-.723.641 0 1.21.124 1.71.371.503.248.891.589 1.165 1.024.277.436.416.911.416 1.427h-1.236c0-.563-.179-1.005-.538-1.325-.358-.324-.864-.486-1.517-.486-.605 0-1.079.135-1.42.403-.338.265-.506.634-.506 1.107 0 .381.16.702.48.967.324.26.872.499 1.645.717.776.218 1.383.459 1.817.724.44.26.765.565.974.914.213.351.32.762.32 1.236 0 .755-.295 1.361-.884 1.818-.589.452-1.376.678-2.362.678-.64 0-1.237-.121-1.792-.365-.555-.247-.983-.584-1.286-1.011a2.469 2.469 0 01-.448-1.453h1.235c0 .563.207 1.009.621 1.338.418.324.975.487 1.67.487.649 0 1.146-.133 1.492-.397.346-.265.518-.626.518-1.082 0-.457-.16-.809-.48-1.056-.32-.252-.9-.5-1.74-.743zM78.168 366.212h-1.235v-4.308h-4.699v4.308h-1.228v-9.319h1.228v4.006h4.699v-4.006h1.235v9.319zm7.444-2.432h-3.904l-.877 2.432h-1.268l3.56-9.319h1.074l3.566 9.319h-1.261l-.89-2.432zm-3.533-1.012h3.168l-1.587-4.358-1.581 4.358zm10.356-.326h-2.189v3.77h-1.235v-9.319h3.085c1.05 0 1.856.239 2.42.717.567.478.85 1.173.85 2.086 0 .581-.157 1.087-.473 1.517-.312.431-.747.754-1.306.967l2.19 3.955v.077h-1.32l-2.022-3.77zm-2.189-1.005h1.888c.61 0 1.095-.157 1.453-.473.363-.316.544-.739.544-1.268 0-.576-.173-1.017-.518-1.324-.342-.308-.837-.464-1.485-.468h-1.882v3.533zm6.849 4.775v-9.319h2.63c.811 0 1.528.179 2.151.538a3.613 3.613 0 011.44 1.529c.342.662.514 1.421.519 2.279v.595c0 .879-.171 1.649-.512 2.311a3.558 3.558 0 01-1.453 1.523c-.628.354-1.359.535-2.196.544h-2.58zm1.229-8.308v7.303h1.293c.947 0 1.683-.294 2.208-.883.529-.589.794-1.427.794-2.515v-.545c0-1.058-.25-1.879-.749-2.464-.495-.588-1.199-.887-2.113-.896h-1.433zm9.383 5.37l.179 1.229.263-1.107 1.843-6.503h1.037l1.799 6.503.256 1.126.198-1.254 1.447-6.375h1.235l-2.26 9.319h-1.12l-1.92-6.791-.147-.71-.147.71-1.991 6.791h-1.12l-2.253-9.319h1.229l1.472 6.381zm14.491.506h-3.904l-.877 2.432h-1.267l3.558-9.319h1.076l3.565 9.319h-1.261l-.89-2.432zm-3.533-1.012h3.168l-1.587-4.358-1.581 4.358zm10.356-.326h-2.189v3.77h-1.235v-9.319h3.085c1.05 0 1.857.239 2.42.717.567.478.851 1.173.851 2.086 0 .581-.158 1.087-.474 1.517-.311.431-.746.754-1.305.967l2.188 3.955v.077h-1.318l-2.023-3.77zm-2.189-1.005h1.888c.611 0 1.095-.157 1.454-.473.362-.316.544-.739.544-1.268 0-.576-.173-1.017-.519-1.324-.341-.308-.836-.464-1.485-.468h-1.882v3.533zm12.117.467h-4.039v3.303h4.692v1.005h-5.921v-9.319h5.857v1.011h-4.628v2.995h4.039v1.005zm6.752 4.308h-1.228v-9.319h1.228v9.319zm9.422-4.358c0 .912-.153 1.71-.46 2.393-.308.679-.743 1.197-1.306 1.556-.563.358-1.22.537-1.971.537-.734 0-1.385-.179-1.953-.537-.567-.363-1.009-.877-1.324-1.543-.312-.67-.472-1.445-.481-2.323v-.673c0-.896.156-1.687.467-2.374.312-.687.751-1.212 1.319-1.575.572-.367 1.225-.55 1.959-.55.746 0 1.403.181 1.971.544.572.358 1.011.881 1.319 1.568.307.683.46 1.478.46 2.387v.59zm-1.222-.602c0-1.105-.222-1.952-.666-2.541-.443-.593-1.064-.89-1.862-.89-.777 0-1.389.297-1.837.89-.444.589-.673 1.408-.685 2.458v.685c0 1.07.224 1.913.672 2.527.452.611 1.073.916 1.863.916.793 0 1.408-.288 1.843-.864.435-.58.659-1.411.672-2.49v-.691zM111.947 261.377a.821.821 0 001.159 0l5.214-5.214a.82.82 0 00-1.159-1.159l-4.634 4.635-4.635-4.635a.818.818 0 10-1.158 1.159l5.213 5.214zm-.239-19.697v19.117h1.638V241.68h-1.638zM112.494 113.905a.821.821 0 001.159 0l5.214-5.214a.82.82 0 00-1.159-1.159l-4.635 4.635-4.635-4.635a.818.818 0 10-1.158 1.159l5.214 5.214zm-.24-17.512v16.932h1.638V96.393h-1.638zM111.931 187.624a.82.82 0 001.158.033l5.361-5.063a.819.819 0 10-1.125-1.192l-4.765 4.501-4.5-4.765a.82.82 0 00-1.192 1.125l5.063 5.361zm.323-19.703l-.546 19.117 1.638.047.546-19.117-1.638-.047zM112.494 335.113a.821.821 0 001.159 0l5.214-5.214a.82.82 0 00-1.159-1.159l-4.635 4.635-4.635-4.635a.818.818 0 10-1.158 1.159l5.214 5.214zm-.24-19.697v19.117h1.638v-19.117h-1.638z" fill="#000"/><path d="M113.892 389.152V411M113.073 410.181h106.508M218.761 410.998L219.854 9M220.127 9.822H113.073" stroke="#000" stroke-width="2"/><path d="M111.947 42.353a.82.82 0 001.159 0l5.214-5.214a.82.82 0 10-1.159-1.158l-4.634 4.634-4.635-4.634a.818.818 0 10-1.158 1.158l5.213 5.214zm-.239-33.35v32.77h1.638V9.004h-1.638z" fill="#000"/><defs><filter id="filter0_d" x="55.5462" y="41.7738" width="115.6" height="62.6193" filterUnits="userSpaceOnUse" color-interpolation-filters="sRGB"><feFlood flood-opacity="0" result="BackgroundImageFix"/><feColorMatrix in="SourceAlpha" values="0 0 0 0 0 0 0 0 0 0 0 0 0 0 0 0 0 0 127 0"/><feOffset dy="4"/><feGaussianBlur stdDeviation="2"/><feColorMatrix values="0 0 0 0 0 0 0 0 0 0 0 0 0 0 0 0 0 0 0.25 0"/><feBlend in2="BackgroundImageFix" result="effect1_dropShadow"/><feBlend in="SourceGraphic" in2="effect1_dropShadow" result="shape"/></filter><filter id="filter1_d" x="55.5462" y="113.325" width="115.6" height="62.6193" filterUnits="userSpaceOnUse" color-interpolation-filters="sRGB"><feFlood flood-opacity="0" result="BackgroundImageFix"/><feColorMatrix in="SourceAlpha" values="0 0 0 0 0 0 0 0 0 0 0 0 0 0 0 0 0 0 127 0"/><feOffset dy="4"/><feGaussianBlur stdDeviation="2"/><feColorMatrix values="0 0 0 0 0 0 0 0 0 0 0 0 0 0 0 0 0 0 0.25 0"/><feBlend in2="BackgroundImageFix" result="effect1_dropShadow"/><feBlend in="SourceGraphic" in2="effect1_dropShadow" result="shape"/></filter><filter id="filter2_d" x="55" y="187.061" width="115.6" height="62.6193" filterUnits="userSpaceOnUse" color-interpolation-filters="sRGB"><feFlood flood-opacity="0" result="BackgroundImageFix"/><feColorMatrix in="SourceAlpha" values="0 0 0 0 0 0 0 0 0 0 0 0 0 0 0 0 0 0 127 0"/><feOffset dy="4"/><feGaussianBlur stdDeviation="2"/><feColorMatrix values="0 0 0 0 0 0 0 0 0 0 0 0 0 0 0 0 0 0 0.25 0"/><feBlend in2="BackgroundImageFix" result="effect1_dropShadow"/><feBlend in="SourceGraphic" in2="effect1_dropShadow" result="shape"/></filter><filter id="filter3_d" x="55.5462" y="260.797" width="115.6" height="62.6193" filterUnits="userSpaceOnUse" color-interpolation-filters="sRGB"><feFlood flood-opacity="0" result="BackgroundImageFix"/><feColorMatrix in="SourceAlpha" values="0 0 0 0 0 0 0 0 0 0 0 0 0 0 0 0 0 0 127 0"/><feOffset dy="4"/><feGaussianBlur stdDeviation="2"/><feColorMatrix values="0 0 0 0 0 0 0 0 0 0 0 0 0 0 0 0 0 0 0.25 0"/><feBlend in2="BackgroundImageFix" result="effect1_dropShadow"/><feBlend in="SourceGraphic" in2="effect1_dropShadow" result="shape"/></filter><filter id="filter4_d" x="55.5462" y="334.533" width="115.6" height="62.6193" filterUnits="userSpaceOnUse" color-interpolation-filters="sRGB"><feFlood flood-opacity="0" result="BackgroundImageFix"/><feColorMatrix in="SourceAlpha" values="0 0 0 0 0 0 0 0 0 0 0 0 0 0 0 0 0 0 127 0"/><feOffset dy="4"/><feGaussianBlur stdDeviation="2"/><feColorMatrix values="0 0 0 0 0 0 0 0 0 0 0 0 0 0 0 0 0 0 0.25 0"/><feBlend in2="BackgroundImageFix" result="effect1_dropShadow"/><feBlend in="SourceGraphic" in2="effect1_dropShadow" result="shape"/></filter></defs></svg>
