<svg width="831" height="529" viewBox="0 0 831 529" fill="none" xmlns="http://www.w3.org/2000/svg">
<rect width="831" height="529" fill="#3B8A2E"/>
<path d="M334.707 265.707C335.098 265.317 335.098 264.683 334.707 264.293L328.343 257.929C327.953 257.538 327.319 257.538 326.929 257.929C326.538 258.319 326.538 258.953 326.929 259.343L332.586 265L326.929 270.657C326.538 271.047 326.538 271.681 326.929 272.071C327.319 272.462 327.953 272.462 328.343 272.071L334.707 265.707ZM225 266H334V264H225V266Z" fill="#D4F700"/>
<path d="M224.627 155.287C224.235 154.899 223.601 154.902 223.213 155.295L216.882 161.692C216.494 162.084 216.497 162.717 216.89 163.106C217.282 163.494 217.915 163.491 218.304 163.099L223.931 157.412L229.617 163.039C230.01 163.428 230.643 163.425 231.032 163.032C231.42 162.64 231.417 162.006 231.024 161.618L224.627 155.287ZM225.462 258.995L224.924 155.993L222.924 156.003L223.462 259.005L225.462 258.995Z" fill="#D4F700"/>
<path d="M206.342 154.618L208.557 147.49H210.297L206.474 158.468C205.882 160.05 204.941 160.841 203.652 160.841L203.345 160.814L202.738 160.7V159.382L203.178 159.417C203.729 159.417 204.156 159.306 204.461 159.083C204.771 158.86 205.026 158.453 205.226 157.861L205.586 156.895L202.193 147.49H203.969L206.342 154.618Z" fill="#D4F700"/>
<path d="M320.421 248.962L322.53 245.49H324.429L321.317 250.192L324.525 255H322.645L320.447 251.44L318.25 255H316.36L319.568 250.192L316.457 245.49H318.338L320.421 248.962Z" fill="#D4F700"/>
<path d="M207.179 285.823H204.173V291H202.477V278.203H206.713C208.154 278.203 209.262 278.531 210.035 279.188C210.814 279.844 211.204 280.799 211.204 282.053C211.204 282.85 210.987 283.544 210.554 284.136C210.126 284.728 209.528 285.17 208.761 285.463L211.767 290.895V291H209.956L207.179 285.823ZM204.173 284.443H206.766C207.604 284.443 208.269 284.227 208.761 283.793C209.259 283.359 209.508 282.779 209.508 282.053C209.508 281.262 209.271 280.655 208.796 280.233C208.327 279.812 207.647 279.598 206.757 279.592H204.173V284.443ZM212.892 286.157C212.892 285.226 213.073 284.388 213.437 283.644C213.806 282.899 214.315 282.325 214.966 281.921C215.622 281.517 216.369 281.314 217.207 281.314C218.502 281.314 219.548 281.763 220.345 282.659C221.147 283.556 221.549 284.748 221.549 286.236V286.351C221.549 287.276 221.37 288.108 221.013 288.847C220.661 289.579 220.154 290.15 219.492 290.561C218.836 290.971 218.08 291.176 217.225 291.176C215.936 291.176 214.89 290.728 214.087 289.831C213.29 288.935 212.892 287.748 212.892 286.271V286.157ZM214.526 286.351C214.526 287.405 214.77 288.252 215.256 288.891C215.748 289.529 216.404 289.849 217.225 289.849C218.051 289.849 218.707 289.526 219.193 288.882C219.68 288.231 219.923 287.323 219.923 286.157C219.923 285.114 219.674 284.271 219.176 283.626C218.684 282.976 218.027 282.65 217.207 282.65C216.404 282.65 215.757 282.97 215.265 283.608C214.772 284.247 214.526 285.161 214.526 286.351ZM231.639 286.351C231.639 287.804 231.305 288.973 230.637 289.857C229.969 290.736 229.072 291.176 227.947 291.176C226.746 291.176 225.817 290.751 225.161 289.901L225.082 291H223.588V277.5H225.214V282.536C225.87 281.722 226.775 281.314 227.93 281.314C229.084 281.314 229.989 281.751 230.646 282.624C231.308 283.497 231.639 284.692 231.639 286.21V286.351ZM230.013 286.166C230.013 285.059 229.799 284.203 229.371 283.6C228.943 282.996 228.328 282.694 227.525 282.694C226.453 282.694 225.683 283.192 225.214 284.188V288.302C225.712 289.298 226.488 289.796 227.543 289.796C228.322 289.796 228.929 289.494 229.362 288.891C229.796 288.287 230.013 287.379 230.013 286.166ZM233.265 286.157C233.265 285.226 233.446 284.388 233.81 283.644C234.179 282.899 234.688 282.325 235.339 281.921C235.995 281.517 236.742 281.314 237.58 281.314C238.875 281.314 239.921 281.763 240.718 282.659C241.521 283.556 241.922 284.748 241.922 286.236V286.351C241.922 287.276 241.743 288.108 241.386 288.847C241.034 289.579 240.527 290.15 239.865 290.561C239.209 290.971 238.453 291.176 237.598 291.176C236.309 291.176 235.263 290.728 234.46 289.831C233.663 288.935 233.265 287.748 233.265 286.271V286.157ZM234.899 286.351C234.899 287.405 235.143 288.252 235.629 288.891C236.121 289.529 236.777 289.849 237.598 289.849C238.424 289.849 239.08 289.526 239.566 288.882C240.053 288.231 240.296 287.323 240.296 286.157C240.296 285.114 240.047 284.271 239.549 283.626C239.057 282.976 238.4 282.65 237.58 282.65C236.777 282.65 236.13 282.97 235.638 283.608C235.146 284.247 234.899 285.161 234.899 286.351ZM246.167 279.188V281.49H247.942V282.747H246.167V288.645C246.167 289.025 246.246 289.312 246.404 289.506C246.562 289.693 246.832 289.787 247.213 289.787C247.4 289.787 247.658 289.752 247.986 289.682V291C247.559 291.117 247.143 291.176 246.738 291.176C246.012 291.176 245.464 290.956 245.095 290.517C244.726 290.077 244.541 289.453 244.541 288.645V282.747H242.81V281.49H244.541V279.188H246.167Z" fill="black"/>
<line x1="22" y1="20" x2="809.001" y2="20" stroke="white"/>
<line x1="22" y1="499.5" x2="809.001" y2="499.5" stroke="white"/>
<line x1="22.5" y1="20" x2="22.5" y2="500" stroke="white"/>
<line x1="808.5" y1="20" x2="808.5" y2="500" stroke="white"/>
<path d="M415 20L415 500" stroke="#FCFCFC"/>
<circle cx="415" cy="265" r="74.5" stroke="white"/>
<rect x="22.5" y="129.5" width="91" height="270" stroke="white"/>
<rect x="717.5" y="129.5" width="91" height="270" stroke="white"/>
<rect x="214" y="255" width="20" height="20" fill="black"/>
</svg>
