<svg width="507" height="459" viewBox="0 0 507 459" fill="none" xmlns="http://www.w3.org/2000/svg">
<path d="M488.896 329.397C466.896 326.397 431.896 306.397 426.896 303.397C421.896 300.397 398.896 275.397 386.896 256.397C374.896 237.397 363.896 214.397 359.896 201.397C355.896 188.397 351.896 175.397 350.896 168.397C349.896 161.397 351.896 144.897 354.896 137.897C347.896 132.897 333.896 131.897 327.896 144.897C321.896 157.897 316.896 177.897 316.896 190.897C316.896 203.897 338.896 245.897 324.896 251.897C310.896 257.897 307.896 265.897 235.896 247.897C163.896 229.897 133.896 227.897 126.896 241.897C119.896 255.897 160.896 261.897 182.896 265.897C204.896 269.897 254.917 288.531 247.896 297.897C243.546 303.699 238.521 302.385 227.187 306.385C207.576 313.307 207.879 316.351 183.396 324.73C158.963 333.092 160.553 356.956 168.229 360.96C175.905 364.964 182.245 367.302 214.615 348.947C228.965 343.607 246.397 340.062 261.73 338.729C277.063 337.396 286.398 394.729 303.064 403.396C319.73 412.063 339.063 411.396 351.063 411.396C363.063 411.396 369.729 413.397 376.396 410.063C383.063 406.729 401.73 411.395 411.73 416.729C411.73 416.729 450.397 435.396 453.73 439.396" fill="#E5D4B1"/>
<path d="M488.896 329.397C466.896 326.397 431.896 306.397 426.896 303.397C421.896 300.397 398.896 275.397 386.896 256.397C374.896 237.397 363.896 214.397 359.896 201.397C355.896 188.397 351.896 175.397 350.896 168.397C349.896 161.397 351.896 144.897 354.896 137.897C347.896 132.897 333.896 131.897 327.896 144.897C321.896 157.897 316.896 177.897 316.896 190.897C316.896 203.897 338.896 245.897 324.896 251.897C310.896 257.897 307.896 265.897 235.896 247.897C163.896 229.897 133.896 227.897 126.896 241.897C119.896 255.897 160.896 261.897 182.896 265.897C204.896 269.897 254.917 288.531 247.896 297.897C243.546 303.699 238.521 302.385 227.187 306.385C207.576 313.307 207.879 316.351 183.396 324.73C158.963 333.092 160.553 356.956 168.229 360.96C175.905 364.964 182.245 367.302 214.615 348.947C228.965 343.607 246.397 340.062 261.73 338.729C277.063 337.396 286.398 394.729 303.064 403.396C319.73 412.063 339.063 411.396 351.063 411.396C363.063 411.396 369.729 413.397 376.396 410.063C383.063 406.729 401.73 411.395 411.73 416.729C411.73 416.729 450.397 435.396 453.73 439.396" stroke="black" stroke-width="3"/>
<path d="M256.397 296.396C290.396 294.397 302.396 327.063 310.396 344.397" stroke="#897F6A" stroke-width="2"/>
<path d="M328.063 271.062C328.397 296.396 339.064 317.73 353.396 325.728" stroke="#897F6A" stroke-width="2"/>
<path d="M261.73 256.396C253.73 257.729 244.397 276.396 248.397 281.729" stroke="#897F6A" stroke-width="2"/>
<path d="M219.063 245.729C213.73 249.729 203.063 259.062 205.73 264.396" stroke="#897F6A" stroke-width="2"/>
<path d="M171.063 237.729C164.396 241.729 162.229 253.23 160.896 255.896" stroke="#897F6A" stroke-width="2"/>
<path d="M244.397 305.73C252.397 309.73 256.397 323.062 253.73 332.396" stroke="#897F6A" stroke-width="2"/>
<path d="M223.21 313.002C229.877 317.002 230.458 336.995 227.791 340.995" stroke="#897F6A" stroke-width="2"/>
<path d="M197.762 324.199C206.41 330.684 207.353 339.733 202.851 350.665" stroke="#897F6A" stroke-width="2"/>
<path d="M315.896 261.897C311.896 271.897 308.896 279.897 309.896 285.897" stroke="#897F6A" stroke-width="2"/>
<path d="M316.896 190.897C328.843 192.604 319.573 194.149 341.896 189.897" stroke="#897F6A" stroke-width="2"/>
<path d="M421.063 312.397C417.063 324.397 413.063 328.396 406.396 332.396" stroke="#897F6A" stroke-width="2"/>
<path d="M321.73 400.064C337.635 396.883 349.064 394.731 357.73 392.064C366.396 389.397 379.062 382.063 382.396 375.397C385.73 368.731 383.063 367.398 381.063 362.731C379.063 358.064 357.064 360.731 351.73 362.731C346.396 364.731 341.73 366.731 319.73 370.064C297.73 373.397 291.73 375.064 280.396 373.73C271.104 372.636 281.731 396.063 286.397 398.73C291.063 401.397 291.73 406.064 321.73 400.064Z" fill="#E5D4B1" stroke="black" stroke-width="3"/>
<path d="M338.698 337.397C357.595 336.064 367.046 334.731 372.133 340.064C377.22 345.397 375.039 350.731 373.586 352.064C372.133 353.397 355.415 360.73 346.693 363.397C337.97 366.064 336.517 364.064 319.074 368.064C301.63 372.064 300.177 373.397 295.088 375.397C290 377.397 279.825 376.73 270.377 369.397C260.928 362.064 262.381 349.397 263.108 345.397C263.835 341.397 264.563 332.73 282.733 331.397C300.903 330.064 295.087 336.063 318.347 336.73C341.605 337.397 338.698 337.397 338.698 337.397Z" fill="#E5D4B1" stroke="black" stroke-width="3"/>
<path d="M267.729 344.064C265.806 361.369 268.838 362.23 278.396 369.397" stroke="#897F6A" stroke-width="2"/>
<path d="M297.063 344.396C297.063 349.729 298.396 361.729 298.396 361.729" stroke="#897F6A" stroke-width="2"/>
<path d="M330.063 342.729C330.063 345.396 331.397 356.062 331.397 360.062" stroke="#897F6A" stroke-width="2"/>
<path d="M336.729 372.731C336.729 376.731 343.396 390.064 343.396 390.064" stroke="#897F6A" stroke-width="2"/>
<path d="M304.396 380.397C305.729 383.064 307.063 395.063 311.063 396.397" stroke="#897F6A" stroke-width="2"/>
<path d="M427.729 344.397C421.063 356.397 417.063 387.065 410.396 393.731" stroke="#897F6A" stroke-width="2"/>
<path d="M345.396 116.397L344.728 67.397" stroke="#963C96" stroke-width="9" stroke-linecap="round"/>
<path d="M344.728 67.397L321.415 85.909L344.728 25.609L368.041 85.909L344.728 67.397Z" fill="#963C96"/>
<path d="M110.91 236.069L62.814 226.676" stroke="#2828FF" stroke-width="9" stroke-linecap="round"/>
<path d="M62.814 226.676L76.154 253.289L21.914 218.109L85.713 207.653L62.814 226.676Z" fill="#2828FF"/>
<path d="M148.291 360.864L117.499 373.614" stroke="#E12828" stroke-width="9" stroke-linecap="round"/>
<path d="M117.499 373.614L139.978 397.022L90.977 383.806L118.519 341.177L117.499 373.614Z" fill="#E12828"/>
<path d="M78.776 190H67.64L62.84 182.032H62.648L57.8 190H47.192L56.936 176.56L48.152 164.656H59.384L63.416 171.376H63.608L67.64 164.656H78.2L69.272 176.8L78.776 190Z" fill="#2828FF"/>
<path d="M84.304 342.232C82.992 345.784 81.376 348.472 79.456 350.296C77.568 352.152 74.912 353.08 71.488 353.08C69.408 353.08 67.568 352.792 65.968 352.216V346.504H69.808C72.208 346.504 73.632 345.336 74.08 343L64 317.656H74.272L79.12 334.504H79.456L83.92 317.656H93.328L84.304 342.232Z" fill="#E12828"/>
<path d="M402.496 69.52H413.68V76H388.96V72.88L399.616 57.136H389.536V50.656H413.248V53.632L402.496 69.52Z" fill="#963C96"/>
</svg>
