<svg width="1626" height="405" viewBox="0 0 1626 405" fill="none" xmlns="http://www.w3.org/2000/svg">
<rect width="1626" height="405" fill="white"/>
<rect x="297" y="35" width="324" height="141" fill="#C4C4C4"/>
<path d="M392.867 113.643C392 114.885 390.787 115.816 389.229 116.438C387.682 117.047 385.877 117.352 383.814 117.352C381.729 117.352 379.877 116.865 378.26 115.893C376.643 114.908 375.389 113.514 374.498 111.709C373.619 109.904 373.168 107.812 373.145 105.434V103.201C373.145 99.3457 374.041 96.3574 375.834 94.2363C377.639 92.1152 380.17 91.0547 383.428 91.0547C386.1 91.0547 388.25 91.7402 389.879 93.1113C391.508 94.4707 392.504 96.4043 392.867 98.9121H389.492C388.859 95.5254 386.844 93.832 383.445 93.832C381.184 93.832 379.467 94.6289 378.295 96.2227C377.135 97.8047 376.549 100.102 376.537 103.113V105.205C376.537 108.076 377.193 110.361 378.506 112.061C379.818 113.748 381.594 114.592 383.832 114.592C385.098 114.592 386.205 114.451 387.154 114.17C388.104 113.889 388.889 113.414 389.51 112.746V106.998H383.586V104.256H392.867V113.643ZM405.893 117.352C403.314 117.352 401.217 116.508 399.6 114.82C397.982 113.121 397.174 110.854 397.174 108.018V107.42C397.174 105.533 397.531 103.852 398.246 102.375C398.973 100.887 399.98 99.7266 401.27 98.8945C402.57 98.0508 403.977 97.6289 405.488 97.6289C407.961 97.6289 409.883 98.4434 411.254 100.072C412.625 101.701 413.311 104.033 413.311 107.068V108.422H400.426C400.473 110.297 401.018 111.814 402.061 112.975C403.115 114.123 404.451 114.697 406.068 114.697C407.217 114.697 408.189 114.463 408.986 113.994C409.783 113.525 410.48 112.904 411.078 112.131L413.064 113.678C411.471 116.127 409.08 117.352 405.893 117.352ZM405.488 100.301C404.176 100.301 403.074 100.781 402.184 101.742C401.293 102.691 400.742 104.027 400.531 105.75H410.059V105.504C409.965 103.852 409.52 102.574 408.723 101.672C407.926 100.758 406.848 100.301 405.488 100.301ZM420.166 97.9805L420.271 100.371C421.725 98.543 423.623 97.6289 425.967 97.6289C429.986 97.6289 432.014 99.8965 432.049 104.432V117H428.797V104.414C428.785 103.043 428.469 102.029 427.848 101.373C427.238 100.717 426.283 100.389 424.982 100.389C423.928 100.389 423.002 100.67 422.205 101.232C421.408 101.795 420.787 102.533 420.342 103.447V117H417.09V97.9805H420.166ZM444.846 117.352C442.268 117.352 440.17 116.508 438.553 114.82C436.936 113.121 436.127 110.854 436.127 108.018V107.42C436.127 105.533 436.484 103.852 437.199 102.375C437.926 100.887 438.934 99.7266 440.223 98.8945C441.523 98.0508 442.93 97.6289 444.441 97.6289C446.914 97.6289 448.836 98.4434 450.207 100.072C451.578 101.701 452.264 104.033 452.264 107.068V108.422H439.379C439.426 110.297 439.971 111.814 441.014 112.975C442.068 114.123 443.404 114.697 445.021 114.697C446.17 114.697 447.143 114.463 447.939 113.994C448.736 113.525 449.434 112.904 450.031 112.131L452.018 113.678C450.424 116.127 448.033 117.352 444.846 117.352ZM444.441 100.301C443.129 100.301 442.027 100.781 441.137 101.742C440.246 102.691 439.695 104.027 439.484 105.75H449.012V105.504C448.918 103.852 448.473 102.574 447.676 101.672C446.879 100.758 445.801 100.301 444.441 100.301ZM465.236 100.898C464.744 100.816 464.211 100.775 463.637 100.775C461.504 100.775 460.057 101.684 459.295 103.5V117H456.043V97.9805H459.207L459.26 100.178C460.326 98.4785 461.838 97.6289 463.795 97.6289C464.428 97.6289 464.908 97.7109 465.236 97.875V100.898ZM479.281 117C479.094 116.625 478.941 115.957 478.824 114.996C477.312 116.566 475.508 117.352 473.41 117.352C471.535 117.352 469.994 116.824 468.787 115.77C467.592 114.703 466.994 113.355 466.994 111.727C466.994 109.746 467.744 108.211 469.244 107.121C470.756 106.02 472.877 105.469 475.607 105.469H478.771V103.975C478.771 102.838 478.432 101.936 477.752 101.268C477.072 100.588 476.07 100.248 474.746 100.248C473.586 100.248 472.613 100.541 471.828 101.127C471.043 101.713 470.65 102.422 470.65 103.254H467.381C467.381 102.305 467.715 101.391 468.383 100.512C469.062 99.6211 469.977 98.918 471.125 98.4023C472.285 97.8867 473.557 97.6289 474.939 97.6289C477.131 97.6289 478.848 98.1797 480.09 99.2812C481.332 100.371 481.977 101.877 482.023 103.799V112.553C482.023 114.299 482.246 115.688 482.691 116.719V117H479.281ZM473.885 114.521C474.904 114.521 475.871 114.258 476.785 113.73C477.699 113.203 478.361 112.518 478.771 111.674V107.771H476.223C472.238 107.771 470.246 108.938 470.246 111.27C470.246 112.289 470.586 113.086 471.266 113.66C471.945 114.234 472.818 114.521 473.885 114.521ZM491.533 93.375V97.9805H495.084V100.494H491.533V112.289C491.533 113.051 491.691 113.625 492.008 114.012C492.324 114.387 492.863 114.574 493.625 114.574C494 114.574 494.516 114.504 495.172 114.363V117C494.316 117.234 493.484 117.352 492.676 117.352C491.223 117.352 490.127 116.912 489.389 116.033C488.65 115.154 488.281 113.906 488.281 112.289V100.494H484.818V97.9805H488.281V93.375H491.533ZM497.686 107.314C497.686 105.451 498.049 103.775 498.775 102.287C499.514 100.799 500.533 99.6504 501.834 98.8418C503.146 98.0332 504.641 97.6289 506.316 97.6289C508.906 97.6289 510.998 98.5254 512.592 100.318C514.197 102.111 515 104.496 515 107.473V107.701C515 109.553 514.643 111.217 513.928 112.693C513.225 114.158 512.211 115.301 510.887 116.121C509.574 116.941 508.062 117.352 506.352 117.352C503.773 117.352 501.682 116.455 500.076 114.662C498.482 112.869 497.686 110.496 497.686 107.543V107.314ZM500.955 107.701C500.955 109.811 501.441 111.504 502.414 112.781C503.398 114.059 504.711 114.697 506.352 114.697C508.004 114.697 509.316 114.053 510.289 112.764C511.262 111.463 511.748 109.646 511.748 107.314C511.748 105.229 511.25 103.541 510.254 102.252C509.27 100.951 507.957 100.301 506.316 100.301C504.711 100.301 503.416 100.939 502.432 102.217C501.447 103.494 500.955 105.322 500.955 107.701ZM528.271 100.898C527.779 100.816 527.246 100.775 526.672 100.775C524.539 100.775 523.092 101.684 522.33 103.5V117H519.078V97.9805H522.242L522.295 100.178C523.361 98.4785 524.873 97.6289 526.83 97.6289C527.463 97.6289 527.943 97.7109 528.271 97.875V100.898ZM554.85 110.32H544.127L541.719 117H538.238L548.012 91.4062H550.965L560.756 117H557.293L554.85 110.32ZM545.146 107.543H553.848L549.488 95.5723L545.146 107.543Z" fill="black"/>
<rect x="299" y="242" width="324" height="141" fill="#C4C4C4"/>
<path d="M387.867 320.643C387 321.885 385.787 322.816 384.229 323.438C382.682 324.047 380.877 324.352 378.814 324.352C376.729 324.352 374.877 323.865 373.26 322.893C371.643 321.908 370.389 320.514 369.498 318.709C368.619 316.904 368.168 314.812 368.145 312.434V310.201C368.145 306.346 369.041 303.357 370.834 301.236C372.639 299.115 375.17 298.055 378.428 298.055C381.1 298.055 383.25 298.74 384.879 300.111C386.508 301.471 387.504 303.404 387.867 305.912H384.492C383.859 302.525 381.844 300.832 378.445 300.832C376.184 300.832 374.467 301.629 373.295 303.223C372.135 304.805 371.549 307.102 371.537 310.113V312.205C371.537 315.076 372.193 317.361 373.506 319.061C374.818 320.748 376.594 321.592 378.832 321.592C380.098 321.592 381.205 321.451 382.154 321.17C383.104 320.889 383.889 320.414 384.51 319.746V313.998H378.586V311.256H387.867V320.643ZM400.893 324.352C398.314 324.352 396.217 323.508 394.6 321.82C392.982 320.121 392.174 317.854 392.174 315.018V314.42C392.174 312.533 392.531 310.852 393.246 309.375C393.973 307.887 394.98 306.727 396.27 305.895C397.57 305.051 398.977 304.629 400.488 304.629C402.961 304.629 404.883 305.443 406.254 307.072C407.625 308.701 408.311 311.033 408.311 314.068V315.422H395.426C395.473 317.297 396.018 318.814 397.061 319.975C398.115 321.123 399.451 321.697 401.068 321.697C402.217 321.697 403.189 321.463 403.986 320.994C404.783 320.525 405.48 319.904 406.078 319.131L408.064 320.678C406.471 323.127 404.08 324.352 400.893 324.352ZM400.488 307.301C399.176 307.301 398.074 307.781 397.184 308.742C396.293 309.691 395.742 311.027 395.531 312.75H405.059V312.504C404.965 310.852 404.52 309.574 403.723 308.672C402.926 307.758 401.848 307.301 400.488 307.301ZM415.166 304.98L415.271 307.371C416.725 305.543 418.623 304.629 420.967 304.629C424.986 304.629 427.014 306.896 427.049 311.432V324H423.797V311.414C423.785 310.043 423.469 309.029 422.848 308.373C422.238 307.717 421.283 307.389 419.982 307.389C418.928 307.389 418.002 307.67 417.205 308.232C416.408 308.795 415.787 309.533 415.342 310.447V324H412.09V304.98H415.166ZM439.846 324.352C437.268 324.352 435.17 323.508 433.553 321.82C431.936 320.121 431.127 317.854 431.127 315.018V314.42C431.127 312.533 431.484 310.852 432.199 309.375C432.926 307.887 433.934 306.727 435.223 305.895C436.523 305.051 437.93 304.629 439.441 304.629C441.914 304.629 443.836 305.443 445.207 307.072C446.578 308.701 447.264 311.033 447.264 314.068V315.422H434.379C434.426 317.297 434.971 318.814 436.014 319.975C437.068 321.123 438.404 321.697 440.021 321.697C441.17 321.697 442.143 321.463 442.939 320.994C443.736 320.525 444.434 319.904 445.031 319.131L447.018 320.678C445.424 323.127 443.033 324.352 439.846 324.352ZM439.441 307.301C438.129 307.301 437.027 307.781 436.137 308.742C435.246 309.691 434.695 311.027 434.484 312.75H444.012V312.504C443.918 310.852 443.473 309.574 442.676 308.672C441.879 307.758 440.801 307.301 439.441 307.301ZM460.236 307.898C459.744 307.816 459.211 307.775 458.637 307.775C456.504 307.775 455.057 308.684 454.295 310.5V324H451.043V304.98H454.207L454.26 307.178C455.326 305.479 456.838 304.629 458.795 304.629C459.428 304.629 459.908 304.711 460.236 304.875V307.898ZM474.281 324C474.094 323.625 473.941 322.957 473.824 321.996C472.312 323.566 470.508 324.352 468.41 324.352C466.535 324.352 464.994 323.824 463.787 322.77C462.592 321.703 461.994 320.355 461.994 318.727C461.994 316.746 462.744 315.211 464.244 314.121C465.756 313.02 467.877 312.469 470.607 312.469H473.771V310.975C473.771 309.838 473.432 308.936 472.752 308.268C472.072 307.588 471.07 307.248 469.746 307.248C468.586 307.248 467.613 307.541 466.828 308.127C466.043 308.713 465.65 309.422 465.65 310.254H462.381C462.381 309.305 462.715 308.391 463.383 307.512C464.062 306.621 464.977 305.918 466.125 305.402C467.285 304.887 468.557 304.629 469.939 304.629C472.131 304.629 473.848 305.18 475.09 306.281C476.332 307.371 476.977 308.877 477.023 310.799V319.553C477.023 321.299 477.246 322.688 477.691 323.719V324H474.281ZM468.885 321.521C469.904 321.521 470.871 321.258 471.785 320.73C472.699 320.203 473.361 319.518 473.771 318.674V314.771H471.223C467.238 314.771 465.246 315.938 465.246 318.27C465.246 319.289 465.586 320.086 466.266 320.66C466.945 321.234 467.818 321.521 468.885 321.521ZM486.533 300.375V304.98H490.084V307.494H486.533V319.289C486.533 320.051 486.691 320.625 487.008 321.012C487.324 321.387 487.863 321.574 488.625 321.574C489 321.574 489.516 321.504 490.172 321.363V324C489.316 324.234 488.484 324.352 487.676 324.352C486.223 324.352 485.127 323.912 484.389 323.033C483.65 322.154 483.281 320.906 483.281 319.289V307.494H479.818V304.98H483.281V300.375H486.533ZM492.686 314.314C492.686 312.451 493.049 310.775 493.775 309.287C494.514 307.799 495.533 306.65 496.834 305.842C498.146 305.033 499.641 304.629 501.316 304.629C503.906 304.629 505.998 305.525 507.592 307.318C509.197 309.111 510 311.496 510 314.473V314.701C510 316.553 509.643 318.217 508.928 319.693C508.225 321.158 507.211 322.301 505.887 323.121C504.574 323.941 503.062 324.352 501.352 324.352C498.773 324.352 496.682 323.455 495.076 321.662C493.482 319.869 492.686 317.496 492.686 314.543V314.314ZM495.955 314.701C495.955 316.811 496.441 318.504 497.414 319.781C498.398 321.059 499.711 321.697 501.352 321.697C503.004 321.697 504.316 321.053 505.289 319.764C506.262 318.463 506.748 316.646 506.748 314.314C506.748 312.229 506.25 310.541 505.254 309.252C504.27 307.951 502.957 307.301 501.316 307.301C499.711 307.301 498.416 307.939 497.432 309.217C496.447 310.494 495.955 312.322 495.955 314.701ZM523.271 307.898C522.779 307.816 522.246 307.775 521.672 307.775C519.539 307.775 518.092 308.684 517.33 310.5V324H514.078V304.98H517.242L517.295 307.178C518.361 305.479 519.873 304.629 521.83 304.629C522.463 304.629 522.943 304.711 523.271 304.875V307.898ZM535.717 324V298.406H544.084C546.861 298.406 548.947 298.98 550.342 300.129C551.748 301.277 552.451 302.977 552.451 305.227C552.451 306.422 552.111 307.482 551.432 308.408C550.752 309.322 549.826 310.031 548.654 310.535C550.037 310.922 551.127 311.66 551.924 312.75C552.732 313.828 553.137 315.117 553.137 316.617C553.137 318.914 552.393 320.719 550.904 322.031C549.416 323.344 547.312 324 544.594 324H535.717ZM539.092 312.029V321.24H544.664C546.234 321.24 547.471 320.836 548.373 320.027C549.287 319.207 549.744 318.082 549.744 316.652C549.744 313.57 548.068 312.029 544.717 312.029H539.092ZM539.092 309.322H544.189C545.666 309.322 546.844 308.953 547.723 308.215C548.613 307.477 549.059 306.475 549.059 305.209C549.059 303.803 548.648 302.783 547.828 302.15C547.008 301.506 545.76 301.184 544.084 301.184H539.092V309.322Z" fill="black"/>
<path d="M297.707 105.707C298.098 105.317 298.098 104.683 297.707 104.293L291.343 97.9289C290.953 97.5384 290.319 97.5384 289.929 97.9289C289.538 98.3195 289.538 98.9526 289.929 99.3431L295.586 105L289.929 110.657C289.538 111.047 289.538 111.681 289.929 112.071C290.319 112.462 290.953 112.462 291.343 112.071L297.707 105.707ZM42 106H297V104H42V106Z" fill="black"/>
<path d="M392.867 113.643C392 114.885 390.787 115.816 389.229 116.438C387.682 117.047 385.877 117.352 383.814 117.352C381.729 117.352 379.877 116.865 378.26 115.893C376.643 114.908 375.389 113.514 374.498 111.709C373.619 109.904 373.168 107.812 373.145 105.434V103.201C373.145 99.3457 374.041 96.3574 375.834 94.2363C377.639 92.1152 380.17 91.0547 383.428 91.0547C386.1 91.0547 388.25 91.7402 389.879 93.1113C391.508 94.4707 392.504 96.4043 392.867 98.9121H389.492C388.859 95.5254 386.844 93.832 383.445 93.832C381.184 93.832 379.467 94.6289 378.295 96.2227C377.135 97.8047 376.549 100.102 376.537 103.113V105.205C376.537 108.076 377.193 110.361 378.506 112.061C379.818 113.748 381.594 114.592 383.832 114.592C385.098 114.592 386.205 114.451 387.154 114.17C388.104 113.889 388.889 113.414 389.51 112.746V106.998H383.586V104.256H392.867V113.643ZM405.893 117.352C403.314 117.352 401.217 116.508 399.6 114.82C397.982 113.121 397.174 110.854 397.174 108.018V107.42C397.174 105.533 397.531 103.852 398.246 102.375C398.973 100.887 399.98 99.7266 401.27 98.8945C402.57 98.0508 403.977 97.6289 405.488 97.6289C407.961 97.6289 409.883 98.4434 411.254 100.072C412.625 101.701 413.311 104.033 413.311 107.068V108.422H400.426C400.473 110.297 401.018 111.814 402.061 112.975C403.115 114.123 404.451 114.697 406.068 114.697C407.217 114.697 408.189 114.463 408.986 113.994C409.783 113.525 410.48 112.904 411.078 112.131L413.064 113.678C411.471 116.127 409.08 117.352 405.893 117.352ZM405.488 100.301C404.176 100.301 403.074 100.781 402.184 101.742C401.293 102.691 400.742 104.027 400.531 105.75H410.059V105.504C409.965 103.852 409.52 102.574 408.723 101.672C407.926 100.758 406.848 100.301 405.488 100.301ZM420.166 97.9805L420.271 100.371C421.725 98.543 423.623 97.6289 425.967 97.6289C429.986 97.6289 432.014 99.8965 432.049 104.432V117H428.797V104.414C428.785 103.043 428.469 102.029 427.848 101.373C427.238 100.717 426.283 100.389 424.982 100.389C423.928 100.389 423.002 100.67 422.205 101.232C421.408 101.795 420.787 102.533 420.342 103.447V117H417.09V97.9805H420.166ZM444.846 117.352C442.268 117.352 440.17 116.508 438.553 114.82C436.936 113.121 436.127 110.854 436.127 108.018V107.42C436.127 105.533 436.484 103.852 437.199 102.375C437.926 100.887 438.934 99.7266 440.223 98.8945C441.523 98.0508 442.93 97.6289 444.441 97.6289C446.914 97.6289 448.836 98.4434 450.207 100.072C451.578 101.701 452.264 104.033 452.264 107.068V108.422H439.379C439.426 110.297 439.971 111.814 441.014 112.975C442.068 114.123 443.404 114.697 445.021 114.697C446.17 114.697 447.143 114.463 447.939 113.994C448.736 113.525 449.434 112.904 450.031 112.131L452.018 113.678C450.424 116.127 448.033 117.352 444.846 117.352ZM444.441 100.301C443.129 100.301 442.027 100.781 441.137 101.742C440.246 102.691 439.695 104.027 439.484 105.75H449.012V105.504C448.918 103.852 448.473 102.574 447.676 101.672C446.879 100.758 445.801 100.301 444.441 100.301ZM465.236 100.898C464.744 100.816 464.211 100.775 463.637 100.775C461.504 100.775 460.057 101.684 459.295 103.5V117H456.043V97.9805H459.207L459.26 100.178C460.326 98.4785 461.838 97.6289 463.795 97.6289C464.428 97.6289 464.908 97.7109 465.236 97.875V100.898ZM479.281 117C479.094 116.625 478.941 115.957 478.824 114.996C477.312 116.566 475.508 117.352 473.41 117.352C471.535 117.352 469.994 116.824 468.787 115.77C467.592 114.703 466.994 113.355 466.994 111.727C466.994 109.746 467.744 108.211 469.244 107.121C470.756 106.02 472.877 105.469 475.607 105.469H478.771V103.975C478.771 102.838 478.432 101.936 477.752 101.268C477.072 100.588 476.07 100.248 474.746 100.248C473.586 100.248 472.613 100.541 471.828 101.127C471.043 101.713 470.65 102.422 470.65 103.254H467.381C467.381 102.305 467.715 101.391 468.383 100.512C469.062 99.6211 469.977 98.918 471.125 98.4023C472.285 97.8867 473.557 97.6289 474.939 97.6289C477.131 97.6289 478.848 98.1797 480.09 99.2812C481.332 100.371 481.977 101.877 482.023 103.799V112.553C482.023 114.299 482.246 115.688 482.691 116.719V117H479.281ZM473.885 114.521C474.904 114.521 475.871 114.258 476.785 113.73C477.699 113.203 478.361 112.518 478.771 111.674V107.771H476.223C472.238 107.771 470.246 108.938 470.246 111.27C470.246 112.289 470.586 113.086 471.266 113.66C471.945 114.234 472.818 114.521 473.885 114.521ZM491.533 93.375V97.9805H495.084V100.494H491.533V112.289C491.533 113.051 491.691 113.625 492.008 114.012C492.324 114.387 492.863 114.574 493.625 114.574C494 114.574 494.516 114.504 495.172 114.363V117C494.316 117.234 493.484 117.352 492.676 117.352C491.223 117.352 490.127 116.912 489.389 116.033C488.65 115.154 488.281 113.906 488.281 112.289V100.494H484.818V97.9805H488.281V93.375H491.533ZM497.686 107.314C497.686 105.451 498.049 103.775 498.775 102.287C499.514 100.799 500.533 99.6504 501.834 98.8418C503.146 98.0332 504.641 97.6289 506.316 97.6289C508.906 97.6289 510.998 98.5254 512.592 100.318C514.197 102.111 515 104.496 515 107.473V107.701C515 109.553 514.643 111.217 513.928 112.693C513.225 114.158 512.211 115.301 510.887 116.121C509.574 116.941 508.062 117.352 506.352 117.352C503.773 117.352 501.682 116.455 500.076 114.662C498.482 112.869 497.686 110.496 497.686 107.543V107.314ZM500.955 107.701C500.955 109.811 501.441 111.504 502.414 112.781C503.398 114.059 504.711 114.697 506.352 114.697C508.004 114.697 509.316 114.053 510.289 112.764C511.262 111.463 511.748 109.646 511.748 107.314C511.748 105.229 511.25 103.541 510.254 102.252C509.27 100.951 507.957 100.301 506.316 100.301C504.711 100.301 503.416 100.939 502.432 102.217C501.447 103.494 500.955 105.322 500.955 107.701ZM528.271 100.898C527.779 100.816 527.246 100.775 526.672 100.775C524.539 100.775 523.092 101.684 522.33 103.5V117H519.078V97.9805H522.242L522.295 100.178C523.361 98.4785 524.873 97.6289 526.83 97.6289C527.463 97.6289 527.943 97.7109 528.271 97.875V100.898ZM554.85 110.32H544.127L541.719 117H538.238L548.012 91.4062H550.965L560.756 117H557.293L554.85 110.32ZM545.146 107.543H553.848L549.488 95.5723L545.146 107.543Z" fill="black"/>
<path d="M130.357 73.6465H124.346V84H120.953V58.4062H129.426C132.309 58.4062 134.523 59.0625 136.07 60.375C137.629 61.6875 138.408 63.5977 138.408 66.1055C138.408 67.6992 137.975 69.0879 137.107 70.2715C136.252 71.4551 135.057 72.3398 133.521 72.9258L139.533 83.7891V84H135.912L130.357 73.6465ZM124.346 70.8867H129.531C131.207 70.8867 132.537 70.4531 133.521 69.5859C134.518 68.7188 135.016 67.5586 135.016 66.1055C135.016 64.5234 134.541 63.3105 133.592 62.4668C132.654 61.623 131.295 61.1953 129.514 61.1836H124.346V70.8867ZM150.537 84.3516C147.959 84.3516 145.861 83.5078 144.244 81.8203C142.627 80.1211 141.818 77.8535 141.818 75.0176V74.4199C141.818 72.5332 142.176 70.8516 142.891 69.375C143.617 67.8867 144.625 66.7266 145.914 65.8945C147.215 65.0508 148.621 64.6289 150.133 64.6289C152.605 64.6289 154.527 65.4434 155.898 67.0723C157.27 68.7012 157.955 71.0332 157.955 74.0684V75.4219H145.07C145.117 77.2969 145.662 78.8145 146.705 79.9746C147.76 81.123 149.096 81.6973 150.713 81.6973C151.861 81.6973 152.834 81.4629 153.631 80.9941C154.428 80.5254 155.125 79.9043 155.723 79.1309L157.709 80.6777C156.115 83.127 153.725 84.3516 150.537 84.3516ZM150.133 67.3008C148.82 67.3008 147.719 67.7812 146.828 68.7422C145.938 69.6914 145.387 71.0273 145.176 72.75H154.703V72.5039C154.609 70.8516 154.164 69.5742 153.367 68.6719C152.57 67.7578 151.492 67.3008 150.133 67.3008ZM173.477 84C173.289 83.625 173.137 82.957 173.02 81.9961C171.508 83.5664 169.703 84.3516 167.605 84.3516C165.73 84.3516 164.189 83.8242 162.982 82.7695C161.787 81.7031 161.189 80.3555 161.189 78.7266C161.189 76.7461 161.939 75.2109 163.439 74.1211C164.951 73.0195 167.072 72.4688 169.803 72.4688H172.967V70.9746C172.967 69.8379 172.627 68.9355 171.947 68.2676C171.268 67.5879 170.266 67.248 168.941 67.248C167.781 67.248 166.809 67.541 166.023 68.127C165.238 68.7129 164.846 69.4219 164.846 70.2539H161.576C161.576 69.3047 161.91 68.3906 162.578 67.5117C163.258 66.6211 164.172 65.918 165.32 65.4023C166.48 64.8867 167.752 64.6289 169.135 64.6289C171.326 64.6289 173.043 65.1797 174.285 66.2812C175.527 67.3711 176.172 68.877 176.219 70.7988V79.5527C176.219 81.2988 176.441 82.6875 176.887 83.7188V84H173.477ZM168.08 81.5215C169.1 81.5215 170.066 81.2578 170.98 80.7305C171.895 80.2031 172.557 79.5176 172.967 78.6738V74.7715H170.418C166.434 74.7715 164.441 75.9375 164.441 78.2695C164.441 79.2891 164.781 80.0859 165.461 80.6602C166.141 81.2344 167.014 81.5215 168.08 81.5215ZM184.85 84H181.598V57H184.85V84ZM213.643 77.3203H202.92L200.512 84H197.031L206.805 58.4062H209.758L219.549 84H216.086L213.643 77.3203ZM203.939 74.543H212.641L208.281 62.5723L203.939 74.543Z" fill="black"/>
<path d="M700.086 72.6973H689.346V84H685.971V58.4062H701.826V61.1836H689.346V69.9375H700.086V72.6973ZM716.504 84C716.316 83.625 716.164 82.957 716.047 81.9961C714.535 83.5664 712.73 84.3516 710.633 84.3516C708.758 84.3516 707.217 83.8242 706.01 82.7695C704.814 81.7031 704.217 80.3555 704.217 78.7266C704.217 76.7461 704.967 75.2109 706.467 74.1211C707.979 73.0195 710.1 72.4688 712.83 72.4688H715.994V70.9746C715.994 69.8379 715.654 68.9355 714.975 68.2676C714.295 67.5879 713.293 67.248 711.969 67.248C710.809 67.248 709.836 67.541 709.051 68.127C708.266 68.7129 707.873 69.4219 707.873 70.2539H704.604C704.604 69.3047 704.938 68.3906 705.605 67.5117C706.285 66.6211 707.199 65.918 708.348 65.4023C709.508 64.8867 710.779 64.6289 712.162 64.6289C714.354 64.6289 716.07 65.1797 717.312 66.2812C718.555 67.3711 719.199 68.877 719.246 70.7988V79.5527C719.246 81.2988 719.469 82.6875 719.914 83.7188V84H716.504ZM711.107 81.5215C712.127 81.5215 713.094 81.2578 714.008 80.7305C714.922 80.2031 715.584 79.5176 715.994 78.6738V74.7715H713.445C709.461 74.7715 707.469 75.9375 707.469 78.2695C707.469 79.2891 707.809 80.0859 708.488 80.6602C709.168 81.2344 710.041 81.5215 711.107 81.5215ZM729.652 75.1934L727.613 77.3203V84H724.361V57H727.613V73.3301L729.354 71.2383L735.277 64.9805H739.232L731.832 72.9258L740.094 84H736.279L729.652 75.1934ZM750.131 84.3516C747.553 84.3516 745.455 83.5078 743.838 81.8203C742.221 80.1211 741.412 77.8535 741.412 75.0176V74.4199C741.412 72.5332 741.77 70.8516 742.484 69.375C743.211 67.8867 744.219 66.7266 745.508 65.8945C746.809 65.0508 748.215 64.6289 749.727 64.6289C752.199 64.6289 754.121 65.4434 755.492 67.0723C756.863 68.7012 757.549 71.0332 757.549 74.0684V75.4219H744.664C744.711 77.2969 745.256 78.8145 746.299 79.9746C747.354 81.123 748.689 81.6973 750.307 81.6973C751.455 81.6973 752.428 81.4629 753.225 80.9941C754.021 80.5254 754.719 79.9043 755.316 79.1309L757.303 80.6777C755.709 83.127 753.318 84.3516 750.131 84.3516ZM749.727 67.3008C748.414 67.3008 747.312 67.7812 746.422 68.7422C745.531 69.6914 744.98 71.0273 744.77 72.75H754.297V72.5039C754.203 70.8516 753.758 69.5742 752.961 68.6719C752.164 67.7578 751.086 67.3008 749.727 67.3008ZM770.768 84V58.4062H779.135C781.912 58.4062 783.998 58.9805 785.393 60.1289C786.799 61.2773 787.502 62.9766 787.502 65.2266C787.502 66.4219 787.162 67.4824 786.482 68.4082C785.803 69.3223 784.877 70.0312 783.705 70.5352C785.088 70.9219 786.178 71.6602 786.975 72.75C787.783 73.8281 788.188 75.1172 788.188 76.6172C788.188 78.9141 787.443 80.7188 785.955 82.0312C784.467 83.3438 782.363 84 779.645 84H770.768ZM774.143 72.0293V81.2402H779.715C781.285 81.2402 782.521 80.8359 783.424 80.0273C784.338 79.207 784.795 78.082 784.795 76.6523C784.795 73.5703 783.119 72.0293 779.768 72.0293H774.143ZM774.143 69.3223H779.24C780.717 69.3223 781.895 68.9531 782.773 68.2148C783.664 67.4766 784.109 66.4746 784.109 65.209C784.109 63.8027 783.699 62.7832 782.879 62.1504C782.059 61.5059 780.811 61.1836 779.135 61.1836H774.143V69.3223Z" fill="black"/>
<path d="M881.707 105.707C882.098 105.317 882.098 104.683 881.707 104.293L875.343 97.9289C874.953 97.5384 874.319 97.5384 873.929 97.9289C873.538 98.3195 873.538 98.9526 873.929 99.3431L879.586 105L873.929 110.657C873.538 111.047 873.538 111.681 873.929 112.071C874.319 112.462 874.953 112.462 875.343 112.071L881.707 105.707ZM621 106L881 106V104L621 104V106Z" fill="black"/>
<path d="M700.086 279.697H689.346V291H685.971V265.406H701.826V268.184H689.346V276.938H700.086V279.697ZM716.504 291C716.316 290.625 716.164 289.957 716.047 288.996C714.535 290.566 712.73 291.352 710.633 291.352C708.758 291.352 707.217 290.824 706.01 289.77C704.814 288.703 704.217 287.355 704.217 285.727C704.217 283.746 704.967 282.211 706.467 281.121C707.979 280.02 710.1 279.469 712.83 279.469H715.994V277.975C715.994 276.838 715.654 275.936 714.975 275.268C714.295 274.588 713.293 274.248 711.969 274.248C710.809 274.248 709.836 274.541 709.051 275.127C708.266 275.713 707.873 276.422 707.873 277.254H704.604C704.604 276.305 704.938 275.391 705.605 274.512C706.285 273.621 707.199 272.918 708.348 272.402C709.508 271.887 710.779 271.629 712.162 271.629C714.354 271.629 716.07 272.18 717.312 273.281C718.555 274.371 719.199 275.877 719.246 277.799V286.553C719.246 288.299 719.469 289.688 719.914 290.719V291H716.504ZM711.107 288.521C712.127 288.521 713.094 288.258 714.008 287.73C714.922 287.203 715.584 286.518 715.994 285.674V281.771H713.445C709.461 281.771 707.469 282.938 707.469 285.27C707.469 286.289 707.809 287.086 708.488 287.66C709.168 288.234 710.041 288.521 711.107 288.521ZM729.652 282.193L727.613 284.32V291H724.361V264H727.613V280.33L729.354 278.238L735.277 271.98H739.232L731.832 279.926L740.094 291H736.279L729.652 282.193ZM750.131 291.352C747.553 291.352 745.455 290.508 743.838 288.82C742.221 287.121 741.412 284.854 741.412 282.018V281.42C741.412 279.533 741.77 277.852 742.484 276.375C743.211 274.887 744.219 273.727 745.508 272.895C746.809 272.051 748.215 271.629 749.727 271.629C752.199 271.629 754.121 272.443 755.492 274.072C756.863 275.701 757.549 278.033 757.549 281.068V282.422H744.664C744.711 284.297 745.256 285.814 746.299 286.975C747.354 288.123 748.689 288.697 750.307 288.697C751.455 288.697 752.428 288.463 753.225 287.994C754.021 287.525 754.719 286.904 755.316 286.131L757.303 287.678C755.709 290.127 753.318 291.352 750.131 291.352ZM749.727 274.301C748.414 274.301 747.312 274.781 746.422 275.742C745.531 276.691 744.98 278.027 744.77 279.75H754.297V279.504C754.203 277.852 753.758 276.574 752.961 275.672C752.164 274.758 751.086 274.301 749.727 274.301ZM784.9 284.32H774.178L771.77 291H768.289L778.062 265.406H781.016L790.807 291H787.344L784.9 284.32ZM775.197 281.543H783.898L779.539 269.572L775.197 281.543Z" fill="black"/>
<path d="M881.707 312.707C882.098 312.317 882.098 311.683 881.707 311.293L875.343 304.929C874.953 304.538 874.319 304.538 873.929 304.929C873.538 305.319 873.538 305.953 873.929 306.343L879.586 312L873.929 317.657C873.538 318.047 873.538 318.681 873.929 319.071C874.319 319.462 874.953 319.462 875.343 319.071L881.707 312.707ZM623 313H881V311H623V313Z" fill="black"/>
<rect x="882" y="242" width="324" height="141" fill="#C4C4C4"/>
<path d="M970.867 320.643C970 321.885 968.787 322.816 967.229 323.438C965.682 324.047 963.877 324.352 961.814 324.352C959.729 324.352 957.877 323.865 956.26 322.893C954.643 321.908 953.389 320.514 952.498 318.709C951.619 316.904 951.168 314.812 951.145 312.434V310.201C951.145 306.346 952.041 303.357 953.834 301.236C955.639 299.115 958.17 298.055 961.428 298.055C964.1 298.055 966.25 298.74 967.879 300.111C969.508 301.471 970.504 303.404 970.867 305.912H967.492C966.859 302.525 964.844 300.832 961.445 300.832C959.184 300.832 957.467 301.629 956.295 303.223C955.135 304.805 954.549 307.102 954.537 310.113V312.205C954.537 315.076 955.193 317.361 956.506 319.061C957.818 320.748 959.594 321.592 961.832 321.592C963.098 321.592 964.205 321.451 965.154 321.17C966.104 320.889 966.889 320.414 967.51 319.746V313.998H961.586V311.256H970.867V320.643ZM983.893 324.352C981.314 324.352 979.217 323.508 977.6 321.82C975.982 320.121 975.174 317.854 975.174 315.018V314.42C975.174 312.533 975.531 310.852 976.246 309.375C976.973 307.887 977.98 306.727 979.27 305.895C980.57 305.051 981.977 304.629 983.488 304.629C985.961 304.629 987.883 305.443 989.254 307.072C990.625 308.701 991.311 311.033 991.311 314.068V315.422H978.426C978.473 317.297 979.018 318.814 980.061 319.975C981.115 321.123 982.451 321.697 984.068 321.697C985.217 321.697 986.189 321.463 986.986 320.994C987.783 320.525 988.48 319.904 989.078 319.131L991.064 320.678C989.471 323.127 987.08 324.352 983.893 324.352ZM983.488 307.301C982.176 307.301 981.074 307.781 980.184 308.742C979.293 309.691 978.742 311.027 978.531 312.75H988.059V312.504C987.965 310.852 987.52 309.574 986.723 308.672C985.926 307.758 984.848 307.301 983.488 307.301ZM998.166 304.98L998.271 307.371C999.725 305.543 1001.62 304.629 1003.97 304.629C1007.99 304.629 1010.01 306.896 1010.05 311.432V324H1006.8V311.414C1006.79 310.043 1006.47 309.029 1005.85 308.373C1005.24 307.717 1004.28 307.389 1002.98 307.389C1001.93 307.389 1001 307.67 1000.21 308.232C999.408 308.795 998.787 309.533 998.342 310.447V324H995.09V304.98H998.166ZM1022.85 324.352C1020.27 324.352 1018.17 323.508 1016.55 321.82C1014.94 320.121 1014.13 317.854 1014.13 315.018V314.42C1014.13 312.533 1014.48 310.852 1015.2 309.375C1015.93 307.887 1016.93 306.727 1018.22 305.895C1019.52 305.051 1020.93 304.629 1022.44 304.629C1024.91 304.629 1026.84 305.443 1028.21 307.072C1029.58 308.701 1030.26 311.033 1030.26 314.068V315.422H1017.38C1017.43 317.297 1017.97 318.814 1019.01 319.975C1020.07 321.123 1021.4 321.697 1023.02 321.697C1024.17 321.697 1025.14 321.463 1025.94 320.994C1026.74 320.525 1027.43 319.904 1028.03 319.131L1030.02 320.678C1028.42 323.127 1026.03 324.352 1022.85 324.352ZM1022.44 307.301C1021.13 307.301 1020.03 307.781 1019.14 308.742C1018.25 309.691 1017.7 311.027 1017.48 312.75H1027.01V312.504C1026.92 310.852 1026.47 309.574 1025.68 308.672C1024.88 307.758 1023.8 307.301 1022.44 307.301ZM1043.24 307.898C1042.74 307.816 1042.21 307.775 1041.64 307.775C1039.5 307.775 1038.06 308.684 1037.29 310.5V324H1034.04V304.98H1037.21L1037.26 307.178C1038.33 305.479 1039.84 304.629 1041.79 304.629C1042.43 304.629 1042.91 304.711 1043.24 304.875V307.898ZM1057.28 324C1057.09 323.625 1056.94 322.957 1056.82 321.996C1055.31 323.566 1053.51 324.352 1051.41 324.352C1049.54 324.352 1047.99 323.824 1046.79 322.77C1045.59 321.703 1044.99 320.355 1044.99 318.727C1044.99 316.746 1045.74 315.211 1047.24 314.121C1048.76 313.02 1050.88 312.469 1053.61 312.469H1056.77V310.975C1056.77 309.838 1056.43 308.936 1055.75 308.268C1055.07 307.588 1054.07 307.248 1052.75 307.248C1051.59 307.248 1050.61 307.541 1049.83 308.127C1049.04 308.713 1048.65 309.422 1048.65 310.254H1045.38C1045.38 309.305 1045.71 308.391 1046.38 307.512C1047.06 306.621 1047.98 305.918 1049.12 305.402C1050.29 304.887 1051.56 304.629 1052.94 304.629C1055.13 304.629 1056.85 305.18 1058.09 306.281C1059.33 307.371 1059.98 308.877 1060.02 310.799V319.553C1060.02 321.299 1060.25 322.688 1060.69 323.719V324H1057.28ZM1051.88 321.521C1052.9 321.521 1053.87 321.258 1054.79 320.73C1055.7 320.203 1056.36 319.518 1056.77 318.674V314.771H1054.22C1050.24 314.771 1048.25 315.938 1048.25 318.27C1048.25 319.289 1048.59 320.086 1049.27 320.66C1049.95 321.234 1050.82 321.521 1051.88 321.521ZM1069.53 300.375V304.98H1073.08V307.494H1069.53V319.289C1069.53 320.051 1069.69 320.625 1070.01 321.012C1070.32 321.387 1070.86 321.574 1071.62 321.574C1072 321.574 1072.52 321.504 1073.17 321.363V324C1072.32 324.234 1071.48 324.352 1070.68 324.352C1069.22 324.352 1068.13 323.912 1067.39 323.033C1066.65 322.154 1066.28 320.906 1066.28 319.289V307.494H1062.82V304.98H1066.28V300.375H1069.53ZM1075.69 314.314C1075.69 312.451 1076.05 310.775 1076.78 309.287C1077.51 307.799 1078.53 306.65 1079.83 305.842C1081.15 305.033 1082.64 304.629 1084.32 304.629C1086.91 304.629 1089 305.525 1090.59 307.318C1092.2 309.111 1093 311.496 1093 314.473V314.701C1093 316.553 1092.64 318.217 1091.93 319.693C1091.22 321.158 1090.21 322.301 1088.89 323.121C1087.57 323.941 1086.06 324.352 1084.35 324.352C1081.77 324.352 1079.68 323.455 1078.08 321.662C1076.48 319.869 1075.69 317.496 1075.69 314.543V314.314ZM1078.96 314.701C1078.96 316.811 1079.44 318.504 1080.41 319.781C1081.4 321.059 1082.71 321.697 1084.35 321.697C1086 321.697 1087.32 321.053 1088.29 319.764C1089.26 318.463 1089.75 316.646 1089.75 314.314C1089.75 312.229 1089.25 310.541 1088.25 309.252C1087.27 307.951 1085.96 307.301 1084.32 307.301C1082.71 307.301 1081.42 307.939 1080.43 309.217C1079.45 310.494 1078.96 312.322 1078.96 314.701ZM1106.27 307.898C1105.78 307.816 1105.25 307.775 1104.67 307.775C1102.54 307.775 1101.09 308.684 1100.33 310.5V324H1097.08V304.98H1100.24L1100.29 307.178C1101.36 305.479 1102.87 304.629 1104.83 304.629C1105.46 304.629 1105.94 304.711 1106.27 304.875V307.898ZM1132.85 317.32H1122.13L1119.72 324H1116.24L1126.01 298.406H1128.96L1138.76 324H1135.29L1132.85 317.32ZM1123.15 314.543H1131.85L1127.49 302.572L1123.15 314.543Z" fill="black"/>
<rect x="882" y="35" width="324" height="141" fill="#C4C4C4"/>
<path d="M970.867 113.643C970 114.885 968.787 115.816 967.229 116.438C965.682 117.047 963.877 117.352 961.814 117.352C959.729 117.352 957.877 116.865 956.26 115.893C954.643 114.908 953.389 113.514 952.498 111.709C951.619 109.904 951.168 107.812 951.145 105.434V103.201C951.145 99.3457 952.041 96.3574 953.834 94.2363C955.639 92.1152 958.17 91.0547 961.428 91.0547C964.1 91.0547 966.25 91.7402 967.879 93.1113C969.508 94.4707 970.504 96.4043 970.867 98.9121H967.492C966.859 95.5254 964.844 93.832 961.445 93.832C959.184 93.832 957.467 94.6289 956.295 96.2227C955.135 97.8047 954.549 100.102 954.537 103.113V105.205C954.537 108.076 955.193 110.361 956.506 112.061C957.818 113.748 959.594 114.592 961.832 114.592C963.098 114.592 964.205 114.451 965.154 114.17C966.104 113.889 966.889 113.414 967.51 112.746V106.998H961.586V104.256H970.867V113.643ZM983.893 117.352C981.314 117.352 979.217 116.508 977.6 114.82C975.982 113.121 975.174 110.854 975.174 108.018V107.42C975.174 105.533 975.531 103.852 976.246 102.375C976.973 100.887 977.98 99.7266 979.27 98.8945C980.57 98.0508 981.977 97.6289 983.488 97.6289C985.961 97.6289 987.883 98.4434 989.254 100.072C990.625 101.701 991.311 104.033 991.311 107.068V108.422H978.426C978.473 110.297 979.018 111.814 980.061 112.975C981.115 114.123 982.451 114.697 984.068 114.697C985.217 114.697 986.189 114.463 986.986 113.994C987.783 113.525 988.48 112.904 989.078 112.131L991.064 113.678C989.471 116.127 987.08 117.352 983.893 117.352ZM983.488 100.301C982.176 100.301 981.074 100.781 980.184 101.742C979.293 102.691 978.742 104.027 978.531 105.75H988.059V105.504C987.965 103.852 987.52 102.574 986.723 101.672C985.926 100.758 984.848 100.301 983.488 100.301ZM998.166 97.9805L998.271 100.371C999.725 98.543 1001.62 97.6289 1003.97 97.6289C1007.99 97.6289 1010.01 99.8965 1010.05 104.432V117H1006.8V104.414C1006.79 103.043 1006.47 102.029 1005.85 101.373C1005.24 100.717 1004.28 100.389 1002.98 100.389C1001.93 100.389 1001 100.67 1000.21 101.232C999.408 101.795 998.787 102.533 998.342 103.447V117H995.09V97.9805H998.166ZM1022.85 117.352C1020.27 117.352 1018.17 116.508 1016.55 114.82C1014.94 113.121 1014.13 110.854 1014.13 108.018V107.42C1014.13 105.533 1014.48 103.852 1015.2 102.375C1015.93 100.887 1016.93 99.7266 1018.22 98.8945C1019.52 98.0508 1020.93 97.6289 1022.44 97.6289C1024.91 97.6289 1026.84 98.4434 1028.21 100.072C1029.58 101.701 1030.26 104.033 1030.26 107.068V108.422H1017.38C1017.43 110.297 1017.97 111.814 1019.01 112.975C1020.07 114.123 1021.4 114.697 1023.02 114.697C1024.17 114.697 1025.14 114.463 1025.94 113.994C1026.74 113.525 1027.43 112.904 1028.03 112.131L1030.02 113.678C1028.42 116.127 1026.03 117.352 1022.85 117.352ZM1022.44 100.301C1021.13 100.301 1020.03 100.781 1019.14 101.742C1018.25 102.691 1017.7 104.027 1017.48 105.75H1027.01V105.504C1026.92 103.852 1026.47 102.574 1025.68 101.672C1024.88 100.758 1023.8 100.301 1022.44 100.301ZM1043.24 100.898C1042.74 100.816 1042.21 100.775 1041.64 100.775C1039.5 100.775 1038.06 101.684 1037.29 103.5V117H1034.04V97.9805H1037.21L1037.26 100.178C1038.33 98.4785 1039.84 97.6289 1041.79 97.6289C1042.43 97.6289 1042.91 97.7109 1043.24 97.875V100.898ZM1057.28 117C1057.09 116.625 1056.94 115.957 1056.82 114.996C1055.31 116.566 1053.51 117.352 1051.41 117.352C1049.54 117.352 1047.99 116.824 1046.79 115.77C1045.59 114.703 1044.99 113.355 1044.99 111.727C1044.99 109.746 1045.74 108.211 1047.24 107.121C1048.76 106.02 1050.88 105.469 1053.61 105.469H1056.77V103.975C1056.77 102.838 1056.43 101.936 1055.75 101.268C1055.07 100.588 1054.07 100.248 1052.75 100.248C1051.59 100.248 1050.61 100.541 1049.83 101.127C1049.04 101.713 1048.65 102.422 1048.65 103.254H1045.38C1045.38 102.305 1045.71 101.391 1046.38 100.512C1047.06 99.6211 1047.98 98.918 1049.12 98.4023C1050.29 97.8867 1051.56 97.6289 1052.94 97.6289C1055.13 97.6289 1056.85 98.1797 1058.09 99.2812C1059.33 100.371 1059.98 101.877 1060.02 103.799V112.553C1060.02 114.299 1060.25 115.688 1060.69 116.719V117H1057.28ZM1051.88 114.521C1052.9 114.521 1053.87 114.258 1054.79 113.73C1055.7 113.203 1056.36 112.518 1056.77 111.674V107.771H1054.22C1050.24 107.771 1048.25 108.938 1048.25 111.27C1048.25 112.289 1048.59 113.086 1049.27 113.66C1049.95 114.234 1050.82 114.521 1051.88 114.521ZM1069.53 93.375V97.9805H1073.08V100.494H1069.53V112.289C1069.53 113.051 1069.69 113.625 1070.01 114.012C1070.32 114.387 1070.86 114.574 1071.62 114.574C1072 114.574 1072.52 114.504 1073.17 114.363V117C1072.32 117.234 1071.48 117.352 1070.68 117.352C1069.22 117.352 1068.13 116.912 1067.39 116.033C1066.65 115.154 1066.28 113.906 1066.28 112.289V100.494H1062.82V97.9805H1066.28V93.375H1069.53ZM1075.69 107.314C1075.69 105.451 1076.05 103.775 1076.78 102.287C1077.51 100.799 1078.53 99.6504 1079.83 98.8418C1081.15 98.0332 1082.64 97.6289 1084.32 97.6289C1086.91 97.6289 1089 98.5254 1090.59 100.318C1092.2 102.111 1093 104.496 1093 107.473V107.701C1093 109.553 1092.64 111.217 1091.93 112.693C1091.22 114.158 1090.21 115.301 1088.89 116.121C1087.57 116.941 1086.06 117.352 1084.35 117.352C1081.77 117.352 1079.68 116.455 1078.08 114.662C1076.48 112.869 1075.69 110.496 1075.69 107.543V107.314ZM1078.96 107.701C1078.96 109.811 1079.44 111.504 1080.41 112.781C1081.4 114.059 1082.71 114.697 1084.35 114.697C1086 114.697 1087.32 114.053 1088.29 112.764C1089.26 111.463 1089.75 109.646 1089.75 107.314C1089.75 105.229 1089.25 103.541 1088.25 102.252C1087.27 100.951 1085.96 100.301 1084.32 100.301C1082.71 100.301 1081.42 100.939 1080.43 102.217C1079.45 103.494 1078.96 105.322 1078.96 107.701ZM1106.27 100.898C1105.78 100.816 1105.25 100.775 1104.67 100.775C1102.54 100.775 1101.09 101.684 1100.33 103.5V117H1097.08V97.9805H1100.24L1100.29 100.178C1101.36 98.4785 1102.87 97.6289 1104.83 97.6289C1105.46 97.6289 1105.94 97.7109 1106.27 97.875V100.898ZM1118.72 117V91.4062H1127.08C1129.86 91.4062 1131.95 91.9805 1133.34 93.1289C1134.75 94.2773 1135.45 95.9766 1135.45 98.2266C1135.45 99.4219 1135.11 100.482 1134.43 101.408C1133.75 102.322 1132.83 103.031 1131.65 103.535C1133.04 103.922 1134.13 104.66 1134.92 105.75C1135.73 106.828 1136.14 108.117 1136.14 109.617C1136.14 111.914 1135.39 113.719 1133.9 115.031C1132.42 116.344 1130.31 117 1127.59 117H1118.72ZM1122.09 105.029V114.24H1127.66C1129.23 114.24 1130.47 113.836 1131.37 113.027C1132.29 112.207 1132.74 111.082 1132.74 109.652C1132.74 106.57 1131.07 105.029 1127.72 105.029H1122.09ZM1122.09 102.322H1127.19C1128.67 102.322 1129.84 101.953 1130.72 101.215C1131.61 100.477 1132.06 99.4746 1132.06 98.209C1132.06 96.8027 1131.65 95.7832 1130.83 95.1504C1130.01 94.5059 1128.76 94.1836 1127.08 94.1836H1122.09V102.322Z" fill="black"/>
<path d="M1292.8 282.879C1292.48 285.586 1291.48 287.678 1289.79 289.154C1288.12 290.619 1285.88 291.352 1283.09 291.352C1280.07 291.352 1277.64 290.268 1275.82 288.1C1274 285.932 1273.09 283.031 1273.09 279.398V276.938C1273.09 274.559 1273.51 272.467 1274.36 270.662C1275.21 268.857 1276.42 267.475 1277.98 266.514C1279.54 265.541 1281.34 265.055 1283.39 265.055C1286.11 265.055 1288.29 265.816 1289.93 267.34C1291.57 268.852 1292.53 270.949 1292.8 273.633H1289.4C1289.11 271.594 1288.47 270.117 1287.49 269.203C1286.52 268.289 1285.15 267.832 1283.39 267.832C1281.24 267.832 1279.54 268.629 1278.31 270.223C1277.09 271.816 1276.48 274.084 1276.48 277.025V279.504C1276.48 282.281 1277.06 284.49 1278.22 286.131C1279.38 287.771 1281.01 288.592 1283.09 288.592C1284.97 288.592 1286.4 288.17 1287.4 287.326C1288.41 286.471 1289.08 284.988 1289.4 282.879H1292.8ZM1303.13 286.236L1307.56 271.98H1311.04L1303.4 293.936C1302.21 297.1 1300.33 298.682 1297.75 298.682L1297.14 298.629L1295.93 298.4V295.764L1296.8 295.834C1297.91 295.834 1298.76 295.611 1299.37 295.166C1299.99 294.721 1300.5 293.906 1300.9 292.723L1301.62 290.789L1294.84 271.98H1298.39L1303.13 286.236ZM1321.34 288.697C1322.5 288.697 1323.52 288.346 1324.38 287.643C1325.25 286.939 1325.73 286.061 1325.83 285.006H1328.9C1328.84 286.096 1328.47 287.133 1327.78 288.117C1327.09 289.102 1326.16 289.887 1325 290.473C1323.85 291.059 1322.63 291.352 1321.34 291.352C1318.75 291.352 1316.69 290.49 1315.16 288.768C1313.63 287.033 1312.87 284.666 1312.87 281.666V281.121C1312.87 279.27 1313.21 277.623 1313.89 276.182C1314.57 274.74 1315.54 273.621 1316.81 272.824C1318.09 272.027 1319.59 271.629 1321.33 271.629C1323.46 271.629 1325.23 272.268 1326.63 273.545C1328.05 274.822 1328.81 276.48 1328.9 278.52H1325.83C1325.73 277.289 1325.26 276.281 1324.42 275.496C1323.59 274.699 1322.56 274.301 1321.33 274.301C1319.67 274.301 1318.39 274.898 1317.48 276.094C1316.57 277.277 1316.12 278.994 1316.12 281.244V281.859C1316.12 284.051 1316.57 285.738 1317.48 286.922C1318.38 288.105 1319.67 288.697 1321.34 288.697ZM1336.09 291H1332.84V264H1336.09V291ZM1349.21 291.352C1346.63 291.352 1344.53 290.508 1342.91 288.82C1341.29 287.121 1340.49 284.854 1340.49 282.018V281.42C1340.49 279.533 1340.84 277.852 1341.56 276.375C1342.29 274.887 1343.29 273.727 1344.58 272.895C1345.88 272.051 1347.29 271.629 1348.8 271.629C1351.27 271.629 1353.2 272.443 1354.57 274.072C1355.94 275.701 1356.62 278.033 1356.62 281.068V282.422H1343.74C1343.79 284.297 1344.33 285.814 1345.37 286.975C1346.43 288.123 1347.76 288.697 1349.38 288.697C1350.53 288.697 1351.5 288.463 1352.3 287.994C1353.1 287.525 1353.79 286.904 1354.39 286.131L1356.38 287.678C1354.78 290.127 1352.39 291.352 1349.21 291.352ZM1348.8 274.301C1347.49 274.301 1346.39 274.781 1345.5 275.742C1344.61 276.691 1344.05 278.027 1343.84 279.75H1353.37V279.504C1353.28 277.852 1352.83 276.574 1352.04 275.672C1351.24 274.758 1350.16 274.301 1348.8 274.301ZM1359.61 281.332C1359.61 278.414 1360.3 276.07 1361.69 274.301C1363.07 272.52 1364.88 271.629 1367.12 271.629C1369.34 271.629 1371.11 272.391 1372.41 273.914V264H1375.66V291H1372.67L1372.51 288.961C1371.21 290.555 1369.4 291.352 1367.08 291.352C1364.88 291.352 1363.08 290.449 1361.69 288.645C1360.3 286.84 1359.61 284.484 1359.61 281.578V281.332ZM1362.86 281.701C1362.86 283.857 1363.31 285.545 1364.2 286.764C1365.09 287.982 1366.32 288.592 1367.89 288.592C1369.95 288.592 1371.46 287.666 1372.41 285.814V277.078C1371.44 275.285 1369.94 274.389 1367.93 274.389C1366.33 274.389 1365.09 275.004 1364.2 276.234C1363.31 277.465 1362.86 279.287 1362.86 281.701ZM1404.28 279.697H1393.54V291H1390.16V265.406H1406.02V268.184H1393.54V276.938H1404.28V279.697ZM1420.7 291C1420.51 290.625 1420.36 289.957 1420.24 288.996C1418.73 290.566 1416.92 291.352 1414.82 291.352C1412.95 291.352 1411.41 290.824 1410.2 289.77C1409.01 288.703 1408.41 287.355 1408.41 285.727C1408.41 283.746 1409.16 282.211 1410.66 281.121C1412.17 280.02 1414.29 279.469 1417.02 279.469H1420.19V277.975C1420.19 276.838 1419.85 275.936 1419.17 275.268C1418.49 274.588 1417.48 274.248 1416.16 274.248C1415 274.248 1414.03 274.541 1413.24 275.127C1412.46 275.713 1412.06 276.422 1412.06 277.254H1408.79C1408.79 276.305 1409.13 275.391 1409.8 274.512C1410.48 273.621 1411.39 272.918 1412.54 272.402C1413.7 271.887 1414.97 271.629 1416.35 271.629C1418.54 271.629 1420.26 272.18 1421.5 273.281C1422.75 274.371 1423.39 275.877 1423.44 277.799V286.553C1423.44 288.299 1423.66 289.688 1424.11 290.719V291H1420.7ZM1415.3 288.521C1416.32 288.521 1417.29 288.258 1418.2 287.73C1419.11 287.203 1419.78 286.518 1420.19 285.674V281.771H1417.64C1413.65 281.771 1411.66 282.938 1411.66 285.27C1411.66 286.289 1412 287.086 1412.68 287.66C1413.36 288.234 1414.23 288.521 1415.3 288.521ZM1433.84 282.193L1431.8 284.32V291H1428.55V264H1431.8V280.33L1433.54 278.238L1439.47 271.98H1443.42L1436.02 279.926L1444.29 291H1440.47L1433.84 282.193ZM1454.32 291.352C1451.74 291.352 1449.65 290.508 1448.03 288.82C1446.41 287.121 1445.6 284.854 1445.6 282.018V281.42C1445.6 279.533 1445.96 277.852 1446.68 276.375C1447.4 274.887 1448.41 273.727 1449.7 272.895C1451 272.051 1452.41 271.629 1453.92 271.629C1456.39 271.629 1458.31 272.443 1459.68 274.072C1461.05 275.701 1461.74 278.033 1461.74 281.068V282.422H1448.86C1448.9 284.297 1449.45 285.814 1450.49 286.975C1451.54 288.123 1452.88 288.697 1454.5 288.697C1455.65 288.697 1456.62 288.463 1457.42 287.994C1458.21 287.525 1458.91 286.904 1459.51 286.131L1461.49 287.678C1459.9 290.127 1457.51 291.352 1454.32 291.352ZM1453.92 274.301C1452.61 274.301 1451.5 274.781 1450.61 275.742C1449.72 276.691 1449.17 278.027 1448.96 279.75H1458.49V279.504C1458.39 277.852 1457.95 276.574 1457.15 275.672C1456.36 274.758 1455.28 274.301 1453.92 274.301ZM1474.96 291V265.406H1483.33C1486.1 265.406 1488.19 265.98 1489.58 267.129C1490.99 268.277 1491.69 269.977 1491.69 272.227C1491.69 273.422 1491.35 274.482 1490.67 275.408C1489.99 276.322 1489.07 277.031 1487.9 277.535C1489.28 277.922 1490.37 278.66 1491.17 279.75C1491.97 280.828 1492.38 282.117 1492.38 283.617C1492.38 285.914 1491.63 287.719 1490.15 289.031C1488.66 290.344 1486.55 291 1483.84 291H1474.96ZM1478.33 279.029V288.24H1483.91C1485.48 288.24 1486.71 287.836 1487.62 287.027C1488.53 286.207 1488.99 285.082 1488.99 283.652C1488.99 280.57 1487.31 279.029 1483.96 279.029H1478.33ZM1478.33 276.322H1483.43C1484.91 276.322 1486.09 275.953 1486.96 275.215C1487.86 274.477 1488.3 273.475 1488.3 272.209C1488.3 270.803 1487.89 269.783 1487.07 269.15C1486.25 268.506 1485 268.184 1483.33 268.184H1478.33V276.322Z" fill="black"/>
<path d="M1538.71 312.707C1539.1 312.317 1539.1 311.683 1538.71 311.293L1532.34 304.929C1531.95 304.538 1531.32 304.538 1530.93 304.929C1530.54 305.319 1530.54 305.953 1530.93 306.343L1536.59 312L1530.93 317.657C1530.54 318.047 1530.54 318.681 1530.93 319.071C1531.32 319.462 1531.95 319.462 1532.34 319.071L1538.71 312.707ZM1206 313H1538V311H1206V313Z" fill="black"/>
<path d="M1292.8 75.8789C1292.48 78.5859 1291.48 80.6777 1289.79 82.1543C1288.12 83.6191 1285.88 84.3516 1283.09 84.3516C1280.07 84.3516 1277.64 83.2676 1275.82 81.0996C1274 78.9316 1273.09 76.0312 1273.09 72.3984V69.9375C1273.09 67.5586 1273.51 65.4668 1274.36 63.6621C1275.21 61.8574 1276.42 60.4746 1277.98 59.5137C1279.54 58.541 1281.34 58.0547 1283.39 58.0547C1286.11 58.0547 1288.29 58.8164 1289.93 60.3398C1291.57 61.8516 1292.53 63.9492 1292.8 66.6328H1289.4C1289.11 64.5938 1288.47 63.1172 1287.49 62.2031C1286.52 61.2891 1285.15 60.832 1283.39 60.832C1281.24 60.832 1279.54 61.6289 1278.31 63.2227C1277.09 64.8164 1276.48 67.084 1276.48 70.0254V72.5039C1276.48 75.2812 1277.06 77.4902 1278.22 79.1309C1279.38 80.7715 1281.01 81.5918 1283.09 81.5918C1284.97 81.5918 1286.4 81.1699 1287.4 80.3262C1288.41 79.4707 1289.08 77.9883 1289.4 75.8789H1292.8ZM1303.13 79.2363L1307.56 64.9805H1311.04L1303.4 86.9355C1302.21 90.0996 1300.33 91.6816 1297.75 91.6816L1297.14 91.6289L1295.93 91.4004V88.7637L1296.8 88.834C1297.91 88.834 1298.76 88.6113 1299.37 88.166C1299.99 87.7207 1300.5 86.9062 1300.9 85.7227L1301.62 83.7891L1294.84 64.9805H1298.39L1303.13 79.2363ZM1321.34 81.6973C1322.5 81.6973 1323.52 81.3457 1324.38 80.6426C1325.25 79.9395 1325.73 79.0605 1325.83 78.0059H1328.9C1328.84 79.0957 1328.47 80.1328 1327.78 81.1172C1327.09 82.1016 1326.16 82.8867 1325 83.4727C1323.85 84.0586 1322.63 84.3516 1321.34 84.3516C1318.75 84.3516 1316.69 83.4902 1315.16 81.7676C1313.63 80.0332 1312.87 77.666 1312.87 74.666V74.1211C1312.87 72.2695 1313.21 70.623 1313.89 69.1816C1314.57 67.7402 1315.54 66.6211 1316.81 65.8242C1318.09 65.0273 1319.59 64.6289 1321.33 64.6289C1323.46 64.6289 1325.23 65.2676 1326.63 66.5449C1328.05 67.8223 1328.81 69.4805 1328.9 71.5195H1325.83C1325.73 70.2891 1325.26 69.2812 1324.42 68.4961C1323.59 67.6992 1322.56 67.3008 1321.33 67.3008C1319.67 67.3008 1318.39 67.8984 1317.48 69.0938C1316.57 70.2773 1316.12 71.9941 1316.12 74.2441V74.8594C1316.12 77.0508 1316.57 78.7383 1317.48 79.9219C1318.38 81.1055 1319.67 81.6973 1321.34 81.6973ZM1336.09 84H1332.84V57H1336.09V84ZM1349.21 84.3516C1346.63 84.3516 1344.53 83.5078 1342.91 81.8203C1341.29 80.1211 1340.49 77.8535 1340.49 75.0176V74.4199C1340.49 72.5332 1340.84 70.8516 1341.56 69.375C1342.29 67.8867 1343.29 66.7266 1344.58 65.8945C1345.88 65.0508 1347.29 64.6289 1348.8 64.6289C1351.27 64.6289 1353.2 65.4434 1354.57 67.0723C1355.94 68.7012 1356.62 71.0332 1356.62 74.0684V75.4219H1343.74C1343.79 77.2969 1344.33 78.8145 1345.37 79.9746C1346.43 81.123 1347.76 81.6973 1349.38 81.6973C1350.53 81.6973 1351.5 81.4629 1352.3 80.9941C1353.1 80.5254 1353.79 79.9043 1354.39 79.1309L1356.38 80.6777C1354.78 83.127 1352.39 84.3516 1349.21 84.3516ZM1348.8 67.3008C1347.49 67.3008 1346.39 67.7812 1345.5 68.7422C1344.61 69.6914 1344.05 71.0273 1343.84 72.75H1353.37V72.5039C1353.28 70.8516 1352.83 69.5742 1352.04 68.6719C1351.24 67.7578 1350.16 67.3008 1348.8 67.3008ZM1359.61 74.332C1359.61 71.4141 1360.3 69.0703 1361.69 67.3008C1363.07 65.5195 1364.88 64.6289 1367.12 64.6289C1369.34 64.6289 1371.11 65.3906 1372.41 66.9141V57H1375.66V84H1372.67L1372.51 81.9609C1371.21 83.5547 1369.4 84.3516 1367.08 84.3516C1364.88 84.3516 1363.08 83.4492 1361.69 81.6445C1360.3 79.8398 1359.61 77.4844 1359.61 74.5781V74.332ZM1362.86 74.7012C1362.86 76.8574 1363.31 78.5449 1364.2 79.7637C1365.09 80.9824 1366.32 81.5918 1367.89 81.5918C1369.95 81.5918 1371.46 80.666 1372.41 78.8145V70.0781C1371.44 68.2852 1369.94 67.3887 1367.93 67.3887C1366.33 67.3887 1365.09 68.0039 1364.2 69.2344C1363.31 70.4648 1362.86 72.2871 1362.86 74.7012ZM1404.28 72.6973H1393.54V84H1390.16V58.4062H1406.02V61.1836H1393.54V69.9375H1404.28V72.6973ZM1420.7 84C1420.51 83.625 1420.36 82.957 1420.24 81.9961C1418.73 83.5664 1416.92 84.3516 1414.82 84.3516C1412.95 84.3516 1411.41 83.8242 1410.2 82.7695C1409.01 81.7031 1408.41 80.3555 1408.41 78.7266C1408.41 76.7461 1409.16 75.2109 1410.66 74.1211C1412.17 73.0195 1414.29 72.4688 1417.02 72.4688H1420.19V70.9746C1420.19 69.8379 1419.85 68.9355 1419.17 68.2676C1418.49 67.5879 1417.48 67.248 1416.16 67.248C1415 67.248 1414.03 67.541 1413.24 68.127C1412.46 68.7129 1412.06 69.4219 1412.06 70.2539H1408.79C1408.79 69.3047 1409.13 68.3906 1409.8 67.5117C1410.48 66.6211 1411.39 65.918 1412.54 65.4023C1413.7 64.8867 1414.97 64.6289 1416.35 64.6289C1418.54 64.6289 1420.26 65.1797 1421.5 66.2812C1422.75 67.3711 1423.39 68.877 1423.44 70.7988V79.5527C1423.44 81.2988 1423.66 82.6875 1424.11 83.7188V84H1420.7ZM1415.3 81.5215C1416.32 81.5215 1417.29 81.2578 1418.2 80.7305C1419.11 80.2031 1419.78 79.5176 1420.19 78.6738V74.7715H1417.64C1413.65 74.7715 1411.66 75.9375 1411.66 78.2695C1411.66 79.2891 1412 80.0859 1412.68 80.6602C1413.36 81.2344 1414.23 81.5215 1415.3 81.5215ZM1433.84 75.1934L1431.8 77.3203V84H1428.55V57H1431.8V73.3301L1433.54 71.2383L1439.47 64.9805H1443.42L1436.02 72.9258L1444.29 84H1440.47L1433.84 75.1934ZM1454.32 84.3516C1451.74 84.3516 1449.65 83.5078 1448.03 81.8203C1446.41 80.1211 1445.6 77.8535 1445.6 75.0176V74.4199C1445.6 72.5332 1445.96 70.8516 1446.68 69.375C1447.4 67.8867 1448.41 66.7266 1449.7 65.8945C1451 65.0508 1452.41 64.6289 1453.92 64.6289C1456.39 64.6289 1458.31 65.4434 1459.68 67.0723C1461.05 68.7012 1461.74 71.0332 1461.74 74.0684V75.4219H1448.86C1448.9 77.2969 1449.45 78.8145 1450.49 79.9746C1451.54 81.123 1452.88 81.6973 1454.5 81.6973C1455.65 81.6973 1456.62 81.4629 1457.42 80.9941C1458.21 80.5254 1458.91 79.9043 1459.51 79.1309L1461.49 80.6777C1459.9 83.127 1457.51 84.3516 1454.32 84.3516ZM1453.92 67.3008C1452.61 67.3008 1451.5 67.7812 1450.61 68.7422C1449.72 69.6914 1449.17 71.0273 1448.96 72.75H1458.49V72.5039C1458.39 70.8516 1457.95 69.5742 1457.15 68.6719C1456.36 67.7578 1455.28 67.3008 1453.92 67.3008ZM1489.09 77.3203H1478.37L1475.96 84H1472.48L1482.25 58.4062H1485.21L1495 84H1491.54L1489.09 77.3203ZM1479.39 74.543H1488.09L1483.73 62.5723L1479.39 74.543Z" fill="black"/>
<path d="M1538.71 105.707C1539.1 105.317 1539.1 104.683 1538.71 104.293L1532.34 97.9289C1531.95 97.5384 1531.32 97.5384 1530.93 97.9289C1530.54 98.3195 1530.54 98.9526 1530.93 99.3431L1536.59 105L1530.93 110.657C1530.54 111.047 1530.54 111.681 1530.93 112.071C1531.32 112.462 1531.95 112.462 1532.34 112.071L1538.71 105.707ZM1206 106H1538V104H1206V106Z" fill="black"/>
<path d="M131.357 280.646H125.346V291H121.953V265.406H130.426C133.309 265.406 135.523 266.062 137.07 267.375C138.629 268.688 139.408 270.598 139.408 273.105C139.408 274.699 138.975 276.088 138.107 277.271C137.252 278.455 136.057 279.34 134.521 279.926L140.533 290.789V291H136.912L131.357 280.646ZM125.346 277.887H130.531C132.207 277.887 133.537 277.453 134.521 276.586C135.518 275.719 136.016 274.559 136.016 273.105C136.016 271.523 135.541 270.311 134.592 269.467C133.654 268.623 132.295 268.195 130.514 268.184H125.346V277.887ZM151.537 291.352C148.959 291.352 146.861 290.508 145.244 288.82C143.627 287.121 142.818 284.854 142.818 282.018V281.42C142.818 279.533 143.176 277.852 143.891 276.375C144.617 274.887 145.625 273.727 146.914 272.895C148.215 272.051 149.621 271.629 151.133 271.629C153.605 271.629 155.527 272.443 156.898 274.072C158.27 275.701 158.955 278.033 158.955 281.068V282.422H146.07C146.117 284.297 146.662 285.814 147.705 286.975C148.76 288.123 150.096 288.697 151.713 288.697C152.861 288.697 153.834 288.463 154.631 287.994C155.428 287.525 156.125 286.904 156.723 286.131L158.709 287.678C157.115 290.127 154.725 291.352 151.537 291.352ZM151.133 274.301C149.82 274.301 148.719 274.781 147.828 275.742C146.938 276.691 146.387 278.027 146.176 279.75H155.703V279.504C155.609 277.852 155.164 276.574 154.367 275.672C153.57 274.758 152.492 274.301 151.133 274.301ZM174.477 291C174.289 290.625 174.137 289.957 174.02 288.996C172.508 290.566 170.703 291.352 168.605 291.352C166.73 291.352 165.189 290.824 163.982 289.77C162.787 288.703 162.189 287.355 162.189 285.727C162.189 283.746 162.939 282.211 164.439 281.121C165.951 280.02 168.072 279.469 170.803 279.469H173.967V277.975C173.967 276.838 173.627 275.936 172.947 275.268C172.268 274.588 171.266 274.248 169.941 274.248C168.781 274.248 167.809 274.541 167.023 275.127C166.238 275.713 165.846 276.422 165.846 277.254H162.576C162.576 276.305 162.91 275.391 163.578 274.512C164.258 273.621 165.172 272.918 166.32 272.402C167.48 271.887 168.752 271.629 170.135 271.629C172.326 271.629 174.043 272.18 175.285 273.281C176.527 274.371 177.172 275.877 177.219 277.799V286.553C177.219 288.299 177.441 289.688 177.887 290.719V291H174.477ZM169.08 288.521C170.1 288.521 171.066 288.258 171.98 287.73C172.895 287.203 173.557 286.518 173.967 285.674V281.771H171.418C167.434 281.771 165.441 282.938 165.441 285.27C165.441 286.289 165.781 287.086 166.461 287.66C167.141 288.234 168.014 288.521 169.08 288.521ZM185.85 291H182.598V264H185.85V291ZM200.51 291V265.406H208.877C211.654 265.406 213.74 265.98 215.135 267.129C216.541 268.277 217.244 269.977 217.244 272.227C217.244 273.422 216.904 274.482 216.225 275.408C215.545 276.322 214.619 277.031 213.447 277.535C214.83 277.922 215.92 278.66 216.717 279.75C217.525 280.828 217.93 282.117 217.93 283.617C217.93 285.914 217.186 287.719 215.697 289.031C214.209 290.344 212.105 291 209.387 291H200.51ZM203.885 279.029V288.24H209.457C211.027 288.24 212.264 287.836 213.166 287.027C214.08 286.207 214.537 285.082 214.537 283.652C214.537 280.57 212.861 279.029 209.51 279.029H203.885ZM203.885 276.322H208.982C210.459 276.322 211.637 275.953 212.516 275.215C213.406 274.477 213.852 273.475 213.852 272.209C213.852 270.803 213.441 269.783 212.621 269.15C211.801 268.506 210.553 268.184 208.877 268.184H203.885V276.322Z" fill="black"/>
<path d="M297.707 312.707C298.098 312.317 298.098 311.683 297.707 311.293L291.343 304.929C290.953 304.538 290.319 304.538 289.929 304.929C289.538 305.319 289.538 305.953 289.929 306.343L295.586 312L289.929 317.657C289.538 318.047 289.538 318.681 289.929 319.071C290.319 319.462 290.953 319.462 291.343 319.071L297.707 312.707ZM42 313H297V311H42V313Z" fill="black"/>
</svg>
