<svg width="906" height="368" viewBox="0 0 906 368" fill="none" xmlns="http://www.w3.org/2000/svg">
<rect width="906" height="368" fill="white"/>
<rect x="282" y="19" width="324" height="141" fill="#C4C4C4"/>
<path d="M370.867 97.6426C370 98.8848 368.787 99.8164 367.229 100.438C365.682 101.047 363.877 101.352 361.814 101.352C359.729 101.352 357.877 100.865 356.26 99.8926C354.643 98.9082 353.389 97.5137 352.498 95.709C351.619 93.9043 351.168 91.8125 351.145 89.4336V87.2012C351.145 83.3457 352.041 80.3574 353.834 78.2363C355.639 76.1152 358.17 75.0547 361.428 75.0547C364.1 75.0547 366.25 75.7402 367.879 77.1113C369.508 78.4707 370.504 80.4043 370.867 82.9121H367.492C366.859 79.5254 364.844 77.832 361.445 77.832C359.184 77.832 357.467 78.6289 356.295 80.2227C355.135 81.8047 354.549 84.1016 354.537 87.1133V89.2051C354.537 92.0762 355.193 94.3613 356.506 96.0605C357.818 97.748 359.594 98.5918 361.832 98.5918C363.098 98.5918 364.205 98.4512 365.154 98.1699C366.104 97.8887 366.889 97.4141 367.51 96.7461V90.998H361.586V88.2559H370.867V97.6426ZM383.893 101.352C381.314 101.352 379.217 100.508 377.6 98.8203C375.982 97.1211 375.174 94.8535 375.174 92.0176V91.4199C375.174 89.5332 375.531 87.8516 376.246 86.375C376.973 84.8867 377.98 83.7266 379.27 82.8945C380.57 82.0508 381.977 81.6289 383.488 81.6289C385.961 81.6289 387.883 82.4434 389.254 84.0723C390.625 85.7012 391.311 88.0332 391.311 91.0684V92.4219H378.426C378.473 94.2969 379.018 95.8145 380.061 96.9746C381.115 98.123 382.451 98.6973 384.068 98.6973C385.217 98.6973 386.189 98.4629 386.986 97.9941C387.783 97.5254 388.48 96.9043 389.078 96.1309L391.064 97.6777C389.471 100.127 387.08 101.352 383.893 101.352ZM383.488 84.3008C382.176 84.3008 381.074 84.7812 380.184 85.7422C379.293 86.6914 378.742 88.0273 378.531 89.75H388.059V89.5039C387.965 87.8516 387.52 86.5742 386.723 85.6719C385.926 84.7578 384.848 84.3008 383.488 84.3008ZM398.166 81.9805L398.271 84.3711C399.725 82.543 401.623 81.6289 403.967 81.6289C407.986 81.6289 410.014 83.8965 410.049 88.4316V101H406.797V88.4141C406.785 87.043 406.469 86.0293 405.848 85.373C405.238 84.7168 404.283 84.3887 402.982 84.3887C401.928 84.3887 401.002 84.6699 400.205 85.2324C399.408 85.7949 398.787 86.5332 398.342 87.4473V101H395.09V81.9805H398.166ZM422.846 101.352C420.268 101.352 418.17 100.508 416.553 98.8203C414.936 97.1211 414.127 94.8535 414.127 92.0176V91.4199C414.127 89.5332 414.484 87.8516 415.199 86.375C415.926 84.8867 416.934 83.7266 418.223 82.8945C419.523 82.0508 420.93 81.6289 422.441 81.6289C424.914 81.6289 426.836 82.4434 428.207 84.0723C429.578 85.7012 430.264 88.0332 430.264 91.0684V92.4219H417.379C417.426 94.2969 417.971 95.8145 419.014 96.9746C420.068 98.123 421.404 98.6973 423.021 98.6973C424.17 98.6973 425.143 98.4629 425.939 97.9941C426.736 97.5254 427.434 96.9043 428.031 96.1309L430.018 97.6777C428.424 100.127 426.033 101.352 422.846 101.352ZM422.441 84.3008C421.129 84.3008 420.027 84.7812 419.137 85.7422C418.246 86.6914 417.695 88.0273 417.484 89.75H427.012V89.5039C426.918 87.8516 426.473 86.5742 425.676 85.6719C424.879 84.7578 423.801 84.3008 422.441 84.3008ZM443.236 84.8984C442.744 84.8164 442.211 84.7754 441.637 84.7754C439.504 84.7754 438.057 85.6836 437.295 87.5V101H434.043V81.9805H437.207L437.26 84.1777C438.326 82.4785 439.838 81.6289 441.795 81.6289C442.428 81.6289 442.908 81.7109 443.236 81.875V84.8984ZM457.281 101C457.094 100.625 456.941 99.957 456.824 98.9961C455.312 100.566 453.508 101.352 451.41 101.352C449.535 101.352 447.994 100.824 446.787 99.7695C445.592 98.7031 444.994 97.3555 444.994 95.7266C444.994 93.7461 445.744 92.2109 447.244 91.1211C448.756 90.0195 450.877 89.4688 453.607 89.4688H456.771V87.9746C456.771 86.8379 456.432 85.9355 455.752 85.2676C455.072 84.5879 454.07 84.248 452.746 84.248C451.586 84.248 450.613 84.541 449.828 85.127C449.043 85.7129 448.65 86.4219 448.65 87.2539H445.381C445.381 86.3047 445.715 85.3906 446.383 84.5117C447.062 83.6211 447.977 82.918 449.125 82.4023C450.285 81.8867 451.557 81.6289 452.939 81.6289C455.131 81.6289 456.848 82.1797 458.09 83.2812C459.332 84.3711 459.977 85.877 460.023 87.7988V96.5527C460.023 98.2988 460.246 99.6875 460.691 100.719V101H457.281ZM451.885 98.5215C452.904 98.5215 453.871 98.2578 454.785 97.7305C455.699 97.2031 456.361 96.5176 456.771 95.6738V91.7715H454.223C450.238 91.7715 448.246 92.9375 448.246 95.2695C448.246 96.2891 448.586 97.0859 449.266 97.6602C449.945 98.2344 450.818 98.5215 451.885 98.5215ZM469.533 77.375V81.9805H473.084V84.4941H469.533V96.2891C469.533 97.0508 469.691 97.625 470.008 98.0117C470.324 98.3867 470.863 98.5742 471.625 98.5742C472 98.5742 472.516 98.5039 473.172 98.3633V101C472.316 101.234 471.484 101.352 470.676 101.352C469.223 101.352 468.127 100.912 467.389 100.033C466.65 99.1543 466.281 97.9062 466.281 96.2891V84.4941H462.818V81.9805H466.281V77.375H469.533ZM475.686 91.3145C475.686 89.4512 476.049 87.7754 476.775 86.2871C477.514 84.7988 478.533 83.6504 479.834 82.8418C481.146 82.0332 482.641 81.6289 484.316 81.6289C486.906 81.6289 488.998 82.5254 490.592 84.3184C492.197 86.1113 493 88.4961 493 91.4727V91.7012C493 93.5527 492.643 95.2168 491.928 96.6934C491.225 98.1582 490.211 99.3008 488.887 100.121C487.574 100.941 486.062 101.352 484.352 101.352C481.773 101.352 479.682 100.455 478.076 98.6621C476.482 96.8691 475.686 94.4961 475.686 91.543V91.3145ZM478.955 91.7012C478.955 93.8105 479.441 95.5039 480.414 96.7812C481.398 98.0586 482.711 98.6973 484.352 98.6973C486.004 98.6973 487.316 98.0527 488.289 96.7637C489.262 95.4629 489.748 93.6465 489.748 91.3145C489.748 89.2285 489.25 87.541 488.254 86.252C487.27 84.9512 485.957 84.3008 484.316 84.3008C482.711 84.3008 481.416 84.9395 480.432 86.2168C479.447 87.4941 478.955 89.3223 478.955 91.7012ZM506.271 84.8984C505.779 84.8164 505.246 84.7754 504.672 84.7754C502.539 84.7754 501.092 85.6836 500.33 87.5V101H497.078V81.9805H500.242L500.295 84.1777C501.361 82.4785 502.873 81.6289 504.83 81.6289C505.463 81.6289 505.943 81.7109 506.271 81.875V84.8984ZM532.85 94.3203H522.127L519.719 101H516.238L526.012 75.4062H528.965L538.756 101H535.293L532.85 94.3203ZM523.146 91.543H531.848L527.488 79.5723L523.146 91.543Z" fill="black"/>
<path d="M282.707 89.7071C283.098 89.3166 283.098 88.6834 282.707 88.2929L276.343 81.9289C275.953 81.5384 275.319 81.5384 274.929 81.9289C274.538 82.3195 274.538 82.9526 274.929 83.3431L280.586 89L274.929 94.6569C274.538 95.0474 274.538 95.6805 274.929 96.0711C275.319 96.4616 275.953 96.4616 276.343 96.0711L282.707 89.7071ZM38 90H282V88H38V90Z" fill="black"/>
<path d="M124.357 57.6465H118.346V68H114.953V42.4062H123.426C126.309 42.4062 128.523 43.0625 130.07 44.375C131.629 45.6875 132.408 47.5977 132.408 50.1055C132.408 51.6992 131.975 53.0879 131.107 54.2715C130.252 55.4551 129.057 56.3398 127.521 56.9258L133.533 67.7891V68H129.912L124.357 57.6465ZM118.346 54.8867H123.531C125.207 54.8867 126.537 54.4531 127.521 53.5859C128.518 52.7188 129.016 51.5586 129.016 50.1055C129.016 48.5234 128.541 47.3105 127.592 46.4668C126.654 45.623 125.295 45.1953 123.514 45.1836H118.346V54.8867ZM144.537 68.3516C141.959 68.3516 139.861 67.5078 138.244 65.8203C136.627 64.1211 135.818 61.8535 135.818 59.0176V58.4199C135.818 56.5332 136.176 54.8516 136.891 53.375C137.617 51.8867 138.625 50.7266 139.914 49.8945C141.215 49.0508 142.621 48.6289 144.133 48.6289C146.605 48.6289 148.527 49.4434 149.898 51.0723C151.27 52.7012 151.955 55.0332 151.955 58.0684V59.4219H139.07C139.117 61.2969 139.662 62.8145 140.705 63.9746C141.76 65.123 143.096 65.6973 144.713 65.6973C145.861 65.6973 146.834 65.4629 147.631 64.9941C148.428 64.5254 149.125 63.9043 149.723 63.1309L151.709 64.6777C150.115 67.127 147.725 68.3516 144.537 68.3516ZM144.133 51.3008C142.82 51.3008 141.719 51.7812 140.828 52.7422C139.938 53.6914 139.387 55.0273 139.176 56.75H148.703V56.5039C148.609 54.8516 148.164 53.5742 147.367 52.6719C146.57 51.7578 145.492 51.3008 144.133 51.3008ZM167.477 68C167.289 67.625 167.137 66.957 167.02 65.9961C165.508 67.5664 163.703 68.3516 161.605 68.3516C159.73 68.3516 158.189 67.8242 156.982 66.7695C155.787 65.7031 155.189 64.3555 155.189 62.7266C155.189 60.7461 155.939 59.2109 157.439 58.1211C158.951 57.0195 161.072 56.4688 163.803 56.4688H166.967V54.9746C166.967 53.8379 166.627 52.9355 165.947 52.2676C165.268 51.5879 164.266 51.248 162.941 51.248C161.781 51.248 160.809 51.541 160.023 52.127C159.238 52.7129 158.846 53.4219 158.846 54.2539H155.576C155.576 53.3047 155.91 52.3906 156.578 51.5117C157.258 50.6211 158.172 49.918 159.32 49.4023C160.48 48.8867 161.752 48.6289 163.135 48.6289C165.326 48.6289 167.043 49.1797 168.285 50.2812C169.527 51.3711 170.172 52.877 170.219 54.7988V63.5527C170.219 65.2988 170.441 66.6875 170.887 67.7188V68H167.477ZM162.08 65.5215C163.1 65.5215 164.066 65.2578 164.98 64.7305C165.895 64.2031 166.557 63.5176 166.967 62.6738V58.7715H164.418C160.434 58.7715 158.441 59.9375 158.441 62.2695C158.441 63.2891 158.781 64.0859 159.461 64.6602C160.141 65.2344 161.014 65.5215 162.08 65.5215ZM178.85 68H175.598V41H178.85V68ZM193.51 68V42.4062H201.877C204.654 42.4062 206.74 42.9805 208.135 44.1289C209.541 45.2773 210.244 46.9766 210.244 49.2266C210.244 50.4219 209.904 51.4824 209.225 52.4082C208.545 53.3223 207.619 54.0312 206.447 54.5352C207.83 54.9219 208.92 55.6602 209.717 56.75C210.525 57.8281 210.93 59.1172 210.93 60.6172C210.93 62.9141 210.186 64.7188 208.697 66.0312C207.209 67.3438 205.105 68 202.387 68H193.51ZM196.885 56.0293V65.2402H202.457C204.027 65.2402 205.264 64.8359 206.166 64.0273C207.08 63.207 207.537 62.082 207.537 60.6523C207.537 57.5703 205.861 56.0293 202.51 56.0293H196.885ZM196.885 53.3223H201.982C203.459 53.3223 204.637 52.9531 205.516 52.2148C206.406 51.4766 206.852 50.4746 206.852 49.209C206.852 47.8027 206.441 46.7832 205.621 46.1504C204.801 45.5059 203.553 45.1836 201.877 45.1836H196.885V53.3223Z" fill="black"/>
<path d="M693.357 57.6465H687.346V68H683.953V42.4062H692.426C695.309 42.4062 697.523 43.0625 699.07 44.375C700.629 45.6875 701.408 47.5977 701.408 50.1055C701.408 51.6992 700.975 53.0879 700.107 54.2715C699.252 55.4551 698.057 56.3398 696.521 56.9258L702.533 67.7891V68H698.912L693.357 57.6465ZM687.346 54.8867H692.531C694.207 54.8867 695.537 54.4531 696.521 53.5859C697.518 52.7188 698.016 51.5586 698.016 50.1055C698.016 48.5234 697.541 47.3105 696.592 46.4668C695.654 45.623 694.295 45.1953 692.514 45.1836H687.346V54.8867ZM713.537 68.3516C710.959 68.3516 708.861 67.5078 707.244 65.8203C705.627 64.1211 704.818 61.8535 704.818 59.0176V58.4199C704.818 56.5332 705.176 54.8516 705.891 53.375C706.617 51.8867 707.625 50.7266 708.914 49.8945C710.215 49.0508 711.621 48.6289 713.133 48.6289C715.605 48.6289 717.527 49.4434 718.898 51.0723C720.27 52.7012 720.955 55.0332 720.955 58.0684V59.4219H708.07C708.117 61.2969 708.662 62.8145 709.705 63.9746C710.76 65.123 712.096 65.6973 713.713 65.6973C714.861 65.6973 715.834 65.4629 716.631 64.9941C717.428 64.5254 718.125 63.9043 718.723 63.1309L720.709 64.6777C719.115 67.127 716.725 68.3516 713.537 68.3516ZM713.133 51.3008C711.82 51.3008 710.719 51.7812 709.828 52.7422C708.938 53.6914 708.387 55.0273 708.176 56.75H717.703V56.5039C717.609 54.8516 717.164 53.5742 716.367 52.6719C715.57 51.7578 714.492 51.3008 713.133 51.3008ZM736.477 68C736.289 67.625 736.137 66.957 736.02 65.9961C734.508 67.5664 732.703 68.3516 730.605 68.3516C728.73 68.3516 727.189 67.8242 725.982 66.7695C724.787 65.7031 724.189 64.3555 724.189 62.7266C724.189 60.7461 724.939 59.2109 726.439 58.1211C727.951 57.0195 730.072 56.4688 732.803 56.4688H735.967V54.9746C735.967 53.8379 735.627 52.9355 734.947 52.2676C734.268 51.5879 733.266 51.248 731.941 51.248C730.781 51.248 729.809 51.541 729.023 52.127C728.238 52.7129 727.846 53.4219 727.846 54.2539H724.576C724.576 53.3047 724.91 52.3906 725.578 51.5117C726.258 50.6211 727.172 49.918 728.32 49.4023C729.48 48.8867 730.752 48.6289 732.135 48.6289C734.326 48.6289 736.043 49.1797 737.285 50.2812C738.527 51.3711 739.172 52.877 739.219 54.7988V63.5527C739.219 65.2988 739.441 66.6875 739.887 67.7188V68H736.477ZM731.08 65.5215C732.1 65.5215 733.066 65.2578 733.98 64.7305C734.895 64.2031 735.557 63.5176 735.967 62.6738V58.7715H733.418C729.434 58.7715 727.441 59.9375 727.441 62.2695C727.441 63.2891 727.781 64.0859 728.461 64.6602C729.141 65.2344 730.014 65.5215 731.08 65.5215ZM747.85 68H744.598V41H747.85V68ZM762.51 68V42.4062H770.877C773.654 42.4062 775.74 42.9805 777.135 44.1289C778.541 45.2773 779.244 46.9766 779.244 49.2266C779.244 50.4219 778.904 51.4824 778.225 52.4082C777.545 53.3223 776.619 54.0312 775.447 54.5352C776.83 54.9219 777.92 55.6602 778.717 56.75C779.525 57.8281 779.93 59.1172 779.93 60.6172C779.93 62.9141 779.186 64.7188 777.697 66.0312C776.209 67.3438 774.105 68 771.387 68H762.51ZM765.885 56.0293V65.2402H771.457C773.027 65.2402 774.264 64.8359 775.166 64.0273C776.08 63.207 776.537 62.082 776.537 60.6523C776.537 57.5703 774.861 56.0293 771.51 56.0293H765.885ZM765.885 53.3223H770.982C772.459 53.3223 773.637 52.9531 774.516 52.2148C775.406 51.4766 775.852 50.4746 775.852 49.209C775.852 47.8027 775.441 46.7832 774.621 46.1504C773.801 45.5059 772.553 45.1836 770.877 45.1836H765.885V53.3223Z" fill="black"/>
<path d="M847.707 89.7071C848.098 89.3166 848.098 88.6834 847.707 88.2929L841.343 81.9289C840.953 81.5384 840.319 81.5384 839.929 81.9289C839.538 82.3195 839.538 82.9526 839.929 83.3431L845.586 89L839.929 94.6569C839.538 95.0474 839.538 95.6805 839.929 96.0711C840.319 96.4616 840.953 96.4616 841.343 96.0711L847.707 89.7071ZM606 90H847V88H606V90Z" fill="black"/>
<rect x="270" y="201" width="324" height="141" fill="#C4C4C4"/>
<path d="M358.867 279.643C358 280.885 356.787 281.816 355.229 282.438C353.682 283.047 351.877 283.352 349.814 283.352C347.729 283.352 345.877 282.865 344.26 281.893C342.643 280.908 341.389 279.514 340.498 277.709C339.619 275.904 339.168 273.812 339.145 271.434V269.201C339.145 265.346 340.041 262.357 341.834 260.236C343.639 258.115 346.17 257.055 349.428 257.055C352.1 257.055 354.25 257.74 355.879 259.111C357.508 260.471 358.504 262.404 358.867 264.912H355.492C354.859 261.525 352.844 259.832 349.445 259.832C347.184 259.832 345.467 260.629 344.295 262.223C343.135 263.805 342.549 266.102 342.537 269.113V271.205C342.537 274.076 343.193 276.361 344.506 278.061C345.818 279.748 347.594 280.592 349.832 280.592C351.098 280.592 352.205 280.451 353.154 280.17C354.104 279.889 354.889 279.414 355.51 278.746V272.998H349.586V270.256H358.867V279.643ZM371.893 283.352C369.314 283.352 367.217 282.508 365.6 280.82C363.982 279.121 363.174 276.854 363.174 274.018V273.42C363.174 271.533 363.531 269.852 364.246 268.375C364.973 266.887 365.98 265.727 367.27 264.895C368.57 264.051 369.977 263.629 371.488 263.629C373.961 263.629 375.883 264.443 377.254 266.072C378.625 267.701 379.311 270.033 379.311 273.068V274.422H366.426C366.473 276.297 367.018 277.814 368.061 278.975C369.115 280.123 370.451 280.697 372.068 280.697C373.217 280.697 374.189 280.463 374.986 279.994C375.783 279.525 376.48 278.904 377.078 278.131L379.064 279.678C377.471 282.127 375.08 283.352 371.893 283.352ZM371.488 266.301C370.176 266.301 369.074 266.781 368.184 267.742C367.293 268.691 366.742 270.027 366.531 271.75H376.059V271.504C375.965 269.852 375.52 268.574 374.723 267.672C373.926 266.758 372.848 266.301 371.488 266.301ZM386.166 263.98L386.271 266.371C387.725 264.543 389.623 263.629 391.967 263.629C395.986 263.629 398.014 265.896 398.049 270.432V283H394.797V270.414C394.785 269.043 394.469 268.029 393.848 267.373C393.238 266.717 392.283 266.389 390.982 266.389C389.928 266.389 389.002 266.67 388.205 267.232C387.408 267.795 386.787 268.533 386.342 269.447V283H383.09V263.98H386.166ZM410.846 283.352C408.268 283.352 406.17 282.508 404.553 280.82C402.936 279.121 402.127 276.854 402.127 274.018V273.42C402.127 271.533 402.484 269.852 403.199 268.375C403.926 266.887 404.934 265.727 406.223 264.895C407.523 264.051 408.93 263.629 410.441 263.629C412.914 263.629 414.836 264.443 416.207 266.072C417.578 267.701 418.264 270.033 418.264 273.068V274.422H405.379C405.426 276.297 405.971 277.814 407.014 278.975C408.068 280.123 409.404 280.697 411.021 280.697C412.17 280.697 413.143 280.463 413.939 279.994C414.736 279.525 415.434 278.904 416.031 278.131L418.018 279.678C416.424 282.127 414.033 283.352 410.846 283.352ZM410.441 266.301C409.129 266.301 408.027 266.781 407.137 267.742C406.246 268.691 405.695 270.027 405.484 271.75H415.012V271.504C414.918 269.852 414.473 268.574 413.676 267.672C412.879 266.758 411.801 266.301 410.441 266.301ZM431.236 266.898C430.744 266.816 430.211 266.775 429.637 266.775C427.504 266.775 426.057 267.684 425.295 269.5V283H422.043V263.98H425.207L425.26 266.178C426.326 264.479 427.838 263.629 429.795 263.629C430.428 263.629 430.908 263.711 431.236 263.875V266.898ZM445.281 283C445.094 282.625 444.941 281.957 444.824 280.996C443.312 282.566 441.508 283.352 439.41 283.352C437.535 283.352 435.994 282.824 434.787 281.77C433.592 280.703 432.994 279.355 432.994 277.727C432.994 275.746 433.744 274.211 435.244 273.121C436.756 272.02 438.877 271.469 441.607 271.469H444.771V269.975C444.771 268.838 444.432 267.936 443.752 267.268C443.072 266.588 442.07 266.248 440.746 266.248C439.586 266.248 438.613 266.541 437.828 267.127C437.043 267.713 436.65 268.422 436.65 269.254H433.381C433.381 268.305 433.715 267.391 434.383 266.512C435.062 265.621 435.977 264.918 437.125 264.402C438.285 263.887 439.557 263.629 440.939 263.629C443.131 263.629 444.848 264.18 446.09 265.281C447.332 266.371 447.977 267.877 448.023 269.799V278.553C448.023 280.299 448.246 281.688 448.691 282.719V283H445.281ZM439.885 280.521C440.904 280.521 441.871 280.258 442.785 279.73C443.699 279.203 444.361 278.518 444.771 277.674V273.771H442.223C438.238 273.771 436.246 274.938 436.246 277.27C436.246 278.289 436.586 279.086 437.266 279.66C437.945 280.234 438.818 280.521 439.885 280.521ZM457.533 259.375V263.98H461.084V266.494H457.533V278.289C457.533 279.051 457.691 279.625 458.008 280.012C458.324 280.387 458.863 280.574 459.625 280.574C460 280.574 460.516 280.504 461.172 280.363V283C460.316 283.234 459.484 283.352 458.676 283.352C457.223 283.352 456.127 282.912 455.389 282.033C454.65 281.154 454.281 279.906 454.281 278.289V266.494H450.818V263.98H454.281V259.375H457.533ZM463.686 273.314C463.686 271.451 464.049 269.775 464.775 268.287C465.514 266.799 466.533 265.65 467.834 264.842C469.146 264.033 470.641 263.629 472.316 263.629C474.906 263.629 476.998 264.525 478.592 266.318C480.197 268.111 481 270.496 481 273.473V273.701C481 275.553 480.643 277.217 479.928 278.693C479.225 280.158 478.211 281.301 476.887 282.121C475.574 282.941 474.062 283.352 472.352 283.352C469.773 283.352 467.682 282.455 466.076 280.662C464.482 278.869 463.686 276.496 463.686 273.543V273.314ZM466.955 273.701C466.955 275.811 467.441 277.504 468.414 278.781C469.398 280.059 470.711 280.697 472.352 280.697C474.004 280.697 475.316 280.053 476.289 278.764C477.262 277.463 477.748 275.646 477.748 273.314C477.748 271.229 477.25 269.541 476.254 268.252C475.27 266.951 473.957 266.301 472.316 266.301C470.711 266.301 469.416 266.939 468.432 268.217C467.447 269.494 466.955 271.322 466.955 273.701ZM494.271 266.898C493.779 266.816 493.246 266.775 492.672 266.775C490.539 266.775 489.092 267.684 488.33 269.5V283H485.078V263.98H488.242L488.295 266.178C489.361 264.479 490.873 263.629 492.83 263.629C493.463 263.629 493.943 263.711 494.271 263.875V266.898ZM506.717 283V257.406H515.084C517.861 257.406 519.947 257.98 521.342 259.129C522.748 260.277 523.451 261.977 523.451 264.227C523.451 265.422 523.111 266.482 522.432 267.408C521.752 268.322 520.826 269.031 519.654 269.535C521.037 269.922 522.127 270.66 522.924 271.75C523.732 272.828 524.137 274.117 524.137 275.617C524.137 277.914 523.393 279.719 521.904 281.031C520.416 282.344 518.312 283 515.594 283H506.717ZM510.092 271.029V280.24H515.664C517.234 280.24 518.471 279.836 519.373 279.027C520.287 278.207 520.744 277.082 520.744 275.652C520.744 272.57 519.068 271.029 515.717 271.029H510.092ZM510.092 268.322H515.189C516.666 268.322 517.844 267.953 518.723 267.215C519.613 266.477 520.059 265.475 520.059 264.209C520.059 262.803 519.648 261.783 518.828 261.15C518.008 260.506 516.76 260.184 515.084 260.184H510.092V268.322Z" fill="black"/>
<path d="M270.707 271.707C271.098 271.317 271.098 270.683 270.707 270.293L264.343 263.929C263.953 263.538 263.319 263.538 262.929 263.929C262.538 264.319 262.538 264.953 262.929 265.343L268.586 271L262.929 276.657C262.538 277.047 262.538 277.681 262.929 278.071C263.319 278.462 263.953 278.462 264.343 278.071L270.707 271.707ZM26 272H270V270H26V272Z" fill="black"/>
<path d="M112.357 239.646H106.346V250H102.953V224.406H111.426C114.309 224.406 116.523 225.062 118.07 226.375C119.629 227.688 120.408 229.598 120.408 232.105C120.408 233.699 119.975 235.088 119.107 236.271C118.252 237.455 117.057 238.34 115.521 238.926L121.533 249.789V250H117.912L112.357 239.646ZM106.346 236.887H111.531C113.207 236.887 114.537 236.453 115.521 235.586C116.518 234.719 117.016 233.559 117.016 232.105C117.016 230.523 116.541 229.311 115.592 228.467C114.654 227.623 113.295 227.195 111.514 227.184H106.346V236.887ZM132.537 250.352C129.959 250.352 127.861 249.508 126.244 247.82C124.627 246.121 123.818 243.854 123.818 241.018V240.42C123.818 238.533 124.176 236.852 124.891 235.375C125.617 233.887 126.625 232.727 127.914 231.895C129.215 231.051 130.621 230.629 132.133 230.629C134.605 230.629 136.527 231.443 137.898 233.072C139.27 234.701 139.955 237.033 139.955 240.068V241.422H127.07C127.117 243.297 127.662 244.814 128.705 245.975C129.76 247.123 131.096 247.697 132.713 247.697C133.861 247.697 134.834 247.463 135.631 246.994C136.428 246.525 137.125 245.904 137.723 245.131L139.709 246.678C138.115 249.127 135.725 250.352 132.537 250.352ZM132.133 233.301C130.82 233.301 129.719 233.781 128.828 234.742C127.938 235.691 127.387 237.027 127.176 238.75H136.703V238.504C136.609 236.852 136.164 235.574 135.367 234.672C134.57 233.758 133.492 233.301 132.133 233.301ZM155.477 250C155.289 249.625 155.137 248.957 155.02 247.996C153.508 249.566 151.703 250.352 149.605 250.352C147.73 250.352 146.189 249.824 144.982 248.77C143.787 247.703 143.189 246.355 143.189 244.727C143.189 242.746 143.939 241.211 145.439 240.121C146.951 239.02 149.072 238.469 151.803 238.469H154.967V236.975C154.967 235.838 154.627 234.936 153.947 234.268C153.268 233.588 152.266 233.248 150.941 233.248C149.781 233.248 148.809 233.541 148.023 234.127C147.238 234.713 146.846 235.422 146.846 236.254H143.576C143.576 235.305 143.91 234.391 144.578 233.512C145.258 232.621 146.172 231.918 147.32 231.402C148.48 230.887 149.752 230.629 151.135 230.629C153.326 230.629 155.043 231.18 156.285 232.281C157.527 233.371 158.172 234.877 158.219 236.799V245.553C158.219 247.299 158.441 248.688 158.887 249.719V250H155.477ZM150.08 247.521C151.1 247.521 152.066 247.258 152.98 246.73C153.895 246.203 154.557 245.518 154.967 244.674V240.771H152.418C148.434 240.771 146.441 241.938 146.441 244.27C146.441 245.289 146.781 246.086 147.461 246.66C148.141 247.234 149.014 247.521 150.08 247.521ZM166.85 250H163.598V223H166.85V250ZM195.643 243.32H184.92L182.512 250H179.031L188.805 224.406H191.758L201.549 250H198.086L195.643 243.32ZM185.939 240.543H194.641L190.281 228.572L185.939 240.543Z" fill="black"/>
<path d="M681.357 239.646H675.346V250H671.953V224.406H680.426C683.309 224.406 685.523 225.062 687.07 226.375C688.629 227.688 689.408 229.598 689.408 232.105C689.408 233.699 688.975 235.088 688.107 236.271C687.252 237.455 686.057 238.34 684.521 238.926L690.533 249.789V250H686.912L681.357 239.646ZM675.346 236.887H680.531C682.207 236.887 683.537 236.453 684.521 235.586C685.518 234.719 686.016 233.559 686.016 232.105C686.016 230.523 685.541 229.311 684.592 228.467C683.654 227.623 682.295 227.195 680.514 227.184H675.346V236.887ZM701.537 250.352C698.959 250.352 696.861 249.508 695.244 247.82C693.627 246.121 692.818 243.854 692.818 241.018V240.42C692.818 238.533 693.176 236.852 693.891 235.375C694.617 233.887 695.625 232.727 696.914 231.895C698.215 231.051 699.621 230.629 701.133 230.629C703.605 230.629 705.527 231.443 706.898 233.072C708.27 234.701 708.955 237.033 708.955 240.068V241.422H696.07C696.117 243.297 696.662 244.814 697.705 245.975C698.76 247.123 700.096 247.697 701.713 247.697C702.861 247.697 703.834 247.463 704.631 246.994C705.428 246.525 706.125 245.904 706.723 245.131L708.709 246.678C707.115 249.127 704.725 250.352 701.537 250.352ZM701.133 233.301C699.82 233.301 698.719 233.781 697.828 234.742C696.938 235.691 696.387 237.027 696.176 238.75H705.703V238.504C705.609 236.852 705.164 235.574 704.367 234.672C703.57 233.758 702.492 233.301 701.133 233.301ZM724.477 250C724.289 249.625 724.137 248.957 724.02 247.996C722.508 249.566 720.703 250.352 718.605 250.352C716.73 250.352 715.189 249.824 713.982 248.77C712.787 247.703 712.189 246.355 712.189 244.727C712.189 242.746 712.939 241.211 714.439 240.121C715.951 239.02 718.072 238.469 720.803 238.469H723.967V236.975C723.967 235.838 723.627 234.936 722.947 234.268C722.268 233.588 721.266 233.248 719.941 233.248C718.781 233.248 717.809 233.541 717.023 234.127C716.238 234.713 715.846 235.422 715.846 236.254H712.576C712.576 235.305 712.91 234.391 713.578 233.512C714.258 232.621 715.172 231.918 716.32 231.402C717.48 230.887 718.752 230.629 720.135 230.629C722.326 230.629 724.043 231.18 725.285 232.281C726.527 233.371 727.172 234.877 727.219 236.799V245.553C727.219 247.299 727.441 248.688 727.887 249.719V250H724.477ZM719.08 247.521C720.1 247.521 721.066 247.258 721.98 246.73C722.895 246.203 723.557 245.518 723.967 244.674V240.771H721.418C717.434 240.771 715.441 241.938 715.441 244.27C715.441 245.289 715.781 246.086 716.461 246.66C717.141 247.234 718.014 247.521 719.08 247.521ZM735.85 250H732.598V223H735.85V250ZM764.643 243.32H753.92L751.512 250H748.031L757.805 224.406H760.758L770.549 250H767.086L764.643 243.32ZM754.939 240.543H763.641L759.281 228.572L754.939 240.543Z" fill="black"/>
<path d="M835.707 271.707C836.098 271.317 836.098 270.683 835.707 270.293L829.343 263.929C828.953 263.538 828.319 263.538 827.929 263.929C827.538 264.319 827.538 264.953 827.929 265.343L833.586 271L827.929 276.657C827.538 277.047 827.538 277.681 827.929 278.071C828.319 278.462 828.953 278.462 829.343 278.071L835.707 271.707ZM594 272H835V270H594V272Z" fill="black"/>
</svg>
