<svg width="1250" height="368" viewBox="0 0 1250 368" fill="none" xmlns="http://www.w3.org/2000/svg">
<rect width="1250" height="368" fill="white"/>
<rect x="452" y="205" width="324" height="141" fill="#C4C4C4"/>
<path d="M540.867 283.643C540 284.885 538.787 285.816 537.229 286.438C535.682 287.047 533.877 287.352 531.814 287.352C529.729 287.352 527.877 286.865 526.26 285.893C524.643 284.908 523.389 283.514 522.498 281.709C521.619 279.904 521.168 277.812 521.145 275.434V273.201C521.145 269.346 522.041 266.357 523.834 264.236C525.639 262.115 528.17 261.055 531.428 261.055C534.1 261.055 536.25 261.74 537.879 263.111C539.508 264.471 540.504 266.404 540.867 268.912H537.492C536.859 265.525 534.844 263.832 531.445 263.832C529.184 263.832 527.467 264.629 526.295 266.223C525.135 267.805 524.549 270.102 524.537 273.113V275.205C524.537 278.076 525.193 280.361 526.506 282.061C527.818 283.748 529.594 284.592 531.832 284.592C533.098 284.592 534.205 284.451 535.154 284.17C536.104 283.889 536.889 283.414 537.51 282.746V276.998H531.586V274.256H540.867V283.643ZM553.893 287.352C551.314 287.352 549.217 286.508 547.6 284.82C545.982 283.121 545.174 280.854 545.174 278.018V277.42C545.174 275.533 545.531 273.852 546.246 272.375C546.973 270.887 547.98 269.727 549.27 268.895C550.57 268.051 551.977 267.629 553.488 267.629C555.961 267.629 557.883 268.443 559.254 270.072C560.625 271.701 561.311 274.033 561.311 277.068V278.422H548.426C548.473 280.297 549.018 281.814 550.061 282.975C551.115 284.123 552.451 284.697 554.068 284.697C555.217 284.697 556.189 284.463 556.986 283.994C557.783 283.525 558.48 282.904 559.078 282.131L561.064 283.678C559.471 286.127 557.08 287.352 553.893 287.352ZM553.488 270.301C552.176 270.301 551.074 270.781 550.184 271.742C549.293 272.691 548.742 274.027 548.531 275.75H558.059V275.504C557.965 273.852 557.52 272.574 556.723 271.672C555.926 270.758 554.848 270.301 553.488 270.301ZM568.166 267.98L568.271 270.371C569.725 268.543 571.623 267.629 573.967 267.629C577.986 267.629 580.014 269.896 580.049 274.432V287H576.797V274.414C576.785 273.043 576.469 272.029 575.848 271.373C575.238 270.717 574.283 270.389 572.982 270.389C571.928 270.389 571.002 270.67 570.205 271.232C569.408 271.795 568.787 272.533 568.342 273.447V287H565.09V267.98H568.166ZM592.846 287.352C590.268 287.352 588.17 286.508 586.553 284.82C584.936 283.121 584.127 280.854 584.127 278.018V277.42C584.127 275.533 584.484 273.852 585.199 272.375C585.926 270.887 586.934 269.727 588.223 268.895C589.523 268.051 590.93 267.629 592.441 267.629C594.914 267.629 596.836 268.443 598.207 270.072C599.578 271.701 600.264 274.033 600.264 277.068V278.422H587.379C587.426 280.297 587.971 281.814 589.014 282.975C590.068 284.123 591.404 284.697 593.021 284.697C594.17 284.697 595.143 284.463 595.939 283.994C596.736 283.525 597.434 282.904 598.031 282.131L600.018 283.678C598.424 286.127 596.033 287.352 592.846 287.352ZM592.441 270.301C591.129 270.301 590.027 270.781 589.137 271.742C588.246 272.691 587.695 274.027 587.484 275.75H597.012V275.504C596.918 273.852 596.473 272.574 595.676 271.672C594.879 270.758 593.801 270.301 592.441 270.301ZM613.236 270.898C612.744 270.816 612.211 270.775 611.637 270.775C609.504 270.775 608.057 271.684 607.295 273.5V287H604.043V267.98H607.207L607.26 270.178C608.326 268.479 609.838 267.629 611.795 267.629C612.428 267.629 612.908 267.711 613.236 267.875V270.898ZM627.281 287C627.094 286.625 626.941 285.957 626.824 284.996C625.312 286.566 623.508 287.352 621.41 287.352C619.535 287.352 617.994 286.824 616.787 285.77C615.592 284.703 614.994 283.355 614.994 281.727C614.994 279.746 615.744 278.211 617.244 277.121C618.756 276.02 620.877 275.469 623.607 275.469H626.771V273.975C626.771 272.838 626.432 271.936 625.752 271.268C625.072 270.588 624.07 270.248 622.746 270.248C621.586 270.248 620.613 270.541 619.828 271.127C619.043 271.713 618.65 272.422 618.65 273.254H615.381C615.381 272.305 615.715 271.391 616.383 270.512C617.062 269.621 617.977 268.918 619.125 268.402C620.285 267.887 621.557 267.629 622.939 267.629C625.131 267.629 626.848 268.18 628.09 269.281C629.332 270.371 629.977 271.877 630.023 273.799V282.553C630.023 284.299 630.246 285.688 630.691 286.719V287H627.281ZM621.885 284.521C622.904 284.521 623.871 284.258 624.785 283.73C625.699 283.203 626.361 282.518 626.771 281.674V277.771H624.223C620.238 277.771 618.246 278.938 618.246 281.27C618.246 282.289 618.586 283.086 619.266 283.66C619.945 284.234 620.818 284.521 621.885 284.521ZM639.533 263.375V267.98H643.084V270.494H639.533V282.289C639.533 283.051 639.691 283.625 640.008 284.012C640.324 284.387 640.863 284.574 641.625 284.574C642 284.574 642.516 284.504 643.172 284.363V287C642.316 287.234 641.484 287.352 640.676 287.352C639.223 287.352 638.127 286.912 637.389 286.033C636.65 285.154 636.281 283.906 636.281 282.289V270.494H632.818V267.98H636.281V263.375H639.533ZM645.686 277.314C645.686 275.451 646.049 273.775 646.775 272.287C647.514 270.799 648.533 269.65 649.834 268.842C651.146 268.033 652.641 267.629 654.316 267.629C656.906 267.629 658.998 268.525 660.592 270.318C662.197 272.111 663 274.496 663 277.473V277.701C663 279.553 662.643 281.217 661.928 282.693C661.225 284.158 660.211 285.301 658.887 286.121C657.574 286.941 656.062 287.352 654.352 287.352C651.773 287.352 649.682 286.455 648.076 284.662C646.482 282.869 645.686 280.496 645.686 277.543V277.314ZM648.955 277.701C648.955 279.811 649.441 281.504 650.414 282.781C651.398 284.059 652.711 284.697 654.352 284.697C656.004 284.697 657.316 284.053 658.289 282.764C659.262 281.463 659.748 279.646 659.748 277.314C659.748 275.229 659.25 273.541 658.254 272.252C657.27 270.951 655.957 270.301 654.316 270.301C652.711 270.301 651.416 270.939 650.432 272.217C649.447 273.494 648.955 275.322 648.955 277.701ZM676.271 270.898C675.779 270.816 675.246 270.775 674.672 270.775C672.539 270.775 671.092 271.684 670.33 273.5V287H667.078V267.98H670.242L670.295 270.178C671.361 268.479 672.873 267.629 674.83 267.629C675.463 267.629 675.943 267.711 676.271 267.875V270.898ZM702.85 280.32H692.127L689.719 287H686.238L696.012 261.406H698.965L708.756 287H705.293L702.85 280.32ZM693.146 277.543H701.848L697.488 265.572L693.146 277.543Z" fill="black"/>
<rect x="28" y="205" width="324" height="141" fill="#C4C4C4"/>
<path d="M151.357 276.646H145.346V287H141.953V261.406H150.426C153.309 261.406 155.523 262.062 157.07 263.375C158.629 264.688 159.408 266.598 159.408 269.105C159.408 270.699 158.975 272.088 158.107 273.271C157.252 274.455 156.057 275.34 154.521 275.926L160.533 286.789V287H156.912L151.357 276.646ZM145.346 273.887H150.531C152.207 273.887 153.537 273.453 154.521 272.586C155.518 271.719 156.016 270.559 156.016 269.105C156.016 267.523 155.541 266.311 154.592 265.467C153.654 264.623 152.295 264.195 150.514 264.184H145.346V273.887ZM171.537 287.352C168.959 287.352 166.861 286.508 165.244 284.82C163.627 283.121 162.818 280.854 162.818 278.018V277.42C162.818 275.533 163.176 273.852 163.891 272.375C164.617 270.887 165.625 269.727 166.914 268.895C168.215 268.051 169.621 267.629 171.133 267.629C173.605 267.629 175.527 268.443 176.898 270.072C178.27 271.701 178.955 274.033 178.955 277.068V278.422H166.07C166.117 280.297 166.662 281.814 167.705 282.975C168.76 284.123 170.096 284.697 171.713 284.697C172.861 284.697 173.834 284.463 174.631 283.994C175.428 283.525 176.125 282.904 176.723 282.131L178.709 283.678C177.115 286.127 174.725 287.352 171.537 287.352ZM171.133 270.301C169.82 270.301 168.719 270.781 167.828 271.742C166.938 272.691 166.387 274.027 166.176 275.75H175.703V275.504C175.609 273.852 175.164 272.574 174.367 271.672C173.57 270.758 172.492 270.301 171.133 270.301ZM194.477 287C194.289 286.625 194.137 285.957 194.02 284.996C192.508 286.566 190.703 287.352 188.605 287.352C186.73 287.352 185.189 286.824 183.982 285.77C182.787 284.703 182.189 283.355 182.189 281.727C182.189 279.746 182.939 278.211 184.439 277.121C185.951 276.02 188.072 275.469 190.803 275.469H193.967V273.975C193.967 272.838 193.627 271.936 192.947 271.268C192.268 270.588 191.266 270.248 189.941 270.248C188.781 270.248 187.809 270.541 187.023 271.127C186.238 271.713 185.846 272.422 185.846 273.254H182.576C182.576 272.305 182.91 271.391 183.578 270.512C184.258 269.621 185.172 268.918 186.32 268.402C187.48 267.887 188.752 267.629 190.135 267.629C192.326 267.629 194.043 268.18 195.285 269.281C196.527 270.371 197.172 271.877 197.219 273.799V282.553C197.219 284.299 197.441 285.688 197.887 286.719V287H194.477ZM189.08 284.521C190.1 284.521 191.066 284.258 191.98 283.73C192.895 283.203 193.557 282.518 193.967 281.674V277.771H191.418C187.434 277.771 185.441 278.938 185.441 281.27C185.441 282.289 185.781 283.086 186.461 283.66C187.141 284.234 188.014 284.521 189.08 284.521ZM205.85 287H202.598V260H205.85V287ZM234.643 280.32H223.92L221.512 287H218.031L227.805 261.406H230.758L240.549 287H237.086L234.643 280.32ZM224.939 277.543H233.641L229.281 265.572L224.939 277.543Z" fill="black"/>
<path d="M452.707 275.707C453.098 275.317 453.098 274.683 452.707 274.293L446.343 267.929C445.953 267.538 445.319 267.538 444.929 267.929C444.538 268.319 444.538 268.953 444.929 269.343L450.586 275L444.929 280.657C444.538 281.047 444.538 281.681 444.929 282.071C445.319 282.462 445.953 282.462 446.343 282.071L452.707 275.707ZM352 276H452V274H352V276Z" fill="black"/>
<rect x="877" y="205" width="324" height="141" fill="#C4C4C4"/>
<path d="M1002.09 275.697H991.346V287H987.971V261.406H1003.83V264.184H991.346V272.938H1002.09V275.697ZM1018.5 287C1018.32 286.625 1018.16 285.957 1018.05 284.996C1016.54 286.566 1014.73 287.352 1012.63 287.352C1010.76 287.352 1009.22 286.824 1008.01 285.77C1006.81 284.703 1006.22 283.355 1006.22 281.727C1006.22 279.746 1006.97 278.211 1008.47 277.121C1009.98 276.02 1012.1 275.469 1014.83 275.469H1017.99V273.975C1017.99 272.838 1017.65 271.936 1016.97 271.268C1016.29 270.588 1015.29 270.248 1013.97 270.248C1012.81 270.248 1011.84 270.541 1011.05 271.127C1010.27 271.713 1009.87 272.422 1009.87 273.254H1006.6C1006.6 272.305 1006.94 271.391 1007.61 270.512C1008.29 269.621 1009.2 268.918 1010.35 268.402C1011.51 267.887 1012.78 267.629 1014.16 267.629C1016.35 267.629 1018.07 268.18 1019.31 269.281C1020.55 270.371 1021.2 271.877 1021.25 273.799V282.553C1021.25 284.299 1021.47 285.688 1021.91 286.719V287H1018.5ZM1013.11 284.521C1014.13 284.521 1015.09 284.258 1016.01 283.73C1016.92 283.203 1017.58 282.518 1017.99 281.674V277.771H1015.45C1011.46 277.771 1009.47 278.938 1009.47 281.27C1009.47 282.289 1009.81 283.086 1010.49 283.66C1011.17 284.234 1012.04 284.521 1013.11 284.521ZM1031.65 278.193L1029.61 280.32V287H1026.36V260H1029.61V276.33L1031.35 274.238L1037.28 267.98H1041.23L1033.83 275.926L1042.09 287H1038.28L1031.65 278.193ZM1052.13 287.352C1049.55 287.352 1047.46 286.508 1045.84 284.82C1044.22 283.121 1043.41 280.854 1043.41 278.018V277.42C1043.41 275.533 1043.77 273.852 1044.48 272.375C1045.21 270.887 1046.22 269.727 1047.51 268.895C1048.81 268.051 1050.21 267.629 1051.73 267.629C1054.2 267.629 1056.12 268.443 1057.49 270.072C1058.86 271.701 1059.55 274.033 1059.55 277.068V278.422H1046.66C1046.71 280.297 1047.26 281.814 1048.3 282.975C1049.35 284.123 1050.69 284.697 1052.31 284.697C1053.46 284.697 1054.43 284.463 1055.22 283.994C1056.02 283.525 1056.72 282.904 1057.32 282.131L1059.3 283.678C1057.71 286.127 1055.32 287.352 1052.13 287.352ZM1051.73 270.301C1050.41 270.301 1049.31 270.781 1048.42 271.742C1047.53 272.691 1046.98 274.027 1046.77 275.75H1056.3V275.504C1056.2 273.852 1055.76 272.574 1054.96 271.672C1054.16 270.758 1053.09 270.301 1051.73 270.301ZM1072.77 287V261.406H1081.13C1083.91 261.406 1086 261.98 1087.39 263.129C1088.8 264.277 1089.5 265.977 1089.5 268.227C1089.5 269.422 1089.16 270.482 1088.48 271.408C1087.8 272.322 1086.88 273.031 1085.71 273.535C1087.09 273.922 1088.18 274.66 1088.97 275.75C1089.78 276.828 1090.19 278.117 1090.19 279.617C1090.19 281.914 1089.44 283.719 1087.96 285.031C1086.47 286.344 1084.36 287 1081.64 287H1072.77ZM1076.14 275.029V284.24H1081.71C1083.29 284.24 1084.52 283.836 1085.42 283.027C1086.34 282.207 1086.79 281.082 1086.79 279.652C1086.79 276.57 1085.12 275.029 1081.77 275.029H1076.14ZM1076.14 272.322H1081.24C1082.72 272.322 1083.89 271.953 1084.77 271.215C1085.66 270.477 1086.11 269.475 1086.11 268.209C1086.11 266.803 1085.7 265.783 1084.88 265.15C1084.06 264.506 1082.81 264.184 1081.13 264.184H1076.14V272.322Z" fill="black"/>
<rect x="452" y="205" width="324" height="141" fill="#C4C4C4"/>
<path d="M540.867 283.643C540 284.885 538.787 285.816 537.229 286.438C535.682 287.047 533.877 287.352 531.814 287.352C529.729 287.352 527.877 286.865 526.26 285.893C524.643 284.908 523.389 283.514 522.498 281.709C521.619 279.904 521.168 277.812 521.145 275.434V273.201C521.145 269.346 522.041 266.357 523.834 264.236C525.639 262.115 528.17 261.055 531.428 261.055C534.1 261.055 536.25 261.74 537.879 263.111C539.508 264.471 540.504 266.404 540.867 268.912H537.492C536.859 265.525 534.844 263.832 531.445 263.832C529.184 263.832 527.467 264.629 526.295 266.223C525.135 267.805 524.549 270.102 524.537 273.113V275.205C524.537 278.076 525.193 280.361 526.506 282.061C527.818 283.748 529.594 284.592 531.832 284.592C533.098 284.592 534.205 284.451 535.154 284.17C536.104 283.889 536.889 283.414 537.51 282.746V276.998H531.586V274.256H540.867V283.643ZM553.893 287.352C551.314 287.352 549.217 286.508 547.6 284.82C545.982 283.121 545.174 280.854 545.174 278.018V277.42C545.174 275.533 545.531 273.852 546.246 272.375C546.973 270.887 547.98 269.727 549.27 268.895C550.57 268.051 551.977 267.629 553.488 267.629C555.961 267.629 557.883 268.443 559.254 270.072C560.625 271.701 561.311 274.033 561.311 277.068V278.422H548.426C548.473 280.297 549.018 281.814 550.061 282.975C551.115 284.123 552.451 284.697 554.068 284.697C555.217 284.697 556.189 284.463 556.986 283.994C557.783 283.525 558.48 282.904 559.078 282.131L561.064 283.678C559.471 286.127 557.08 287.352 553.893 287.352ZM553.488 270.301C552.176 270.301 551.074 270.781 550.184 271.742C549.293 272.691 548.742 274.027 548.531 275.75H558.059V275.504C557.965 273.852 557.52 272.574 556.723 271.672C555.926 270.758 554.848 270.301 553.488 270.301ZM568.166 267.98L568.271 270.371C569.725 268.543 571.623 267.629 573.967 267.629C577.986 267.629 580.014 269.896 580.049 274.432V287H576.797V274.414C576.785 273.043 576.469 272.029 575.848 271.373C575.238 270.717 574.283 270.389 572.982 270.389C571.928 270.389 571.002 270.67 570.205 271.232C569.408 271.795 568.787 272.533 568.342 273.447V287H565.09V267.98H568.166ZM592.846 287.352C590.268 287.352 588.17 286.508 586.553 284.82C584.936 283.121 584.127 280.854 584.127 278.018V277.42C584.127 275.533 584.484 273.852 585.199 272.375C585.926 270.887 586.934 269.727 588.223 268.895C589.523 268.051 590.93 267.629 592.441 267.629C594.914 267.629 596.836 268.443 598.207 270.072C599.578 271.701 600.264 274.033 600.264 277.068V278.422H587.379C587.426 280.297 587.971 281.814 589.014 282.975C590.068 284.123 591.404 284.697 593.021 284.697C594.17 284.697 595.143 284.463 595.939 283.994C596.736 283.525 597.434 282.904 598.031 282.131L600.018 283.678C598.424 286.127 596.033 287.352 592.846 287.352ZM592.441 270.301C591.129 270.301 590.027 270.781 589.137 271.742C588.246 272.691 587.695 274.027 587.484 275.75H597.012V275.504C596.918 273.852 596.473 272.574 595.676 271.672C594.879 270.758 593.801 270.301 592.441 270.301ZM613.236 270.898C612.744 270.816 612.211 270.775 611.637 270.775C609.504 270.775 608.057 271.684 607.295 273.5V287H604.043V267.98H607.207L607.26 270.178C608.326 268.479 609.838 267.629 611.795 267.629C612.428 267.629 612.908 267.711 613.236 267.875V270.898ZM627.281 287C627.094 286.625 626.941 285.957 626.824 284.996C625.312 286.566 623.508 287.352 621.41 287.352C619.535 287.352 617.994 286.824 616.787 285.77C615.592 284.703 614.994 283.355 614.994 281.727C614.994 279.746 615.744 278.211 617.244 277.121C618.756 276.02 620.877 275.469 623.607 275.469H626.771V273.975C626.771 272.838 626.432 271.936 625.752 271.268C625.072 270.588 624.07 270.248 622.746 270.248C621.586 270.248 620.613 270.541 619.828 271.127C619.043 271.713 618.65 272.422 618.65 273.254H615.381C615.381 272.305 615.715 271.391 616.383 270.512C617.062 269.621 617.977 268.918 619.125 268.402C620.285 267.887 621.557 267.629 622.939 267.629C625.131 267.629 626.848 268.18 628.09 269.281C629.332 270.371 629.977 271.877 630.023 273.799V282.553C630.023 284.299 630.246 285.688 630.691 286.719V287H627.281ZM621.885 284.521C622.904 284.521 623.871 284.258 624.785 283.73C625.699 283.203 626.361 282.518 626.771 281.674V277.771H624.223C620.238 277.771 618.246 278.938 618.246 281.27C618.246 282.289 618.586 283.086 619.266 283.66C619.945 284.234 620.818 284.521 621.885 284.521ZM639.533 263.375V267.98H643.084V270.494H639.533V282.289C639.533 283.051 639.691 283.625 640.008 284.012C640.324 284.387 640.863 284.574 641.625 284.574C642 284.574 642.516 284.504 643.172 284.363V287C642.316 287.234 641.484 287.352 640.676 287.352C639.223 287.352 638.127 286.912 637.389 286.033C636.65 285.154 636.281 283.906 636.281 282.289V270.494H632.818V267.98H636.281V263.375H639.533ZM645.686 277.314C645.686 275.451 646.049 273.775 646.775 272.287C647.514 270.799 648.533 269.65 649.834 268.842C651.146 268.033 652.641 267.629 654.316 267.629C656.906 267.629 658.998 268.525 660.592 270.318C662.197 272.111 663 274.496 663 277.473V277.701C663 279.553 662.643 281.217 661.928 282.693C661.225 284.158 660.211 285.301 658.887 286.121C657.574 286.941 656.062 287.352 654.352 287.352C651.773 287.352 649.682 286.455 648.076 284.662C646.482 282.869 645.686 280.496 645.686 277.543V277.314ZM648.955 277.701C648.955 279.811 649.441 281.504 650.414 282.781C651.398 284.059 652.711 284.697 654.352 284.697C656.004 284.697 657.316 284.053 658.289 282.764C659.262 281.463 659.748 279.646 659.748 277.314C659.748 275.229 659.25 273.541 658.254 272.252C657.27 270.951 655.957 270.301 654.316 270.301C652.711 270.301 651.416 270.939 650.432 272.217C649.447 273.494 648.955 275.322 648.955 277.701ZM676.271 270.898C675.779 270.816 675.246 270.775 674.672 270.775C672.539 270.775 671.092 271.684 670.33 273.5V287H667.078V267.98H670.242L670.295 270.178C671.361 268.479 672.873 267.629 674.83 267.629C675.463 267.629 675.943 267.711 676.271 267.875V270.898ZM688.717 287V261.406H697.084C699.861 261.406 701.947 261.98 703.342 263.129C704.748 264.277 705.451 265.977 705.451 268.227C705.451 269.422 705.111 270.482 704.432 271.408C703.752 272.322 702.826 273.031 701.654 273.535C703.037 273.922 704.127 274.66 704.924 275.75C705.732 276.828 706.137 278.117 706.137 279.617C706.137 281.914 705.393 283.719 703.904 285.031C702.416 286.344 700.312 287 697.594 287H688.717ZM692.092 275.029V284.24H697.664C699.234 284.24 700.471 283.836 701.373 283.027C702.287 282.207 702.744 281.082 702.744 279.652C702.744 276.57 701.068 275.029 697.717 275.029H692.092ZM692.092 272.322H697.189C698.666 272.322 699.844 271.953 700.723 271.215C701.613 270.477 702.059 269.475 702.059 268.209C702.059 266.803 701.648 265.783 700.828 265.15C700.008 264.506 698.76 264.184 697.084 264.184H692.092V272.322Z" fill="black"/>
<rect x="28" y="205" width="324" height="141" fill="#C4C4C4"/>
<path d="M151.357 276.646H145.346V287H141.953V261.406H150.426C153.309 261.406 155.523 262.062 157.07 263.375C158.629 264.688 159.408 266.598 159.408 269.105C159.408 270.699 158.975 272.088 158.107 273.271C157.252 274.455 156.057 275.34 154.521 275.926L160.533 286.789V287H156.912L151.357 276.646ZM145.346 273.887H150.531C152.207 273.887 153.537 273.453 154.521 272.586C155.518 271.719 156.016 270.559 156.016 269.105C156.016 267.523 155.541 266.311 154.592 265.467C153.654 264.623 152.295 264.195 150.514 264.184H145.346V273.887ZM171.537 287.352C168.959 287.352 166.861 286.508 165.244 284.82C163.627 283.121 162.818 280.854 162.818 278.018V277.42C162.818 275.533 163.176 273.852 163.891 272.375C164.617 270.887 165.625 269.727 166.914 268.895C168.215 268.051 169.621 267.629 171.133 267.629C173.605 267.629 175.527 268.443 176.898 270.072C178.27 271.701 178.955 274.033 178.955 277.068V278.422H166.07C166.117 280.297 166.662 281.814 167.705 282.975C168.76 284.123 170.096 284.697 171.713 284.697C172.861 284.697 173.834 284.463 174.631 283.994C175.428 283.525 176.125 282.904 176.723 282.131L178.709 283.678C177.115 286.127 174.725 287.352 171.537 287.352ZM171.133 270.301C169.82 270.301 168.719 270.781 167.828 271.742C166.938 272.691 166.387 274.027 166.176 275.75H175.703V275.504C175.609 273.852 175.164 272.574 174.367 271.672C173.57 270.758 172.492 270.301 171.133 270.301ZM194.477 287C194.289 286.625 194.137 285.957 194.02 284.996C192.508 286.566 190.703 287.352 188.605 287.352C186.73 287.352 185.189 286.824 183.982 285.77C182.787 284.703 182.189 283.355 182.189 281.727C182.189 279.746 182.939 278.211 184.439 277.121C185.951 276.02 188.072 275.469 190.803 275.469H193.967V273.975C193.967 272.838 193.627 271.936 192.947 271.268C192.268 270.588 191.266 270.248 189.941 270.248C188.781 270.248 187.809 270.541 187.023 271.127C186.238 271.713 185.846 272.422 185.846 273.254H182.576C182.576 272.305 182.91 271.391 183.578 270.512C184.258 269.621 185.172 268.918 186.32 268.402C187.48 267.887 188.752 267.629 190.135 267.629C192.326 267.629 194.043 268.18 195.285 269.281C196.527 270.371 197.172 271.877 197.219 273.799V282.553C197.219 284.299 197.441 285.688 197.887 286.719V287H194.477ZM189.08 284.521C190.1 284.521 191.066 284.258 191.98 283.73C192.895 283.203 193.557 282.518 193.967 281.674V277.771H191.418C187.434 277.771 185.441 278.938 185.441 281.27C185.441 282.289 185.781 283.086 186.461 283.66C187.141 284.234 188.014 284.521 189.08 284.521ZM205.85 287H202.598V260H205.85V287ZM234.643 280.32H223.92L221.512 287H218.031L227.805 261.406H230.758L240.549 287H237.086L234.643 280.32ZM224.939 277.543H233.641L229.281 265.572L224.939 277.543Z" fill="black"/>
<rect x="877" y="205" width="324" height="141" fill="#C4C4C4"/>
<path d="M997.357 276.646H991.346V287H987.953V261.406H996.426C999.309 261.406 1001.52 262.062 1003.07 263.375C1004.63 264.688 1005.41 266.598 1005.41 269.105C1005.41 270.699 1004.97 272.088 1004.11 273.271C1003.25 274.455 1002.06 275.34 1000.52 275.926L1006.53 286.789V287H1002.91L997.357 276.646ZM991.346 273.887H996.531C998.207 273.887 999.537 273.453 1000.52 272.586C1001.52 271.719 1002.02 270.559 1002.02 269.105C1002.02 267.523 1001.54 266.311 1000.59 265.467C999.654 264.623 998.295 264.195 996.514 264.184H991.346V273.887ZM1017.54 287.352C1014.96 287.352 1012.86 286.508 1011.24 284.82C1009.63 283.121 1008.82 280.854 1008.82 278.018V277.42C1008.82 275.533 1009.18 273.852 1009.89 272.375C1010.62 270.887 1011.62 269.727 1012.91 268.895C1014.21 268.051 1015.62 267.629 1017.13 267.629C1019.61 267.629 1021.53 268.443 1022.9 270.072C1024.27 271.701 1024.96 274.033 1024.96 277.068V278.422H1012.07C1012.12 280.297 1012.66 281.814 1013.71 282.975C1014.76 284.123 1016.1 284.697 1017.71 284.697C1018.86 284.697 1019.83 284.463 1020.63 283.994C1021.43 283.525 1022.12 282.904 1022.72 282.131L1024.71 283.678C1023.12 286.127 1020.72 287.352 1017.54 287.352ZM1017.13 270.301C1015.82 270.301 1014.72 270.781 1013.83 271.742C1012.94 272.691 1012.39 274.027 1012.18 275.75H1021.7V275.504C1021.61 273.852 1021.16 272.574 1020.37 271.672C1019.57 270.758 1018.49 270.301 1017.13 270.301ZM1040.48 287C1040.29 286.625 1040.14 285.957 1040.02 284.996C1038.51 286.566 1036.7 287.352 1034.61 287.352C1032.73 287.352 1031.19 286.824 1029.98 285.77C1028.79 284.703 1028.19 283.355 1028.19 281.727C1028.19 279.746 1028.94 278.211 1030.44 277.121C1031.95 276.02 1034.07 275.469 1036.8 275.469H1039.97V273.975C1039.97 272.838 1039.63 271.936 1038.95 271.268C1038.27 270.588 1037.27 270.248 1035.94 270.248C1034.78 270.248 1033.81 270.541 1033.02 271.127C1032.24 271.713 1031.85 272.422 1031.85 273.254H1028.58C1028.58 272.305 1028.91 271.391 1029.58 270.512C1030.26 269.621 1031.17 268.918 1032.32 268.402C1033.48 267.887 1034.75 267.629 1036.13 267.629C1038.33 267.629 1040.04 268.18 1041.29 269.281C1042.53 270.371 1043.17 271.877 1043.22 273.799V282.553C1043.22 284.299 1043.44 285.688 1043.89 286.719V287H1040.48ZM1035.08 284.521C1036.1 284.521 1037.07 284.258 1037.98 283.73C1038.89 283.203 1039.56 282.518 1039.97 281.674V277.771H1037.42C1033.43 277.771 1031.44 278.938 1031.44 281.27C1031.44 282.289 1031.78 283.086 1032.46 283.66C1033.14 284.234 1034.01 284.521 1035.08 284.521ZM1051.85 287H1048.6V260H1051.85V287ZM1080.64 280.32H1069.92L1067.51 287H1064.03L1073.8 261.406H1076.76L1086.55 287H1083.09L1080.64 280.32ZM1070.94 277.543H1079.64L1075.28 265.572L1070.94 277.543Z" fill="black"/>
<path d="M876.707 275.707C877.098 275.317 877.098 274.683 876.707 274.293L870.343 267.929C869.953 267.538 869.319 267.538 868.929 267.929C868.538 268.319 868.538 268.953 868.929 269.343L874.586 275L868.929 280.657C868.538 281.047 868.538 281.681 868.929 282.071C869.319 282.462 869.953 282.462 870.343 282.071L876.707 275.707ZM776 276H876V274H776V276Z" fill="black"/>
<rect x="452" y="19" width="324" height="141" fill="#C4C4C4"/>
<path d="M540.867 97.6426C540 98.8848 538.787 99.8164 537.229 100.438C535.682 101.047 533.877 101.352 531.814 101.352C529.729 101.352 527.877 100.865 526.26 99.8926C524.643 98.9082 523.389 97.5137 522.498 95.709C521.619 93.9043 521.168 91.8125 521.145 89.4336V87.2012C521.145 83.3457 522.041 80.3574 523.834 78.2363C525.639 76.1152 528.17 75.0547 531.428 75.0547C534.1 75.0547 536.25 75.7402 537.879 77.1113C539.508 78.4707 540.504 80.4043 540.867 82.9121H537.492C536.859 79.5254 534.844 77.832 531.445 77.832C529.184 77.832 527.467 78.6289 526.295 80.2227C525.135 81.8047 524.549 84.1016 524.537 87.1133V89.2051C524.537 92.0762 525.193 94.3613 526.506 96.0605C527.818 97.748 529.594 98.5918 531.832 98.5918C533.098 98.5918 534.205 98.4512 535.154 98.1699C536.104 97.8887 536.889 97.4141 537.51 96.7461V90.998H531.586V88.2559H540.867V97.6426ZM553.893 101.352C551.314 101.352 549.217 100.508 547.6 98.8203C545.982 97.1211 545.174 94.8535 545.174 92.0176V91.4199C545.174 89.5332 545.531 87.8516 546.246 86.375C546.973 84.8867 547.98 83.7266 549.27 82.8945C550.57 82.0508 551.977 81.6289 553.488 81.6289C555.961 81.6289 557.883 82.4434 559.254 84.0723C560.625 85.7012 561.311 88.0332 561.311 91.0684V92.4219H548.426C548.473 94.2969 549.018 95.8145 550.061 96.9746C551.115 98.123 552.451 98.6973 554.068 98.6973C555.217 98.6973 556.189 98.4629 556.986 97.9941C557.783 97.5254 558.48 96.9043 559.078 96.1309L561.064 97.6777C559.471 100.127 557.08 101.352 553.893 101.352ZM553.488 84.3008C552.176 84.3008 551.074 84.7812 550.184 85.7422C549.293 86.6914 548.742 88.0273 548.531 89.75H558.059V89.5039C557.965 87.8516 557.52 86.5742 556.723 85.6719C555.926 84.7578 554.848 84.3008 553.488 84.3008ZM568.166 81.9805L568.271 84.3711C569.725 82.543 571.623 81.6289 573.967 81.6289C577.986 81.6289 580.014 83.8965 580.049 88.4316V101H576.797V88.4141C576.785 87.043 576.469 86.0293 575.848 85.373C575.238 84.7168 574.283 84.3887 572.982 84.3887C571.928 84.3887 571.002 84.6699 570.205 85.2324C569.408 85.7949 568.787 86.5332 568.342 87.4473V101H565.09V81.9805H568.166ZM592.846 101.352C590.268 101.352 588.17 100.508 586.553 98.8203C584.936 97.1211 584.127 94.8535 584.127 92.0176V91.4199C584.127 89.5332 584.484 87.8516 585.199 86.375C585.926 84.8867 586.934 83.7266 588.223 82.8945C589.523 82.0508 590.93 81.6289 592.441 81.6289C594.914 81.6289 596.836 82.4434 598.207 84.0723C599.578 85.7012 600.264 88.0332 600.264 91.0684V92.4219H587.379C587.426 94.2969 587.971 95.8145 589.014 96.9746C590.068 98.123 591.404 98.6973 593.021 98.6973C594.17 98.6973 595.143 98.4629 595.939 97.9941C596.736 97.5254 597.434 96.9043 598.031 96.1309L600.018 97.6777C598.424 100.127 596.033 101.352 592.846 101.352ZM592.441 84.3008C591.129 84.3008 590.027 84.7812 589.137 85.7422C588.246 86.6914 587.695 88.0273 587.484 89.75H597.012V89.5039C596.918 87.8516 596.473 86.5742 595.676 85.6719C594.879 84.7578 593.801 84.3008 592.441 84.3008ZM613.236 84.8984C612.744 84.8164 612.211 84.7754 611.637 84.7754C609.504 84.7754 608.057 85.6836 607.295 87.5V101H604.043V81.9805H607.207L607.26 84.1777C608.326 82.4785 609.838 81.6289 611.795 81.6289C612.428 81.6289 612.908 81.7109 613.236 81.875V84.8984ZM627.281 101C627.094 100.625 626.941 99.957 626.824 98.9961C625.312 100.566 623.508 101.352 621.41 101.352C619.535 101.352 617.994 100.824 616.787 99.7695C615.592 98.7031 614.994 97.3555 614.994 95.7266C614.994 93.7461 615.744 92.2109 617.244 91.1211C618.756 90.0195 620.877 89.4688 623.607 89.4688H626.771V87.9746C626.771 86.8379 626.432 85.9355 625.752 85.2676C625.072 84.5879 624.07 84.248 622.746 84.248C621.586 84.248 620.613 84.541 619.828 85.127C619.043 85.7129 618.65 86.4219 618.65 87.2539H615.381C615.381 86.3047 615.715 85.3906 616.383 84.5117C617.062 83.6211 617.977 82.918 619.125 82.4023C620.285 81.8867 621.557 81.6289 622.939 81.6289C625.131 81.6289 626.848 82.1797 628.09 83.2812C629.332 84.3711 629.977 85.877 630.023 87.7988V96.5527C630.023 98.2988 630.246 99.6875 630.691 100.719V101H627.281ZM621.885 98.5215C622.904 98.5215 623.871 98.2578 624.785 97.7305C625.699 97.2031 626.361 96.5176 626.771 95.6738V91.7715H624.223C620.238 91.7715 618.246 92.9375 618.246 95.2695C618.246 96.2891 618.586 97.0859 619.266 97.6602C619.945 98.2344 620.818 98.5215 621.885 98.5215ZM639.533 77.375V81.9805H643.084V84.4941H639.533V96.2891C639.533 97.0508 639.691 97.625 640.008 98.0117C640.324 98.3867 640.863 98.5742 641.625 98.5742C642 98.5742 642.516 98.5039 643.172 98.3633V101C642.316 101.234 641.484 101.352 640.676 101.352C639.223 101.352 638.127 100.912 637.389 100.033C636.65 99.1543 636.281 97.9062 636.281 96.2891V84.4941H632.818V81.9805H636.281V77.375H639.533ZM645.686 91.3145C645.686 89.4512 646.049 87.7754 646.775 86.2871C647.514 84.7988 648.533 83.6504 649.834 82.8418C651.146 82.0332 652.641 81.6289 654.316 81.6289C656.906 81.6289 658.998 82.5254 660.592 84.3184C662.197 86.1113 663 88.4961 663 91.4727V91.7012C663 93.5527 662.643 95.2168 661.928 96.6934C661.225 98.1582 660.211 99.3008 658.887 100.121C657.574 100.941 656.062 101.352 654.352 101.352C651.773 101.352 649.682 100.455 648.076 98.6621C646.482 96.8691 645.686 94.4961 645.686 91.543V91.3145ZM648.955 91.7012C648.955 93.8105 649.441 95.5039 650.414 96.7812C651.398 98.0586 652.711 98.6973 654.352 98.6973C656.004 98.6973 657.316 98.0527 658.289 96.7637C659.262 95.4629 659.748 93.6465 659.748 91.3145C659.748 89.2285 659.25 87.541 658.254 86.252C657.27 84.9512 655.957 84.3008 654.316 84.3008C652.711 84.3008 651.416 84.9395 650.432 86.2168C649.447 87.4941 648.955 89.3223 648.955 91.7012ZM676.271 84.8984C675.779 84.8164 675.246 84.7754 674.672 84.7754C672.539 84.7754 671.092 85.6836 670.33 87.5V101H667.078V81.9805H670.242L670.295 84.1777C671.361 82.4785 672.873 81.6289 674.83 81.6289C675.463 81.6289 675.943 81.7109 676.271 81.875V84.8984ZM702.85 94.3203H692.127L689.719 101H686.238L696.012 75.4062H698.965L708.756 101H705.293L702.85 94.3203ZM693.146 91.543H701.848L697.488 79.5723L693.146 91.543Z" fill="black"/>
<rect x="28" y="19" width="324" height="141" fill="#C4C4C4"/>
<path d="M151.357 90.6465H145.346V101H141.953V75.4062H150.426C153.309 75.4062 155.523 76.0625 157.07 77.375C158.629 78.6875 159.408 80.5977 159.408 83.1055C159.408 84.6992 158.975 86.0879 158.107 87.2715C157.252 88.4551 156.057 89.3398 154.521 89.9258L160.533 100.789V101H156.912L151.357 90.6465ZM145.346 87.8867H150.531C152.207 87.8867 153.537 87.4531 154.521 86.5859C155.518 85.7188 156.016 84.5586 156.016 83.1055C156.016 81.5234 155.541 80.3105 154.592 79.4668C153.654 78.623 152.295 78.1953 150.514 78.1836H145.346V87.8867ZM171.537 101.352C168.959 101.352 166.861 100.508 165.244 98.8203C163.627 97.1211 162.818 94.8535 162.818 92.0176V91.4199C162.818 89.5332 163.176 87.8516 163.891 86.375C164.617 84.8867 165.625 83.7266 166.914 82.8945C168.215 82.0508 169.621 81.6289 171.133 81.6289C173.605 81.6289 175.527 82.4434 176.898 84.0723C178.27 85.7012 178.955 88.0332 178.955 91.0684V92.4219H166.07C166.117 94.2969 166.662 95.8145 167.705 96.9746C168.76 98.123 170.096 98.6973 171.713 98.6973C172.861 98.6973 173.834 98.4629 174.631 97.9941C175.428 97.5254 176.125 96.9043 176.723 96.1309L178.709 97.6777C177.115 100.127 174.725 101.352 171.537 101.352ZM171.133 84.3008C169.82 84.3008 168.719 84.7812 167.828 85.7422C166.938 86.6914 166.387 88.0273 166.176 89.75H175.703V89.5039C175.609 87.8516 175.164 86.5742 174.367 85.6719C173.57 84.7578 172.492 84.3008 171.133 84.3008ZM194.477 101C194.289 100.625 194.137 99.957 194.02 98.9961C192.508 100.566 190.703 101.352 188.605 101.352C186.73 101.352 185.189 100.824 183.982 99.7695C182.787 98.7031 182.189 97.3555 182.189 95.7266C182.189 93.7461 182.939 92.2109 184.439 91.1211C185.951 90.0195 188.072 89.4688 190.803 89.4688H193.967V87.9746C193.967 86.8379 193.627 85.9355 192.947 85.2676C192.268 84.5879 191.266 84.248 189.941 84.248C188.781 84.248 187.809 84.541 187.023 85.127C186.238 85.7129 185.846 86.4219 185.846 87.2539H182.576C182.576 86.3047 182.91 85.3906 183.578 84.5117C184.258 83.6211 185.172 82.918 186.32 82.4023C187.48 81.8867 188.752 81.6289 190.135 81.6289C192.326 81.6289 194.043 82.1797 195.285 83.2812C196.527 84.3711 197.172 85.877 197.219 87.7988V96.5527C197.219 98.2988 197.441 99.6875 197.887 100.719V101H194.477ZM189.08 98.5215C190.1 98.5215 191.066 98.2578 191.98 97.7305C192.895 97.2031 193.557 96.5176 193.967 95.6738V91.7715H191.418C187.434 91.7715 185.441 92.9375 185.441 95.2695C185.441 96.2891 185.781 97.0859 186.461 97.6602C187.141 98.2344 188.014 98.5215 189.08 98.5215ZM205.85 101H202.598V74H205.85V101ZM234.643 94.3203H223.92L221.512 101H218.031L227.805 75.4062H230.758L240.549 101H237.086L234.643 94.3203ZM224.939 91.543H233.641L229.281 79.5723L224.939 91.543Z" fill="black"/>
<path d="M452.707 89.7071C453.098 89.3166 453.098 88.6834 452.707 88.2929L446.343 81.9289C445.953 81.5384 445.319 81.5384 444.929 81.9289C444.538 82.3195 444.538 82.9526 444.929 83.3431L450.586 89L444.929 94.6569C444.538 95.0474 444.538 95.6805 444.929 96.0711C445.319 96.4616 445.953 96.4616 446.343 96.0711L452.707 89.7071ZM352 90H452V88H352V90Z" fill="black"/>
<rect x="877" y="19" width="324" height="141" fill="#C4C4C4"/>
<path d="M1002.09 89.6973H991.346V101H987.971V75.4062H1003.83V78.1836H991.346V86.9375H1002.09V89.6973ZM1018.5 101C1018.32 100.625 1018.16 99.957 1018.05 98.9961C1016.54 100.566 1014.73 101.352 1012.63 101.352C1010.76 101.352 1009.22 100.824 1008.01 99.7695C1006.81 98.7031 1006.22 97.3555 1006.22 95.7266C1006.22 93.7461 1006.97 92.2109 1008.47 91.1211C1009.98 90.0195 1012.1 89.4688 1014.83 89.4688H1017.99V87.9746C1017.99 86.8379 1017.65 85.9355 1016.97 85.2676C1016.29 84.5879 1015.29 84.248 1013.97 84.248C1012.81 84.248 1011.84 84.541 1011.05 85.127C1010.27 85.7129 1009.87 86.4219 1009.87 87.2539H1006.6C1006.6 86.3047 1006.94 85.3906 1007.61 84.5117C1008.29 83.6211 1009.2 82.918 1010.35 82.4023C1011.51 81.8867 1012.78 81.6289 1014.16 81.6289C1016.35 81.6289 1018.07 82.1797 1019.31 83.2812C1020.55 84.3711 1021.2 85.877 1021.25 87.7988V96.5527C1021.25 98.2988 1021.47 99.6875 1021.91 100.719V101H1018.5ZM1013.11 98.5215C1014.13 98.5215 1015.09 98.2578 1016.01 97.7305C1016.92 97.2031 1017.58 96.5176 1017.99 95.6738V91.7715H1015.45C1011.46 91.7715 1009.47 92.9375 1009.47 95.2695C1009.47 96.2891 1009.81 97.0859 1010.49 97.6602C1011.17 98.2344 1012.04 98.5215 1013.11 98.5215ZM1031.65 92.1934L1029.61 94.3203V101H1026.36V74H1029.61V90.3301L1031.35 88.2383L1037.28 81.9805H1041.23L1033.83 89.9258L1042.09 101H1038.28L1031.65 92.1934ZM1052.13 101.352C1049.55 101.352 1047.46 100.508 1045.84 98.8203C1044.22 97.1211 1043.41 94.8535 1043.41 92.0176V91.4199C1043.41 89.5332 1043.77 87.8516 1044.48 86.375C1045.21 84.8867 1046.22 83.7266 1047.51 82.8945C1048.81 82.0508 1050.21 81.6289 1051.73 81.6289C1054.2 81.6289 1056.12 82.4434 1057.49 84.0723C1058.86 85.7012 1059.55 88.0332 1059.55 91.0684V92.4219H1046.66C1046.71 94.2969 1047.26 95.8145 1048.3 96.9746C1049.35 98.123 1050.69 98.6973 1052.31 98.6973C1053.46 98.6973 1054.43 98.4629 1055.22 97.9941C1056.02 97.5254 1056.72 96.9043 1057.32 96.1309L1059.3 97.6777C1057.71 100.127 1055.32 101.352 1052.13 101.352ZM1051.73 84.3008C1050.41 84.3008 1049.31 84.7812 1048.42 85.7422C1047.53 86.6914 1046.98 88.0273 1046.77 89.75H1056.3V89.5039C1056.2 87.8516 1055.76 86.5742 1054.96 85.6719C1054.16 84.7578 1053.09 84.3008 1051.73 84.3008ZM1072.77 101V75.4062H1081.13C1083.91 75.4062 1086 75.9805 1087.39 77.1289C1088.8 78.2773 1089.5 79.9766 1089.5 82.2266C1089.5 83.4219 1089.16 84.4824 1088.48 85.4082C1087.8 86.3223 1086.88 87.0312 1085.71 87.5352C1087.09 87.9219 1088.18 88.6602 1088.97 89.75C1089.78 90.8281 1090.19 92.1172 1090.19 93.6172C1090.19 95.9141 1089.44 97.7188 1087.96 99.0312C1086.47 100.344 1084.36 101 1081.64 101H1072.77ZM1076.14 89.0293V98.2402H1081.71C1083.29 98.2402 1084.52 97.8359 1085.42 97.0273C1086.34 96.207 1086.79 95.082 1086.79 93.6523C1086.79 90.5703 1085.12 89.0293 1081.77 89.0293H1076.14ZM1076.14 86.3223H1081.24C1082.72 86.3223 1083.89 85.9531 1084.77 85.2148C1085.66 84.4766 1086.11 83.4746 1086.11 82.209C1086.11 80.8027 1085.7 79.7832 1084.88 79.1504C1084.06 78.5059 1082.81 78.1836 1081.13 78.1836H1076.14V86.3223Z" fill="black"/>
<rect x="452" y="19" width="324" height="141" fill="#C4C4C4"/>
<path d="M540.867 97.6426C540 98.8848 538.787 99.8164 537.229 100.438C535.682 101.047 533.877 101.352 531.814 101.352C529.729 101.352 527.877 100.865 526.26 99.8926C524.643 98.9082 523.389 97.5137 522.498 95.709C521.619 93.9043 521.168 91.8125 521.145 89.4336V87.2012C521.145 83.3457 522.041 80.3574 523.834 78.2363C525.639 76.1152 528.17 75.0547 531.428 75.0547C534.1 75.0547 536.25 75.7402 537.879 77.1113C539.508 78.4707 540.504 80.4043 540.867 82.9121H537.492C536.859 79.5254 534.844 77.832 531.445 77.832C529.184 77.832 527.467 78.6289 526.295 80.2227C525.135 81.8047 524.549 84.1016 524.537 87.1133V89.2051C524.537 92.0762 525.193 94.3613 526.506 96.0605C527.818 97.748 529.594 98.5918 531.832 98.5918C533.098 98.5918 534.205 98.4512 535.154 98.1699C536.104 97.8887 536.889 97.4141 537.51 96.7461V90.998H531.586V88.2559H540.867V97.6426ZM553.893 101.352C551.314 101.352 549.217 100.508 547.6 98.8203C545.982 97.1211 545.174 94.8535 545.174 92.0176V91.4199C545.174 89.5332 545.531 87.8516 546.246 86.375C546.973 84.8867 547.98 83.7266 549.27 82.8945C550.57 82.0508 551.977 81.6289 553.488 81.6289C555.961 81.6289 557.883 82.4434 559.254 84.0723C560.625 85.7012 561.311 88.0332 561.311 91.0684V92.4219H548.426C548.473 94.2969 549.018 95.8145 550.061 96.9746C551.115 98.123 552.451 98.6973 554.068 98.6973C555.217 98.6973 556.189 98.4629 556.986 97.9941C557.783 97.5254 558.48 96.9043 559.078 96.1309L561.064 97.6777C559.471 100.127 557.08 101.352 553.893 101.352ZM553.488 84.3008C552.176 84.3008 551.074 84.7812 550.184 85.7422C549.293 86.6914 548.742 88.0273 548.531 89.75H558.059V89.5039C557.965 87.8516 557.52 86.5742 556.723 85.6719C555.926 84.7578 554.848 84.3008 553.488 84.3008ZM568.166 81.9805L568.271 84.3711C569.725 82.543 571.623 81.6289 573.967 81.6289C577.986 81.6289 580.014 83.8965 580.049 88.4316V101H576.797V88.4141C576.785 87.043 576.469 86.0293 575.848 85.373C575.238 84.7168 574.283 84.3887 572.982 84.3887C571.928 84.3887 571.002 84.6699 570.205 85.2324C569.408 85.7949 568.787 86.5332 568.342 87.4473V101H565.09V81.9805H568.166ZM592.846 101.352C590.268 101.352 588.17 100.508 586.553 98.8203C584.936 97.1211 584.127 94.8535 584.127 92.0176V91.4199C584.127 89.5332 584.484 87.8516 585.199 86.375C585.926 84.8867 586.934 83.7266 588.223 82.8945C589.523 82.0508 590.93 81.6289 592.441 81.6289C594.914 81.6289 596.836 82.4434 598.207 84.0723C599.578 85.7012 600.264 88.0332 600.264 91.0684V92.4219H587.379C587.426 94.2969 587.971 95.8145 589.014 96.9746C590.068 98.123 591.404 98.6973 593.021 98.6973C594.17 98.6973 595.143 98.4629 595.939 97.9941C596.736 97.5254 597.434 96.9043 598.031 96.1309L600.018 97.6777C598.424 100.127 596.033 101.352 592.846 101.352ZM592.441 84.3008C591.129 84.3008 590.027 84.7812 589.137 85.7422C588.246 86.6914 587.695 88.0273 587.484 89.75H597.012V89.5039C596.918 87.8516 596.473 86.5742 595.676 85.6719C594.879 84.7578 593.801 84.3008 592.441 84.3008ZM613.236 84.8984C612.744 84.8164 612.211 84.7754 611.637 84.7754C609.504 84.7754 608.057 85.6836 607.295 87.5V101H604.043V81.9805H607.207L607.26 84.1777C608.326 82.4785 609.838 81.6289 611.795 81.6289C612.428 81.6289 612.908 81.7109 613.236 81.875V84.8984ZM627.281 101C627.094 100.625 626.941 99.957 626.824 98.9961C625.312 100.566 623.508 101.352 621.41 101.352C619.535 101.352 617.994 100.824 616.787 99.7695C615.592 98.7031 614.994 97.3555 614.994 95.7266C614.994 93.7461 615.744 92.2109 617.244 91.1211C618.756 90.0195 620.877 89.4688 623.607 89.4688H626.771V87.9746C626.771 86.8379 626.432 85.9355 625.752 85.2676C625.072 84.5879 624.07 84.248 622.746 84.248C621.586 84.248 620.613 84.541 619.828 85.127C619.043 85.7129 618.65 86.4219 618.65 87.2539H615.381C615.381 86.3047 615.715 85.3906 616.383 84.5117C617.062 83.6211 617.977 82.918 619.125 82.4023C620.285 81.8867 621.557 81.6289 622.939 81.6289C625.131 81.6289 626.848 82.1797 628.09 83.2812C629.332 84.3711 629.977 85.877 630.023 87.7988V96.5527C630.023 98.2988 630.246 99.6875 630.691 100.719V101H627.281ZM621.885 98.5215C622.904 98.5215 623.871 98.2578 624.785 97.7305C625.699 97.2031 626.361 96.5176 626.771 95.6738V91.7715H624.223C620.238 91.7715 618.246 92.9375 618.246 95.2695C618.246 96.2891 618.586 97.0859 619.266 97.6602C619.945 98.2344 620.818 98.5215 621.885 98.5215ZM639.533 77.375V81.9805H643.084V84.4941H639.533V96.2891C639.533 97.0508 639.691 97.625 640.008 98.0117C640.324 98.3867 640.863 98.5742 641.625 98.5742C642 98.5742 642.516 98.5039 643.172 98.3633V101C642.316 101.234 641.484 101.352 640.676 101.352C639.223 101.352 638.127 100.912 637.389 100.033C636.65 99.1543 636.281 97.9062 636.281 96.2891V84.4941H632.818V81.9805H636.281V77.375H639.533ZM645.686 91.3145C645.686 89.4512 646.049 87.7754 646.775 86.2871C647.514 84.7988 648.533 83.6504 649.834 82.8418C651.146 82.0332 652.641 81.6289 654.316 81.6289C656.906 81.6289 658.998 82.5254 660.592 84.3184C662.197 86.1113 663 88.4961 663 91.4727V91.7012C663 93.5527 662.643 95.2168 661.928 96.6934C661.225 98.1582 660.211 99.3008 658.887 100.121C657.574 100.941 656.062 101.352 654.352 101.352C651.773 101.352 649.682 100.455 648.076 98.6621C646.482 96.8691 645.686 94.4961 645.686 91.543V91.3145ZM648.955 91.7012C648.955 93.8105 649.441 95.5039 650.414 96.7812C651.398 98.0586 652.711 98.6973 654.352 98.6973C656.004 98.6973 657.316 98.0527 658.289 96.7637C659.262 95.4629 659.748 93.6465 659.748 91.3145C659.748 89.2285 659.25 87.541 658.254 86.252C657.27 84.9512 655.957 84.3008 654.316 84.3008C652.711 84.3008 651.416 84.9395 650.432 86.2168C649.447 87.4941 648.955 89.3223 648.955 91.7012ZM676.271 84.8984C675.779 84.8164 675.246 84.7754 674.672 84.7754C672.539 84.7754 671.092 85.6836 670.33 87.5V101H667.078V81.9805H670.242L670.295 84.1777C671.361 82.4785 672.873 81.6289 674.83 81.6289C675.463 81.6289 675.943 81.7109 676.271 81.875V84.8984ZM702.85 94.3203H692.127L689.719 101H686.238L696.012 75.4062H698.965L708.756 101H705.293L702.85 94.3203ZM693.146 91.543H701.848L697.488 79.5723L693.146 91.543Z" fill="black"/>
<rect x="28" y="19" width="324" height="141" fill="#C4C4C4"/>
<path d="M151.357 90.6465H145.346V101H141.953V75.4062H150.426C153.309 75.4062 155.523 76.0625 157.07 77.375C158.629 78.6875 159.408 80.5977 159.408 83.1055C159.408 84.6992 158.975 86.0879 158.107 87.2715C157.252 88.4551 156.057 89.3398 154.521 89.9258L160.533 100.789V101H156.912L151.357 90.6465ZM145.346 87.8867H150.531C152.207 87.8867 153.537 87.4531 154.521 86.5859C155.518 85.7188 156.016 84.5586 156.016 83.1055C156.016 81.5234 155.541 80.3105 154.592 79.4668C153.654 78.623 152.295 78.1953 150.514 78.1836H145.346V87.8867ZM171.537 101.352C168.959 101.352 166.861 100.508 165.244 98.8203C163.627 97.1211 162.818 94.8535 162.818 92.0176V91.4199C162.818 89.5332 163.176 87.8516 163.891 86.375C164.617 84.8867 165.625 83.7266 166.914 82.8945C168.215 82.0508 169.621 81.6289 171.133 81.6289C173.605 81.6289 175.527 82.4434 176.898 84.0723C178.27 85.7012 178.955 88.0332 178.955 91.0684V92.4219H166.07C166.117 94.2969 166.662 95.8145 167.705 96.9746C168.76 98.123 170.096 98.6973 171.713 98.6973C172.861 98.6973 173.834 98.4629 174.631 97.9941C175.428 97.5254 176.125 96.9043 176.723 96.1309L178.709 97.6777C177.115 100.127 174.725 101.352 171.537 101.352ZM171.133 84.3008C169.82 84.3008 168.719 84.7812 167.828 85.7422C166.938 86.6914 166.387 88.0273 166.176 89.75H175.703V89.5039C175.609 87.8516 175.164 86.5742 174.367 85.6719C173.57 84.7578 172.492 84.3008 171.133 84.3008ZM194.477 101C194.289 100.625 194.137 99.957 194.02 98.9961C192.508 100.566 190.703 101.352 188.605 101.352C186.73 101.352 185.189 100.824 183.982 99.7695C182.787 98.7031 182.189 97.3555 182.189 95.7266C182.189 93.7461 182.939 92.2109 184.439 91.1211C185.951 90.0195 188.072 89.4688 190.803 89.4688H193.967V87.9746C193.967 86.8379 193.627 85.9355 192.947 85.2676C192.268 84.5879 191.266 84.248 189.941 84.248C188.781 84.248 187.809 84.541 187.023 85.127C186.238 85.7129 185.846 86.4219 185.846 87.2539H182.576C182.576 86.3047 182.91 85.3906 183.578 84.5117C184.258 83.6211 185.172 82.918 186.32 82.4023C187.48 81.8867 188.752 81.6289 190.135 81.6289C192.326 81.6289 194.043 82.1797 195.285 83.2812C196.527 84.3711 197.172 85.877 197.219 87.7988V96.5527C197.219 98.2988 197.441 99.6875 197.887 100.719V101H194.477ZM189.08 98.5215C190.1 98.5215 191.066 98.2578 191.98 97.7305C192.895 97.2031 193.557 96.5176 193.967 95.6738V91.7715H191.418C187.434 91.7715 185.441 92.9375 185.441 95.2695C185.441 96.2891 185.781 97.0859 186.461 97.6602C187.141 98.2344 188.014 98.5215 189.08 98.5215ZM205.85 101H202.598V74H205.85V101ZM220.51 101V75.4062H228.877C231.654 75.4062 233.74 75.9805 235.135 77.1289C236.541 78.2773 237.244 79.9766 237.244 82.2266C237.244 83.4219 236.904 84.4824 236.225 85.4082C235.545 86.3223 234.619 87.0312 233.447 87.5352C234.83 87.9219 235.92 88.6602 236.717 89.75C237.525 90.8281 237.93 92.1172 237.93 93.6172C237.93 95.9141 237.186 97.7188 235.697 99.0312C234.209 100.344 232.105 101 229.387 101H220.51ZM223.885 89.0293V98.2402H229.457C231.027 98.2402 232.264 97.8359 233.166 97.0273C234.08 96.207 234.537 95.082 234.537 93.6523C234.537 90.5703 232.861 89.0293 229.51 89.0293H223.885ZM223.885 86.3223H228.982C230.459 86.3223 231.637 85.9531 232.516 85.2148C233.406 84.4766 233.852 83.4746 233.852 82.209C233.852 80.8027 233.441 79.7832 232.621 79.1504C231.801 78.5059 230.553 78.1836 228.877 78.1836H223.885V86.3223Z" fill="black"/>
<rect x="877" y="19" width="324" height="141" fill="#C4C4C4"/>
<path d="M997.357 90.6465H991.346V101H987.953V75.4062H996.426C999.309 75.4062 1001.52 76.0625 1003.07 77.375C1004.63 78.6875 1005.41 80.5977 1005.41 83.1055C1005.41 84.6992 1004.97 86.0879 1004.11 87.2715C1003.25 88.4551 1002.06 89.3398 1000.52 89.9258L1006.53 100.789V101H1002.91L997.357 90.6465ZM991.346 87.8867H996.531C998.207 87.8867 999.537 87.4531 1000.52 86.5859C1001.52 85.7188 1002.02 84.5586 1002.02 83.1055C1002.02 81.5234 1001.54 80.3105 1000.59 79.4668C999.654 78.623 998.295 78.1953 996.514 78.1836H991.346V87.8867ZM1017.54 101.352C1014.96 101.352 1012.86 100.508 1011.24 98.8203C1009.63 97.1211 1008.82 94.8535 1008.82 92.0176V91.4199C1008.82 89.5332 1009.18 87.8516 1009.89 86.375C1010.62 84.8867 1011.62 83.7266 1012.91 82.8945C1014.21 82.0508 1015.62 81.6289 1017.13 81.6289C1019.61 81.6289 1021.53 82.4434 1022.9 84.0723C1024.27 85.7012 1024.96 88.0332 1024.96 91.0684V92.4219H1012.07C1012.12 94.2969 1012.66 95.8145 1013.71 96.9746C1014.76 98.123 1016.1 98.6973 1017.71 98.6973C1018.86 98.6973 1019.83 98.4629 1020.63 97.9941C1021.43 97.5254 1022.12 96.9043 1022.72 96.1309L1024.71 97.6777C1023.12 100.127 1020.72 101.352 1017.54 101.352ZM1017.13 84.3008C1015.82 84.3008 1014.72 84.7812 1013.83 85.7422C1012.94 86.6914 1012.39 88.0273 1012.18 89.75H1021.7V89.5039C1021.61 87.8516 1021.16 86.5742 1020.37 85.6719C1019.57 84.7578 1018.49 84.3008 1017.13 84.3008ZM1040.48 101C1040.29 100.625 1040.14 99.957 1040.02 98.9961C1038.51 100.566 1036.7 101.352 1034.61 101.352C1032.73 101.352 1031.19 100.824 1029.98 99.7695C1028.79 98.7031 1028.19 97.3555 1028.19 95.7266C1028.19 93.7461 1028.94 92.2109 1030.44 91.1211C1031.95 90.0195 1034.07 89.4688 1036.8 89.4688H1039.97V87.9746C1039.97 86.8379 1039.63 85.9355 1038.95 85.2676C1038.27 84.5879 1037.27 84.248 1035.94 84.248C1034.78 84.248 1033.81 84.541 1033.02 85.127C1032.24 85.7129 1031.85 86.4219 1031.85 87.2539H1028.58C1028.58 86.3047 1028.91 85.3906 1029.58 84.5117C1030.26 83.6211 1031.17 82.918 1032.32 82.4023C1033.48 81.8867 1034.75 81.6289 1036.13 81.6289C1038.33 81.6289 1040.04 82.1797 1041.29 83.2812C1042.53 84.3711 1043.17 85.877 1043.22 87.7988V96.5527C1043.22 98.2988 1043.44 99.6875 1043.89 100.719V101H1040.48ZM1035.08 98.5215C1036.1 98.5215 1037.07 98.2578 1037.98 97.7305C1038.89 97.2031 1039.56 96.5176 1039.97 95.6738V91.7715H1037.42C1033.43 91.7715 1031.44 92.9375 1031.44 95.2695C1031.44 96.2891 1031.78 97.0859 1032.46 97.6602C1033.14 98.2344 1034.01 98.5215 1035.08 98.5215ZM1051.85 101H1048.6V74H1051.85V101ZM1066.51 101V75.4062H1074.88C1077.65 75.4062 1079.74 75.9805 1081.13 77.1289C1082.54 78.2773 1083.24 79.9766 1083.24 82.2266C1083.24 83.4219 1082.9 84.4824 1082.22 85.4082C1081.54 86.3223 1080.62 87.0312 1079.45 87.5352C1080.83 87.9219 1081.92 88.6602 1082.72 89.75C1083.53 90.8281 1083.93 92.1172 1083.93 93.6172C1083.93 95.9141 1083.19 97.7188 1081.7 99.0312C1080.21 100.344 1078.11 101 1075.39 101H1066.51ZM1069.88 89.0293V98.2402H1075.46C1077.03 98.2402 1078.26 97.8359 1079.17 97.0273C1080.08 96.207 1080.54 95.082 1080.54 93.6523C1080.54 90.5703 1078.86 89.0293 1075.51 89.0293H1069.88ZM1069.88 86.3223H1074.98C1076.46 86.3223 1077.64 85.9531 1078.52 85.2148C1079.41 84.4766 1079.85 83.4746 1079.85 82.209C1079.85 80.8027 1079.44 79.7832 1078.62 79.1504C1077.8 78.5059 1076.55 78.1836 1074.88 78.1836H1069.88V86.3223Z" fill="black"/>
<path d="M876.707 89.7071C877.098 89.3166 877.098 88.6834 876.707 88.2929L870.343 81.9289C869.953 81.5384 869.319 81.5384 868.929 81.9289C868.538 82.3195 868.538 82.9526 868.929 83.3431L874.586 89L868.929 94.6569C868.538 95.0474 868.538 95.6805 868.929 96.0711C869.319 96.4616 869.953 96.4616 870.343 96.0711L876.707 89.7071ZM776 90H876V88H776V90Z" fill="black"/>
</svg>
