<svg width="2102" height="405" viewBox="0 0 2102 405" fill="none" xmlns="http://www.w3.org/2000/svg">
<rect width="2102" height="405" fill="white"/>
<rect x="466" y="35" width="324" height="141" fill="#C4C4C4"/>
<path d="M554.867 113.643C554 114.885 552.787 115.816 551.229 116.438C549.682 117.047 547.877 117.352 545.814 117.352C543.729 117.352 541.877 116.865 540.26 115.893C538.643 114.908 537.389 113.514 536.498 111.709C535.619 109.904 535.168 107.812 535.145 105.434V103.201C535.145 99.3457 536.041 96.3574 537.834 94.2363C539.639 92.1152 542.17 91.0547 545.428 91.0547C548.1 91.0547 550.25 91.7402 551.879 93.1113C553.508 94.4707 554.504 96.4043 554.867 98.9121H551.492C550.859 95.5254 548.844 93.832 545.445 93.832C543.184 93.832 541.467 94.6289 540.295 96.2227C539.135 97.8047 538.549 100.102 538.537 103.113V105.205C538.537 108.076 539.193 110.361 540.506 112.061C541.818 113.748 543.594 114.592 545.832 114.592C547.098 114.592 548.205 114.451 549.154 114.17C550.104 113.889 550.889 113.414 551.51 112.746V106.998H545.586V104.256H554.867V113.643ZM567.893 117.352C565.314 117.352 563.217 116.508 561.6 114.82C559.982 113.121 559.174 110.854 559.174 108.018V107.42C559.174 105.533 559.531 103.852 560.246 102.375C560.973 100.887 561.98 99.7266 563.27 98.8945C564.57 98.0508 565.977 97.6289 567.488 97.6289C569.961 97.6289 571.883 98.4434 573.254 100.072C574.625 101.701 575.311 104.033 575.311 107.068V108.422H562.426C562.473 110.297 563.018 111.814 564.061 112.975C565.115 114.123 566.451 114.697 568.068 114.697C569.217 114.697 570.189 114.463 570.986 113.994C571.783 113.525 572.48 112.904 573.078 112.131L575.064 113.678C573.471 116.127 571.08 117.352 567.893 117.352ZM567.488 100.301C566.176 100.301 565.074 100.781 564.184 101.742C563.293 102.691 562.742 104.027 562.531 105.75H572.059V105.504C571.965 103.852 571.52 102.574 570.723 101.672C569.926 100.758 568.848 100.301 567.488 100.301ZM582.166 97.9805L582.271 100.371C583.725 98.543 585.623 97.6289 587.967 97.6289C591.986 97.6289 594.014 99.8965 594.049 104.432V117H590.797V104.414C590.785 103.043 590.469 102.029 589.848 101.373C589.238 100.717 588.283 100.389 586.982 100.389C585.928 100.389 585.002 100.67 584.205 101.232C583.408 101.795 582.787 102.533 582.342 103.447V117H579.09V97.9805H582.166ZM606.846 117.352C604.268 117.352 602.17 116.508 600.553 114.82C598.936 113.121 598.127 110.854 598.127 108.018V107.42C598.127 105.533 598.484 103.852 599.199 102.375C599.926 100.887 600.934 99.7266 602.223 98.8945C603.523 98.0508 604.93 97.6289 606.441 97.6289C608.914 97.6289 610.836 98.4434 612.207 100.072C613.578 101.701 614.264 104.033 614.264 107.068V108.422H601.379C601.426 110.297 601.971 111.814 603.014 112.975C604.068 114.123 605.404 114.697 607.021 114.697C608.17 114.697 609.143 114.463 609.939 113.994C610.736 113.525 611.434 112.904 612.031 112.131L614.018 113.678C612.424 116.127 610.033 117.352 606.846 117.352ZM606.441 100.301C605.129 100.301 604.027 100.781 603.137 101.742C602.246 102.691 601.695 104.027 601.484 105.75H611.012V105.504C610.918 103.852 610.473 102.574 609.676 101.672C608.879 100.758 607.801 100.301 606.441 100.301ZM627.236 100.898C626.744 100.816 626.211 100.775 625.637 100.775C623.504 100.775 622.057 101.684 621.295 103.5V117H618.043V97.9805H621.207L621.26 100.178C622.326 98.4785 623.838 97.6289 625.795 97.6289C626.428 97.6289 626.908 97.7109 627.236 97.875V100.898ZM641.281 117C641.094 116.625 640.941 115.957 640.824 114.996C639.312 116.566 637.508 117.352 635.41 117.352C633.535 117.352 631.994 116.824 630.787 115.77C629.592 114.703 628.994 113.355 628.994 111.727C628.994 109.746 629.744 108.211 631.244 107.121C632.756 106.02 634.877 105.469 637.607 105.469H640.771V103.975C640.771 102.838 640.432 101.936 639.752 101.268C639.072 100.588 638.07 100.248 636.746 100.248C635.586 100.248 634.613 100.541 633.828 101.127C633.043 101.713 632.65 102.422 632.65 103.254H629.381C629.381 102.305 629.715 101.391 630.383 100.512C631.062 99.6211 631.977 98.918 633.125 98.4023C634.285 97.8867 635.557 97.6289 636.939 97.6289C639.131 97.6289 640.848 98.1797 642.09 99.2812C643.332 100.371 643.977 101.877 644.023 103.799V112.553C644.023 114.299 644.246 115.688 644.691 116.719V117H641.281ZM635.885 114.521C636.904 114.521 637.871 114.258 638.785 113.73C639.699 113.203 640.361 112.518 640.771 111.674V107.771H638.223C634.238 107.771 632.246 108.938 632.246 111.27C632.246 112.289 632.586 113.086 633.266 113.66C633.945 114.234 634.818 114.521 635.885 114.521ZM653.533 93.375V97.9805H657.084V100.494H653.533V112.289C653.533 113.051 653.691 113.625 654.008 114.012C654.324 114.387 654.863 114.574 655.625 114.574C656 114.574 656.516 114.504 657.172 114.363V117C656.316 117.234 655.484 117.352 654.676 117.352C653.223 117.352 652.127 116.912 651.389 116.033C650.65 115.154 650.281 113.906 650.281 112.289V100.494H646.818V97.9805H650.281V93.375H653.533ZM659.686 107.314C659.686 105.451 660.049 103.775 660.775 102.287C661.514 100.799 662.533 99.6504 663.834 98.8418C665.146 98.0332 666.641 97.6289 668.316 97.6289C670.906 97.6289 672.998 98.5254 674.592 100.318C676.197 102.111 677 104.496 677 107.473V107.701C677 109.553 676.643 111.217 675.928 112.693C675.225 114.158 674.211 115.301 672.887 116.121C671.574 116.941 670.062 117.352 668.352 117.352C665.773 117.352 663.682 116.455 662.076 114.662C660.482 112.869 659.686 110.496 659.686 107.543V107.314ZM662.955 107.701C662.955 109.811 663.441 111.504 664.414 112.781C665.398 114.059 666.711 114.697 668.352 114.697C670.004 114.697 671.316 114.053 672.289 112.764C673.262 111.463 673.748 109.646 673.748 107.314C673.748 105.229 673.25 103.541 672.254 102.252C671.27 100.951 669.957 100.301 668.316 100.301C666.711 100.301 665.416 100.939 664.432 102.217C663.447 103.494 662.955 105.322 662.955 107.701ZM690.271 100.898C689.779 100.816 689.246 100.775 688.672 100.775C686.539 100.775 685.092 101.684 684.33 103.5V117H681.078V97.9805H684.242L684.295 100.178C685.361 98.4785 686.873 97.6289 688.83 97.6289C689.463 97.6289 689.943 97.7109 690.271 97.875V100.898ZM716.85 110.32H706.127L703.719 117H700.238L710.012 91.4062H712.965L722.756 117H719.293L716.85 110.32ZM707.146 107.543H715.848L711.488 95.5723L707.146 107.543Z" fill="black"/>
<rect x="42" y="35" width="324" height="141" fill="#C4C4C4"/>
<path d="M165.357 106.646H159.346V117H155.953V91.4062H164.426C167.309 91.4062 169.523 92.0625 171.07 93.375C172.629 94.6875 173.408 96.5977 173.408 99.1055C173.408 100.699 172.975 102.088 172.107 103.271C171.252 104.455 170.057 105.34 168.521 105.926L174.533 116.789V117H170.912L165.357 106.646ZM159.346 103.887H164.531C166.207 103.887 167.537 103.453 168.521 102.586C169.518 101.719 170.016 100.559 170.016 99.1055C170.016 97.5234 169.541 96.3105 168.592 95.4668C167.654 94.623 166.295 94.1953 164.514 94.1836H159.346V103.887ZM185.537 117.352C182.959 117.352 180.861 116.508 179.244 114.82C177.627 113.121 176.818 110.854 176.818 108.018V107.42C176.818 105.533 177.176 103.852 177.891 102.375C178.617 100.887 179.625 99.7266 180.914 98.8945C182.215 98.0508 183.621 97.6289 185.133 97.6289C187.605 97.6289 189.527 98.4434 190.898 100.072C192.27 101.701 192.955 104.033 192.955 107.068V108.422H180.07C180.117 110.297 180.662 111.814 181.705 112.975C182.76 114.123 184.096 114.697 185.713 114.697C186.861 114.697 187.834 114.463 188.631 113.994C189.428 113.525 190.125 112.904 190.723 112.131L192.709 113.678C191.115 116.127 188.725 117.352 185.537 117.352ZM185.133 100.301C183.82 100.301 182.719 100.781 181.828 101.742C180.938 102.691 180.387 104.027 180.176 105.75H189.703V105.504C189.609 103.852 189.164 102.574 188.367 101.672C187.57 100.758 186.492 100.301 185.133 100.301ZM208.477 117C208.289 116.625 208.137 115.957 208.02 114.996C206.508 116.566 204.703 117.352 202.605 117.352C200.73 117.352 199.189 116.824 197.982 115.77C196.787 114.703 196.189 113.355 196.189 111.727C196.189 109.746 196.939 108.211 198.439 107.121C199.951 106.02 202.072 105.469 204.803 105.469H207.967V103.975C207.967 102.838 207.627 101.936 206.947 101.268C206.268 100.588 205.266 100.248 203.941 100.248C202.781 100.248 201.809 100.541 201.023 101.127C200.238 101.713 199.846 102.422 199.846 103.254H196.576C196.576 102.305 196.91 101.391 197.578 100.512C198.258 99.6211 199.172 98.918 200.32 98.4023C201.48 97.8867 202.752 97.6289 204.135 97.6289C206.326 97.6289 208.043 98.1797 209.285 99.2812C210.527 100.371 211.172 101.877 211.219 103.799V112.553C211.219 114.299 211.441 115.688 211.887 116.719V117H208.477ZM203.08 114.521C204.1 114.521 205.066 114.258 205.98 113.73C206.895 113.203 207.557 112.518 207.967 111.674V107.771H205.418C201.434 107.771 199.441 108.938 199.441 111.27C199.441 112.289 199.781 113.086 200.461 113.66C201.141 114.234 202.014 114.521 203.08 114.521ZM219.85 117H216.598V90H219.85V117ZM248.643 110.32H237.92L235.512 117H232.031L241.805 91.4062H244.758L254.549 117H251.086L248.643 110.32ZM238.939 107.543H247.641L243.281 95.5723L238.939 107.543Z" fill="black"/>
<rect x="466" y="242" width="324" height="141" fill="#C4C4C4"/>
<path d="M554.867 320.643C554 321.885 552.787 322.816 551.229 323.438C549.682 324.047 547.877 324.352 545.814 324.352C543.729 324.352 541.877 323.865 540.26 322.893C538.643 321.908 537.389 320.514 536.498 318.709C535.619 316.904 535.168 314.812 535.145 312.434V310.201C535.145 306.346 536.041 303.357 537.834 301.236C539.639 299.115 542.17 298.055 545.428 298.055C548.1 298.055 550.25 298.74 551.879 300.111C553.508 301.471 554.504 303.404 554.867 305.912H551.492C550.859 302.525 548.844 300.832 545.445 300.832C543.184 300.832 541.467 301.629 540.295 303.223C539.135 304.805 538.549 307.102 538.537 310.113V312.205C538.537 315.076 539.193 317.361 540.506 319.061C541.818 320.748 543.594 321.592 545.832 321.592C547.098 321.592 548.205 321.451 549.154 321.17C550.104 320.889 550.889 320.414 551.51 319.746V313.998H545.586V311.256H554.867V320.643ZM567.893 324.352C565.314 324.352 563.217 323.508 561.6 321.82C559.982 320.121 559.174 317.854 559.174 315.018V314.42C559.174 312.533 559.531 310.852 560.246 309.375C560.973 307.887 561.98 306.727 563.27 305.895C564.57 305.051 565.977 304.629 567.488 304.629C569.961 304.629 571.883 305.443 573.254 307.072C574.625 308.701 575.311 311.033 575.311 314.068V315.422H562.426C562.473 317.297 563.018 318.814 564.061 319.975C565.115 321.123 566.451 321.697 568.068 321.697C569.217 321.697 570.189 321.463 570.986 320.994C571.783 320.525 572.48 319.904 573.078 319.131L575.064 320.678C573.471 323.127 571.08 324.352 567.893 324.352ZM567.488 307.301C566.176 307.301 565.074 307.781 564.184 308.742C563.293 309.691 562.742 311.027 562.531 312.75H572.059V312.504C571.965 310.852 571.52 309.574 570.723 308.672C569.926 307.758 568.848 307.301 567.488 307.301ZM582.166 304.98L582.271 307.371C583.725 305.543 585.623 304.629 587.967 304.629C591.986 304.629 594.014 306.896 594.049 311.432V324H590.797V311.414C590.785 310.043 590.469 309.029 589.848 308.373C589.238 307.717 588.283 307.389 586.982 307.389C585.928 307.389 585.002 307.67 584.205 308.232C583.408 308.795 582.787 309.533 582.342 310.447V324H579.09V304.98H582.166ZM606.846 324.352C604.268 324.352 602.17 323.508 600.553 321.82C598.936 320.121 598.127 317.854 598.127 315.018V314.42C598.127 312.533 598.484 310.852 599.199 309.375C599.926 307.887 600.934 306.727 602.223 305.895C603.523 305.051 604.93 304.629 606.441 304.629C608.914 304.629 610.836 305.443 612.207 307.072C613.578 308.701 614.264 311.033 614.264 314.068V315.422H601.379C601.426 317.297 601.971 318.814 603.014 319.975C604.068 321.123 605.404 321.697 607.021 321.697C608.17 321.697 609.143 321.463 609.939 320.994C610.736 320.525 611.434 319.904 612.031 319.131L614.018 320.678C612.424 323.127 610.033 324.352 606.846 324.352ZM606.441 307.301C605.129 307.301 604.027 307.781 603.137 308.742C602.246 309.691 601.695 311.027 601.484 312.75H611.012V312.504C610.918 310.852 610.473 309.574 609.676 308.672C608.879 307.758 607.801 307.301 606.441 307.301ZM627.236 307.898C626.744 307.816 626.211 307.775 625.637 307.775C623.504 307.775 622.057 308.684 621.295 310.5V324H618.043V304.98H621.207L621.26 307.178C622.326 305.479 623.838 304.629 625.795 304.629C626.428 304.629 626.908 304.711 627.236 304.875V307.898ZM641.281 324C641.094 323.625 640.941 322.957 640.824 321.996C639.312 323.566 637.508 324.352 635.41 324.352C633.535 324.352 631.994 323.824 630.787 322.77C629.592 321.703 628.994 320.355 628.994 318.727C628.994 316.746 629.744 315.211 631.244 314.121C632.756 313.02 634.877 312.469 637.607 312.469H640.771V310.975C640.771 309.838 640.432 308.936 639.752 308.268C639.072 307.588 638.07 307.248 636.746 307.248C635.586 307.248 634.613 307.541 633.828 308.127C633.043 308.713 632.65 309.422 632.65 310.254H629.381C629.381 309.305 629.715 308.391 630.383 307.512C631.062 306.621 631.977 305.918 633.125 305.402C634.285 304.887 635.557 304.629 636.939 304.629C639.131 304.629 640.848 305.18 642.09 306.281C643.332 307.371 643.977 308.877 644.023 310.799V319.553C644.023 321.299 644.246 322.688 644.691 323.719V324H641.281ZM635.885 321.521C636.904 321.521 637.871 321.258 638.785 320.73C639.699 320.203 640.361 319.518 640.771 318.674V314.771H638.223C634.238 314.771 632.246 315.938 632.246 318.27C632.246 319.289 632.586 320.086 633.266 320.66C633.945 321.234 634.818 321.521 635.885 321.521ZM653.533 300.375V304.98H657.084V307.494H653.533V319.289C653.533 320.051 653.691 320.625 654.008 321.012C654.324 321.387 654.863 321.574 655.625 321.574C656 321.574 656.516 321.504 657.172 321.363V324C656.316 324.234 655.484 324.352 654.676 324.352C653.223 324.352 652.127 323.912 651.389 323.033C650.65 322.154 650.281 320.906 650.281 319.289V307.494H646.818V304.98H650.281V300.375H653.533ZM659.686 314.314C659.686 312.451 660.049 310.775 660.775 309.287C661.514 307.799 662.533 306.65 663.834 305.842C665.146 305.033 666.641 304.629 668.316 304.629C670.906 304.629 672.998 305.525 674.592 307.318C676.197 309.111 677 311.496 677 314.473V314.701C677 316.553 676.643 318.217 675.928 319.693C675.225 321.158 674.211 322.301 672.887 323.121C671.574 323.941 670.062 324.352 668.352 324.352C665.773 324.352 663.682 323.455 662.076 321.662C660.482 319.869 659.686 317.496 659.686 314.543V314.314ZM662.955 314.701C662.955 316.811 663.441 318.504 664.414 319.781C665.398 321.059 666.711 321.697 668.352 321.697C670.004 321.697 671.316 321.053 672.289 319.764C673.262 318.463 673.748 316.646 673.748 314.314C673.748 312.229 673.25 310.541 672.254 309.252C671.27 307.951 669.957 307.301 668.316 307.301C666.711 307.301 665.416 307.939 664.432 309.217C663.447 310.494 662.955 312.322 662.955 314.701ZM690.271 307.898C689.779 307.816 689.246 307.775 688.672 307.775C686.539 307.775 685.092 308.684 684.33 310.5V324H681.078V304.98H684.242L684.295 307.178C685.361 305.479 686.873 304.629 688.83 304.629C689.463 304.629 689.943 304.711 690.271 304.875V307.898ZM702.717 324V298.406H711.084C713.861 298.406 715.947 298.98 717.342 300.129C718.748 301.277 719.451 302.977 719.451 305.227C719.451 306.422 719.111 307.482 718.432 308.408C717.752 309.322 716.826 310.031 715.654 310.535C717.037 310.922 718.127 311.66 718.924 312.75C719.732 313.828 720.137 315.117 720.137 316.617C720.137 318.914 719.393 320.719 717.904 322.031C716.416 323.344 714.312 324 711.594 324H702.717ZM706.092 312.029V321.24H711.664C713.234 321.24 714.471 320.836 715.373 320.027C716.287 319.207 716.744 318.082 716.744 316.652C716.744 313.57 715.068 312.029 711.717 312.029H706.092ZM706.092 309.322H711.189C712.666 309.322 713.844 308.953 714.723 308.215C715.613 307.477 716.059 306.475 716.059 305.209C716.059 303.803 715.648 302.783 714.828 302.15C714.008 301.506 712.76 301.184 711.084 301.184H706.092V309.322Z" fill="black"/>
<path d="M466.707 105.707C467.098 105.317 467.098 104.683 466.707 104.293L460.343 97.9289C459.953 97.5384 459.319 97.5384 458.929 97.9289C458.538 98.3195 458.538 98.9526 458.929 99.3431L464.586 105L458.929 110.657C458.538 111.047 458.538 111.681 458.929 112.071C459.319 112.462 459.953 112.462 460.343 112.071L466.707 105.707ZM366 106H466V104H366V106Z" fill="black"/>
<rect x="891" y="35" width="324" height="141" fill="#C4C4C4"/>
<path d="M1016.09 105.697H1005.35V117H1001.97V91.4062H1017.83V94.1836H1005.35V102.938H1016.09V105.697ZM1032.5 117C1032.32 116.625 1032.16 115.957 1032.05 114.996C1030.54 116.566 1028.73 117.352 1026.63 117.352C1024.76 117.352 1023.22 116.824 1022.01 115.77C1020.81 114.703 1020.22 113.355 1020.22 111.727C1020.22 109.746 1020.97 108.211 1022.47 107.121C1023.98 106.02 1026.1 105.469 1028.83 105.469H1031.99V103.975C1031.99 102.838 1031.65 101.936 1030.97 101.268C1030.29 100.588 1029.29 100.248 1027.97 100.248C1026.81 100.248 1025.84 100.541 1025.05 101.127C1024.27 101.713 1023.87 102.422 1023.87 103.254H1020.6C1020.6 102.305 1020.94 101.391 1021.61 100.512C1022.29 99.6211 1023.2 98.918 1024.35 98.4023C1025.51 97.8867 1026.78 97.6289 1028.16 97.6289C1030.35 97.6289 1032.07 98.1797 1033.31 99.2812C1034.55 100.371 1035.2 101.877 1035.25 103.799V112.553C1035.25 114.299 1035.47 115.688 1035.91 116.719V117H1032.5ZM1027.11 114.521C1028.13 114.521 1029.09 114.258 1030.01 113.73C1030.92 113.203 1031.58 112.518 1031.99 111.674V107.771H1029.45C1025.46 107.771 1023.47 108.938 1023.47 111.27C1023.47 112.289 1023.81 113.086 1024.49 113.66C1025.17 114.234 1026.04 114.521 1027.11 114.521ZM1045.65 108.193L1043.61 110.32V117H1040.36V90H1043.61V106.33L1045.35 104.238L1051.28 97.9805H1055.23L1047.83 105.926L1056.09 117H1052.28L1045.65 108.193ZM1066.13 117.352C1063.55 117.352 1061.46 116.508 1059.84 114.82C1058.22 113.121 1057.41 110.854 1057.41 108.018V107.42C1057.41 105.533 1057.77 103.852 1058.48 102.375C1059.21 100.887 1060.22 99.7266 1061.51 98.8945C1062.81 98.0508 1064.21 97.6289 1065.73 97.6289C1068.2 97.6289 1070.12 98.4434 1071.49 100.072C1072.86 101.701 1073.55 104.033 1073.55 107.068V108.422H1060.66C1060.71 110.297 1061.26 111.814 1062.3 112.975C1063.35 114.123 1064.69 114.697 1066.31 114.697C1067.46 114.697 1068.43 114.463 1069.22 113.994C1070.02 113.525 1070.72 112.904 1071.32 112.131L1073.3 113.678C1071.71 116.127 1069.32 117.352 1066.13 117.352ZM1065.73 100.301C1064.41 100.301 1063.31 100.781 1062.42 101.742C1061.53 102.691 1060.98 104.027 1060.77 105.75H1070.3V105.504C1070.2 103.852 1069.76 102.574 1068.96 101.672C1068.16 100.758 1067.09 100.301 1065.73 100.301ZM1086.77 117V91.4062H1095.13C1097.91 91.4062 1100 91.9805 1101.39 93.1289C1102.8 94.2773 1103.5 95.9766 1103.5 98.2266C1103.5 99.4219 1103.16 100.482 1102.48 101.408C1101.8 102.322 1100.88 103.031 1099.71 103.535C1101.09 103.922 1102.18 104.66 1102.97 105.75C1103.78 106.828 1104.19 108.117 1104.19 109.617C1104.19 111.914 1103.44 113.719 1101.96 115.031C1100.47 116.344 1098.36 117 1095.64 117H1086.77ZM1090.14 105.029V114.24H1095.71C1097.29 114.24 1098.52 113.836 1099.42 113.027C1100.34 112.207 1100.79 111.082 1100.79 109.652C1100.79 106.57 1099.12 105.029 1095.77 105.029H1090.14ZM1090.14 102.322H1095.24C1096.72 102.322 1097.89 101.953 1098.77 101.215C1099.66 100.477 1100.11 99.4746 1100.11 98.209C1100.11 96.8027 1099.7 95.7832 1098.88 95.1504C1098.06 94.5059 1096.81 94.1836 1095.13 94.1836H1090.14V102.322Z" fill="black"/>
<path d="M890.707 105.707C891.098 105.317 891.098 104.683 890.707 104.293L884.343 97.9289C883.953 97.5384 883.319 97.5384 882.929 97.9289C882.538 98.3195 882.538 98.9526 882.929 99.3431L888.586 105L882.929 110.657C882.538 111.047 882.538 111.681 882.929 112.071C883.319 112.462 883.953 112.462 884.343 112.071L890.707 105.707ZM790 106H890V104H790V106Z" fill="black"/>
<rect x="891" y="242" width="324" height="141" fill="#C4C4C4"/>
<path d="M1016.09 312.697H1005.35V324H1001.97V298.406H1017.83V301.184H1005.35V309.938H1016.09V312.697ZM1032.5 324C1032.32 323.625 1032.16 322.957 1032.05 321.996C1030.54 323.566 1028.73 324.352 1026.63 324.352C1024.76 324.352 1023.22 323.824 1022.01 322.77C1020.81 321.703 1020.22 320.355 1020.22 318.727C1020.22 316.746 1020.97 315.211 1022.47 314.121C1023.98 313.02 1026.1 312.469 1028.83 312.469H1031.99V310.975C1031.99 309.838 1031.65 308.936 1030.97 308.268C1030.29 307.588 1029.29 307.248 1027.97 307.248C1026.81 307.248 1025.84 307.541 1025.05 308.127C1024.27 308.713 1023.87 309.422 1023.87 310.254H1020.6C1020.6 309.305 1020.94 308.391 1021.61 307.512C1022.29 306.621 1023.2 305.918 1024.35 305.402C1025.51 304.887 1026.78 304.629 1028.16 304.629C1030.35 304.629 1032.07 305.18 1033.31 306.281C1034.55 307.371 1035.2 308.877 1035.25 310.799V319.553C1035.25 321.299 1035.47 322.688 1035.91 323.719V324H1032.5ZM1027.11 321.521C1028.13 321.521 1029.09 321.258 1030.01 320.73C1030.92 320.203 1031.58 319.518 1031.99 318.674V314.771H1029.45C1025.46 314.771 1023.47 315.938 1023.47 318.27C1023.47 319.289 1023.81 320.086 1024.49 320.66C1025.17 321.234 1026.04 321.521 1027.11 321.521ZM1045.65 315.193L1043.61 317.32V324H1040.36V297H1043.61V313.33L1045.35 311.238L1051.28 304.98H1055.23L1047.83 312.926L1056.09 324H1052.28L1045.65 315.193ZM1066.13 324.352C1063.55 324.352 1061.46 323.508 1059.84 321.82C1058.22 320.121 1057.41 317.854 1057.41 315.018V314.42C1057.41 312.533 1057.77 310.852 1058.48 309.375C1059.21 307.887 1060.22 306.727 1061.51 305.895C1062.81 305.051 1064.21 304.629 1065.73 304.629C1068.2 304.629 1070.12 305.443 1071.49 307.072C1072.86 308.701 1073.55 311.033 1073.55 314.068V315.422H1060.66C1060.71 317.297 1061.26 318.814 1062.3 319.975C1063.35 321.123 1064.69 321.697 1066.31 321.697C1067.46 321.697 1068.43 321.463 1069.22 320.994C1070.02 320.525 1070.72 319.904 1071.32 319.131L1073.3 320.678C1071.71 323.127 1069.32 324.352 1066.13 324.352ZM1065.73 307.301C1064.41 307.301 1063.31 307.781 1062.42 308.742C1061.53 309.691 1060.98 311.027 1060.77 312.75H1070.3V312.504C1070.2 310.852 1069.76 309.574 1068.96 308.672C1068.16 307.758 1067.09 307.301 1065.73 307.301ZM1100.9 317.32H1090.18L1087.77 324H1084.29L1094.06 298.406H1097.02L1106.81 324H1103.34L1100.9 317.32ZM1091.2 314.543H1099.9L1095.54 302.572L1091.2 314.543Z" fill="black"/>
<path d="M890.707 312.707C891.098 312.317 891.098 311.683 890.707 311.293L884.343 304.929C883.953 304.538 883.319 304.538 882.929 304.929C882.538 305.319 882.538 305.953 882.929 306.343L888.586 312L882.929 317.657C882.538 318.047 882.538 318.681 882.929 319.071C883.319 319.462 883.953 319.462 884.343 319.071L890.707 312.707ZM790 313H890V311H790V313Z" fill="black"/>
<rect x="1317" y="242" width="324" height="141" fill="#C4C4C4"/>
<path d="M1405.87 320.643C1405 321.885 1403.79 322.816 1402.23 323.438C1400.68 324.047 1398.88 324.352 1396.81 324.352C1394.73 324.352 1392.88 323.865 1391.26 322.893C1389.64 321.908 1388.39 320.514 1387.5 318.709C1386.62 316.904 1386.17 314.812 1386.14 312.434V310.201C1386.14 306.346 1387.04 303.357 1388.83 301.236C1390.64 299.115 1393.17 298.055 1396.43 298.055C1399.1 298.055 1401.25 298.74 1402.88 300.111C1404.51 301.471 1405.5 303.404 1405.87 305.912H1402.49C1401.86 302.525 1399.84 300.832 1396.45 300.832C1394.18 300.832 1392.47 301.629 1391.29 303.223C1390.13 304.805 1389.55 307.102 1389.54 310.113V312.205C1389.54 315.076 1390.19 317.361 1391.51 319.061C1392.82 320.748 1394.59 321.592 1396.83 321.592C1398.1 321.592 1399.21 321.451 1400.15 321.17C1401.1 320.889 1401.89 320.414 1402.51 319.746V313.998H1396.59V311.256H1405.87V320.643ZM1418.89 324.352C1416.31 324.352 1414.22 323.508 1412.6 321.82C1410.98 320.121 1410.17 317.854 1410.17 315.018V314.42C1410.17 312.533 1410.53 310.852 1411.25 309.375C1411.97 307.887 1412.98 306.727 1414.27 305.895C1415.57 305.051 1416.98 304.629 1418.49 304.629C1420.96 304.629 1422.88 305.443 1424.25 307.072C1425.62 308.701 1426.31 311.033 1426.31 314.068V315.422H1413.43C1413.47 317.297 1414.02 318.814 1415.06 319.975C1416.12 321.123 1417.45 321.697 1419.07 321.697C1420.22 321.697 1421.19 321.463 1421.99 320.994C1422.78 320.525 1423.48 319.904 1424.08 319.131L1426.06 320.678C1424.47 323.127 1422.08 324.352 1418.89 324.352ZM1418.49 307.301C1417.18 307.301 1416.07 307.781 1415.18 308.742C1414.29 309.691 1413.74 311.027 1413.53 312.75H1423.06V312.504C1422.96 310.852 1422.52 309.574 1421.72 308.672C1420.93 307.758 1419.85 307.301 1418.49 307.301ZM1433.17 304.98L1433.27 307.371C1434.72 305.543 1436.62 304.629 1438.97 304.629C1442.99 304.629 1445.01 306.896 1445.05 311.432V324H1441.8V311.414C1441.79 310.043 1441.47 309.029 1440.85 308.373C1440.24 307.717 1439.28 307.389 1437.98 307.389C1436.93 307.389 1436 307.67 1435.21 308.232C1434.41 308.795 1433.79 309.533 1433.34 310.447V324H1430.09V304.98H1433.17ZM1457.85 324.352C1455.27 324.352 1453.17 323.508 1451.55 321.82C1449.94 320.121 1449.13 317.854 1449.13 315.018V314.42C1449.13 312.533 1449.48 310.852 1450.2 309.375C1450.93 307.887 1451.93 306.727 1453.22 305.895C1454.52 305.051 1455.93 304.629 1457.44 304.629C1459.91 304.629 1461.84 305.443 1463.21 307.072C1464.58 308.701 1465.26 311.033 1465.26 314.068V315.422H1452.38C1452.43 317.297 1452.97 318.814 1454.01 319.975C1455.07 321.123 1456.4 321.697 1458.02 321.697C1459.17 321.697 1460.14 321.463 1460.94 320.994C1461.74 320.525 1462.43 319.904 1463.03 319.131L1465.02 320.678C1463.42 323.127 1461.03 324.352 1457.85 324.352ZM1457.44 307.301C1456.13 307.301 1455.03 307.781 1454.14 308.742C1453.25 309.691 1452.7 311.027 1452.48 312.75H1462.01V312.504C1461.92 310.852 1461.47 309.574 1460.68 308.672C1459.88 307.758 1458.8 307.301 1457.44 307.301ZM1478.24 307.898C1477.74 307.816 1477.21 307.775 1476.64 307.775C1474.5 307.775 1473.06 308.684 1472.29 310.5V324H1469.04V304.98H1472.21L1472.26 307.178C1473.33 305.479 1474.84 304.629 1476.79 304.629C1477.43 304.629 1477.91 304.711 1478.24 304.875V307.898ZM1492.28 324C1492.09 323.625 1491.94 322.957 1491.82 321.996C1490.31 323.566 1488.51 324.352 1486.41 324.352C1484.54 324.352 1482.99 323.824 1481.79 322.77C1480.59 321.703 1479.99 320.355 1479.99 318.727C1479.99 316.746 1480.74 315.211 1482.24 314.121C1483.76 313.02 1485.88 312.469 1488.61 312.469H1491.77V310.975C1491.77 309.838 1491.43 308.936 1490.75 308.268C1490.07 307.588 1489.07 307.248 1487.75 307.248C1486.59 307.248 1485.61 307.541 1484.83 308.127C1484.04 308.713 1483.65 309.422 1483.65 310.254H1480.38C1480.38 309.305 1480.71 308.391 1481.38 307.512C1482.06 306.621 1482.98 305.918 1484.12 305.402C1485.29 304.887 1486.56 304.629 1487.94 304.629C1490.13 304.629 1491.85 305.18 1493.09 306.281C1494.33 307.371 1494.98 308.877 1495.02 310.799V319.553C1495.02 321.299 1495.25 322.688 1495.69 323.719V324H1492.28ZM1486.88 321.521C1487.9 321.521 1488.87 321.258 1489.79 320.73C1490.7 320.203 1491.36 319.518 1491.77 318.674V314.771H1489.22C1485.24 314.771 1483.25 315.938 1483.25 318.27C1483.25 319.289 1483.59 320.086 1484.27 320.66C1484.95 321.234 1485.82 321.521 1486.88 321.521ZM1504.53 300.375V304.98H1508.08V307.494H1504.53V319.289C1504.53 320.051 1504.69 320.625 1505.01 321.012C1505.32 321.387 1505.86 321.574 1506.62 321.574C1507 321.574 1507.52 321.504 1508.17 321.363V324C1507.32 324.234 1506.48 324.352 1505.68 324.352C1504.22 324.352 1503.13 323.912 1502.39 323.033C1501.65 322.154 1501.28 320.906 1501.28 319.289V307.494H1497.82V304.98H1501.28V300.375H1504.53ZM1510.69 314.314C1510.69 312.451 1511.05 310.775 1511.78 309.287C1512.51 307.799 1513.53 306.65 1514.83 305.842C1516.15 305.033 1517.64 304.629 1519.32 304.629C1521.91 304.629 1524 305.525 1525.59 307.318C1527.2 309.111 1528 311.496 1528 314.473V314.701C1528 316.553 1527.64 318.217 1526.93 319.693C1526.22 321.158 1525.21 322.301 1523.89 323.121C1522.57 323.941 1521.06 324.352 1519.35 324.352C1516.77 324.352 1514.68 323.455 1513.08 321.662C1511.48 319.869 1510.69 317.496 1510.69 314.543V314.314ZM1513.96 314.701C1513.96 316.811 1514.44 318.504 1515.41 319.781C1516.4 321.059 1517.71 321.697 1519.35 321.697C1521 321.697 1522.32 321.053 1523.29 319.764C1524.26 318.463 1524.75 316.646 1524.75 314.314C1524.75 312.229 1524.25 310.541 1523.25 309.252C1522.27 307.951 1520.96 307.301 1519.32 307.301C1517.71 307.301 1516.42 307.939 1515.43 309.217C1514.45 310.494 1513.96 312.322 1513.96 314.701ZM1541.27 307.898C1540.78 307.816 1540.25 307.775 1539.67 307.775C1537.54 307.775 1536.09 308.684 1535.33 310.5V324H1532.08V304.98H1535.24L1535.29 307.178C1536.36 305.479 1537.87 304.629 1539.83 304.629C1540.46 304.629 1540.94 304.711 1541.27 304.875V307.898ZM1567.85 317.32H1557.13L1554.72 324H1551.24L1561.01 298.406H1563.96L1573.76 324H1570.29L1567.85 317.32ZM1558.15 314.543H1566.85L1562.49 302.572L1558.15 314.543Z" fill="black"/>
<rect x="1314" y="35" width="324" height="141" fill="#C4C4C4"/>
<path d="M1402.87 113.643C1402 114.885 1400.79 115.816 1399.23 116.438C1397.68 117.047 1395.88 117.352 1393.81 117.352C1391.73 117.352 1389.88 116.865 1388.26 115.893C1386.64 114.908 1385.39 113.514 1384.5 111.709C1383.62 109.904 1383.17 107.812 1383.14 105.434V103.201C1383.14 99.3457 1384.04 96.3574 1385.83 94.2363C1387.64 92.1152 1390.17 91.0547 1393.43 91.0547C1396.1 91.0547 1398.25 91.7402 1399.88 93.1113C1401.51 94.4707 1402.5 96.4043 1402.87 98.9121H1399.49C1398.86 95.5254 1396.84 93.832 1393.45 93.832C1391.18 93.832 1389.47 94.6289 1388.29 96.2227C1387.13 97.8047 1386.55 100.102 1386.54 103.113V105.205C1386.54 108.076 1387.19 110.361 1388.51 112.061C1389.82 113.748 1391.59 114.592 1393.83 114.592C1395.1 114.592 1396.21 114.451 1397.15 114.17C1398.1 113.889 1398.89 113.414 1399.51 112.746V106.998H1393.59V104.256H1402.87V113.643ZM1415.89 117.352C1413.31 117.352 1411.22 116.508 1409.6 114.82C1407.98 113.121 1407.17 110.854 1407.17 108.018V107.42C1407.17 105.533 1407.53 103.852 1408.25 102.375C1408.97 100.887 1409.98 99.7266 1411.27 98.8945C1412.57 98.0508 1413.98 97.6289 1415.49 97.6289C1417.96 97.6289 1419.88 98.4434 1421.25 100.072C1422.62 101.701 1423.31 104.033 1423.31 107.068V108.422H1410.43C1410.47 110.297 1411.02 111.814 1412.06 112.975C1413.12 114.123 1414.45 114.697 1416.07 114.697C1417.22 114.697 1418.19 114.463 1418.99 113.994C1419.78 113.525 1420.48 112.904 1421.08 112.131L1423.06 113.678C1421.47 116.127 1419.08 117.352 1415.89 117.352ZM1415.49 100.301C1414.18 100.301 1413.07 100.781 1412.18 101.742C1411.29 102.691 1410.74 104.027 1410.53 105.75H1420.06V105.504C1419.96 103.852 1419.52 102.574 1418.72 101.672C1417.93 100.758 1416.85 100.301 1415.49 100.301ZM1430.17 97.9805L1430.27 100.371C1431.72 98.543 1433.62 97.6289 1435.97 97.6289C1439.99 97.6289 1442.01 99.8965 1442.05 104.432V117H1438.8V104.414C1438.79 103.043 1438.47 102.029 1437.85 101.373C1437.24 100.717 1436.28 100.389 1434.98 100.389C1433.93 100.389 1433 100.67 1432.21 101.232C1431.41 101.795 1430.79 102.533 1430.34 103.447V117H1427.09V97.9805H1430.17ZM1454.85 117.352C1452.27 117.352 1450.17 116.508 1448.55 114.82C1446.94 113.121 1446.13 110.854 1446.13 108.018V107.42C1446.13 105.533 1446.48 103.852 1447.2 102.375C1447.93 100.887 1448.93 99.7266 1450.22 98.8945C1451.52 98.0508 1452.93 97.6289 1454.44 97.6289C1456.91 97.6289 1458.84 98.4434 1460.21 100.072C1461.58 101.701 1462.26 104.033 1462.26 107.068V108.422H1449.38C1449.43 110.297 1449.97 111.814 1451.01 112.975C1452.07 114.123 1453.4 114.697 1455.02 114.697C1456.17 114.697 1457.14 114.463 1457.94 113.994C1458.74 113.525 1459.43 112.904 1460.03 112.131L1462.02 113.678C1460.42 116.127 1458.03 117.352 1454.85 117.352ZM1454.44 100.301C1453.13 100.301 1452.03 100.781 1451.14 101.742C1450.25 102.691 1449.7 104.027 1449.48 105.75H1459.01V105.504C1458.92 103.852 1458.47 102.574 1457.68 101.672C1456.88 100.758 1455.8 100.301 1454.44 100.301ZM1475.24 100.898C1474.74 100.816 1474.21 100.775 1473.64 100.775C1471.5 100.775 1470.06 101.684 1469.29 103.5V117H1466.04V97.9805H1469.21L1469.26 100.178C1470.33 98.4785 1471.84 97.6289 1473.79 97.6289C1474.43 97.6289 1474.91 97.7109 1475.24 97.875V100.898ZM1489.28 117C1489.09 116.625 1488.94 115.957 1488.82 114.996C1487.31 116.566 1485.51 117.352 1483.41 117.352C1481.54 117.352 1479.99 116.824 1478.79 115.77C1477.59 114.703 1476.99 113.355 1476.99 111.727C1476.99 109.746 1477.74 108.211 1479.24 107.121C1480.76 106.02 1482.88 105.469 1485.61 105.469H1488.77V103.975C1488.77 102.838 1488.43 101.936 1487.75 101.268C1487.07 100.588 1486.07 100.248 1484.75 100.248C1483.59 100.248 1482.61 100.541 1481.83 101.127C1481.04 101.713 1480.65 102.422 1480.65 103.254H1477.38C1477.38 102.305 1477.71 101.391 1478.38 100.512C1479.06 99.6211 1479.98 98.918 1481.12 98.4023C1482.29 97.8867 1483.56 97.6289 1484.94 97.6289C1487.13 97.6289 1488.85 98.1797 1490.09 99.2812C1491.33 100.371 1491.98 101.877 1492.02 103.799V112.553C1492.02 114.299 1492.25 115.688 1492.69 116.719V117H1489.28ZM1483.88 114.521C1484.9 114.521 1485.87 114.258 1486.79 113.73C1487.7 113.203 1488.36 112.518 1488.77 111.674V107.771H1486.22C1482.24 107.771 1480.25 108.938 1480.25 111.27C1480.25 112.289 1480.59 113.086 1481.27 113.66C1481.95 114.234 1482.82 114.521 1483.88 114.521ZM1501.53 93.375V97.9805H1505.08V100.494H1501.53V112.289C1501.53 113.051 1501.69 113.625 1502.01 114.012C1502.32 114.387 1502.86 114.574 1503.62 114.574C1504 114.574 1504.52 114.504 1505.17 114.363V117C1504.32 117.234 1503.48 117.352 1502.68 117.352C1501.22 117.352 1500.13 116.912 1499.39 116.033C1498.65 115.154 1498.28 113.906 1498.28 112.289V100.494H1494.82V97.9805H1498.28V93.375H1501.53ZM1507.69 107.314C1507.69 105.451 1508.05 103.775 1508.78 102.287C1509.51 100.799 1510.53 99.6504 1511.83 98.8418C1513.15 98.0332 1514.64 97.6289 1516.32 97.6289C1518.91 97.6289 1521 98.5254 1522.59 100.318C1524.2 102.111 1525 104.496 1525 107.473V107.701C1525 109.553 1524.64 111.217 1523.93 112.693C1523.22 114.158 1522.21 115.301 1520.89 116.121C1519.57 116.941 1518.06 117.352 1516.35 117.352C1513.77 117.352 1511.68 116.455 1510.08 114.662C1508.48 112.869 1507.69 110.496 1507.69 107.543V107.314ZM1510.96 107.701C1510.96 109.811 1511.44 111.504 1512.41 112.781C1513.4 114.059 1514.71 114.697 1516.35 114.697C1518 114.697 1519.32 114.053 1520.29 112.764C1521.26 111.463 1521.75 109.646 1521.75 107.314C1521.75 105.229 1521.25 103.541 1520.25 102.252C1519.27 100.951 1517.96 100.301 1516.32 100.301C1514.71 100.301 1513.42 100.939 1512.43 102.217C1511.45 103.494 1510.96 105.322 1510.96 107.701ZM1538.27 100.898C1537.78 100.816 1537.25 100.775 1536.67 100.775C1534.54 100.775 1533.09 101.684 1532.33 103.5V117H1529.08V97.9805H1532.24L1532.29 100.178C1533.36 98.4785 1534.87 97.6289 1536.83 97.6289C1537.46 97.6289 1537.94 97.7109 1538.27 97.875V100.898ZM1550.72 117V91.4062H1559.08C1561.86 91.4062 1563.95 91.9805 1565.34 93.1289C1566.75 94.2773 1567.45 95.9766 1567.45 98.2266C1567.45 99.4219 1567.11 100.482 1566.43 101.408C1565.75 102.322 1564.83 103.031 1563.65 103.535C1565.04 103.922 1566.13 104.66 1566.92 105.75C1567.73 106.828 1568.14 108.117 1568.14 109.617C1568.14 111.914 1567.39 113.719 1565.9 115.031C1564.42 116.344 1562.31 117 1559.59 117H1550.72ZM1554.09 105.029V114.24H1559.66C1561.23 114.24 1562.47 113.836 1563.37 113.027C1564.29 112.207 1564.74 111.082 1564.74 109.652C1564.74 106.57 1563.07 105.029 1559.72 105.029H1554.09ZM1554.09 102.322H1559.19C1560.67 102.322 1561.84 101.953 1562.72 101.215C1563.61 100.477 1564.06 99.4746 1564.06 98.209C1564.06 96.8027 1563.65 95.7832 1562.83 95.1504C1562.01 94.5059 1560.76 94.1836 1559.08 94.1836H1554.09V102.322Z" fill="black"/>
<rect x="1742" y="242" width="324" height="141" fill="#C4C4C4"/>
<path d="M1813.8 315.879C1813.48 318.586 1812.48 320.678 1810.79 322.154C1809.12 323.619 1806.88 324.352 1804.09 324.352C1801.07 324.352 1798.64 323.268 1796.82 321.1C1795 318.932 1794.09 316.031 1794.09 312.398V309.938C1794.09 307.559 1794.51 305.467 1795.36 303.662C1796.21 301.857 1797.42 300.475 1798.98 299.514C1800.54 298.541 1802.34 298.055 1804.39 298.055C1807.11 298.055 1809.29 298.816 1810.93 300.34C1812.57 301.852 1813.53 303.949 1813.8 306.633H1810.4C1810.11 304.594 1809.47 303.117 1808.49 302.203C1807.52 301.289 1806.15 300.832 1804.39 300.832C1802.24 300.832 1800.54 301.629 1799.31 303.223C1798.09 304.816 1797.48 307.084 1797.48 310.025V312.504C1797.48 315.281 1798.06 317.49 1799.22 319.131C1800.38 320.771 1802.01 321.592 1804.09 321.592C1805.97 321.592 1807.4 321.17 1808.4 320.326C1809.41 319.471 1810.08 317.988 1810.4 315.879H1813.8ZM1824.13 319.236L1828.56 304.98H1832.04L1824.4 326.936C1823.21 330.1 1821.33 331.682 1818.75 331.682L1818.14 331.629L1816.93 331.4V328.764L1817.8 328.834C1818.91 328.834 1819.76 328.611 1820.37 328.166C1820.99 327.721 1821.5 326.906 1821.9 325.723L1822.62 323.789L1815.84 304.98H1819.39L1824.13 319.236ZM1842.34 321.697C1843.5 321.697 1844.52 321.346 1845.38 320.643C1846.25 319.939 1846.73 319.061 1846.83 318.006H1849.9C1849.84 319.096 1849.47 320.133 1848.78 321.117C1848.09 322.102 1847.16 322.887 1846 323.473C1844.85 324.059 1843.63 324.352 1842.34 324.352C1839.75 324.352 1837.69 323.49 1836.16 321.768C1834.63 320.033 1833.87 317.666 1833.87 314.666V314.121C1833.87 312.27 1834.21 310.623 1834.89 309.182C1835.57 307.74 1836.54 306.621 1837.81 305.824C1839.09 305.027 1840.59 304.629 1842.33 304.629C1844.46 304.629 1846.23 305.268 1847.63 306.545C1849.05 307.822 1849.81 309.48 1849.9 311.52H1846.83C1846.73 310.289 1846.26 309.281 1845.42 308.496C1844.59 307.699 1843.56 307.301 1842.33 307.301C1840.67 307.301 1839.39 307.898 1838.48 309.094C1837.57 310.277 1837.12 311.994 1837.12 314.244V314.859C1837.12 317.051 1837.57 318.738 1838.48 319.922C1839.38 321.105 1840.67 321.697 1842.34 321.697ZM1857.09 324H1853.84V297H1857.09V324ZM1870.21 324.352C1867.63 324.352 1865.53 323.508 1863.91 321.82C1862.29 320.121 1861.49 317.854 1861.49 315.018V314.42C1861.49 312.533 1861.84 310.852 1862.56 309.375C1863.29 307.887 1864.29 306.727 1865.58 305.895C1866.88 305.051 1868.29 304.629 1869.8 304.629C1872.27 304.629 1874.2 305.443 1875.57 307.072C1876.94 308.701 1877.62 311.033 1877.62 314.068V315.422H1864.74C1864.79 317.297 1865.33 318.814 1866.37 319.975C1867.43 321.123 1868.76 321.697 1870.38 321.697C1871.53 321.697 1872.5 321.463 1873.3 320.994C1874.1 320.525 1874.79 319.904 1875.39 319.131L1877.38 320.678C1875.78 323.127 1873.39 324.352 1870.21 324.352ZM1869.8 307.301C1868.49 307.301 1867.39 307.781 1866.5 308.742C1865.61 309.691 1865.05 311.027 1864.84 312.75H1874.37V312.504C1874.28 310.852 1873.83 309.574 1873.04 308.672C1872.24 307.758 1871.16 307.301 1869.8 307.301ZM1880.61 314.332C1880.61 311.414 1881.3 309.07 1882.69 307.301C1884.07 305.52 1885.88 304.629 1888.12 304.629C1890.34 304.629 1892.11 305.391 1893.41 306.914V297H1896.66V324H1893.67L1893.51 321.961C1892.21 323.555 1890.4 324.352 1888.08 324.352C1885.88 324.352 1884.08 323.449 1882.69 321.645C1881.3 319.84 1880.61 317.484 1880.61 314.578V314.332ZM1883.86 314.701C1883.86 316.857 1884.31 318.545 1885.2 319.764C1886.09 320.982 1887.32 321.592 1888.89 321.592C1890.95 321.592 1892.46 320.666 1893.41 318.814V310.078C1892.44 308.285 1890.94 307.389 1888.93 307.389C1887.33 307.389 1886.09 308.004 1885.2 309.234C1884.31 310.465 1883.86 312.287 1883.86 314.701ZM1925.28 312.697H1914.54V324H1911.16V298.406H1927.02V301.184H1914.54V309.938H1925.28V312.697ZM1941.7 324C1941.51 323.625 1941.36 322.957 1941.24 321.996C1939.73 323.566 1937.92 324.352 1935.82 324.352C1933.95 324.352 1932.41 323.824 1931.2 322.77C1930.01 321.703 1929.41 320.355 1929.41 318.727C1929.41 316.746 1930.16 315.211 1931.66 314.121C1933.17 313.02 1935.29 312.469 1938.02 312.469H1941.19V310.975C1941.19 309.838 1940.85 308.936 1940.17 308.268C1939.49 307.588 1938.48 307.248 1937.16 307.248C1936 307.248 1935.03 307.541 1934.24 308.127C1933.46 308.713 1933.06 309.422 1933.06 310.254H1929.79C1929.79 309.305 1930.13 308.391 1930.8 307.512C1931.48 306.621 1932.39 305.918 1933.54 305.402C1934.7 304.887 1935.97 304.629 1937.35 304.629C1939.54 304.629 1941.26 305.18 1942.5 306.281C1943.75 307.371 1944.39 308.877 1944.44 310.799V319.553C1944.44 321.299 1944.66 322.688 1945.11 323.719V324H1941.7ZM1936.3 321.521C1937.32 321.521 1938.29 321.258 1939.2 320.73C1940.11 320.203 1940.78 319.518 1941.19 318.674V314.771H1938.64C1934.65 314.771 1932.66 315.938 1932.66 318.27C1932.66 319.289 1933 320.086 1933.68 320.66C1934.36 321.234 1935.23 321.521 1936.3 321.521ZM1954.84 315.193L1952.8 317.32V324H1949.55V297H1952.8V313.33L1954.54 311.238L1960.47 304.98H1964.42L1957.02 312.926L1965.29 324H1961.47L1954.84 315.193ZM1975.32 324.352C1972.74 324.352 1970.65 323.508 1969.03 321.82C1967.41 320.121 1966.6 317.854 1966.6 315.018V314.42C1966.6 312.533 1966.96 310.852 1967.68 309.375C1968.4 307.887 1969.41 306.727 1970.7 305.895C1972 305.051 1973.41 304.629 1974.92 304.629C1977.39 304.629 1979.31 305.443 1980.68 307.072C1982.05 308.701 1982.74 311.033 1982.74 314.068V315.422H1969.86C1969.9 317.297 1970.45 318.814 1971.49 319.975C1972.54 321.123 1973.88 321.697 1975.5 321.697C1976.65 321.697 1977.62 321.463 1978.42 320.994C1979.21 320.525 1979.91 319.904 1980.51 319.131L1982.49 320.678C1980.9 323.127 1978.51 324.352 1975.32 324.352ZM1974.92 307.301C1973.61 307.301 1972.5 307.781 1971.61 308.742C1970.72 309.691 1970.17 311.027 1969.96 312.75H1979.49V312.504C1979.39 310.852 1978.95 309.574 1978.15 308.672C1977.36 307.758 1976.28 307.301 1974.92 307.301ZM1995.96 324V298.406H2004.33C2007.1 298.406 2009.19 298.98 2010.58 300.129C2011.99 301.277 2012.69 302.977 2012.69 305.227C2012.69 306.422 2012.35 307.482 2011.67 308.408C2010.99 309.322 2010.07 310.031 2008.9 310.535C2010.28 310.922 2011.37 311.66 2012.17 312.75C2012.97 313.828 2013.38 315.117 2013.38 316.617C2013.38 318.914 2012.63 320.719 2011.15 322.031C2009.66 323.344 2007.55 324 2004.84 324H1995.96ZM1999.33 312.029V321.24H2004.91C2006.48 321.24 2007.71 320.836 2008.62 320.027C2009.53 319.207 2009.99 318.082 2009.99 316.652C2009.99 313.57 2008.31 312.029 2004.96 312.029H1999.33ZM1999.33 309.322H2004.43C2005.91 309.322 2007.09 308.953 2007.96 308.215C2008.86 307.477 2009.3 306.475 2009.3 305.209C2009.3 303.803 2008.89 302.783 2008.07 302.15C2007.25 301.506 2006 301.184 2004.33 301.184H1999.33V309.322Z" fill="black"/>
<path d="M1741.71 312.707C1742.1 312.317 1742.1 311.683 1741.71 311.293L1735.34 304.929C1734.95 304.538 1734.32 304.538 1733.93 304.929C1733.54 305.319 1733.54 305.953 1733.93 306.343L1739.59 312L1733.93 317.657C1733.54 318.047 1733.54 318.681 1733.93 319.071C1734.32 319.462 1734.95 319.462 1735.34 319.071L1741.71 312.707ZM1641 313H1741V311H1641V313Z" fill="black"/>
<path d="M1315.71 312.707C1316.1 312.317 1316.1 311.683 1315.71 311.293L1309.34 304.929C1308.95 304.538 1308.32 304.538 1307.93 304.929C1307.54 305.319 1307.54 305.953 1307.93 306.343L1313.59 312L1307.93 317.657C1307.54 318.047 1307.54 318.681 1307.93 319.071C1308.32 319.462 1308.95 319.462 1309.34 319.071L1315.71 312.707ZM1215 313H1315V311H1215V313Z" fill="black"/>
<path d="M1315.71 105.707C1316.1 105.317 1316.1 104.683 1315.71 104.293L1309.34 97.9289C1308.95 97.5384 1308.32 97.5384 1307.93 97.9289C1307.54 98.3195 1307.54 98.9526 1307.93 99.3431L1313.59 105L1307.93 110.657C1307.54 111.047 1307.54 111.681 1307.93 112.071C1308.32 112.462 1308.95 112.462 1309.34 112.071L1315.71 105.707ZM1215 106H1315V104H1215V106Z" fill="black"/>
<rect x="1739" y="35" width="324" height="141" fill="#C4C4C4"/>
<path d="M1809.8 108.879C1809.48 111.586 1808.48 113.678 1806.79 115.154C1805.12 116.619 1802.88 117.352 1800.09 117.352C1797.07 117.352 1794.64 116.268 1792.82 114.1C1791 111.932 1790.09 109.031 1790.09 105.398V102.938C1790.09 100.559 1790.51 98.4668 1791.36 96.6621C1792.21 94.8574 1793.42 93.4746 1794.98 92.5137C1796.54 91.541 1798.34 91.0547 1800.39 91.0547C1803.11 91.0547 1805.29 91.8164 1806.93 93.3398C1808.57 94.8516 1809.53 96.9492 1809.8 99.6328H1806.4C1806.11 97.5938 1805.47 96.1172 1804.49 95.2031C1803.52 94.2891 1802.15 93.832 1800.39 93.832C1798.24 93.832 1796.54 94.6289 1795.31 96.2227C1794.09 97.8164 1793.48 100.084 1793.48 103.025V105.504C1793.48 108.281 1794.06 110.49 1795.22 112.131C1796.38 113.771 1798.01 114.592 1800.09 114.592C1801.97 114.592 1803.4 114.17 1804.4 113.326C1805.41 112.471 1806.08 110.988 1806.4 108.879H1809.8ZM1820.13 112.236L1824.56 97.9805H1828.04L1820.4 119.936C1819.21 123.1 1817.33 124.682 1814.75 124.682L1814.14 124.629L1812.93 124.4V121.764L1813.8 121.834C1814.91 121.834 1815.76 121.611 1816.37 121.166C1816.99 120.721 1817.5 119.906 1817.9 118.723L1818.62 116.789L1811.84 97.9805H1815.39L1820.13 112.236ZM1838.34 114.697C1839.5 114.697 1840.52 114.346 1841.38 113.643C1842.25 112.939 1842.73 112.061 1842.83 111.006H1845.9C1845.84 112.096 1845.47 113.133 1844.78 114.117C1844.09 115.102 1843.16 115.887 1842 116.473C1840.85 117.059 1839.63 117.352 1838.34 117.352C1835.75 117.352 1833.69 116.49 1832.16 114.768C1830.63 113.033 1829.87 110.666 1829.87 107.666V107.121C1829.87 105.27 1830.21 103.623 1830.89 102.182C1831.57 100.74 1832.54 99.6211 1833.81 98.8242C1835.09 98.0273 1836.59 97.6289 1838.33 97.6289C1840.46 97.6289 1842.23 98.2676 1843.63 99.5449C1845.05 100.822 1845.81 102.48 1845.9 104.52H1842.83C1842.73 103.289 1842.26 102.281 1841.42 101.496C1840.59 100.699 1839.56 100.301 1838.33 100.301C1836.67 100.301 1835.39 100.898 1834.48 102.094C1833.57 103.277 1833.12 104.994 1833.12 107.244V107.859C1833.12 110.051 1833.57 111.738 1834.48 112.922C1835.38 114.105 1836.67 114.697 1838.34 114.697ZM1853.09 117H1849.84V90H1853.09V117ZM1866.21 117.352C1863.63 117.352 1861.53 116.508 1859.91 114.82C1858.29 113.121 1857.49 110.854 1857.49 108.018V107.42C1857.49 105.533 1857.84 103.852 1858.56 102.375C1859.29 100.887 1860.29 99.7266 1861.58 98.8945C1862.88 98.0508 1864.29 97.6289 1865.8 97.6289C1868.27 97.6289 1870.2 98.4434 1871.57 100.072C1872.94 101.701 1873.62 104.033 1873.62 107.068V108.422H1860.74C1860.79 110.297 1861.33 111.814 1862.37 112.975C1863.43 114.123 1864.76 114.697 1866.38 114.697C1867.53 114.697 1868.5 114.463 1869.3 113.994C1870.1 113.525 1870.79 112.904 1871.39 112.131L1873.38 113.678C1871.78 116.127 1869.39 117.352 1866.21 117.352ZM1865.8 100.301C1864.49 100.301 1863.39 100.781 1862.5 101.742C1861.61 102.691 1861.05 104.027 1860.84 105.75H1870.37V105.504C1870.28 103.852 1869.83 102.574 1869.04 101.672C1868.24 100.758 1867.16 100.301 1865.8 100.301ZM1876.61 107.332C1876.61 104.414 1877.3 102.07 1878.69 100.301C1880.07 98.5195 1881.88 97.6289 1884.12 97.6289C1886.34 97.6289 1888.11 98.3906 1889.41 99.9141V90H1892.66V117H1889.67L1889.51 114.961C1888.21 116.555 1886.4 117.352 1884.08 117.352C1881.88 117.352 1880.08 116.449 1878.69 114.645C1877.3 112.84 1876.61 110.484 1876.61 107.578V107.332ZM1879.86 107.701C1879.86 109.857 1880.31 111.545 1881.2 112.764C1882.09 113.982 1883.32 114.592 1884.89 114.592C1886.95 114.592 1888.46 113.666 1889.41 111.814V103.078C1888.44 101.285 1886.94 100.389 1884.93 100.389C1883.33 100.389 1882.09 101.004 1881.2 102.234C1880.31 103.465 1879.86 105.287 1879.86 107.701ZM1921.28 105.697H1910.54V117H1907.16V91.4062H1923.02V94.1836H1910.54V102.938H1921.28V105.697ZM1937.7 117C1937.51 116.625 1937.36 115.957 1937.24 114.996C1935.73 116.566 1933.92 117.352 1931.82 117.352C1929.95 117.352 1928.41 116.824 1927.2 115.77C1926.01 114.703 1925.41 113.355 1925.41 111.727C1925.41 109.746 1926.16 108.211 1927.66 107.121C1929.17 106.02 1931.29 105.469 1934.02 105.469H1937.19V103.975C1937.19 102.838 1936.85 101.936 1936.17 101.268C1935.49 100.588 1934.48 100.248 1933.16 100.248C1932 100.248 1931.03 100.541 1930.24 101.127C1929.46 101.713 1929.06 102.422 1929.06 103.254H1925.79C1925.79 102.305 1926.13 101.391 1926.8 100.512C1927.48 99.6211 1928.39 98.918 1929.54 98.4023C1930.7 97.8867 1931.97 97.6289 1933.35 97.6289C1935.54 97.6289 1937.26 98.1797 1938.5 99.2812C1939.75 100.371 1940.39 101.877 1940.44 103.799V112.553C1940.44 114.299 1940.66 115.688 1941.11 116.719V117H1937.7ZM1932.3 114.521C1933.32 114.521 1934.29 114.258 1935.2 113.73C1936.11 113.203 1936.78 112.518 1937.19 111.674V107.771H1934.64C1930.65 107.771 1928.66 108.938 1928.66 111.27C1928.66 112.289 1929 113.086 1929.68 113.66C1930.36 114.234 1931.23 114.521 1932.3 114.521ZM1950.84 108.193L1948.8 110.32V117H1945.55V90H1948.8V106.33L1950.54 104.238L1956.47 97.9805H1960.42L1953.02 105.926L1961.29 117H1957.47L1950.84 108.193ZM1971.32 117.352C1968.74 117.352 1966.65 116.508 1965.03 114.82C1963.41 113.121 1962.6 110.854 1962.6 108.018V107.42C1962.6 105.533 1962.96 103.852 1963.68 102.375C1964.4 100.887 1965.41 99.7266 1966.7 98.8945C1968 98.0508 1969.41 97.6289 1970.92 97.6289C1973.39 97.6289 1975.31 98.4434 1976.68 100.072C1978.05 101.701 1978.74 104.033 1978.74 107.068V108.422H1965.86C1965.9 110.297 1966.45 111.814 1967.49 112.975C1968.54 114.123 1969.88 114.697 1971.5 114.697C1972.65 114.697 1973.62 114.463 1974.42 113.994C1975.21 113.525 1975.91 112.904 1976.51 112.131L1978.49 113.678C1976.9 116.127 1974.51 117.352 1971.32 117.352ZM1970.92 100.301C1969.61 100.301 1968.5 100.781 1967.61 101.742C1966.72 102.691 1966.17 104.027 1965.96 105.75H1975.49V105.504C1975.39 103.852 1974.95 102.574 1974.15 101.672C1973.36 100.758 1972.28 100.301 1970.92 100.301ZM2006.09 110.32H1995.37L1992.96 117H1989.48L1999.25 91.4062H2002.21L2012 117H2008.54L2006.09 110.32ZM1996.39 107.543H2005.09L2000.73 95.5723L1996.39 107.543Z" fill="black"/>
<path d="M1738.71 105.707C1739.1 105.317 1739.1 104.683 1738.71 104.293L1732.34 97.9289C1731.95 97.5384 1731.32 97.5384 1730.93 97.9289C1730.54 98.3195 1730.54 98.9526 1730.93 99.3431L1736.59 105L1730.93 110.657C1730.54 111.047 1730.54 111.681 1730.93 112.071C1731.32 112.462 1731.95 112.462 1732.34 112.071L1738.71 105.707ZM1638 106H1738V104H1638V106Z" fill="black"/>
<rect x="42" y="242" width="324" height="141" fill="#C4C4C4"/>
<path d="M166.357 313.646H160.346V324H156.953V298.406H165.426C168.309 298.406 170.523 299.062 172.07 300.375C173.629 301.688 174.408 303.598 174.408 306.105C174.408 307.699 173.975 309.088 173.107 310.271C172.252 311.455 171.057 312.34 169.521 312.926L175.533 323.789V324H171.912L166.357 313.646ZM160.346 310.887H165.531C167.207 310.887 168.537 310.453 169.521 309.586C170.518 308.719 171.016 307.559 171.016 306.105C171.016 304.523 170.541 303.311 169.592 302.467C168.654 301.623 167.295 301.195 165.514 301.184H160.346V310.887ZM186.537 324.352C183.959 324.352 181.861 323.508 180.244 321.82C178.627 320.121 177.818 317.854 177.818 315.018V314.42C177.818 312.533 178.176 310.852 178.891 309.375C179.617 307.887 180.625 306.727 181.914 305.895C183.215 305.051 184.621 304.629 186.133 304.629C188.605 304.629 190.527 305.443 191.898 307.072C193.27 308.701 193.955 311.033 193.955 314.068V315.422H181.07C181.117 317.297 181.662 318.814 182.705 319.975C183.76 321.123 185.096 321.697 186.713 321.697C187.861 321.697 188.834 321.463 189.631 320.994C190.428 320.525 191.125 319.904 191.723 319.131L193.709 320.678C192.115 323.127 189.725 324.352 186.537 324.352ZM186.133 307.301C184.82 307.301 183.719 307.781 182.828 308.742C181.938 309.691 181.387 311.027 181.176 312.75H190.703V312.504C190.609 310.852 190.164 309.574 189.367 308.672C188.57 307.758 187.492 307.301 186.133 307.301ZM209.477 324C209.289 323.625 209.137 322.957 209.02 321.996C207.508 323.566 205.703 324.352 203.605 324.352C201.73 324.352 200.189 323.824 198.982 322.77C197.787 321.703 197.189 320.355 197.189 318.727C197.189 316.746 197.939 315.211 199.439 314.121C200.951 313.02 203.072 312.469 205.803 312.469H208.967V310.975C208.967 309.838 208.627 308.936 207.947 308.268C207.268 307.588 206.266 307.248 204.941 307.248C203.781 307.248 202.809 307.541 202.023 308.127C201.238 308.713 200.846 309.422 200.846 310.254H197.576C197.576 309.305 197.91 308.391 198.578 307.512C199.258 306.621 200.172 305.918 201.32 305.402C202.48 304.887 203.752 304.629 205.135 304.629C207.326 304.629 209.043 305.18 210.285 306.281C211.527 307.371 212.172 308.877 212.219 310.799V319.553C212.219 321.299 212.441 322.688 212.887 323.719V324H209.477ZM204.08 321.521C205.1 321.521 206.066 321.258 206.98 320.73C207.895 320.203 208.557 319.518 208.967 318.674V314.771H206.418C202.434 314.771 200.441 315.938 200.441 318.27C200.441 319.289 200.781 320.086 201.461 320.66C202.141 321.234 203.014 321.521 204.08 321.521ZM220.85 324H217.598V297H220.85V324ZM235.51 324V298.406H243.877C246.654 298.406 248.74 298.98 250.135 300.129C251.541 301.277 252.244 302.977 252.244 305.227C252.244 306.422 251.904 307.482 251.225 308.408C250.545 309.322 249.619 310.031 248.447 310.535C249.83 310.922 250.92 311.66 251.717 312.75C252.525 313.828 252.93 315.117 252.93 316.617C252.93 318.914 252.186 320.719 250.697 322.031C249.209 323.344 247.105 324 244.387 324H235.51ZM238.885 312.029V321.24H244.457C246.027 321.24 247.264 320.836 248.166 320.027C249.08 319.207 249.537 318.082 249.537 316.652C249.537 313.57 247.861 312.029 244.51 312.029H238.885ZM238.885 309.322H243.982C245.459 309.322 246.637 308.953 247.516 308.215C248.406 307.477 248.852 306.475 248.852 305.209C248.852 303.803 248.441 302.783 247.621 302.15C246.801 301.506 245.553 301.184 243.877 301.184H238.885V309.322Z" fill="black"/>
<path d="M466.707 312.707C467.098 312.317 467.098 311.683 466.707 311.293L460.343 304.929C459.953 304.538 459.319 304.538 458.929 304.929C458.538 305.319 458.538 305.953 458.929 306.343L464.586 312L458.929 317.657C458.538 318.047 458.538 318.681 458.929 319.071C459.319 319.462 459.953 319.462 460.343 319.071L466.707 312.707ZM366 313H466V311H366V313Z" fill="black"/>
</svg>
