<svg width="72" height="72" viewBox="0 0 72 72" fill="none" xmlns="http://www.w3.org/2000/svg"><g fill="currentColor"><path d="M68.284 41.29a27.304 27.304 0 003.525-10.558l.004-.036c.122-1.05.187-2.116.187-3.198 0-7.142-2.738-13.656-7.218-18.55a1.407 1.407 0 00-.251-.27 27.581 27.581 0 00-10.591-7.01 1.389 1.389 0 00-.227-.08A27.376 27.376 0 0044.502 0C40.899 0 37.457.698 34.3 1.963c-.086.026-.168.06-.248.101a27.619 27.619 0 00-10.07 7.149c-.09.08-.17.169-.238.268a27.384 27.384 0 00-6.742 18.017 27.634 27.634 0 001.306 8.374L3.538 50.644a1.406 1.406 0 001.988 1.989l13.886-13.885c.387.858.816 1.694 1.286 2.504.043.096.097.187.16.27 3.486 5.855 9.082 10.31 15.732 12.313l-9.906 9.905a1.408 1.408 0 001.99 1.99l11.134-11.136c1.526.264 3.094.402 4.694.402 10.017 0 18.798-5.385 23.606-13.41a1.4 1.4 0 00.176-.297zm-12.168.055l-5.003-7.7 2.66-8.187 6.324-1.42 1.645-.37 7.189 7.383a24.495 24.495 0 01-2.85 8.422l-9.965 1.872zm-18.225-7.7l-5.001 7.696-9.996-1.918a24.507 24.507 0 01-2.838-8.495l7.198-7.261 7.976 1.791 1.773 5.456.888 2.732zM24.033 13.714l1.268 7.928-5.48 5.53a24.543 24.543 0 014.212-13.458zm16.424 18.73l-2.484-7.645 6.503-4.724 6.503 4.725-2.484 7.644h-8.038zm28.728-5.162l-5.51-5.658.974-8.374a24.55 24.55 0 014.536 14.032zm-7.02-17.01l-1.245 10.7-3.026.68-4.898 1.099-7.062-5.13v-7.614l7.632-5.47a24.776 24.776 0 018.598 5.735zM50.21 3.481l-5.769 4.134-6.431-3.935a24.622 24.622 0 016.49-.868c1.966 0 3.877.232 5.71.668zM34.598 4.888l8.472 5.183v7.547l-4.981 3.62-2.08 1.51-7.968-1.788-1.637-10.232a24.796 24.796 0 018.194-5.84zm-9.53 37.815l7.588 1.457 3.865 6.698a24.786 24.786 0 01-11.452-8.155zm15.26 9.125l-5.126-8.885 4.996-7.688h8.607l4.997 7.688-5.125 8.885a24.744 24.744 0 01-8.35 0zm12.155-.97l3.863-6.696 7.558-1.42a24.782 24.782 0 01-11.42 8.116z"/><path d="M19.367 50.644L.412 69.6a1.406 1.406 0 101.989 1.988l18.955-18.955a1.407 1.407 0 00-1.989-1.99zM23.365 67.642c-.37 0-.733.15-.994.412a1.417 1.417 0 00-.413.996 1.41 1.41 0 001.406 1.406 1.41 1.41 0 001.407-1.406c0-.372-.15-.734-.412-.996a1.416 1.416 0 00-.994-.412z"/></g></svg>
