<svg width="64" height="64" viewBox="0 0 72 72" fill="none" xmlns="http://www.w3.org/2000/svg"><g fill="currentColor"><path d="M68.606 31.652c-.374-3-1.627-5.387-2.153-6.283.38-6.239-.857-10.937-3.678-13.968a10.387 10.387 0 00-6.075-3.22c-1.99-4.206-5.374-5.02-7.43-4.822C45.42-.227 41.858-.313 39.51.273A10.305 10.305 0 0036 1.93 10.291 10.291 0 0032.488.273c-2.347-.587-5.908-.501-9.759 3.086-2.058-.199-5.44.616-7.43 4.823a10.383 10.383 0 00-6.074 3.22c-2.823 3.03-4.06 7.728-3.678 13.967-.527.895-1.779 3.284-2.154 6.283-.424 3.398.223 8.19 5.536 12.078-.616 3.634-.033 9.89 5.772 12.967-.24 1.323-.4 3.616.78 5.576.928 1.542 2.46 2.556 4.562 3.02C21.103 66.93 24.76 72 29.323 72h.087c2.447-.035 4.657-1.481 6.59-4.305 1.932 2.823 4.142 4.27 6.588 4.305 4.596.067 8.3-5.06 9.368-6.707 2.101-.464 3.634-1.477 4.562-3.02 1.18-1.96 1.02-4.254.78-5.576 5.805-3.076 6.388-9.333 5.772-12.968 5.314-3.887 5.961-8.679 5.536-12.077zM60.99 42.14c-.44.293-.647.83-.519 1.341.085.34 1.993 8.335-5.112 11.38a1.248 1.248 0 00-.693 1.542c.01.026.85 2.698-.285 4.584-.616 1.023-1.761 1.681-3.401 1.954-.366.061-.685.282-.873.601-.976 1.666-4.202 5.962-7.431 5.962h-.056c-1.942-.03-3.793-1.632-5.5-4.763-.22-.4-.687-.65-1.144-.65-.457 0-.877.249-1.096.65-1.707 3.13-3.558 4.733-5.501 4.763-3.233.052-6.506-4.286-7.488-5.962a1.25 1.25 0 00-.872-.6c-1.635-.273-2.777-.928-3.394-1.945-1.15-1.896-.3-4.571-.292-4.595a1.248 1.248 0 00-.692-1.542c-7.068-3.029-5.194-11.042-5.112-11.38a1.249 1.249 0 00-.518-1.34C1.699 35.932 7.603 26.76 7.857 26.376a1.25 1.25 0 00.207-.781c-.407-5.69.586-9.88 2.95-12.453 2.275-2.474 5.027-2.537 5.135-2.539.51 0 .969-.31 1.159-.784 1.397-3.491 3.64-3.99 4.808-3.99.376 0 .64.052.728.073.425.106.875-.018 1.185-.329 2.54-2.538 5.15-3.514 7.759-2.9 1.997.468 3.296 1.726 3.305 1.735.234.234.552.365.882.365h.048c.33 0 .648-.131.882-.365.013-.013 1.268-1.228 3.211-1.714 2.64-.66 5.283.308 7.854 2.88a1.27 1.27 0 001.173.33c.373-.085 3.701-.7 5.548 3.915.187.468.646.778 1.15.785.116.001 2.869.064 5.143 2.538 2.364 2.573 3.357 6.763 2.95 12.453-.019.276.054.551.207.782.016.024 1.59 2.416 1.987 5.585.517 4.135-1.212 7.56-5.14 10.178z"/><path d="M56.987 8.961a1.25 1.25 0 00-1.579-.79c-7.761 2.588-7.85 9.074-7.85 9.349 0 .686.553 1.24 1.238 1.244h.01c.681 0 1.238-.553 1.247-1.236.003-.203.138-4.986 6.145-6.988a1.248 1.248 0 00.79-1.579zM62.626 42.42a1.248 1.248 0 00-1.75-.235c-2.033 1.55-3.872 2.102-5.462 1.644-2.833-.816-4.26-4.547-4.273-4.585a1.247 1.247 0 00-2.34.867c.074.201 1.864 4.936 5.907 6.112a6.563 6.563 0 001.843.263c1.861 0 3.818-.775 5.84-2.316a1.248 1.248 0 00.235-1.75zM41.524 43.462a1.248 1.248 0 10-1.765 1.764c4.053 4.053 3.212 7.968 3.169 8.154a1.248 1.248 0 002.423.597c.055-.218 1.279-5.41-3.827-10.515zM60.888 31.765a1.25 1.25 0 00-1.597-.748c-.253.09-6.204 2.171-9.365-2.035-1.642-2.185-2.347-4.056-2.914-5.56-.696-1.843-1.352-3.586-3.534-3.766a1.248 1.248 0 00-.205 2.487c.523.043.72.346 1.403 2.16.59 1.564 1.399 3.707 3.255 6.177 2.174 2.895 5.209 3.622 7.71 3.622 2.422 0 4.345-.682 4.503-.74.647-.235.979-.95.744-1.597zM35.976 2.277c-.689 0-1.248.559-1.248 1.248v61.812a1.248 1.248 0 002.496 0V3.525c0-.69-.559-1.248-1.248-1.248z"/><path d="M45.102 13.029a1.23 1.23 0 00-1.266-1.23c-.69.01-1.24.577-1.23 1.266 0 .078.069 7.86-3.823 12.795a1.248 1.248 0 101.96 1.546c4.434-5.623 4.364-14.022 4.359-14.377zM47.64 51.26c-5.502 0-8.076 7.53-8.183 7.851a1.247 1.247 0 002.368.79c.575-1.71 2.74-6.145 5.814-6.145a1.248 1.248 0 000-2.496zM49.045 3.164a1.248 1.248 0 00-1.746.257l-2.994 4.023a1.248 1.248 0 002.002 1.49l2.994-4.024a1.248 1.248 0 00-.256-1.746zM23.494 11.231a4.998 4.998 0 00-4.993 4.992 4.998 4.998 0 004.993 4.993 4.998 4.998 0 004.992-4.993 4.998 4.998 0 00-4.992-4.992zm0 7.489a2.499 2.499 0 01-2.497-2.497 2.499 2.499 0 012.497-2.496 2.499 2.499 0 012.496 2.496 2.5 2.5 0 01-2.496 2.497zM14.757 27.456a4.998 4.998 0 00-4.993 4.992 4.998 4.998 0 004.993 4.993 4.998 4.998 0 004.992-4.993 4.998 4.998 0 00-4.992-4.992zm0 7.489a2.499 2.499 0 01-2.497-2.497 2.499 2.499 0 012.497-2.496 2.499 2.499 0 012.496 2.496 2.499 2.499 0 01-2.496 2.497zM27.238 38.689a4.998 4.998 0 00-4.992 4.992 4.998 4.998 0 004.992 4.992 4.998 4.998 0 004.992-4.992 4.998 4.998 0 00-4.992-4.992zm0 7.489a2.499 2.499 0 01-2.496-2.497 2.499 2.499 0 012.496-2.496 2.499 2.499 0 012.496 2.496 2.5 2.5 0 01-2.496 2.497zM27.238 52.418a4.998 4.998 0 00-4.992 4.992 4.998 4.998 0 004.992 4.993 4.998 4.998 0 004.992-4.993 4.998 4.998 0 00-4.992-4.992zm0 7.489a2.499 2.499 0 01-2.496-2.497 2.499 2.499 0 012.496-2.496 2.499 2.499 0 012.496 2.496 2.5 2.5 0 01-2.496 2.497z"/><path d="M23.494 18.72c-.69 0-1.248.559-1.248 1.248v12.48a1.248 1.248 0 002.495 0v-12.48c0-.69-.558-1.248-1.247-1.248z"/><path d="M27.238 31.2H18.5a1.248 1.248 0 000 2.496h8.736a1.248 1.248 0 000-2.496z"/><path d="M27.238 31.2c-.689 0-1.248.56-1.248 1.248v7.489a1.248 1.248 0 002.496 0v-7.489c0-.689-.56-1.248-1.248-1.248zM27.238 46.178c-.689 0-1.248.559-1.248 1.248v6.24a1.248 1.248 0 002.496 0v-6.24c0-.69-.56-1.248-1.248-1.248z"/></g></svg>
