<svg width="32" height="34" viewBox="0 0 32 34" fill="none" xmlns="http://www.w3.org/2000/svg"><path d="M23.974 21.767c-.287-.288-.942-.784-1.561-1.206.016.083.035.16.057.234.14.48 1.29 2.124 1.96 2.864.196-1.02.074-1.36-.456-1.892zM29.314 14.876a7.165 7.165 0 00-.25-.411c-.604-.926-2-2.601-2.311-2.772-.395-.218-.76-.17-1.265.169-1.416.947-2.275 1.615-2.396 1.863-.197.402-.459 2.101-.582 3.775-.057.782-.09 1.386-.097 1.865.137.104.295.21.478.317.27.16.806.53 1.19.823.79.6 1.152.665 1.804.323.44-.231 1.253-.885 2.385-1.916.95-.866 1.12-1.312 1.103-2.887a15.097 15.097 0 00-.059-1.15zM30.698 14.811l-.087.199c-.262.604-.419 1.286-.812 3.558a.687.687 0 00.014.103c.039.16.287.508.551.773.115.115.202.203.267.279a16.26 16.26 0 00.067-4.912zM6.62 17.32c.383.219 1.009.295 2.298.299l1.538.005.083-.075c-.396-.351-.62-.356-1.187-.428-.592-.075-1.954.039-2.731.199zM18.33 2.333l1.035.395c.575.219 1.774.767 2.665 1.218l1.62.82 1.344-.007a14.869 14.869 0 00-7.166-3.17l.124.202c.108.177.238.362.378.542zM4.073 11.326c.536-.63 1.167-1.512 2.055-2.82.741-1.094 1.085-1.782 1.408-3.014a2.05 2.05 0 00-.115.096c-.518.467-3 4.354-3.224 5.049a2.85 2.85 0 00-.124.69zM4.328 12.746c.003.488.798 2.327 1.446 3.507.345.122.96.057 2.518-.222.66-.118 1.325-.265 1.475-.325.392-.157.862-.79 1.416-1.904.264-.534.739-1.424 1.052-1.979.758-1.338.887-1.681.88-2.336-.008-.626-.421-1.87-.854-2.74-.879-.09-3.59.058-3.912.235-.607.334-1.03.774-1.894 1.97-1.352 1.865-2.13 3.254-2.127 3.794zM21.845 11.48c-.155.22-.197.348-.197 1.67.572.06.997-.086 1.654-.451.4-.223 1.038-.64 1.42-.93.8-.606 1.025-.94 1.078-1.989-.234-.062-.445-.04-.75.025-.805.173-2.93 1.284-3.205 1.675zM21.942 30.598a9.16 9.16 0 01-3.455.979l-.063.45c-.035.243-.061.42-.087.553a14.821 14.821 0 005.855-2.436 3.767 3.767 0 01-.103-.034c-.53-.18-1.027-.068-2.147.488zM3.192 10.574c.226-.248 3.084-4.479 3.7-5.48.193-.31.297-.624.297-.891v-.086a15.733 15.733 0 00-5.663 7.472l.489-.258c.517-.274 1.047-.614 1.177-.757zM12.26 20.208c-.587-.84-1.234-1.538-1.62-1.746-.24-.13-.704-.17-2.106-.18-1.782-.014-1.802-.01-2.08.256a2.653 2.653 0 00-.445.593c-.335.663-1.116 3.043-1.171 3.551.08.206.2.419.37.689.452.72 2.673 3.056 3.492 3.72.128.106.223.17.27.18.554.108 1.742.068 2.362-.073l.066-.016c.255-.066.506-.136.744-.208.412-.307.788-.935 1.32-2.2.414-.984.515-1.345.517-1.832 0-.59-.017-.628-.633-1.347a21.803 21.803 0 01-1.086-1.387zM13.243 7.278c.151.343.27.633.3.732.117.385.329.672.812.955-.326-.744-.707-1.32-1.112-1.687zM23.673 28.1c-.23.09-.478.215-.765.375-.48.267-1.43.712-2.113.99-.682.278-1.44.623-1.682.77-.333.199-.42.222-.521.771.258-.025.518-.065.759-.122.373-.09 1.187-.34 1.809-.557 1.454-.508 1.817-.803 2.513-2.226zM4.854 24.647a17.64 17.64 0 00-.27-.433c-.727-.662-1.296-.98-2.585-1.548l-.473.016a15.732 15.732 0 005.517 7.274v-.862c0-1.397-.087-1.628-1.07-2.817-.282-.34-.786-1.075-1.12-1.63zM20.084 10.537c.798.01.835-.002 2.195-.701.761-.392 1.488-.81 1.616-.932.623-.591.495-1.563-.373-2.838a7.56 7.56 0 00-.568-.76c-1.274-.557-2.76-1.156-3.181-1.267-.859-.228-1.513-.068-3.16.775-1.765.903-2.351 1.443-2.351 2.162 0 .199.28 1.126.621 2.06l.056.152c.574.225 1.348.47 2.4.777 1.534.447 2.102.565 2.745.572zM21.573 21.854c-.486-.139-1.462.064-2.438.505-.4.18-1.31.44-2.072.59-.473.095-.94.197-1.26.276-.24.946-.522 2.371-.522 2.785 0 .583.333.938 1.62 1.727 2.293 1.405 2.245 1.396 3.84.748 1.678-.681 2.031-.863 2.366-1.222.43-.461.727-1.132 1.062-2.415-.712-1.396-1.927-2.804-2.596-2.994z" fill="#fff"/><path d="M28.21 18.942c-1.132 1.032-1.945 1.685-2.385 1.916-.652.343-1.015.277-1.804-.323-.384-.292-.92-.662-1.19-.823a4.95 4.95 0 01-.478-.317c-.39-.296-.607-.585-.69-.91-.055-.21-.113-1.797-.13-3.525-.007-.76-.012-1.337-.013-1.78 0-1.322.042-1.449.197-1.67.276-.391 2.4-1.502 3.205-1.674.305-.065.516-.088.75-.025.313.084.667.32 1.342.817 1.005.74 1.517 1.245 1.765 1.738.191.383.382 1.452.476 2.54.034.39.055.784.059 1.15.017 1.574-.153 2.02-1.104 2.886zm-3.76 4.827c-.043.224-.1.48-.173.778-.036.148-.071.286-.106.42-.334 1.283-.632 1.953-1.062 2.415-.334.358-.687.54-2.366 1.222-1.594.648-1.546.657-3.84-.748-1.286-.79-1.62-1.144-1.62-1.728 0-.413.283-1.839.524-2.785.108-.425.207-.753.269-.85.231-.365 1.015-.916 1.802-1.266.384-.17 1.078-.54 1.542-.822 1.092-.66 1.271-.703 1.864-.432.255.116.691.387 1.148.698.619.422 1.274.918 1.56 1.206.531.532.653.873.458 1.892zM14.159 8.981c-.483-.283-.695-.57-.81-.954-.031-.1-.15-.39-.302-.733a28.64 28.64 0 00-.235-.522c-.536-1.16-.567-1.526-.168-1.973.358-.4 2.807-1.783 3.569-2.013.853-.26 1.452-.156 2.885.494.184.083.356.161.52.237l.076.034c2.08.951 2.75 1.31 3.294 1.927.187.212.36.454.568.761.869 1.276.996 2.247.373 2.839-.127.12-.854.54-1.615.93-1.36.7-1.397.712-2.195.703-.644-.007-1.212-.126-2.745-.573-1.052-.306-1.827-.552-2.4-.776a5.914 5.914 0 01-.815-.38zm-.026 16.084c-.072.38-.15.744-.21 1.007a2.945 2.945 0 01-.108.387.297.297 0 01-.106.09c-.243.15-.868.385-1.616.608-.238.072-.489.142-.744.208-.02.006-.044.01-.067.016-.619.142-1.807.181-2.36.073-.048-.01-.143-.074-.272-.179-.819-.665-3.04-3-3.491-3.721a4.27 4.27 0 01-.37-.688c-.18-.457-.16-.87-.023-1.763.09-.584.21-1.394.266-1.802.12-.87.455-1.463.97-1.715.097-.047.266-.095.48-.138.778-.16 2.139-.274 2.73-.199.567.072.792.077 1.188.428.335.296.793.84 1.686 1.882 2.237 2.611 2.478 3.259 2.047 5.506zM4.31 13.845c-.306-1.053-.434-1.871-.392-2.527a2.85 2.85 0 01.124-.69c.224-.694 2.706-4.58 3.224-5.048.039-.035.076-.067.115-.096.476-.382.926-.415 2.142-.205 1.24.214 1.722.383 2.085.732.162.156.351.46.537.835.433.869.846 2.113.854 2.74.007.654-.122.998-.88 2.335a50.683 50.683 0 00-1.052 1.979c-.554 1.114-1.024 1.747-1.416 1.904-.15.06-.814.207-1.475.325-1.557.279-2.173.344-2.518.222a.665.665 0 01-.204-.114c-.392-.32-.773-1.117-1.144-2.391zm26.095 5.67c-.265-.264-.513-.612-.552-.772a.697.697 0 01-.013-.104c-.016-.223.013-.658.074-1.062.203-1.35.102-3.12-.259-4.577-.299-1.204-.301-1.23-.126-1.738.051-.147.09-.268.116-.375a15.817 15.817 0 00-3.153-4.82c-.456-.476-.94-.922-1.45-1.335l-.456.003-.889.004-1.62-.82c-.89-.45-2.09-1-2.665-1.218l-1.035-.394c-.186-.072-.34-.13-.428-.165a7.754 7.754 0 01-1.033-.548l-.256-.161a14.726 14.726 0 00-9.527 2.713l-.002.086c0 .267-.104.58-.296.891-.617 1.001-3.475 5.232-3.7 5.48-.131.143-.66.483-1.178.757l-.488.258a16.215 16.215 0 00-.961 5.504c0 1.883.322 3.69.911 5.365l.172.075c.14.06.272.117.397.173 1.29.568 1.858.886 2.586 1.548.274.25.57.548.938.926 1.575 1.631 2.537 2.76 2.91 3.42.32.563.717 2.01.735 2.672v.008a14.685 14.685 0 006.543 1.534l.133-.002a14.699 14.699 0 002.472-.23c.026-.133.052-.31.087-.555l.063-.45c.039-.271.07-.48.1-.642.1-.548.188-.572.52-.771.243-.146 1-.492 1.683-.77a23.666 23.666 0 002.112-.99c.288-.16.537-.284.765-.374.689-.27 1.196-.234 2.024.053.253.088.5.166.682.218a15.77 15.77 0 002.78-3.848 15.965 15.965 0 001.55-4.687 5.715 5.715 0 00-.266-.28z" fill="#231F20"/><path d="M16.753 4.853c1.648-.843 2.301-1.004 3.16-.776.422.112 1.907.711 3.181 1.267-.545-.618-1.215-.976-3.295-1.927-.024-.012-.05-.023-.075-.034a115.64 115.64 0 00-.52-.237c-1.433-.65-2.032-.754-2.886-.495-.76.23-3.21 1.613-3.568 2.013-.4.448-.368.813.168 1.974.082.176.162.356.235.522.405.367.786.943 1.112 1.687.214.124.48.249.814.38l-.055-.152c-.342-.934-.622-1.862-.622-2.06 0-.72.587-1.26 2.351-2.162zM5.617 16.197c.06.048.125.087.204.115-.647-1.18-1.442-3.02-1.445-3.508-.003-.54.775-1.928 2.126-3.794.865-1.195 1.288-1.635 1.895-1.97.322-.176 3.032-.324 3.912-.234-.186-.374-.376-.679-.538-.834-.363-.35-.845-.519-2.085-.733-1.216-.21-1.666-.176-2.142.205-.323 1.232-.667 1.92-1.408 3.014-.889 1.309-1.52 2.19-2.055 2.82-.042.656.086 1.474.392 2.528.37 1.275.752 2.072 1.144 2.391zM10.58 17.59l-.083.075-1.539-.005c-1.289-.005-1.914-.08-2.297-.3a2.273 2.273 0 00-.48.139c-.515.252-.85.844-.97 1.715-.056.408-.175 1.218-.266 1.802-.137.893-.157 1.306.023 1.762.055-.509.836-2.888 1.171-3.551.09-.178.29-.445.445-.593.278-.267.298-.27 2.08-.257 1.402.011 1.867.05 2.107.18.385.21 1.032.907 1.62 1.747.248.356.736.98 1.085 1.387.616.719.634.757.633 1.347-.001.487-.103.848-.517 1.832-.533 1.265-.908 1.893-1.32 2.2.749-.223 1.373-.458 1.617-.608a.299.299 0 00.105-.09c.02-.04.059-.183.107-.388.062-.262.14-.627.212-1.006.43-2.248.19-2.895-2.047-5.506-.894-1.043-1.352-1.586-1.687-1.883zM22.415 20.675c-.456-.311-.892-.582-1.147-.698-.593-.27-.773-.229-1.864.432-.464.282-1.158.652-1.542.823-.787.35-1.571.9-1.803 1.265-.061.097-.16.425-.269.85.32-.079.787-.18 1.26-.275.762-.15 1.672-.41 2.072-.59.975-.442 1.952-.644 2.438-.506.669.191 1.884 1.599 2.595 2.995.035-.134.07-.272.106-.42.072-.299.13-.554.172-.778-.67-.74-1.82-2.384-1.96-2.864a2.613 2.613 0 01-.058-.234zM27.133 10.431c-.675-.496-1.03-.733-1.342-.817-.053 1.049-.278 1.383-1.08 1.99-.38.289-1.019.706-1.418.929-.657.365-1.07.476-1.642.415 0 .443-.006 1.055 0 1.815.018 1.729.075 3.315.13 3.525.084.326.3.614.69.91.008-.479.04-1.082.098-1.864.123-1.674.385-3.373.582-3.776.12-.248.98-.915 2.396-1.862.505-.339.87-.388 1.265-.17.311.172 1.707 1.847 2.311 2.772.096.147.179.283.25.411-.093-1.088-.284-2.157-.476-2.54-.247-.493-.759-.997-1.764-1.738z" fill="#F9A50D"/><path d="M29.299 24.299a15.768 15.768 0 01-2.78 3.848c-.182-.052-.43-.13-.682-.218-.829-.287-1.336-.324-2.024-.053-.696 1.423-1.058 1.718-2.513 2.227-.622.217-1.436.466-1.81.556-.24.057-.5.098-.758.123a18 18 0 00-.1.642 9.161 9.161 0 003.455-.979c1.12-.555 1.617-.668 2.147-.488l.103.034a14.709 14.709 0 01-8.327 2.667l-.133.002c-2.34 0-4.56-.551-6.542-1.534v-.007c-.018-.664-.416-2.11-.735-2.674-.374-.659-1.336-1.788-2.911-3.418a21.06 21.06 0 00-.938-.927c.094.147.186.294.27.433.333.555.836 1.29 1.118 1.63.983 1.19 1.07 1.42 1.07 2.817v.863a15.731 15.731 0 01-5.516-7.275l.473-.016-.397-.173-.172-.075a16.139 16.139 0 01-.912-5.365 16.214 16.214 0 01.961-5.504A15.733 15.733 0 017.954 3.53a14.726 14.726 0 018.883-2.28l.256.16c.338.213.803.46 1.033.55.09.033.242.092.429.164-.14-.181-.27-.366-.379-.543l-.124-.202a14.868 14.868 0 017.167 3.17c.51.413.995.86 1.45 1.336a15.82 15.82 0 013.154 4.82 4.57 4.57 0 01-.116.374c-.176.508-.173.534.125 1.739.362 1.457.462 3.226.26 4.576-.062.404-.09.84-.075 1.063.393-2.272.55-2.955.812-3.558l.086-.199a16.244 16.244 0 01-.066 4.912 15.968 15.968 0 01-1.55 4.687zM15.877.772C7.262.772.253 8.024.253 16.94c0 8.914 7.01 16.166 15.624 16.166 8.616 0 15.625-7.252 15.625-16.166 0-8.915-7.01-16.167-15.625-16.167z" fill="#F9A50D"/></svg>
