<svg width="72" height="72" viewBox="0 0 72 72" fill="none" xmlns="http://www.w3.org/2000/svg"><path d="M56.85 44.854c-1.413-2.946-6.468-7.035-11.352-10.986-2.724-2.202-5.298-4.284-6.939-5.925a1.5 1.5 0 00-1.569-.351c-1.01.366-1.635.648-2.127.867-.75.336-1.002.45-2.013.552a1.5 1.5 0 00-1.098.657c-2.12 3.17-4.317 2.9-5.784 2.409-.468-.156-.552-.357-.597-.549-.315-1.317 1.266-4.383 3.315-6.432 4.875-4.878 7.39-6.1 12.7-3.726 6.023 2.694 12.06 4.803 12.12 4.824a1.498 1.498 0 001.91-.924 1.503 1.503 0 00-.924-1.911c-.06-.021-5.976-2.088-11.88-4.731-6.879-3.075-10.653-1.05-16.044 4.344-2.052 2.052-4.839 6.204-4.119 9.249.309 1.296 1.221 2.256 2.577 2.703 3.399 1.122 6.5.048 8.81-3.018.955-.147 1.474-.363 2.254-.714a29.61 29.61 0 011.05-.45c1.716 1.611 4.032 3.486 6.47 5.457 4.41 3.567 9.412 7.611 10.537 9.951.555 1.155-.042 1.908-.447 2.253-.594.51-1.407.672-1.848.363a1.499 1.499 0 00-2.343 1.395c.102.954-.771 1.5-1.149 1.689-.96.486-1.962.402-2.337.054a1.5 1.5 0 00-2.517.957c-.09.984-.82 1.929-1.77 2.298-.46.174-1.125.279-1.722-.267a1.518 1.518 0 00-1.371-.348c-.489.12-.882.474-1.053.945-.057.15-.186.51-1.59.51-1 0-2.796-.675-3.675-1.257-1.053-.693-7.656-5.62-13.359-10.395-.801-.675-2.187-2.121-3.411-3.4-1.086-1.133-2.079-2.162-2.59-2.594a1.493 1.493 0 00-2.114.177 1.502 1.502 0 00.177 2.115c.465.393 1.365 1.344 2.358 2.379 1.338 1.398 2.72 2.844 3.651 3.624 5.586 4.677 12.3 9.726 13.638 10.605 1.104.726 3.483 1.746 5.325 1.746 1.479 0 2.616-.34 3.405-1.002 1.056.41 2.256.414 3.411-.036 1.365-.528 2.487-1.593 3.123-2.883 1.182.252 2.535.075 3.765-.543 1.203-.606 2.073-1.533 2.505-2.616 1.194.063 2.424-.36 3.44-1.233 1.723-1.473 2.197-3.765 1.201-5.832z" fill="currentColor"/><path d="M30 19.999H16.5a1.5 1.5 0 000 3H30a1.5 1.5 0 000-3zM61.245 41.662a1.496 1.496 0 00-2.082-.408L54.777 44.2a1.5 1.5 0 001.674 2.49l4.386-2.946c.687-.462.87-1.395.408-2.082zM51.933 48.82c-1.074-.846-5.877-5.763-8.847-8.859a1.496 1.496 0 00-2.121-.045 1.499 1.499 0 00-.045 2.121c.77.804 7.572 7.893 9.153 9.141.273.216.603.321.927.321.44 0 .882-.198 1.182-.573a1.499 1.499 0 00-.25-2.106zM45.939 51.83c-1.797-1.438-6.312-6.235-7.332-7.345a1.502 1.502 0 00-2.211 2.031c.054.057 5.442 5.874 7.668 7.656a1.508 1.508 0 002.109-.234 1.503 1.503 0 00-.234-2.109zM39.97 54.85c-2.14-1.803-6.517-6.462-7.372-7.377a1.5 1.5 0 00-2.12-.072 1.502 1.502 0 00-.073 2.121c1.23 1.317 5.418 5.757 7.63 7.623a1.496 1.496 0 002.114-.18 1.502 1.502 0 00-.18-2.115z" fill="currentColor"/><path d="M17.532 17.41C14.961 14.974 4.68 14.185 1.59 14.002A1.5 1.5 0 000 15.499v27a1.5 1.5 0 001.5 1.5h9c.648 0 1.224-.417 1.425-1.035.219-.672 5.388-16.536 6.069-24.336a1.493 1.493 0 00-.462-1.218zM9.405 41H3V17.106c4.821.381 10.023 1.209 11.913 2.127-.795 6.57-4.392 18.243-5.508 21.765zM70.5 16.999c-11.778 0-18.312 3.015-18.585 3.141-.39.183-.681.522-.801.933-.12.411-.06.852.165 1.218 1.854 2.985 7.659 19.563 8.775 23.607a1.5 1.5 0 001.446 1.101h9a1.5 1.5 0 001.5-1.5v-27c0-.831-.672-1.5-1.5-1.5zm-1.5 27h-6.378C61.2 39.367 57 27.289 54.657 22.297c2.289-.777 7.206-2.112 14.343-2.28V44z" fill="currentColor"/></svg>
