<svg width="512" height="512" viewBox="0 0 512 512" fill="none" xmlns="http://www.w3.org/2000/svg"><g clip-path="url(#clip0)"><path d="M388.659 332.456c-4.701-4.553-15.431-12.413-25.579-19.1.269 1.316.576 2.539.933 3.706 2.291 7.597 21.134 33.64 32.133 45.354 3.193-16.137 1.202-21.539-7.487-29.96zM476.162 223.33c-1.177-2.033-2.529-4.173-4.1-6.506-9.891-14.659-32.772-41.182-37.873-43.896-6.461-3.449-12.439-2.675-20.721 2.683-23.194 14.996-37.279 25.569-39.257 29.492-3.23 6.375-7.519 33.279-9.534 59.79-.939 12.388-1.472 21.938-1.597 29.523 2.248 1.653 4.846 3.319 7.838 5.028 4.432 2.539 13.209 8.396 19.494 13.024 12.933 9.507 18.88 10.542 29.56 5.115 7.199-3.655 20.527-14.003 39.075-30.34 15.575-13.705 18.367-20.772 18.079-45.711-.056-5.783-.407-12.014-.964-18.202zM498.825 222.311l-1.415 3.144c-4.301 9.562-6.868 20.366-13.303 56.339.05.674.119 1.235.219 1.641.645 2.532 4.708 8.041 9.04 12.239 1.884 1.821 3.305 3.218 4.376 4.416a249.135 249.135 0 0 0 3.618-42.33c0-12.039-.87-23.866-2.535-35.449zM104.334 262.033c6.272 3.469 16.52 4.673 37.641 4.741l25.204.075 1.352-1.191c-6.492-5.558-10.167-5.633-19.45-6.769-9.697-1.185-32.002.612-44.747 3.144zM296.192 24.724c4.877 1.803 11.168 4.13 16.946 6.25 9.422 3.463 29.072 12.146 43.677 19.288l26.543 12.987 22.023-.118c-33.385-26.112-73.575-43.877-117.421-50.196l2.029 3.2c1.777 2.794 3.912 5.726 6.203 8.59zM62.6 167.127c8.77-9.987 19.106-23.941 33.66-44.669 12.152-17.31 17.786-28.214 23.069-47.726-.626.474-1.245.98-1.878 1.535-8.482 7.392-49.154 68.946-52.822 79.944-1.096 3.293-1.76 6.917-2.029 10.916zM66.774 189.606c.05 7.728 13.077 36.846 23.688 55.541 5.647 1.928 15.738.892 41.254-3.524 10.83-1.872 21.71-4.186 24.17-5.14 6.417-2.495 14.117-12.519 23.194-30.16 4.338-8.446 12.107-22.537 17.246-31.326 12.414-21.184 14.53-26.623 14.405-36.997-.119-9.912-6.893-29.617-13.979-43.378-14.405-1.428-58.82.911-64.091 3.718-9.947 5.29-16.877 12.251-31.044 31.177-22.142 29.548-34.893 51.537-34.843 60.089zM353.784 169.568c-2.541 3.487-3.236 5.502-3.224 26.429 9.359.973 16.333-1.347 27.094-7.136 6.542-3.524 17.003-10.136 23.25-14.715 13.128-9.606 16.815-14.896 17.679-31.501-3.838-.992-7.293-.63-12.289.399-13.19 2.733-47.996 20.317-52.51 26.524zM355.371 472.301c-18.843 9.033-35.376 13.605-56.61 15.495-.307 2.121-.651 4.473-1.039 7.117-.564 3.868-.996 6.675-1.415 8.777 35.013-6.07 67.54-19.487 95.929-38.587a61.272 61.272 0 0 1-1.696-.537c-8.689-2.857-16.815-1.066-35.169 7.735zM48.155 155.213c3.706-3.923 50.525-70.924 60.635-86.774 3.149-4.922 4.851-9.88 4.851-14.116 0-.487.007-.93.019-1.36-41.942 28.75-74.67 69.988-92.793 118.319l8-4.086c8.476-4.335 17.153-9.725 19.288-11.983zM196.735 307.774c-9.616-13.311-20.214-24.352-26.53-27.652-3.938-2.059-11.55-2.689-34.518-2.857-29.204-.206-29.523-.162-34.087 4.061-2.529 2.345-5.803 6.568-7.28 9.388-5.503 10.498-18.292 48.181-19.2 56.24 1.321 3.25 3.3 6.624 6.072 10.897 7.4 11.409 43.79 48.399 57.205 58.929 2.104 1.659 3.668 2.682 4.438 2.826 9.071 1.715 28.54 1.091 38.688-1.154.369-.081.751-.163 1.089-.244a341.599 341.599 0 0 0 12.195-3.293c6.748-4.866 12.895-14.803 21.622-34.845 6.773-15.582 8.445-21.289 8.464-29.006.018-9.344-.27-9.942-10.373-21.333-5.716-6.443-13.71-16.324-17.785-21.957zM212.84 103.021c2.479 5.439 4.432 10.018 4.927 11.596 1.897 6.094 5.377 10.635 13.284 15.114-5.34-11.777-11.581-20.89-18.211-26.71zM383.727 432.756c-3.75 1.422-7.831 3.387-12.539 5.925-7.85 4.223-23.419 11.279-34.606 15.676-11.187 4.398-23.594 9.874-27.569 12.189-5.447 3.156-6.88 3.524-8.533 12.213 4.232-.393 8.483-1.035 12.433-1.94 6.116-1.416 19.456-5.364 29.635-8.807 23.838-8.053 29.779-12.719 41.179-35.256zM75.386 378.06a277.834 277.834 0 0 0-4.414-6.856c-11.912-10.479-21.24-15.526-42.361-24.514l-7.744.255c18.016 46.84 49.811 86.899 90.389 115.194v-13.654c0-22.126-1.433-25.775-17.547-44.613-4.614-5.396-12.858-17.017-18.323-25.812zM324.931 154.637c13.077.149 13.672-.031 35.958-11.116 12.47-6.2 24.389-12.831 26.474-14.746 10.21-9.369 8.119-24.752-6.11-44.95-3.424-4.865-6.248-8.696-9.309-12.045-20.865-8.802-45.204-18.283-52.121-20.055-14.067-3.611-24.778-1.066-51.765 12.282-28.915 14.298-38.524 22.843-38.524 34.234 0 3.143 4.582 17.827 10.185 32.624.306.829.607 1.621.907 2.407 9.403 3.556 22.092 7.442 39.326 12.295 25.128 7.08 34.431 8.957 44.979 9.07zM349.324 333.832c-7.956-2.19-23.957 1.011-39.945 7.997-6.548 2.863-21.454 6.974-33.942 9.357-7.75 1.491-15.413 3.106-20.64 4.354-3.938 14.983-8.57 37.551-8.57 44.101 0 9.244 5.459 14.865 26.543 27.353 37.579 22.256 36.79 22.113 62.907 11.852 27.514-10.798 33.292-13.68 38.775-19.356 7.043-7.305 11.92-17.922 17.397-38.238-11.65-22.107-31.563-44.401-42.525-47.42z" fill="#fff"/><path d="M458.068 287.72c-18.549 16.337-31.876 26.685-39.075 30.34-10.68 5.427-16.627 4.392-29.561-5.115-6.285-4.628-15.061-10.485-19.494-13.024-2.992-1.709-5.59-3.375-7.837-5.028-6.398-4.691-9.948-9.257-11.318-14.409-.896-3.337-1.841-28.451-2.116-55.823-.119-12.032-.201-21.17-.207-28.182-.012-20.928.682-22.943 3.224-26.429 4.514-6.207 39.32-23.791 52.51-26.524 4.995-1.029 8.451-1.391 12.288-.399 5.121 1.329 10.924 5.078 21.986 12.943 16.476 11.721 24.865 19.706 28.915 27.522 3.136 6.057 6.267 22.986 7.8 40.215.557 6.188.908 12.419.964 18.202.288 24.939-2.504 32.006-18.079 45.711zm-61.612 76.438c-.695 3.543-1.646 7.591-2.823 12.313a496.579 496.579 0 0 1-1.74 6.656c-5.478 20.317-10.355 30.933-17.397 38.238-5.484 5.676-11.262 8.558-38.775 19.356-26.117 10.261-25.329 10.404-62.908-11.852-21.084-12.488-26.543-18.109-26.543-27.353 0-6.55 4.633-29.118 8.57-44.101 1.772-6.731 3.4-11.933 4.407-13.468 3.794-5.776 16.646-14.496 29.536-20.035 6.291-2.708 17.659-8.565 25.265-13.019 17.885-10.467 20.828-11.134 30.537-6.849 4.182 1.846 11.331 6.132 18.805 11.053 10.148 6.687 20.878 14.547 25.579 19.101 8.689 8.421 10.68 13.823 7.487 29.96zM227.847 129.99c-7.907-4.479-11.387-9.02-13.284-15.114-.495-1.578-2.448-6.157-4.927-11.596a448.894 448.894 0 0 0-3.856-8.265c-8.789-18.377-9.296-24.165-2.754-31.258 5.859-6.331 45.999-28.22 58.469-31.875 13.985-4.098 23.801-2.47 47.282 7.835 3.005 1.316 5.822 2.55 8.52 3.748.407.181.833.362 1.233.543 34.08 15.058 45.048 20.728 53.981 30.516 3.062 3.35 5.885 7.18 9.309 12.045 14.229 20.198 16.32 35.58 6.11 44.95-2.085 1.915-14.004 8.545-26.474 14.746-22.286 11.084-22.881 11.265-35.958 11.115-10.548-.112-19.851-1.989-44.979-9.069-17.234-4.853-29.923-8.739-39.326-12.295-5.49-2.083-9.841-4.048-13.346-6.026zm-.42 254.696c-1.189 6.007-2.454 11.778-3.461 15.938-.795 3.238-1.428 5.496-1.76 6.138-.206.393-.807.88-1.727 1.429-3.994 2.376-14.223 6.088-26.481 9.625a341.536 341.536 0 0 1-12.194 3.293c-.338.081-.72.162-1.09.243-10.147 2.246-29.616 2.87-38.687 1.154-.77-.143-2.335-1.166-4.438-2.825-13.416-10.53-49.806-47.52-57.205-58.929-2.773-4.273-4.752-7.648-6.072-10.897-2.949-7.23-2.61-13.767-.364-27.909 1.478-9.244 3.431-22.081 4.358-28.531 1.971-13.792 7.455-23.174 15.881-27.16 1.603-.754 4.376-1.503 7.869-2.195 12.746-2.533 35.051-4.329 44.748-3.144 9.283 1.135 12.958 1.21 19.45 6.768 5.49 4.697 12.996 13.305 27.632 29.81 36.646 41.345 40.59 51.599 33.541 87.192zM66.474 207.021c-5.014-16.686-7.112-29.642-6.417-40.022.27-3.998.933-7.622 2.029-10.916 3.668-10.997 44.34-72.552 52.822-79.944a33.596 33.596 0 0 1 1.878-1.534c7.807-6.039 15.175-6.569 35.107-3.244 20.308 3.387 28.202 6.076 34.161 11.602 2.655 2.464 5.753 7.292 8.802 13.212 7.087 13.761 13.86 33.466 13.979 43.378.125 10.373-1.991 15.813-14.405 36.996-5.139 8.789-12.908 22.881-17.246 31.327-9.077 17.64-16.777 27.664-23.194 30.159-2.46.955-13.34 3.269-24.17 5.14-25.516 4.417-35.607 5.452-41.254 3.525a11.05 11.05 0 0 1-3.35-1.815c-6.416-5.053-12.67-17.685-18.742-37.864zm427.552 89.787c-4.332-4.198-8.395-9.706-9.039-12.239-.101-.405-.17-.966-.22-1.64-.25-3.531.219-10.424 1.221-16.824 3.318-21.37 1.678-49.39-4.244-72.47-4.896-19.075-4.933-19.481-2.06-27.528.833-2.333 1.465-4.241 1.903-5.938-12.407-28.613-30.029-54.456-51.67-76.32a249.51 249.51 0 0 0-23.764-21.146l-7.468.044-14.555.075-26.543-12.988c-14.604-7.142-34.255-15.825-43.676-19.287-5.778-2.12-12.07-4.448-16.947-6.25-3.061-1.13-5.565-2.065-7.023-2.602-3.763-1.41-11.387-5.32-16.928-8.689l-4.194-2.545a247.8 247.8 0 0 0-15.725-.511c-47.533 0-91.992 13.399-129.816 36.61a246.418 246.418 0 0 0-10.561 6.861c-.012.43-.018.873-.018 1.36 0 4.235-1.703 9.194-4.852 14.116-10.11 15.85-56.93 82.851-60.635 86.774-2.135 2.259-10.812 7.648-19.288 11.983l-8 4.086a247.604 247.604 0 0 0-8.658 28.101 248.57 248.57 0 0 0-7.093 59.054c0 29.823 5.278 58.436 14.937 84.965l2.823 1.179c2.285.96 4.445 1.865 6.498 2.745 21.122 8.988 30.45 14.035 42.362 24.514 4.495 3.949 9.36 8.671 15.369 14.672 25.81 25.824 41.573 43.702 47.696 54.138 5.233 8.932 11.744 31.825 12.032 42.329l.006.119c32.484 15.563 68.842 24.29 107.198 24.29.732 0 1.458-.025 2.185-.031a249.058 249.058 0 0 0 40.502-3.649c.42-2.103.852-4.91 1.415-8.777.388-2.645.733-4.997 1.039-7.117.639-4.305 1.146-7.604 1.634-10.174 1.653-8.69 3.086-9.058 8.533-12.214 3.975-2.314 16.382-7.791 27.569-12.188 11.187-4.398 26.756-11.453 34.606-15.676 4.708-2.539 8.789-4.504 12.539-5.926 11.281-4.292 19.582-3.705 33.16.836 4.138 1.391 8.188 2.632 11.174 3.456a250.156 250.156 0 0 0 45.548-60.944 247.001 247.001 0 0 0 25.404-74.217c-1.071-1.198-2.492-2.595-4.376-4.417" fill="#231F20"/><path d="M270.356 64.621c26.988-13.349 37.699-15.894 51.765-12.282 6.918 1.771 31.257 11.253 52.122 20.054-8.933-9.787-19.901-15.457-53.981-30.515-.401-.18-.826-.362-1.233-.543a1901.768 1901.768 0 0 0-8.52-3.748c-23.482-10.305-33.298-11.934-47.283-7.835-12.47 3.655-52.609 25.544-58.469 31.875-6.542 7.092-6.035 12.881 2.754 31.258a446.946 446.946 0 0 1 3.857 8.265c6.629 5.82 12.87 14.933 18.21 26.71 3.506 1.977 7.857 3.942 13.347 6.026a222.73 222.73 0 0 1-.908-2.408c-5.603-14.796-10.185-29.48-10.185-32.624 0-11.39 9.609-19.936 38.524-34.233zM87.889 244.259a11.05 11.05 0 0 0 3.349 1.815C80.627 227.379 67.6 198.261 67.55 190.532c-.05-8.552 12.701-30.54 34.843-60.089 14.167-18.925 21.097-25.887 31.044-31.177 5.271-2.807 49.686-5.146 64.091-3.717-3.049-5.92-6.148-10.748-8.802-13.212-5.959-5.526-13.853-8.215-34.161-11.602-19.932-3.325-27.3-2.795-35.107 3.243-5.283 19.512-10.917 30.416-23.068 47.726-14.555 20.728-24.89 34.682-33.66 44.669-.695 10.38 1.402 23.336 6.416 40.022 6.072 20.179 12.326 32.811 18.743 37.864zM169.192 266.301l-1.352 1.191-25.203-.074c-21.122-.069-31.37-1.273-37.642-4.741-3.493.692-6.267 1.441-7.87 2.195-8.425 3.986-13.91 13.368-15.881 27.16-.927 6.45-2.88 19.287-4.357 28.531-2.248 14.142-2.585 20.679.363 27.909.908-8.06 13.697-45.742 19.2-56.241 1.477-2.819 4.751-7.042 7.28-9.387 4.564-4.223 4.883-4.267 34.086-4.061 22.969.168 30.581.798 34.518 2.857 6.317 3.299 16.915 14.34 26.531 27.652 4.075 5.633 12.069 15.513 17.785 21.957 10.103 11.39 10.391 11.989 10.373 21.333-.019 7.716-1.691 13.424-8.464 29.006-8.727 20.042-14.874 29.979-21.622 34.845 12.257-3.537 22.486-7.249 26.48-9.625.92-.549 1.521-1.036 1.728-1.429.331-.642.964-2.9 1.759-6.138 1.008-4.16 2.272-9.931 3.462-15.938 7.048-35.593 3.105-45.847-33.542-87.192-14.636-16.505-22.142-25.113-27.632-29.81zM363.123 315.162c-7.474-4.921-14.623-9.207-18.805-11.053-9.71-4.285-12.652-3.618-30.537 6.849-7.606 4.454-18.974 10.311-25.265 13.019-12.89 5.539-25.742 14.259-29.536 20.035-1.008 1.535-2.635 6.737-4.407 13.468 5.227-1.248 12.89-2.863 20.64-4.354 12.489-2.383 27.394-6.494 33.942-9.357 15.988-6.986 31.989-10.186 39.945-7.997 10.962 3.019 30.875 25.313 42.525 47.42.57-2.121 1.146-4.31 1.741-6.656 1.177-4.722 2.128-8.77 2.823-12.313-10.999-11.715-29.842-37.758-32.133-45.355a39.998 39.998 0 0 1-.933-3.706zM440.414 152.957c-11.062-7.866-16.865-11.615-21.985-12.944-.864 16.605-4.551 21.895-17.679 31.501-6.247 4.579-16.708 11.191-23.25 14.716-10.761 5.788-17.534 7.547-26.893 6.568.006 7.017-.113 16.717.006 28.75.275 27.371 1.221 52.485 2.116 55.822 1.371 5.153 4.92 9.719 11.318 14.41.125-7.586.658-17.136 1.597-29.524 2.015-26.511 6.303-53.414 9.534-59.79 1.978-3.923 16.063-14.496 39.257-29.492 8.282-5.358 14.26-6.132 20.721-2.682 5.102 2.713 27.982 29.236 37.873 43.895 1.571 2.333 2.924 4.473 4.1 6.506-1.533-17.228-4.663-34.158-7.8-40.215-4.05-7.816-12.439-15.8-28.915-27.521z" fill="#F9A50D"/><path d="M475.904 372.547a250.156 250.156 0 0 1-45.548 60.944c-2.986-.823-7.036-2.065-11.174-3.456-13.578-4.541-21.879-5.128-33.16-.836-11.4 22.537-17.34 27.203-41.179 35.256-10.179 3.443-23.519 7.392-29.635 8.808-3.95.905-8.201 1.547-12.433 1.94-.488 2.57-.995 5.87-1.634 10.174 21.235-1.89 37.768-6.462 56.61-15.495 18.355-8.801 26.481-10.592 35.17-7.735.619.206 1.177.381 1.696.537-28.389 19.1-60.917 32.517-95.929 38.587a249.08 249.08 0 0 1-40.503 3.649c-.726.006-1.452.031-2.185.031-38.355 0-74.714-8.727-107.198-24.29l-.006-.118c-.288-10.505-6.798-33.398-12.032-42.33-6.122-10.436-21.885-28.314-47.696-54.138-6.01-6.001-10.873-10.723-15.368-14.672a277.834 277.834 0 0 1 4.413 6.856c5.465 8.795 13.71 20.416 18.324 25.812 16.113 18.838 17.547 22.487 17.547 44.613v13.654c-40.578-28.295-72.373-68.354-90.39-115.193l7.744-.256c-2.053-.88-4.213-1.784-6.498-2.745l-2.823-1.179C12.357 314.436 7.08 285.823 7.08 256c0-20.341 2.467-40.116 7.093-59.054a247.666 247.666 0 0 1 8.658-28.101c18.122-48.33 50.85-89.569 92.793-118.319 3.455-2.37 6.98-4.666 10.561-6.861C164.008 20.454 208.467 7.055 256 7.055c5.284 0 10.523.181 15.725.512l4.195 2.544c5.54 3.369 13.165 7.28 16.927 8.69 1.458.536 3.962 1.472 7.024 2.601-2.292-2.863-4.426-5.795-6.204-8.59l-2.028-3.2c43.845 6.32 84.035 24.085 117.42 50.196a249.376 249.376 0 0 1 23.763 21.146c21.642 21.864 39.264 47.707 51.671 76.32-.438 1.697-1.07 3.606-1.903 5.939-2.873 8.046-2.836 8.452 2.06 27.527 5.922 23.08 7.562 51.1 4.244 72.471-1.002 6.4-1.471 13.293-1.221 16.823 6.436-35.973 9.002-46.777 13.303-56.34l1.415-3.143A248.946 248.946 0 0 1 504.926 256c0 14.422-1.246 28.563-3.618 42.33a246.982 246.982 0 0 1-25.404 74.217zM256 0C114.848 0 0 114.838 0 256s114.848 256 256 256c141.159 0 256-114.838 256-256S397.159 0 256 0z" fill="#F9A50D"/></g><defs><clipPath id="clip0"><path fill="#fff" d="M0 0h512v512H0z"/></clipPath></defs></svg>
