<svg width="831" height="529" viewBox="0 0 831 529" fill="none" xmlns="http://www.w3.org/2000/svg">
<rect width="831" height="529" fill="#3B8A2E"/>
<path d="M781.686 187.656C783.549 187.656 785.225 188.02 786.713 188.746C788.201 189.484 789.35 190.504 790.158 191.805C790.967 193.117 791.371 194.611 791.371 196.287C791.371 198.877 790.475 200.969 788.682 202.562C786.889 204.168 784.504 204.971 781.527 204.971H781.299C779.447 204.971 777.783 204.613 776.307 203.898C774.842 203.195 773.699 202.182 772.879 200.857C772.059 199.545 771.648 198.033 771.648 196.322C771.648 193.744 772.545 191.652 774.338 190.047C776.131 188.453 778.504 187.656 781.457 187.656H781.686ZM781.299 190.926C779.189 190.926 777.496 191.412 776.219 192.385C774.941 193.369 774.303 194.682 774.303 196.322C774.303 197.975 774.947 199.287 776.236 200.26C777.537 201.232 779.354 201.719 781.686 201.719C783.771 201.719 785.459 201.221 786.748 200.225C788.049 199.24 788.699 197.928 788.699 196.287C788.699 194.682 788.061 193.387 786.783 192.402C785.506 191.418 783.678 190.926 781.299 190.926ZM781.299 225.115C778.404 225.115 776.072 224.453 774.303 223.129C772.533 221.805 771.648 220.012 771.648 217.75C771.648 215.441 772.381 213.625 773.846 212.301H764.688V209.049H791.02V212.02L788.91 212.178C790.551 213.502 791.371 215.342 791.371 217.697C791.371 219.982 790.51 221.787 788.787 223.111C787.064 224.447 784.668 225.115 781.598 225.115H781.299ZM781.668 221.863C783.812 221.863 785.506 221.406 786.748 220.492C787.99 219.578 788.611 218.324 788.611 216.73C788.611 214.762 787.738 213.285 785.992 212.301H776.904C775.17 213.273 774.303 214.762 774.303 216.766C774.303 218.324 774.918 219.561 776.148 220.475C777.391 221.4 779.23 221.863 781.668 221.863ZM781.299 245.33C778.404 245.33 776.072 244.668 774.303 243.344C772.533 242.02 771.648 240.227 771.648 237.965C771.648 235.656 772.381 233.84 773.846 232.516H764.688V229.264H791.02V232.234L788.91 232.393C790.551 233.717 791.371 235.557 791.371 237.912C791.371 240.197 790.51 242.002 788.787 243.326C787.064 244.662 784.668 245.33 781.598 245.33H781.299ZM781.668 242.078C783.812 242.078 785.506 241.621 786.748 240.707C787.99 239.793 788.611 238.539 788.611 236.945C788.611 234.977 787.738 233.5 785.992 232.516H776.904C775.17 233.488 774.303 234.977 774.303 236.98C774.303 238.539 774.918 239.775 776.148 240.689C777.391 241.615 779.23 242.078 781.668 242.078ZM781.686 248.617C783.549 248.617 785.225 248.98 786.713 249.707C788.201 250.445 789.35 251.465 790.158 252.766C790.967 254.078 791.371 255.572 791.371 257.248C791.371 259.838 790.475 261.93 788.682 263.523C786.889 265.129 784.504 265.932 781.527 265.932H781.299C779.447 265.932 777.783 265.574 776.307 264.859C774.842 264.156 773.699 263.143 772.879 261.818C772.059 260.506 771.648 258.994 771.648 257.283C771.648 254.705 772.545 252.613 774.338 251.008C776.131 249.414 778.504 248.617 781.457 248.617H781.686ZM781.299 251.887C779.189 251.887 777.496 252.373 776.219 253.346C774.941 254.33 774.303 255.643 774.303 257.283C774.303 258.936 774.947 260.248 776.236 261.221C777.537 262.193 779.354 262.68 781.686 262.68C783.771 262.68 785.459 262.182 786.748 261.186C788.049 260.201 788.699 258.889 788.699 257.248C788.699 255.643 788.061 254.348 786.783 253.363C785.506 252.379 783.678 251.887 781.299 251.887ZM791.02 273.086L788.629 273.191C790.457 274.645 791.371 276.543 791.371 278.887C791.371 282.906 789.104 284.934 784.568 284.969H772V281.717H784.586C785.957 281.705 786.971 281.389 787.627 280.768C788.283 280.158 788.611 279.203 788.611 277.902C788.611 276.848 788.33 275.922 787.768 275.125C787.205 274.328 786.467 273.707 785.553 273.262H772V270.01H791.02V273.086ZM771.648 297.766C771.648 295.188 772.492 293.09 774.18 291.473C775.879 289.855 778.146 289.047 780.982 289.047H781.58C783.467 289.047 785.148 289.404 786.625 290.119C788.113 290.846 789.273 291.854 790.105 293.143C790.949 294.443 791.371 295.85 791.371 297.361C791.371 299.834 790.557 301.756 788.928 303.127C787.299 304.498 784.967 305.184 781.932 305.184H780.578V292.299C778.703 292.346 777.186 292.891 776.025 293.934C774.877 294.988 774.303 296.324 774.303 297.941C774.303 299.09 774.537 300.062 775.006 300.859C775.475 301.656 776.096 302.354 776.869 302.951L775.322 304.938C772.873 303.344 771.648 300.953 771.648 297.766ZM788.699 297.361C788.699 296.049 788.219 294.947 787.258 294.057C786.309 293.166 784.973 292.615 783.25 292.404V301.932H783.496C785.148 301.838 786.426 301.393 787.328 300.596C788.242 299.799 788.699 298.721 788.699 297.361ZM791.02 312.039L788.629 312.145C790.457 313.598 791.371 315.496 791.371 317.84C791.371 321.859 789.104 323.887 784.568 323.922H772V320.67H784.586C785.957 320.658 786.971 320.342 787.627 319.721C788.283 319.111 788.611 318.156 788.611 316.855C788.611 315.801 788.33 314.875 787.768 314.078C787.205 313.281 786.467 312.66 785.553 312.215H772V308.963H791.02V312.039ZM795.625 333.238H791.02V336.789H788.506V333.238H776.711C775.949 333.238 775.375 333.396 774.988 333.713C774.613 334.029 774.426 334.568 774.426 335.33C774.426 335.705 774.496 336.221 774.637 336.877H772C771.766 336.021 771.648 335.189 771.648 334.381C771.648 332.928 772.088 331.832 772.967 331.094C773.846 330.355 775.094 329.986 776.711 329.986H788.506V326.523H791.02V329.986H795.625V333.238ZM790.387 340.832L791.652 338.986C793.176 340.076 794.781 340.639 796.469 340.674H799V343.891H796.715C795.543 343.879 794.371 343.586 793.199 343.012C792.039 342.449 791.102 341.723 790.387 340.832ZM777.045 356.916C777.924 356.916 778.604 356.582 779.084 355.914C779.576 355.258 779.998 354.104 780.35 352.451C780.701 350.811 781.123 349.504 781.615 348.531C782.107 347.57 782.693 346.855 783.373 346.387C784.053 345.93 784.861 345.701 785.799 345.701C787.357 345.701 788.676 346.357 789.754 347.67C790.832 348.994 791.371 350.682 791.371 352.732C791.371 354.889 790.814 356.635 789.701 357.971C788.588 359.318 787.164 359.992 785.43 359.992V356.723C786.32 356.723 787.088 356.342 787.732 355.58C788.377 354.83 788.699 353.881 788.699 352.732C788.699 351.549 788.441 350.623 787.926 349.955C787.41 349.287 786.736 348.953 785.904 348.953C785.119 348.953 784.527 349.264 784.129 349.885C783.73 350.506 783.35 351.625 782.986 353.242C782.623 354.871 782.189 356.189 781.686 357.197C781.182 358.205 780.572 358.949 779.857 359.43C779.154 359.922 778.293 360.168 777.273 360.168C775.574 360.168 774.209 359.488 773.178 358.129C772.158 356.77 771.648 355.006 771.648 352.838C771.648 351.314 771.918 349.967 772.457 348.795C772.996 347.623 773.746 346.703 774.707 346.035C775.68 345.379 776.729 345.051 777.854 345.051V348.303C776.764 348.361 775.896 348.795 775.252 349.604C774.619 350.424 774.303 351.502 774.303 352.838C774.303 354.068 774.549 355.053 775.041 355.791C775.545 356.541 776.213 356.916 777.045 356.916ZM739.668 245.611C742.633 245.611 744.988 246.297 746.734 247.668C748.492 249.039 749.371 250.855 749.371 253.117C749.371 255.438 748.551 257.248 746.91 258.549L749.02 258.707V261.678H730.457C727.996 261.678 726.057 260.945 724.639 259.48C723.221 258.027 722.512 256.07 722.512 253.609C722.512 252.238 722.805 250.896 723.391 249.584C723.977 248.271 724.779 247.27 725.799 246.578L727.75 248.266C726.027 249.66 725.166 251.365 725.166 253.381C725.166 254.963 725.611 256.193 726.502 257.072C727.393 257.963 728.646 258.408 730.264 258.408H731.898C730.398 257.107 729.648 255.332 729.648 253.082C729.648 250.855 730.545 249.051 732.338 247.668C734.131 246.297 736.574 245.611 739.668 245.611ZM739.299 248.881C737.154 248.881 735.467 249.32 734.236 250.199C733.018 251.078 732.408 252.309 732.408 253.891C732.408 255.941 733.34 257.447 735.203 258.408H743.887C745.703 257.412 746.611 255.918 746.611 253.926C746.611 252.344 745.996 251.107 744.766 250.217C743.535 249.326 741.713 248.881 739.299 248.881ZM739.686 265.738C741.549 265.738 743.225 266.102 744.713 266.828C746.201 267.566 747.35 268.586 748.158 269.887C748.967 271.199 749.371 272.693 749.371 274.369C749.371 276.959 748.475 279.051 746.682 280.645C744.889 282.25 742.504 283.053 739.527 283.053H739.299C737.447 283.053 735.783 282.695 734.307 281.98C732.842 281.277 731.699 280.264 730.879 278.939C730.059 277.627 729.648 276.115 729.648 274.404C729.648 271.826 730.545 269.734 732.338 268.129C734.131 266.535 736.504 265.738 739.457 265.738H739.686ZM739.299 269.008C737.189 269.008 735.496 269.494 734.219 270.467C732.941 271.451 732.303 272.764 732.303 274.404C732.303 276.057 732.947 277.369 734.236 278.342C735.537 279.314 737.354 279.801 739.686 279.801C741.771 279.801 743.459 279.303 744.748 278.307C746.049 277.322 746.699 276.01 746.699 274.369C746.699 272.764 746.061 271.469 744.783 270.484C743.506 269.5 741.678 269.008 739.299 269.008ZM730 298.873C730.375 298.686 731.043 298.533 732.004 298.416C730.434 296.904 729.648 295.1 729.648 293.002C729.648 291.127 730.176 289.586 731.23 288.379C732.297 287.184 733.645 286.586 735.273 286.586C737.254 286.586 738.789 287.336 739.879 288.836C740.98 290.348 741.531 292.469 741.531 295.199V298.363H743.025C744.162 298.363 745.064 298.023 745.732 297.344C746.412 296.664 746.752 295.662 746.752 294.338C746.752 293.178 746.459 292.205 745.873 291.42C745.287 290.635 744.578 290.242 743.746 290.242V286.973C744.695 286.973 745.609 287.307 746.488 287.975C747.379 288.654 748.082 289.568 748.598 290.717C749.113 291.877 749.371 293.148 749.371 294.531C749.371 296.723 748.82 298.439 747.719 299.682C746.629 300.924 745.123 301.568 743.201 301.615H734.447C732.701 301.615 731.312 301.838 730.281 302.283H730V298.873ZM732.479 293.477C732.479 294.496 732.742 295.463 733.27 296.377C733.797 297.291 734.482 297.953 735.326 298.363H739.229V295.814C739.229 291.83 738.062 289.838 735.73 289.838C734.711 289.838 733.914 290.178 733.34 290.857C732.766 291.537 732.479 292.41 732.479 293.477ZM730 310.246V306.994H757V310.246H730Z" fill="white"/>
<path d="M70.3145 318.4C68.4512 318.4 66.7754 318.037 65.2871 317.311C63.7988 316.572 62.6504 315.553 61.8418 314.252C61.0332 312.939 60.6289 311.445 60.6289 309.77C60.6289 307.18 61.5254 305.088 63.3184 303.494C65.1113 301.889 67.4961 301.086 70.4727 301.086H70.7012C72.5527 301.086 74.2168 301.443 75.6934 302.158C77.1582 302.861 78.3008 303.875 79.1211 305.199C79.9414 306.512 80.3516 308.023 80.3516 309.734C80.3516 312.312 79.4551 314.404 77.6621 316.01C75.8691 317.604 73.4961 318.4 70.543 318.4H70.3145ZM70.7012 315.131C72.8105 315.131 74.5039 314.645 75.7812 313.672C77.0586 312.688 77.6973 311.375 77.6973 309.734C77.6973 308.082 77.0527 306.77 75.7637 305.797C74.4629 304.824 72.6465 304.338 70.3145 304.338C68.2285 304.338 66.541 304.836 65.252 305.832C63.9512 306.816 63.3008 308.129 63.3008 309.77C63.3008 311.375 63.9395 312.67 65.2168 313.654C66.4941 314.639 68.3223 315.131 70.7012 315.131ZM78.1191 285.266C79.6074 286.531 80.3516 288.389 80.3516 290.838C80.3516 292.865 79.7656 294.412 78.5938 295.479C77.4102 296.533 75.6641 297.066 73.3555 297.078H60.9805V293.826H73.2676C76.1504 293.826 77.5918 292.654 77.5918 290.311C77.5918 287.826 76.666 286.174 74.8145 285.354H60.9805V282.102H80V285.195L78.1191 285.266ZM63.8984 267.951C63.8164 268.443 63.7754 268.977 63.7754 269.551C63.7754 271.684 64.6836 273.131 66.5 273.893H80V277.145H60.9805V273.98L63.1777 273.928C61.4785 272.861 60.6289 271.35 60.6289 269.393C60.6289 268.76 60.7109 268.279 60.875 267.951H63.8984ZM70.332 256.789C67.3672 256.789 65.0117 256.104 63.2656 254.732C61.5078 253.361 60.6289 251.545 60.6289 249.283C60.6289 246.963 61.4492 245.152 63.0898 243.852L60.9805 243.693V240.723H79.543C82.0039 240.723 83.9434 241.455 85.3613 242.92C86.7793 244.373 87.4883 246.33 87.4883 248.791C87.4883 250.162 87.1953 251.504 86.6094 252.816C86.0234 254.129 85.2207 255.131 84.2012 255.822L82.25 254.135C83.9727 252.74 84.834 251.035 84.834 249.02C84.834 247.438 84.3887 246.207 83.498 245.328C82.6074 244.438 81.3535 243.992 79.7363 243.992H78.1016C79.6016 245.293 80.3516 247.068 80.3516 249.318C80.3516 251.545 79.4551 253.35 77.6621 254.732C75.8691 256.104 73.4258 256.789 70.332 256.789ZM70.7012 253.52C72.8457 253.52 74.5332 253.08 75.7637 252.201C76.9824 251.322 77.5918 250.092 77.5918 248.51C77.5918 246.459 76.6602 244.953 74.7969 243.992H66.1133C64.2969 244.988 63.3887 246.482 63.3887 248.475C63.3887 250.057 64.0039 251.293 65.2344 252.184C66.4648 253.074 68.2871 253.52 70.7012 253.52ZM70.3145 236.662C68.4512 236.662 66.7754 236.299 65.2871 235.572C63.7988 234.834 62.6504 233.814 61.8418 232.514C61.0332 231.201 60.6289 229.707 60.6289 228.031C60.6289 225.441 61.5254 223.35 63.3184 221.756C65.1113 220.15 67.4961 219.348 70.4727 219.348H70.7012C72.5527 219.348 74.2168 219.705 75.6934 220.42C77.1582 221.123 78.3008 222.137 79.1211 223.461C79.9414 224.773 80.3516 226.285 80.3516 227.996C80.3516 230.574 79.4551 232.666 77.6621 234.271C75.8691 235.865 73.4961 236.662 70.543 236.662H70.3145ZM70.7012 233.393C72.8105 233.393 74.5039 232.906 75.7812 231.934C77.0586 230.949 77.6973 229.637 77.6973 227.996C77.6973 226.344 77.0527 225.031 75.7637 224.059C74.4629 223.086 72.6465 222.6 70.3145 222.6C68.2285 222.6 66.541 223.098 65.252 224.094C63.9512 225.078 63.3008 226.391 63.3008 228.031C63.3008 229.637 63.9395 230.932 65.2168 231.916C66.4941 232.9 68.3223 233.393 70.7012 233.393ZM80 203.527C79.625 203.715 78.957 203.867 77.9961 203.984C79.5664 205.496 80.3516 207.301 80.3516 209.398C80.3516 211.273 79.8242 212.814 78.7695 214.021C77.7031 215.217 76.3555 215.814 74.7266 215.814C72.7461 215.814 71.2109 215.064 70.1211 213.564C69.0195 212.053 68.4688 209.932 68.4688 207.201V204.037H66.9746C65.8379 204.037 64.9355 204.377 64.2676 205.057C63.5879 205.736 63.248 206.738 63.248 208.062C63.248 209.223 63.541 210.195 64.127 210.98C64.7129 211.766 65.4219 212.158 66.2539 212.158V215.428C65.3047 215.428 64.3906 215.094 63.5117 214.426C62.6211 213.746 61.918 212.832 61.4023 211.684C60.8867 210.523 60.6289 209.252 60.6289 207.869C60.6289 205.678 61.1797 203.961 62.2813 202.719C63.3711 201.477 64.877 200.832 66.7988 200.785H75.5527C77.2988 200.785 78.6875 200.562 79.7188 200.117H80V203.527ZM77.5215 208.924C77.5215 207.904 77.2578 206.938 76.7305 206.023C76.2031 205.109 75.5176 204.447 74.6738 204.037H70.7715V206.586C70.7715 210.57 71.9375 212.562 74.2695 212.562C75.2891 212.562 76.0859 212.223 76.6602 211.543C77.2344 210.863 77.5215 209.99 77.5215 208.924ZM80 192.154V195.406H53V192.154H80Z" fill="white"/>
<path d="M334.707 265.707C335.098 265.317 335.098 264.683 334.707 264.293L328.343 257.929C327.953 257.538 327.319 257.538 326.929 257.929C326.538 258.319 326.538 258.953 326.929 259.343L332.586 265L326.929 270.657C326.538 271.047 326.538 271.681 326.929 272.071C327.319 272.462 327.953 272.462 328.343 272.071L334.707 265.707ZM225 266H334V264H225V266Z" fill="#D4F700"/>
<path d="M224.627 155.287C224.235 154.899 223.601 154.902 223.213 155.295L216.882 161.692C216.494 162.084 216.497 162.717 216.89 163.106C217.282 163.494 217.915 163.491 218.304 163.099L223.931 157.412L229.617 163.039C230.01 163.428 230.643 163.425 231.032 163.032C231.42 162.64 231.417 162.006 231.024 161.618L224.627 155.287ZM225.462 258.995L224.924 155.993L222.924 156.003L223.462 259.005L225.462 258.995Z" fill="#D4F700"/>
<path d="M206.342 154.618L208.557 147.49H210.297L206.474 158.468C205.882 160.05 204.941 160.841 203.652 160.841L203.345 160.814L202.738 160.7V159.382L203.178 159.417C203.729 159.417 204.156 159.306 204.461 159.083C204.771 158.86 205.026 158.453 205.226 157.861L205.586 156.895L202.193 147.49H203.969L206.342 154.618Z" fill="#D4F700"/>
<path d="M320.421 248.962L322.53 245.49H324.429L321.317 250.192L324.525 255H322.645L320.447 251.44L318.25 255H316.36L319.568 250.192L316.457 245.49H318.338L320.421 248.962Z" fill="#D4F700"/>
<path d="M207.179 285.823H204.173V291H202.477V278.203H206.713C208.154 278.203 209.262 278.531 210.035 279.188C210.814 279.844 211.204 280.799 211.204 282.053C211.204 282.85 210.987 283.544 210.554 284.136C210.126 284.728 209.528 285.17 208.761 285.463L211.767 290.895V291H209.956L207.179 285.823ZM204.173 284.443H206.766C207.604 284.443 208.269 284.227 208.761 283.793C209.259 283.359 209.508 282.779 209.508 282.053C209.508 281.262 209.271 280.655 208.796 280.233C208.327 279.812 207.647 279.598 206.757 279.592H204.173V284.443ZM212.892 286.157C212.892 285.226 213.073 284.388 213.437 283.644C213.806 282.899 214.315 282.325 214.966 281.921C215.622 281.517 216.369 281.314 217.207 281.314C218.502 281.314 219.548 281.763 220.345 282.659C221.147 283.556 221.549 284.748 221.549 286.236V286.351C221.549 287.276 221.37 288.108 221.013 288.847C220.661 289.579 220.154 290.15 219.492 290.561C218.836 290.971 218.08 291.176 217.225 291.176C215.936 291.176 214.89 290.728 214.087 289.831C213.29 288.935 212.892 287.748 212.892 286.271V286.157ZM214.526 286.351C214.526 287.405 214.77 288.252 215.256 288.891C215.748 289.529 216.404 289.849 217.225 289.849C218.051 289.849 218.707 289.526 219.193 288.882C219.68 288.231 219.923 287.323 219.923 286.157C219.923 285.114 219.674 284.271 219.176 283.626C218.684 282.976 218.027 282.65 217.207 282.65C216.404 282.65 215.757 282.97 215.265 283.608C214.772 284.247 214.526 285.161 214.526 286.351ZM231.639 286.351C231.639 287.804 231.305 288.973 230.637 289.857C229.969 290.736 229.072 291.176 227.947 291.176C226.746 291.176 225.817 290.751 225.161 289.901L225.082 291H223.588V277.5H225.214V282.536C225.87 281.722 226.775 281.314 227.93 281.314C229.084 281.314 229.989 281.751 230.646 282.624C231.308 283.497 231.639 284.692 231.639 286.21V286.351ZM230.013 286.166C230.013 285.059 229.799 284.203 229.371 283.6C228.943 282.996 228.328 282.694 227.525 282.694C226.453 282.694 225.683 283.192 225.214 284.188V288.302C225.712 289.298 226.488 289.796 227.543 289.796C228.322 289.796 228.929 289.494 229.362 288.891C229.796 288.287 230.013 287.379 230.013 286.166ZM233.265 286.157C233.265 285.226 233.446 284.388 233.81 283.644C234.179 282.899 234.688 282.325 235.339 281.921C235.995 281.517 236.742 281.314 237.58 281.314C238.875 281.314 239.921 281.763 240.718 282.659C241.521 283.556 241.922 284.748 241.922 286.236V286.351C241.922 287.276 241.743 288.108 241.386 288.847C241.034 289.579 240.527 290.15 239.865 290.561C239.209 290.971 238.453 291.176 237.598 291.176C236.309 291.176 235.263 290.728 234.46 289.831C233.663 288.935 233.265 287.748 233.265 286.271V286.157ZM234.899 286.351C234.899 287.405 235.143 288.252 235.629 288.891C236.121 289.529 236.777 289.849 237.598 289.849C238.424 289.849 239.08 289.526 239.566 288.882C240.053 288.231 240.296 287.323 240.296 286.157C240.296 285.114 240.047 284.271 239.549 283.626C239.057 282.976 238.4 282.65 237.58 282.65C236.777 282.65 236.13 282.97 235.638 283.608C235.146 284.247 234.899 285.161 234.899 286.351ZM246.167 279.188V281.49H247.942V282.747H246.167V288.645C246.167 289.025 246.246 289.312 246.404 289.506C246.562 289.693 246.832 289.787 247.213 289.787C247.4 289.787 247.658 289.752 247.986 289.682V291C247.559 291.117 247.143 291.176 246.738 291.176C246.012 291.176 245.464 290.956 245.095 290.517C244.726 290.077 244.541 289.453 244.541 288.645V282.747H242.81V281.49H244.541V279.188H246.167Z" fill="black"/>
<line x1="22" y1="20" x2="809.001" y2="20" stroke="white"/>
<line x1="22" y1="499.5" x2="809.001" y2="499.5" stroke="white"/>
<line x1="22.5" y1="20" x2="22.5" y2="500" stroke="white"/>
<line x1="808.5" y1="20" x2="808.5" y2="500" stroke="white"/>
<path d="M415 20L415 500" stroke="#FCFCFC"/>
<circle cx="415" cy="265" r="74.5" stroke="white"/>
<rect x="22.5" y="129.5" width="91" height="270" stroke="white"/>
<rect x="717.5" y="129.5" width="91" height="270" stroke="white"/>
<rect x="214" y="255" width="20" height="20" fill="black"/>
</svg>
