<svg width="460" height="276" viewBox="0 0 460 276" fill="none" xmlns="http://www.w3.org/2000/svg">
  <path d="M230 275c125.921 0 228-61.113 228-136.5S355.921 2 230 2 2 63.113 2 138.5 104.079 275 230 275z" stroke="#000"/>
  <path d="M157.736 164.385l22.528-13.2" stroke="#000" stroke-miterlimit="10"/>
  <path d="M154 166.571l3.485-5.387.251 3.201 2.741 1.738-6.477.448zM184 149l-3.485 5.386-.251-3.201-2.741-1.738L184 149z" fill="#000" stroke="#000" stroke-miterlimit="10"/>
  <path d="M168.632 104.52l21.728 14.119" stroke="#000" stroke-miterlimit="10"/>
  <path d="M165 102.156l6.366.703-2.734 1.661-.303 3.241-3.329-5.605zM194 121l-6.373-.7 2.733-1.661.303-3.241L194 121z" fill="#000" stroke="#000" stroke-miterlimit="10"/>
  <path d="M292.466 107.482l-26.031 14.114" stroke="#000" stroke-miterlimit="10"/>
  <path d="M296.893 105.075l-4.333 6.171-.094-3.764-3.057-2.164 7.484-.243zM262 124l4.341-6.168.095 3.764 3.057 2.164L262 124z" fill="#000" stroke="#000" stroke-miterlimit="10"/>
  <path d="M298.11 164.697l-24.054-10.791" stroke="#000" stroke-miterlimit="10"/>
  <path d="M303.165 166.961l-8.799.17 3.744-2.434.367-3.955 4.688 6.219zM269 151.642l8.799-.169-3.743 2.433-.368 3.955-4.688-6.219z" fill="#000" stroke="#000" stroke-miterlimit="10"/>
  <path d="M230.5 175.407v-15.174" stroke="#000" stroke-miterlimit="10"/>
  <path d="M230.5 181.64l-3.5-8.311 3.5 2.078 3.5-2.078-3.5 8.311zm0-27.64l3.5 8.311-3.5-2.078-3.5 2.078 3.5-8.311z" fill="#000" stroke="#000" stroke-miterlimit="10"/>
  <path d="M229.9 101.985l-.45 16.041" stroke="#000" stroke-miterlimit="10"/>
  <path d="M230.06 96l3.28 8.106-3.44-2.121-3.56 1.87L230.06 96zm-.78 28l-3.28-8.106 3.45 2.132 3.55-1.87-3.72 7.844z" fill="#000" stroke="#000" stroke-miterlimit="10"/>
  <path d="M230 87.5c33.137 0 60-18.132 60-40.5 0-22.367-26.863-40.5-60-40.5S170 24.633 170 47c0 22.368 26.863 40.5 60 40.5z" fill="#fff" stroke="#000" stroke-dasharray="1 1"/>
  <path d="M259.413 74.146c7.722-8.28 1.047-27.054-14.907-41.932-15.955-14.878-35.148-20.226-42.87-11.946-7.721 8.28-1.047 27.053 14.908 41.931 15.954 14.878 35.148 20.227 42.869 11.947z" fill="#fff" stroke="#000"/>
  <path d="M204.569 75.138c8.006 8.006 27.001 1.99 42.427-13.435 15.425-15.426 21.44-34.42 13.435-42.427-8.006-8.005-27.001-1.99-42.427 13.435-15.425 15.426-21.44 34.421-13.435 42.427z" fill="#fff" stroke="#000"/>
  <path d="M230 67c22.294 0 40.367-8.954 40.367-20S252.294 27 230 27c-22.294 0-40.367 8.954-40.367 20S207.706 67 230 67z" fill="#fff" stroke="#000"/>
  <path d="M210.723 46.974h-2.338V51h-1.32v-9.953h3.295c1.121 0 1.983.255 2.584.766.606.51.91 1.253.91 2.228 0 .62-.169 1.16-.506 1.62-.333.46-.798.804-1.395 1.032l2.338 4.225V51h-1.408l-2.16-4.026zm-2.338-1.074h2.016c.652 0 1.169-.168 1.552-.505.387-.338.581-.789.581-1.354 0-.615-.184-1.087-.554-1.415-.364-.328-.893-.494-1.585-.499h-2.01V45.9zm10.185 5.237c-1.002 0-1.818-.328-2.447-.985-.629-.66-.943-1.542-.943-2.645v-.233c0-.733.139-1.387.417-1.962a3.28 3.28 0 011.175-1.353 2.96 2.96 0 011.641-.492c.962 0 1.709.316 2.242.95.533.633.8 1.54.8 2.72v.527h-5.011c.019.73.23 1.32.636 1.77.41.447.93.67 1.559.67.446 0 .825-.09 1.134-.273a2.86 2.86 0 00.814-.725l.772.602c-.619.953-1.549 1.429-2.789 1.429zm-.157-6.631c-.51 0-.939.187-1.285.56-.346.37-.561.89-.643 1.559h3.705v-.096c-.036-.642-.209-1.139-.519-1.49-.31-.355-.729-.533-1.258-.533zM227.491 51c-.073-.146-.132-.406-.178-.78-.587.611-1.289.917-2.105.917-.729 0-1.328-.205-1.798-.615a2.015 2.015 0 01-.697-1.573c0-.77.292-1.367.875-1.79.588-.43 1.413-.643 2.474-.643h1.231v-.581c0-.443-.132-.793-.397-1.053-.264-.264-.653-.397-1.168-.397-.452 0-.83.114-1.135.342-.306.228-.458.504-.458.827h-1.272c0-.369.13-.724.39-1.066.264-.346.62-.62 1.066-.82.452-.2.946-.301 1.484-.301.852 0 1.52.214 2.003.642.483.424.733 1.01.752 1.757v3.404c0 .68.086 1.22.259 1.62V51h-1.326zm-2.098-.964c.396 0 .772-.102 1.128-.308.355-.205.612-.471.772-.8v-1.517h-.991c-1.55 0-2.324.454-2.324 1.36 0 .397.132.707.396.93.264.224.604.335 1.019.335zm8.114.069a1.82 1.82 0 001.182-.41 1.44 1.44 0 00.561-1.026h1.196a2.285 2.285 0 01-.437 1.21 2.876 2.876 0 01-1.08.916 3.088 3.088 0 01-1.422.342c-1.007 0-1.809-.335-2.406-1.005-.593-.675-.889-1.595-.889-2.762v-.212c0-.72.132-1.36.396-1.92.265-.561.643-.996 1.135-1.306.497-.31 1.083-.465 1.757-.465.829 0 1.518.248 2.064.745.552.497.846 1.141.882 1.934h-1.196c-.036-.478-.219-.87-.547-1.175-.323-.31-.724-.465-1.203-.465-.643 0-1.142.232-1.497.697-.351.46-.526 1.128-.526 2.003v.24c0 .852.175 1.508.526 1.968.351.46.852.69 1.504.69zm6.077-8.292v1.79h1.381v.978h-1.381v4.587c0 .296.062.52.185.67.123.146.332.219.628.219.146 0 .347-.028.602-.082V51a3.669 3.669 0 01-.971.137c-.565 0-.991-.171-1.278-.513-.287-.342-.431-.827-.431-1.456v-4.587h-1.346v-.978h1.346v-1.79h1.265zm2.393 5.42c0-.724.141-1.376.423-1.955.288-.578.684-1.025 1.19-1.34.51-.314 1.091-.471 1.743-.471 1.007 0 1.821.348 2.44 1.046.625.697.937 1.624.937 2.782v.089c0 .72-.139 1.367-.417 1.941a3.112 3.112 0 01-1.183 1.333c-.51.32-1.098.479-1.763.479-1.003 0-1.816-.349-2.441-1.046-.62-.697-.929-1.62-.929-2.769v-.089zm1.271.15c0 .821.189 1.48.567 1.976.383.497.894.745 1.532.745.642 0 1.153-.25 1.531-.752.378-.505.567-1.212.567-2.119 0-.81-.193-1.467-.581-1.968-.383-.506-.893-.76-1.531-.76-.624 0-1.128.25-1.511.746-.383.497-.574 1.208-.574 2.133zm10.623-2.645a3.788 3.788 0 00-.622-.048c-.829 0-1.392.354-1.688 1.06V51h-1.265v-7.397h1.23l.021.855c.415-.66 1.002-.991 1.764-.991.246 0 .432.032.56.096v1.175z" fill="#000"/>
  <path d="M230 267.719c33.137 0 60-18.132 60-40.5 0-22.367-26.863-40.5-60-40.5s-60 18.133-60 40.5c0 22.368 26.863 40.5 60 40.5z" fill="#fff" stroke="#000" stroke-dasharray="1 1"/>
  <path d="M259.413 254.365c7.722-8.28 1.047-27.054-14.907-41.932-15.955-14.878-35.148-20.226-42.87-11.946-7.721 8.28-1.047 27.054 14.908 41.932 15.954 14.878 35.148 20.226 42.869 11.946z" fill="#fff" stroke="#000"/>
  <path d="M204.569 255.357c8.006 8.006 27.001 1.991 42.427-13.435 15.425-15.426 21.44-34.421 13.435-42.426-8.006-8.006-27.001-1.991-42.427 13.435-15.425 15.425-21.44 34.42-13.435 42.426z" fill="#fff" stroke="#000"/>
  <path d="M230 247.219c22.294 0 40.367-8.954 40.367-20 0-11.045-18.073-20-40.367-20-22.294 0-40.367 8.955-40.367 20 0 11.046 18.073 20 40.367 20z" fill="#fff" stroke="#000"/>
  <path d="M210.723 227.193h-2.338v4.026h-1.32v-9.953h3.295c1.121 0 1.983.255 2.584.766.606.51.91 1.253.91 2.228 0 .62-.169 1.16-.506 1.62-.333.461-.798.805-1.395 1.033l2.338 4.224v.082h-1.408l-2.16-4.026zm-2.338-1.073h2.016c.652 0 1.169-.169 1.552-.506.387-.337.581-.789.581-1.354 0-.615-.184-1.087-.554-1.415-.364-.328-.893-.494-1.585-.499h-2.01v3.774zm10.185 5.236c-1.002 0-1.818-.328-2.447-.984-.629-.661-.943-1.543-.943-2.646v-.232c0-.734.139-1.388.417-1.962a3.283 3.283 0 011.175-1.354 2.96 2.96 0 011.641-.492c.962 0 1.709.317 2.242.95.533.634.8 1.541.8 2.721v.526h-5.011c.019.73.23 1.32.636 1.771.41.446.93.67 1.559.67.446 0 .825-.091 1.134-.274a2.85 2.85 0 00.814-.724l.772.601c-.619.953-1.549 1.429-2.789 1.429zm-.157-6.631c-.51 0-.939.187-1.285.561-.346.369-.561.888-.643 1.558h3.705v-.095c-.036-.643-.209-1.14-.519-1.491-.31-.355-.729-.533-1.258-.533zm9.078 6.494c-.073-.146-.132-.405-.178-.779-.587.611-1.289.916-2.105.916-.729 0-1.328-.205-1.798-.615a2.016 2.016 0 01-.697-1.572c0-.771.292-1.368.875-1.791.588-.429 1.413-.643 2.474-.643h1.231v-.581c0-.442-.132-.793-.397-1.053-.264-.264-.653-.396-1.168-.396-.452 0-.83.114-1.135.341-.306.228-.458.504-.458.828h-1.272c0-.37.13-.725.39-1.067a2.7 2.7 0 011.066-.82 3.608 3.608 0 011.484-.301c.852 0 1.52.214 2.003.643.483.424.733 1.009.752 1.757v3.404c0 .679.086 1.219.259 1.62v.109h-1.326zm-2.098-.964c.396 0 .772-.102 1.128-.307.355-.205.612-.472.772-.8v-1.518h-.991c-1.55 0-2.324.454-2.324 1.361 0 .396.132.706.396.929.264.224.604.335 1.019.335zm8.114.069c.451 0 .845-.137 1.182-.41.338-.274.525-.616.561-1.026h1.196a2.285 2.285 0 01-.437 1.21 2.876 2.876 0 01-1.08.916 3.087 3.087 0 01-1.422.342c-1.007 0-1.809-.335-2.406-1.005-.593-.674-.889-1.595-.889-2.762v-.211c0-.721.132-1.361.396-1.921a3.032 3.032 0 011.135-1.306c.497-.31 1.083-.465 1.757-.465.829 0 1.518.248 2.064.745.552.497.846 1.142.882 1.935h-1.196c-.036-.479-.219-.871-.547-1.176-.323-.31-.724-.465-1.203-.465-.643 0-1.142.233-1.497.697-.351.461-.526 1.128-.526 2.003v.24c0 .852.175 1.508.526 1.968.351.461.852.691 1.504.691zm6.077-8.292v1.791h1.381v.977h-1.381v4.587c0 .296.062.52.185.67.123.146.332.219.628.219.146 0 .347-.027.602-.082v1.025a3.674 3.674 0 01-.971.137c-.565 0-.991-.171-1.278-.513-.287-.341-.431-.827-.431-1.456V224.8h-1.346v-.977h1.346v-1.791h1.265zm2.393 5.421c0-.725.141-1.377.423-1.955.288-.579.684-1.026 1.19-1.34.51-.315 1.091-.472 1.743-.472 1.007 0 1.821.349 2.44 1.046.625.697.937 1.625.937 2.782v.089c0 .72-.139 1.367-.417 1.941a3.12 3.12 0 01-1.183 1.334c-.51.319-1.098.478-1.763.478-1.003 0-1.816-.349-2.441-1.046-.62-.697-.929-1.62-.929-2.768v-.089zm1.271.15c0 .82.189 1.479.567 1.976.383.496.894.745 1.532.745.642 0 1.153-.251 1.531-.752.378-.506.567-1.212.567-2.119 0-.812-.193-1.468-.581-1.969-.383-.506-.893-.759-1.531-.759-.624 0-1.128.249-1.511.745-.383.497-.574 1.208-.574 2.133zm10.623-2.645a3.777 3.777 0 00-.622-.048c-.829 0-1.392.353-1.688 1.059v5.25h-1.265v-7.396h1.23l.021.854c.415-.661 1.002-.991 1.764-.991.246 0 .432.032.56.096v1.176z" fill="#000"/>
  <path d="M366 225.719c33.137 0 60-18.132 60-40.5 0-22.367-26.863-40.5-60-40.5s-60 18.133-60 40.5c0 22.368 26.863 40.5 60 40.5z" fill="#fff" stroke="#000" stroke-dasharray="1 1"/>
  <path d="M395.413 212.365c7.722-8.28 1.047-27.054-14.907-41.932-15.955-14.878-35.148-20.226-42.87-11.946-7.721 8.28-1.047 27.054 14.908 41.932 15.954 14.878 35.148 20.226 42.869 11.946z" fill="#fff" stroke="#000"/>
  <path d="M340.569 213.357c8.006 8.006 27.001 1.991 42.427-13.435 15.425-15.426 21.44-34.421 13.435-42.426-8.006-8.006-27.001-1.991-42.427 13.435-15.425 15.425-21.44 34.42-13.435 42.426z" fill="#fff" stroke="#000"/>
  <path d="M366 205.219c22.294 0 40.367-8.954 40.367-20 0-11.045-18.073-20-40.367-20-22.294 0-40.367 8.955-40.367 20 0 11.046 18.073 20 40.367 20z" fill="#fff" stroke="#000"/>
  <path d="M346.723 185.193h-2.338v4.026h-1.32v-9.953h3.295c1.121 0 1.983.255 2.584.766.606.51.91 1.253.91 2.228 0 .62-.169 1.16-.506 1.62-.333.461-.798.805-1.395 1.033l2.338 4.224v.082h-1.408l-2.16-4.026zm-2.338-1.073h2.016c.652 0 1.169-.169 1.552-.506.387-.337.581-.789.581-1.354 0-.615-.184-1.087-.554-1.415-.364-.328-.893-.494-1.585-.499h-2.01v3.774zm10.185 5.236c-1.002 0-1.818-.328-2.447-.984-.629-.661-.943-1.543-.943-2.646v-.232c0-.734.139-1.388.417-1.962a3.283 3.283 0 011.175-1.354 2.96 2.96 0 011.641-.492c.962 0 1.709.317 2.242.95.533.634.8 1.541.8 2.721v.526h-5.011c.019.73.23 1.32.636 1.771.41.446.93.67 1.559.67.446 0 .825-.091 1.134-.274a2.85 2.85 0 00.814-.724l.772.601c-.619.953-1.549 1.429-2.789 1.429zm-.157-6.631c-.51 0-.939.187-1.285.561-.346.369-.561.888-.643 1.558h3.705v-.095c-.036-.643-.209-1.14-.519-1.491-.31-.355-.729-.533-1.258-.533zm9.078 6.494c-.073-.146-.132-.405-.178-.779-.587.611-1.289.916-2.105.916-.729 0-1.328-.205-1.798-.615a2.016 2.016 0 01-.697-1.572c0-.771.292-1.368.875-1.791.588-.429 1.413-.643 2.474-.643h1.231v-.581c0-.442-.132-.793-.397-1.053-.264-.264-.653-.396-1.168-.396-.452 0-.83.114-1.135.341-.306.228-.458.504-.458.828h-1.272c0-.37.13-.725.39-1.067a2.7 2.7 0 011.066-.82 3.608 3.608 0 011.484-.301c.852 0 1.52.214 2.003.643.483.424.733 1.009.752 1.757v3.404c0 .679.086 1.219.259 1.62v.109h-1.326zm-2.098-.964c.396 0 .772-.102 1.128-.307.355-.205.612-.472.772-.8v-1.518h-.991c-1.55 0-2.324.454-2.324 1.361 0 .396.132.706.396.929.264.224.604.335 1.019.335zm8.114.069c.451 0 .845-.137 1.182-.41.338-.274.525-.616.561-1.026h1.196a2.285 2.285 0 01-.437 1.21 2.876 2.876 0 01-1.08.916 3.087 3.087 0 01-1.422.342c-1.007 0-1.809-.335-2.406-1.005-.593-.674-.889-1.595-.889-2.762v-.211c0-.721.132-1.361.396-1.921a3.032 3.032 0 011.135-1.306c.497-.31 1.083-.465 1.757-.465.829 0 1.518.248 2.064.745.552.497.846 1.142.882 1.935h-1.196c-.036-.479-.219-.871-.547-1.176-.323-.31-.724-.465-1.203-.465-.643 0-1.142.233-1.497.697-.351.461-.526 1.128-.526 2.003v.24c0 .852.175 1.508.526 1.968.351.461.852.691 1.504.691zm6.077-8.292v1.791h1.381v.977h-1.381v4.587c0 .296.062.52.185.67.123.146.332.219.628.219.146 0 .347-.027.602-.082v1.025a3.674 3.674 0 01-.971.137c-.565 0-.991-.171-1.278-.513-.287-.341-.431-.827-.431-1.456V182.8h-1.346v-.977h1.346v-1.791h1.265zm2.393 5.421c0-.725.141-1.377.423-1.955.288-.579.684-1.026 1.19-1.34.51-.315 1.091-.472 1.743-.472 1.007 0 1.821.349 2.44 1.046.625.697.937 1.625.937 2.782v.089c0 .72-.139 1.367-.417 1.941a3.12 3.12 0 01-1.183 1.334c-.51.319-1.098.478-1.763.478-1.003 0-1.816-.349-2.441-1.046-.62-.697-.929-1.62-.929-2.768v-.089zm1.271.15c0 .82.189 1.479.567 1.976.383.496.894.745 1.532.745.642 0 1.153-.251 1.531-.752.378-.506.567-1.212.567-2.119 0-.812-.193-1.468-.581-1.969-.383-.506-.893-.759-1.531-.759-.624 0-1.128.249-1.511.745-.383.497-.574 1.208-.574 2.133zm10.623-2.645a3.777 3.777 0 00-.622-.048c-.829 0-1.392.353-1.688 1.059v5.25h-1.265v-7.396h1.23l.021.854c.415-.661 1.002-.991 1.764-.991.246 0 .432.032.56.096v1.176z" fill="#000"/>
  <path d="M95 225.719c33.137 0 60-18.132 60-40.5 0-22.367-26.863-40.5-60-40.5s-60 18.133-60 40.5c0 22.368 26.863 40.5 60 40.5z" fill="#fff" stroke="#000" stroke-dasharray="1 1"/>
  <path d="M124.413 212.365c7.722-8.28 1.047-27.054-14.907-41.932-15.955-14.878-35.148-20.226-42.87-11.946-7.721 8.28-1.047 27.054 14.908 41.932 15.954 14.878 35.148 20.226 42.869 11.946z" fill="#fff" stroke="#000"/>
  <path d="M69.57 213.357c8.005 8.006 27 1.991 42.426-13.435 15.425-15.426 21.44-34.421 13.435-42.426-8.006-8.006-27-1.991-42.427 13.435-15.425 15.425-21.44 34.42-13.435 42.426z" fill="#fff" stroke="#000"/>
  <path d="M95 205.219c22.294 0 40.367-8.954 40.367-20 0-11.045-18.073-20-40.367-20-22.294 0-40.367 8.955-40.367 20 0 11.046 18.073 20 40.367 20z" fill="#fff" stroke="#000"/>
  <path d="M75.723 185.193h-2.338v4.026h-1.32v-9.953h3.295c1.121 0 1.983.255 2.584.766.606.51.91 1.253.91 2.228 0 .62-.17 1.16-.506 1.62-.333.461-.798.805-1.395 1.033l2.338 4.224v.082h-1.408l-2.16-4.026zm-2.338-1.073H75.4c.652 0 1.17-.169 1.552-.506.388-.337.581-.789.581-1.354 0-.615-.184-1.087-.553-1.415-.365-.328-.894-.494-1.587-.499h-2.01v3.774zm10.185 5.236c-1.002 0-1.818-.328-2.447-.984-.629-.661-.943-1.543-.943-2.646v-.232c0-.734.139-1.388.417-1.962a3.286 3.286 0 011.175-1.354 2.958 2.958 0 011.641-.492c.962 0 1.71.317 2.242.95.534.634.8 1.541.8 2.721v.526h-5.01c.018.73.23 1.32.635 1.771.41.446.93.67 1.559.67.446 0 .825-.091 1.134-.274.31-.182.582-.423.814-.724l.772.601c-.62.953-1.55 1.429-2.789 1.429zm-.157-6.631c-.51 0-.939.187-1.285.561-.346.369-.56.888-.643 1.558h3.705v-.095c-.036-.643-.21-1.14-.52-1.491-.309-.355-.728-.533-1.257-.533zm9.078 6.494c-.073-.146-.132-.405-.177-.779-.588.611-1.29.916-2.106.916-.73 0-1.328-.205-1.798-.615a2.017 2.017 0 01-.697-1.572c0-.771.292-1.368.875-1.791.588-.429 1.413-.643 2.475-.643h1.23v-.581c0-.442-.132-.793-.397-1.053-.264-.264-.653-.396-1.168-.396-.452 0-.83.114-1.135.341-.306.228-.458.504-.458.828h-1.272c0-.37.13-.725.39-1.067a2.7 2.7 0 011.066-.82 3.604 3.604 0 011.484-.301c.852 0 1.52.214 2.003.643.483.424.733 1.009.752 1.757v3.404c0 .679.086 1.219.26 1.62v.109H92.49zm-2.098-.964c.396 0 .772-.102 1.127-.307.356-.205.614-.472.773-.8v-1.518h-.991c-1.55 0-2.325.454-2.325 1.361 0 .396.133.706.397.929.264.224.604.335 1.019.335zm8.114.069c.451 0 .845-.137 1.182-.41.338-.274.525-.616.561-1.026h1.196a2.285 2.285 0 01-.437 1.21 2.875 2.875 0 01-1.08.916c-.447.228-.92.342-1.422.342-1.007 0-1.81-.335-2.406-1.005-.593-.674-.89-1.595-.89-2.762v-.211c0-.721.133-1.361.397-1.921a3.026 3.026 0 011.135-1.306c.497-.31 1.083-.465 1.757-.465.83 0 1.518.248 2.064.745.552.497.846 1.142.882 1.935h-1.196c-.036-.479-.219-.871-.547-1.176-.323-.31-.725-.465-1.203-.465-.643 0-1.142.233-1.497.697-.351.461-.526 1.128-.526 2.003v.24c0 .852.175 1.508.526 1.968.35.461.852.691 1.504.691zm6.077-8.292v1.791h1.381v.977h-1.381v4.587c0 .296.062.52.185.67.123.146.332.219.628.219.146 0 .347-.027.602-.082v1.025a3.674 3.674 0 01-.971.137c-.565 0-.991-.171-1.278-.513-.287-.341-.431-.827-.431-1.456V182.8h-1.346v-.977h1.346v-1.791h1.265zm2.393 5.421c0-.725.141-1.377.423-1.955.288-.579.684-1.026 1.19-1.34.51-.315 1.091-.472 1.743-.472 1.007 0 1.821.349 2.44 1.046.625.697.937 1.625.937 2.782v.089c0 .72-.139 1.367-.417 1.941a3.12 3.12 0 01-1.183 1.334c-.51.319-1.098.478-1.763.478-1.003 0-1.816-.349-2.441-1.046-.62-.697-.929-1.62-.929-2.768v-.089zm1.271.15c0 .82.189 1.479.567 1.976.383.496.894.745 1.532.745.642 0 1.153-.251 1.531-.752.378-.506.567-1.212.567-2.119 0-.812-.193-1.468-.581-1.969-.383-.506-.893-.759-1.531-.759-.624 0-1.128.249-1.511.745-.383.497-.574 1.208-.574 2.133zm10.623-2.645a3.777 3.777 0 00-.622-.048c-.829 0-1.392.353-1.688 1.059v5.25h-1.265v-7.396h1.23l.021.854c.415-.661 1.002-.991 1.764-.991.246 0 .432.032.56.096v1.176z" fill="#000"/>
  <path d="M364 137.719c33.137 0 60-18.132 60-40.5 0-22.367-26.863-40.5-60-40.5s-60 18.133-60 40.5c0 22.368 26.863 40.5 60 40.5z" fill="#fff" stroke="#000" stroke-dasharray="1 1"/>
  <path d="M393.413 124.365c7.722-8.28 1.047-27.054-14.907-41.932-15.955-14.878-35.148-20.226-42.87-11.946-7.721 8.28-1.047 27.054 14.908 41.932 15.954 14.878 35.148 20.226 42.869 11.946z" fill="#fff" stroke="#000"/>
  <path d="M338.569 125.357c8.006 8.006 27.001 1.991 42.427-13.435 15.425-15.426 21.44-34.42 13.435-42.426-8.006-8.006-27.001-1.991-42.427 13.435-15.425 15.425-21.44 34.42-13.435 42.426z" fill="#fff" stroke="#000"/>
  <path d="M364 117.219c22.294 0 40.367-8.954 40.367-20 0-11.045-18.073-20-40.367-20-22.294 0-40.367 8.955-40.367 20 0 11.046 18.073 20 40.367 20z" fill="#fff" stroke="#000"/>
  <path d="M344.723 97.193h-2.338v4.026h-1.32v-9.953h3.295c1.121 0 1.983.255 2.584.766.606.51.91 1.253.91 2.228 0 .62-.169 1.16-.506 1.62-.333.46-.798.805-1.395 1.033l2.338 4.224v.082h-1.408l-2.16-4.026zm-2.338-1.073h2.016c.652 0 1.169-.169 1.552-.506.387-.337.581-.789.581-1.354 0-.615-.184-1.087-.554-1.415-.364-.328-.893-.494-1.585-.499h-2.01v3.774zm10.185 5.236c-1.002 0-1.818-.328-2.447-.984-.629-.661-.943-1.543-.943-2.646v-.232c0-.734.139-1.388.417-1.962a3.28 3.28 0 011.175-1.354 2.96 2.96 0 011.641-.492c.962 0 1.709.317 2.242.95.533.634.8 1.54.8 2.721v.526h-5.011c.019.73.23 1.32.636 1.77.41.447.93.671 1.559.671.446 0 .825-.091 1.134-.274.31-.182.581-.424.814-.724l.772.601c-.619.953-1.549 1.429-2.789 1.429zm-.157-6.63c-.51 0-.939.186-1.285.56-.346.369-.561.888-.643 1.558h3.705v-.095c-.036-.643-.209-1.14-.519-1.49-.31-.356-.729-.534-1.258-.534zm9.078 6.493c-.073-.146-.132-.405-.178-.779-.587.611-1.289.916-2.105.916-.729 0-1.328-.205-1.798-.615a2.016 2.016 0 01-.697-1.573c0-.77.292-1.367.875-1.79.588-.429 1.413-.643 2.474-.643h1.231v-.581c0-.442-.132-.793-.397-1.053-.264-.264-.653-.396-1.168-.396-.452 0-.83.114-1.135.341-.306.228-.458.504-.458.828h-1.272c0-.37.13-.725.39-1.067.264-.346.62-.62 1.066-.82.452-.2.946-.3 1.484-.3.852 0 1.52.213 2.003.642.483.424.733 1.01.752 1.757v3.404c0 .679.086 1.219.259 1.62v.109h-1.326zm-2.098-.964c.396 0 .772-.102 1.128-.307.355-.205.612-.472.772-.8V97.63h-.991c-1.55 0-2.324.454-2.324 1.36 0 .397.132.707.396.93.264.224.604.335 1.019.335zm8.114.069a1.82 1.82 0 001.182-.41 1.44 1.44 0 00.561-1.026h1.196a2.284 2.284 0 01-.437 1.21 2.876 2.876 0 01-1.08.916 3.087 3.087 0 01-1.422.342c-1.007 0-1.809-.335-2.406-1.005-.593-.674-.889-1.595-.889-2.762v-.212c0-.72.132-1.36.396-1.92.265-.56.643-.996 1.135-1.306.497-.31 1.083-.465 1.757-.465.829 0 1.518.248 2.064.745.552.497.846 1.142.882 1.935h-1.196c-.036-.479-.219-.87-.547-1.176-.323-.31-.724-.465-1.203-.465-.643 0-1.142.233-1.497.697-.351.46-.526 1.128-.526 2.003v.24c0 .852.175 1.508.526 1.968.351.461.852.691 1.504.691zm6.077-8.292v1.79h1.381v.978h-1.381v4.587c0 .296.062.52.185.67.123.146.332.219.628.219.146 0 .347-.027.602-.082v1.025a3.674 3.674 0 01-.971.137c-.565 0-.991-.171-1.278-.513-.287-.341-.431-.827-.431-1.456V94.8h-1.346v-.977h1.346v-1.791h1.265zm2.393 5.42c0-.724.141-1.376.423-1.954.288-.58.684-1.026 1.19-1.34.51-.315 1.091-.472 1.743-.472 1.007 0 1.821.349 2.44 1.046.625.697.937 1.625.937 2.782v.09c0 .72-.139 1.366-.417 1.94a3.12 3.12 0 01-1.183 1.334c-.51.319-1.098.478-1.763.478-1.003 0-1.816-.349-2.441-1.046-.62-.697-.929-1.62-.929-2.768v-.09zm1.271.151c0 .82.189 1.479.567 1.976.383.496.894.745 1.532.745.642 0 1.153-.251 1.531-.752.378-.506.567-1.212.567-2.12 0-.81-.193-1.467-.581-1.968-.383-.506-.893-.759-1.531-.759-.624 0-1.128.249-1.511.745-.383.497-.574 1.208-.574 2.133zm10.623-2.645a3.788 3.788 0 00-.622-.048c-.829 0-1.392.353-1.688 1.06v5.249h-1.265v-7.396h1.23l.021.854c.415-.66 1.002-.99 1.764-.99.246 0 .432.031.56.095v1.176z" fill="#000"/>
  <path d="M97 131.719c33.137 0 60-18.132 60-40.5 0-22.367-26.863-40.5-60-40.5s-60 18.133-60 40.5c0 22.368 26.863 40.5 60 40.5z" fill="#fff" stroke="#000" stroke-dasharray="1 1"/>
  <path d="M126.413 118.365c7.722-8.28 1.047-27.054-14.907-41.932-15.955-14.878-35.148-20.226-42.87-11.946-7.721 8.28-1.047 27.054 14.908 41.932 15.954 14.878 35.148 20.226 42.869 11.946z" fill="#fff" stroke="#000"/>
  <path d="M71.57 119.357c8.005 8.006 27 1.991 42.426-13.435 15.425-15.426 21.44-34.42 13.435-42.426-8.006-8.006-27.001-1.991-42.427 13.435-15.425 15.425-21.44 34.42-13.435 42.426z" fill="#fff" stroke="#000"/>
  <path d="M97 111.219c22.294 0 40.367-8.954 40.367-20 0-11.045-18.073-20-40.367-20-22.294 0-40.367 8.955-40.367 20 0 11.046 18.073 20 40.367 20z" fill="#fff" stroke="#000"/>
  <path d="M77.723 91.193h-2.338v4.026h-1.32v-9.953h3.295c1.121 0 1.983.255 2.584.766.606.51.91 1.253.91 2.228 0 .62-.17 1.16-.506 1.62-.333.46-.798.805-1.395 1.033l2.338 4.224v.082h-1.408l-2.16-4.026zm-2.338-1.073H77.4c.652 0 1.17-.169 1.552-.506.388-.337.581-.789.581-1.354 0-.615-.184-1.087-.553-1.415-.365-.328-.894-.494-1.587-.499h-2.01v3.774zm10.185 5.236c-1.002 0-1.818-.328-2.447-.984-.629-.661-.943-1.543-.943-2.646v-.232c0-.734.139-1.388.417-1.962a3.283 3.283 0 011.175-1.354 2.958 2.958 0 011.641-.492c.962 0 1.71.317 2.242.95.534.634.8 1.54.8 2.721v.526h-5.01c.018.73.23 1.32.635 1.77.41.447.93.67 1.559.67.446 0 .825-.09 1.134-.273.31-.182.582-.424.814-.724l.772.601c-.62.953-1.55 1.429-2.789 1.429zm-.157-6.63c-.51 0-.939.186-1.285.56-.346.369-.56.888-.643 1.558h3.705v-.095c-.036-.643-.21-1.14-.52-1.49-.309-.356-.728-.534-1.257-.534zm9.078 6.493c-.073-.145-.132-.405-.177-.779-.588.61-1.29.916-2.106.916-.73 0-1.328-.205-1.798-.615a2.016 2.016 0 01-.697-1.573c0-.77.292-1.367.875-1.79.588-.429 1.413-.643 2.475-.643h1.23v-.581c0-.442-.132-.793-.397-1.053-.264-.264-.653-.396-1.168-.396-.452 0-.83.114-1.135.341-.306.228-.458.504-.458.828h-1.272c0-.37.13-.725.39-1.067.264-.346.62-.62 1.066-.82.451-.2.946-.3 1.484-.3.852 0 1.52.213 2.003.642.483.424.733 1.01.752 1.757v3.404c0 .679.086 1.219.26 1.62v.11H94.49zm-2.098-.964c.396 0 .772-.102 1.127-.307a1.86 1.86 0 00.773-.8V91.63h-.991c-1.55 0-2.325.454-2.325 1.36 0 .397.133.707.397.93.264.224.604.335 1.019.335zm8.114.069a1.82 1.82 0 001.182-.41 1.44 1.44 0 00.561-1.026h1.196a2.285 2.285 0 01-.437 1.21 2.876 2.876 0 01-1.08.916 3.088 3.088 0 01-1.422.342c-1.007 0-1.81-.335-2.406-1.005-.593-.674-.89-1.595-.89-2.762v-.212c0-.72.133-1.36.397-1.92.265-.56.643-.996 1.135-1.306.497-.31 1.083-.465 1.757-.465.829 0 1.518.248 2.064.745.552.497.846 1.142.882 1.935h-1.196c-.036-.479-.219-.87-.547-1.176-.323-.31-.724-.465-1.203-.465-.643 0-1.142.233-1.497.697-.351.46-.526 1.128-.526 2.003v.24c0 .852.175 1.508.526 1.968.35.46.852.69 1.504.69zm6.077-8.292v1.79h1.381v.978h-1.381v4.587c0 .296.062.52.185.67.123.146.332.219.628.219.146 0 .347-.027.602-.082v1.025a3.669 3.669 0 01-.971.137c-.565 0-.991-.17-1.278-.513-.287-.342-.431-.827-.431-1.456V88.8h-1.346v-.977h1.346v-1.791h1.265zm2.393 5.42c0-.724.141-1.376.423-1.954.288-.58.684-1.026 1.19-1.34.51-.315 1.091-.472 1.743-.472 1.007 0 1.821.349 2.44 1.046.625.697.937 1.625.937 2.782v.09c0 .72-.139 1.366-.417 1.94a3.112 3.112 0 01-1.183 1.334c-.51.319-1.098.478-1.763.478-1.003 0-1.816-.349-2.441-1.046-.62-.697-.929-1.62-.929-2.768v-.09zm1.271.151c0 .82.189 1.479.567 1.976.383.496.894.745 1.532.745.642 0 1.153-.25 1.531-.752.378-.506.567-1.212.567-2.12 0-.81-.193-1.467-.581-1.968-.383-.506-.893-.759-1.531-.759-.624 0-1.128.249-1.511.745-.383.497-.574 1.208-.574 2.133zm10.623-2.645a3.788 3.788 0 00-.622-.048c-.829 0-1.392.353-1.688 1.06v5.25h-1.265v-7.397h1.23l.021.854c.415-.66 1.002-.99 1.764-.99.246 0 .432.031.56.095v1.176zM194.236 140.038V144h-1.853v-10.664h4.079c1.192 0 2.137.31 2.835.93.703.62 1.055 1.441 1.055 2.461 0 1.045-.345 1.858-1.033 2.439-.684.581-1.643.872-2.879.872h-2.204zm0-1.487h2.226c.66 0 1.163-.154 1.509-.462.347-.312.52-.761.52-1.347 0-.576-.176-1.035-.527-1.377-.352-.347-.835-.525-1.45-.535h-2.278v3.721zm7.134 1.413c0-.776.153-1.474.461-2.094.308-.625.74-1.104 1.296-1.436.557-.337 1.197-.505 1.919-.505 1.07 0 1.936.344 2.6 1.032.669.689 1.031 1.602 1.084 2.74l.008.417c0 .781-.152 1.48-.454 2.095a3.305 3.305 0 01-1.289 1.428c-.557.337-1.202.505-1.934.505-1.118 0-2.014-.371-2.688-1.113-.669-.747-1.003-1.741-1.003-2.981v-.088zm1.779.154c0 .816.169 1.455.506 1.919.337.459.805.689 1.406.689.601 0 1.067-.235 1.399-.704.337-.468.505-1.154.505-2.058 0-.8-.173-1.435-.52-1.904-.341-.469-.808-.703-1.399-.703-.581 0-1.042.232-1.384.696-.342.459-.513 1.147-.513 2.065zm14.056 1.428l1.259-5.471h1.736L218.04 144h-1.465l-1.7-5.442-1.669 5.442h-1.465l-2.168-7.925h1.736l1.281 5.413 1.626-5.413h1.341l1.648 5.471zm7.675 2.6c-1.128 0-2.043-.354-2.746-1.062-.698-.712-1.048-1.66-1.048-2.841v-.22c0-.791.152-1.497.455-2.117a3.492 3.492 0 011.289-1.457 3.393 3.393 0 011.845-.52c1.079 0 1.912.344 2.498 1.032.591.689.886 1.663.886 2.923v.718h-5.178c.054.654.271 1.171.652 1.552.385.381.869.572 1.45.572.815 0 1.479-.33 1.992-.989l.96.915a3.225 3.225 0 01-1.275 1.106c-.527.259-1.12.388-1.78.388zm-.212-6.789c-.488 0-.884.171-1.187.513-.297.341-.488.818-.571 1.428h3.391v-.132c-.039-.596-.197-1.045-.476-1.348-.278-.307-.664-.461-1.157-.461zm8.928.344a4.407 4.407 0 00-.725-.058c-.815 0-1.365.312-1.648.937V144h-1.78v-7.925h1.7l.044.886c.429-.688 1.025-1.032 1.787-1.032.254 0 .464.034.63.102l-.008 1.67zm3.15 2.337V144h-1.853v-10.664h4.079c1.192 0 2.136.31 2.835.93.703.62 1.054 1.441 1.054 2.461 0 1.045-.344 1.858-1.032 2.439-.684.581-1.643.872-2.879.872h-2.204zm0-1.487h2.226c.659 0 1.162-.154 1.509-.462.347-.312.52-.761.52-1.347 0-.576-.176-1.035-.527-1.377-.352-.347-.835-.525-1.451-.535h-2.277v3.721zm9.462 5.449h-1.779v-11.25h1.779V144zm6.68 0c-.078-.151-.146-.398-.205-.74a2.77 2.77 0 01-2.08.886c-.796 0-1.445-.227-1.948-.681a2.178 2.178 0 01-.755-1.684c0-.845.313-1.492.938-1.941.63-.454 1.528-.681 2.695-.681h1.092v-.52c0-.41-.115-.738-.345-.982-.229-.249-.578-.373-1.047-.373-.405 0-.737.102-.996.307a.932.932 0 00-.388.769h-1.78c0-.434.144-.839.432-1.215.288-.381.679-.679 1.172-.894a4.15 4.15 0 011.662-.322c.928 0 1.668.234 2.22.703.551.464.835 1.118.849 1.963v3.574c0 .713.1 1.282.301 1.706V144h-1.817zm-1.955-1.282a2 2 0 00.988-.256c.313-.171.547-.4.704-.689v-1.494h-.96c-.659 0-1.155.115-1.487.345-.332.229-.498.554-.498.974 0 .341.112.615.337.82.23.2.535.3.916.3zm6.987-6.643l.051.916c.586-.708 1.355-1.062 2.307-1.062 1.651 0 2.491.945 2.52 2.834V144h-1.78v-5.134c0-.503-.11-.874-.33-1.114-.214-.244-.568-.366-1.062-.366-.717 0-1.252.325-1.604.974V144h-1.779v-7.925h1.677zm8.928-1.926v1.926h1.399v1.319h-1.399v4.423c0 .303.059.523.176.66.122.131.337.197.644.197.206 0 .413-.024.623-.073v1.377a4.394 4.394 0 01-1.172.168c-1.367 0-2.051-.754-2.051-2.263v-4.489h-1.303v-1.319h1.303v-1.926h1.78z" fill="#000"/>
</svg>