<svg xmlns="http://www.w3.org/2000/svg" width="32" height="32" viewBox="0 0 32 32"><path fill="currentColor" d="M6.723 20.22a3.37 3.37 0 0 1-3.359 3.364h-.001A3.371 3.371 0 0 1 0 20.22a3.37 3.37 0 0 1 3.362-3.36h3.36v3.36zm1.694 0a3.37 3.37 0 0 1 3.361-3.36 3.37 3.37 0 0 1 3.361 3.36v8.418a3.372 3.372 0 0 1-3.361 3.363h-.001a3.37 3.37 0 0 1-3.361-3.362v-8.418zm3.362-13.497a3.37 3.37 0 0 1-3.361-3.359v-.001A3.372 3.372 0 0 1 11.779 0h.001a3.37 3.37 0 0 1 3.361 3.362v3.36H11.78zm0 1.694a3.37 3.37 0 0 1 3.361 3.361v.001a3.37 3.37 0 0 1-3.361 3.361H3.362a3.372 3.372 0 0 1-3.363-3.361v-.001a3.37 3.37 0 0 1 3.362-3.361h8.416zm13.496 3.362a3.37 3.37 0 0 1 3.362-3.361A3.372 3.372 0 0 1 32 11.779v.001a3.37 3.37 0 0 1-3.362 3.361h-3.363V11.78zm-1.691 0a3.37 3.37 0 0 1-3.364 3.361 3.37 3.37 0 0 1-3.36-3.361V3.363A3.37 3.37 0 0 1 20.22 0a3.371 3.371 0 0 1 3.364 3.362v8.416zM20.22 25.275a3.371 3.371 0 0 1 3.364 3.362A3.371 3.371 0 0 1 20.22 32a3.37 3.37 0 0 1-3.36-3.362v-3.363h3.36zm0-1.691a3.37 3.37 0 0 1-3.36-3.364 3.369 3.369 0 0 1 3.36-3.36h8.418a3.37 3.37 0 0 1 3.363 3.36 3.371 3.371 0 0 1-3.362 3.364h-8.418z"/></svg>
