<svg width="160" height="33" viewBox="0 0 160 33" fill="none" xmlns="http://www.w3.org/2000/svg"><path d="M132.706 25.98c1.86 2.223 5.2 6.233 13.613 6.233 4.186 0 8.498-.915 11.205-4.142 1.563-1.874 2.367-4.315 2.367-6.537 0-3.488-1.733-6.234-5.158-7.542-1.691-.61-5.961-1.438-9.133-1.83-1.268-.175-3.805-.524-3.805-2.877 0-1.483 1.48-3.226 4.44-3.226 1.903 0 3.805.741 4.862 1.351 1.184.698 2.029 1.526 2.959 2.485l5.497-4.054C156.974 3.444 153.253 0 146.362 0c-5.158 0-12.007 2.354-12.007 10.287 0 6.626 6.214 7.977 8.032 8.37 1.607.348 3.256.566 4.905.784 2.199.305 5.2.698 5.2 3.138 0 2.137-2.536 3.575-5.496 3.575-1.733 0-3.763-.392-5.75-1.482-1.48-.829-2.114-1.526-2.875-2.397l-5.665 3.705zM111.31 6.71h7.78v24.716h7.483V6.71h7.737V.607h-23V6.71zM104.975 21.137c-.287-.288-.942-.784-1.561-1.206a2.4 2.4 0 0 0 .057.234c.139.48 1.289 2.124 1.961 2.864.195-1.02.073-1.36-.457-1.892zM110.315 14.246a6.674 6.674 0 0 0-.25-.411c-.603-.926-2-2.6-2.311-2.772-.395-.218-.76-.17-1.265.17-1.416.946-2.275 1.614-2.396 1.862-.197.402-.459 2.101-.582 3.775-.057.783-.09 1.386-.097 1.865.137.104.295.21.478.317.271.16.806.53 1.19.823.789.6 1.152.666 1.804.323.439-.231 1.253-.885 2.385-1.916.95-.866 1.121-1.312 1.103-2.887a14.897 14.897 0 0 0-.059-1.15zM111.699 14.181l-.087.199c-.262.604-.419 1.286-.812 3.558a.687.687 0 0 0 .014.103c.039.16.287.508.551.773.115.115.202.203.268.279a16.348 16.348 0 0 0 .066-4.912zM87.621 16.69c.383.219 1.009.295 2.298.3l1.538.004.083-.075c-.397-.351-.62-.356-1.188-.428-.591-.075-1.953.039-2.73.199zM99.331 1.704l1.035.394c.575.219 1.774.767 2.665 1.218l1.62.82 1.344-.007a14.865 14.865 0 0 0-7.166-3.17l.124.202c.108.177.238.362.378.543zM85.074 10.696c.536-.63 1.166-1.511 2.055-2.82.741-1.094 1.085-1.782 1.408-3.014-.038.03-.076.061-.115.097-.518.466-3 4.354-3.224 5.048a2.847 2.847 0 0 0-.124.69zM85.329 12.116c.003.488.798 2.327 1.446 3.507.344.122.96.057 2.518-.222.66-.118 1.325-.264 1.475-.325.391-.157.861-.79 1.415-1.904.265-.534.74-1.424 1.053-1.979.758-1.337.887-1.68.88-2.336-.008-.626-.421-1.87-.854-2.74-.88-.09-3.59.058-3.912.235-.607.335-1.03.774-1.894 1.97-1.352 1.865-2.13 3.254-2.127 3.794zM102.846 10.85c-.155.22-.197.348-.196 1.67.571.061.996-.085 1.653-.451.399-.223 1.038-.64 1.419-.93.801-.606 1.026-.94 1.079-1.989-.234-.062-.445-.04-.75.026-.805.172-2.929 1.283-3.205 1.675zM102.943 29.968a9.16 9.16 0 0 1-3.455.979l-.063.45c-.035.243-.061.42-.087.553a14.823 14.823 0 0 0 5.855-2.436 2.833 2.833 0 0 1-.103-.034c-.531-.18-1.027-.068-2.147.488zM84.193 9.944c.226-.248 3.083-4.479 3.7-5.48.193-.31.296-.624.296-.891 0-.03 0-.059.002-.086a15.733 15.733 0 0 0-5.664 7.472l.489-.258c.517-.274 1.046-.614 1.177-.757zM93.261 19.578c-.587-.84-1.234-1.538-1.62-1.746-.24-.13-.704-.17-2.106-.18-1.782-.013-1.802-.01-2.08.256a2.652 2.652 0 0 0-.445.593c-.336.663-1.116 3.043-1.172 3.551.081.206.202.419.371.689.452.72 2.673 3.056 3.492 3.721.128.105.223.17.27.178.554.109 1.742.07 2.362-.072l.066-.016c.255-.066.506-.136.744-.208.412-.307.787-.934 1.32-2.2.413-.984.515-1.345.517-1.832 0-.59-.017-.628-.633-1.347a21.803 21.803 0 0 1-1.086-1.387zM94.244 6.648c.151.344.27.633.3.732.116.385.329.672.811.955-.326-.744-.706-1.32-1.111-1.687zM104.674 27.47c-.229.09-.478.215-.766.375-.479.267-1.429.712-2.112.99-.682.278-1.44.624-1.682.77-.333.2-.42.222-.521.771.258-.025.518-.065.759-.122.373-.09 1.187-.34 1.808-.557 1.455-.508 1.818-.803 2.514-2.226zM85.855 24.017c-.084-.14-.176-.286-.27-.433-.727-.662-1.296-.98-2.585-1.548l-.473.016a15.732 15.732 0 0 0 5.517 7.274v-.862c0-1.397-.088-1.627-1.071-2.817-.282-.34-.785-1.075-1.118-1.63zM101.085 9.908c.798.01.835-.002 2.195-.702.761-.392 1.488-.81 1.616-.932.623-.591.495-1.563-.373-2.838a7.7 7.7 0 0 0-.568-.76c-1.274-.557-2.759-1.155-3.182-1.267-.858-.228-1.512-.068-3.159.775-1.765.903-2.351 1.443-2.351 2.162 0 .199.28 1.126.621 2.06l.056.152c.574.225 1.348.47 2.4.777 1.534.447 2.101.566 2.745.573zM102.574 21.224c-.486-.138-1.462.064-2.438.505-.4.18-1.31.44-2.072.59-.473.095-.94.197-1.26.276-.24.946-.522 2.371-.522 2.785 0 .584.333.938 1.62 1.727 2.293 1.406 2.245 1.396 3.839.748 1.679-.681 2.032-.863 2.367-1.222.43-.461.727-1.132 1.062-2.415-.712-1.396-1.927-2.803-2.596-2.994z" fill="#fff"/><path d="M109.211 18.312c-1.132 1.031-1.945 1.685-2.385 1.916-.652.342-1.015.277-1.804-.323a15.622 15.622 0 0 0-1.19-.823 4.984 4.984 0 0 1-.478-.317c-.391-.296-.607-.585-.691-.91-.055-.21-.112-1.797-.129-3.525-.007-.76-.012-1.337-.013-1.78 0-1.322.042-1.449.197-1.67.276-.391 2.4-1.502 3.205-1.674.305-.065.516-.088.75-.025.313.084.667.32 1.342.817 1.005.74 1.517 1.245 1.765 1.738.191.383.382 1.452.476 2.54.034.39.055.784.059 1.15.017 1.574-.153 2.02-1.104 2.886zm-3.76 4.827c-.043.224-.101.48-.173.777-.036.149-.071.287-.106.42-.334 1.284-.632 1.954-1.062 2.416-.334.358-.687.54-2.366 1.222-1.594.648-1.546.657-3.84-.749-1.286-.788-1.62-1.143-1.62-1.727 0-.414.283-1.839.523-2.785.108-.425.208-.754.27-.85.23-.365 1.015-.916 1.802-1.266.384-.17 1.078-.54 1.542-.822 1.092-.66 1.271-.703 1.864-.432.255.116.691.387 1.148.698.619.422 1.274.918 1.561 1.206.53.532.652.873.457 1.892zM95.16 8.35c-.483-.283-.695-.57-.81-.954-.031-.1-.15-.39-.302-.733a29.342 29.342 0 0 0-.235-.522c-.536-1.16-.567-1.526-.168-1.974.358-.4 2.807-1.782 3.569-2.012.853-.26 1.452-.156 2.885.494.184.083.356.161.52.237l.076.034c2.08.951 2.749 1.31 3.294 1.927.187.212.359.454.568.761.869 1.276.996 2.247.373 2.839-.127.12-.854.54-1.615.93-1.361.7-1.397.712-2.195.703-.644-.007-1.212-.126-2.745-.573-1.052-.306-1.827-.552-2.4-.776a5.914 5.914 0 0 1-.815-.38zm-.026 16.084c-.072.38-.15.744-.211 1.007a2.95 2.95 0 0 1-.107.387.3.3 0 0 1-.106.09c-.244.15-.868.385-1.616.608-.238.072-.49.142-.744.208-.02.006-.044.01-.067.016-.62.142-1.807.181-2.361.073-.047-.01-.142-.074-.27-.179-.82-.665-3.04-3-3.492-3.721-.17-.27-.29-.483-.37-.688-.18-.457-.16-.87-.023-1.763.09-.584.21-1.394.266-1.802.12-.87.455-1.463.97-1.715.097-.047.266-.095.48-.138.777-.16 2.139-.274 2.73-.199.567.072.791.076 1.188.428.335.296.793.84 1.686 1.882 2.237 2.611 2.477 3.259 2.047 5.506zm-9.823-11.22c-.306-1.053-.434-1.871-.392-2.527.017-.252.057-.481.124-.69.224-.694 2.706-4.58 3.224-5.048.038-.035.076-.067.115-.096.476-.382.926-.415 2.142-.205 1.24.214 1.721.383 2.085.732.162.156.351.46.537.835.433.869.846 2.113.853 2.739.008.655-.121.999-.879 2.336a50.965 50.965 0 0 0-1.052 1.979c-.554 1.114-1.024 1.747-1.416 1.904-.15.06-.814.207-1.475.325-1.557.279-2.173.344-2.518.222a.669.669 0 0 1-.204-.114c-.392-.32-.774-1.117-1.144-2.391zm26.095 5.67c-.265-.264-.513-.612-.552-.772a.706.706 0 0 1-.013-.104c-.016-.223.013-.658.074-1.062.203-1.35.103-3.12-.259-4.577-.299-1.204-.301-1.23-.126-1.738.051-.147.09-.268.117-.375a15.83 15.83 0 0 0-3.154-4.82c-.456-.476-.94-.922-1.45-1.335l-.456.003-.889.004-1.62-.82c-.891-.45-2.09-1-2.665-1.218l-1.035-.394c-.186-.072-.34-.13-.428-.165a7.76 7.76 0 0 1-1.034-.548l-.255-.161a14.727 14.727 0 0 0-9.528 2.713l-.001.086c0 .267-.104.58-.296.891-.617 1.001-3.475 5.232-3.7 5.48-.131.143-.66.483-1.178.757l-.488.258a16.213 16.213 0 0 0-.961 5.504c0 1.883.321 3.69.91 5.365l.173.075c.14.06.272.117.397.173 1.289.567 1.858.886 2.585 1.548.275.25.572.548.938.927 1.576 1.63 2.538 2.76 2.911 3.418.32.564.717 2.01.735 2.673v.008a14.685 14.685 0 0 0 6.543 1.534l.133-.002a14.7 14.7 0 0 0 2.472-.23c.026-.133.052-.31.087-.555l.063-.45c.039-.271.07-.48.1-.642.1-.549.188-.572.52-.771.243-.146 1-.492 1.683-.77a23.596 23.596 0 0 0 2.112-.99 6.51 6.51 0 0 1 .765-.374c.689-.27 1.196-.234 2.024.053.253.088.5.166.682.218a15.762 15.762 0 0 0 2.78-3.848 15.96 15.96 0 0 0 1.551-4.687 6.061 6.061 0 0 0-.267-.28" fill="#231F20"/><path d="M97.754 4.223c1.647-.843 2.301-1.004 3.16-.776.422.112 1.907.711 3.181 1.267-.545-.618-1.215-.976-3.295-1.927-.024-.012-.05-.023-.075-.034l-.52-.237c-1.433-.65-2.032-.754-2.886-.495-.76.23-3.21 1.613-3.568 2.013-.4.448-.369.813.168 1.974.082.176.162.356.235.522.405.367.786.943 1.112 1.687.213.125.48.249.814.38l-.055-.152c-.342-.934-.622-1.862-.622-2.06 0-.72.587-1.259 2.351-2.162zM86.618 15.567c.059.048.124.087.204.115-.647-1.18-1.443-3.02-1.446-3.508-.003-.54.776-1.928 2.127-3.794.865-1.195 1.288-1.635 1.895-1.969.321-.177 3.032-.325 3.911-.235-.186-.374-.375-.679-.537-.834-.364-.35-.845-.519-2.085-.733-1.216-.21-1.666-.176-2.142.205-.323 1.232-.667 1.92-1.408 3.014-.889 1.309-1.52 2.19-2.055 2.82-.042.656.086 1.474.392 2.528.37 1.274.752 2.072 1.144 2.391zM91.58 16.96l-.082.075-1.539-.005c-1.289-.005-1.914-.08-2.297-.3a2.267 2.267 0 0 0-.48.14c-.515.25-.85.843-.97 1.714-.056.407-.176 1.218-.266 1.802-.137.893-.157 1.306.022 1.762.056-.509.836-2.888 1.172-3.551.09-.178.29-.445.445-.593.278-.267.298-.27 2.08-.257 1.402.011 1.866.05 2.107.18.385.21 1.032.907 1.619 1.747.249.356.737.98 1.085 1.387.617.72.635.757.634 1.347-.002.487-.104.848-.517 1.832-.533 1.265-.908 1.893-1.32 2.2.748-.223 1.373-.458 1.617-.608a.299.299 0 0 0 .105-.09c.02-.04.059-.183.107-.387.062-.263.139-.628.212-1.007.43-2.248.19-2.895-2.047-5.506-.894-1.043-1.352-1.586-1.687-1.883zM103.416 20.045c-.456-.31-.892-.582-1.147-.698-.593-.27-.773-.229-1.864.432a17.11 17.11 0 0 1-1.542.823c-.787.35-1.571.9-1.803 1.265-.061.097-.16.425-.269.85.32-.078.787-.18 1.26-.275.762-.15 1.672-.41 2.071-.59.976-.442 1.953-.644 2.438-.506.669.191 1.885 1.599 2.596 2.995.035-.134.07-.272.106-.42a15.9 15.9 0 0 0 .172-.778c-.671-.74-1.821-2.384-1.961-2.864a2.73 2.73 0 0 1-.057-.234zM108.134 9.802c-.676-.497-1.03-.734-1.342-.818-.053 1.049-.278 1.383-1.079 1.99-.382.289-1.02.706-1.419.929-.657.365-1.07.476-1.642.415.001.443-.007 1.055.001 1.815.017 1.729.074 3.315.129 3.525.084.326.3.614.691.91.007-.479.04-1.082.097-1.864.123-1.674.385-3.373.582-3.776.121-.248.98-.915 2.396-1.862.505-.339.87-.388 1.265-.17.311.172 1.708 1.847 2.311 2.772.096.148.179.283.25.411-.093-1.088-.284-2.157-.476-2.54-.247-.493-.759-.997-1.764-1.737z" fill="#F9A50D"/><path d="M110.3 23.669a15.79 15.79 0 0 1-2.78 3.848 12.91 12.91 0 0 1-.682-.218c-.829-.287-1.336-.324-2.024-.053-.696 1.424-1.058 1.718-2.513 2.227-.622.217-1.436.467-1.809.556-.241.057-.5.098-.759.122-.03.163-.06.371-.1.643a9.162 9.162 0 0 0 3.455-.979c1.121-.555 1.617-.668 2.147-.488l.103.034a14.818 14.818 0 0 1-5.854 2.437 14.7 14.7 0 0 1-2.472.23l-.134.002c-2.34 0-4.56-.551-6.543-1.534v-.007c-.017-.664-.415-2.11-.734-2.673-.374-.66-1.336-1.788-2.911-3.42a21.192 21.192 0 0 0-.938-.926c.094.147.186.294.27.433.333.556.836 1.29 1.117 1.63.984 1.19 1.071 1.42 1.071 2.817v.863a15.733 15.733 0 0 1-5.516-7.275l.472-.016-.396-.173-.173-.075a16.137 16.137 0 0 1-.911-5.365 16.218 16.218 0 0 1 .961-5.504A15.733 15.733 0 0 1 88.955 2.9 14.727 14.727 0 0 1 97.838.62l.256.16c.338.214.803.46 1.033.55.09.033.242.093.429.164a6.27 6.27 0 0 1-.379-.543L99.053.75a14.872 14.872 0 0 1 7.167 3.17 15.81 15.81 0 0 1 4.604 6.155 4.616 4.616 0 0 1-.116.375c-.176.508-.173.534.125 1.739.362 1.457.462 3.226.26 4.576-.062.404-.09.84-.075 1.063.393-2.272.549-2.955.812-3.558l.086-.199a16.199 16.199 0 0 1-.066 4.912 15.988 15.988 0 0 1-1.55 4.687zM96.878.142c-8.615 0-15.624 7.252-15.624 16.167 0 8.914 7.01 16.166 15.624 16.166 8.616 0 15.625-7.252 15.625-16.166 0-8.915-7.009-16.167-15.625-16.167z" fill="#F9A50D"/><path d="M68.59 18.392c1.522.044 4.482.087 4.482 3.793 0 3.53-3.256 3.617-5.75 3.66h-5.2v-7.453h6.468zM68.25 6.405c1.438 0 3.933.13 3.933 3.094 0 3.182-2.748 3.27-4.44 3.313H62.12V6.405h6.13zm-13.233 25.02h12.6c3.424 0 5.834-.13 8.075-1.133 3.72-1.7 4.946-5.056 4.946-7.454 0-1.743-.591-3.444-1.649-4.62-1.648-1.919-4.058-2.31-5.876-2.616 1.607-.348 4.482-.959 5.834-4.097.127-.305.55-1.308.55-2.964 0-2.92-1.48-5.929-5.158-7.15-1.818-.609-4.651-.74-7.78-.74H55.019v30.775" fill="#fff"/><path d="M45.245.683v19.65c-.043 2.462-.043 6.132-5.252 6.132-1.91 0-3.995-.492-4.95-2.148-.52-.985-.564-2.328-.564-3.94V.684H26.75V18.32c-.043 4.297-.043 9.847 5.861 12.98 2.084 1.12 4.82 1.701 7.12 1.701 1.303 0 8.118-.268 11.418-5.729 1.693-2.864 1.737-5.909 1.78-8.952V.683h-7.685M0 32.213h7.337L7.12 12.34c2.084 4.207 2.605 5.191 5.383 9.891l5.73 9.982h7.511V.613h-7.336l.347 20.276c-1.433-2.776-2.17-4.208-4.601-8.639L7.51.612H0v31.6" fill="#F9A50D"/></svg>
